<svg xmlns="http://www.w3.org/2000/svg" xmlns:xlink="http://www.w3.org/1999/xlink" width="600" zoomAndPan="magnify" viewBox="0 0 450 449.999984" height="600" preserveAspectRatio="xMidYMid meet" version="1.0"><defs><clipPath id="7c608c891c"><path d="M 7.519531 128 L 227 128 L 227 421 L 7.519531 421 Z M 7.519531 128 " clip-rule="nonzero"/></clipPath></defs><path fill="#7b8798" d="M 92.316406 260.09375 L 141.78125 260.09375 C 155.085938 260.09375 166.5625 244.9375 166.5625 225.625 L 166.5625 51.433594 C 166.5625 32.117188 155.085938 16.96875 141.78125 16.96875 L 92.316406 16.96875 C 79.015625 16.96875 67.539062 32.117188 67.539062 51.433594 L 67.539062 225.625 C 67.539062 244.9375 79.015625 260.09375 92.316406 260.09375 Z M 92.316406 270.996094 C 72.226562 270.996094 56.632812 250.40625 56.632812 225.625 L 56.632812 51.433594 C 56.632812 26.65625 72.226562 6.0625 92.316406 6.0625 L 141.78125 6.0625 C 161.875 6.0625 177.464844 26.65625 177.464844 51.433594 L 177.464844 225.625 C 177.464844 250.40625 161.875 270.996094 141.78125 270.996094 L 92.316406 270.996094 " fill-opacity="1" fill-rule="nonzero"/><path fill="#5a3113" d="M 326.246094 309.488281 L 362.40625 309.488281 C 367.960938 309.488281 372.464844 304.980469 372.464844 299.429688 L 372.464844 275.511719 C 372.464844 269.953125 367.960938 265.453125 362.40625 265.453125 L 326.246094 265.453125 C 320.691406 265.453125 316.183594 269.953125 316.183594 275.511719 L 316.183594 299.429688 C 316.183594 304.980469 320.691406 309.488281 326.246094 309.488281 Z M 326.246094 325.839844 C 311.652344 325.839844 299.832031 314.019531 299.832031 299.429688 L 299.832031 275.511719 C 299.832031 260.921875 311.652344 249.089844 326.246094 249.089844 L 362.40625 249.089844 C 376.996094 249.089844 388.824219 260.921875 388.824219 275.511719 L 388.824219 299.429688 C 388.824219 314.019531 376.996094 325.839844 362.40625 325.839844 L 326.246094 325.839844 " fill-opacity="1" fill-rule="nonzero"/><path fill="#f57919" d="M 263.195312 291.617188 L 420.007812 291.617188 C 436.570312 291.617188 449.996094 305.039062 449.996094 321.601562 L 449.996094 420.007812 C 449.996094 436.570312 436.570312 449.992188 420.007812 449.992188 L 263.195312 449.992188 C 246.628906 449.992188 233.207031 436.570312 233.207031 420.007812 L 233.207031 321.601562 C 233.207031 305.039062 246.628906 291.617188 263.195312 291.617188 " fill-opacity="1" fill-rule="nonzero"/><path fill="#5a3113" d="M 437.867188 330.578125 C 424.316406 330.578125 413.335938 319.589844 413.335938 306.039062 C 413.65625 301 414.4375 295.414062 418.230469 291.621094 L 420.007812 291.621094 C 436.570312 291.621094 449.996094 305.046875 449.996094 321.605469 L 449.996094 327.054688 L 442.8125 330.078125 L 437.867188 330.578125 " fill-opacity="1" fill-rule="nonzero"/><path fill="#5a3113" d="M 416.683594 449.992188 C 413.195312 441.707031 414.078125 445.671875 413.339844 438.289062 C 413.339844 424.738281 424.320312 413.753906 437.867188 413.753906 C 445.398438 414.515625 441.289062 413.617188 449.996094 417.273438 L 449.996094 420.007812 C 449.996094 436.570312 436.570312 449.992188 420.007812 449.992188 L 416.683594 449.992188 " fill-opacity="1" fill-rule="nonzero"/><path fill="#5a3113" d="M 263.191406 449.992188 C 246.625 449.992188 233.203125 436.570312 233.203125 420.007812 L 233.203125 417.261719 C 241.878906 413.617188 237.777344 414.515625 245.296875 413.753906 C 258.847656 413.753906 269.832031 424.738281 269.832031 438.289062 C 269.085938 445.671875 269.972656 441.707031 266.488281 449.992188 L 263.191406 449.992188 " fill-opacity="1" fill-rule="nonzero"/><path fill="#5a3113" d="M 245.289062 330.570312 C 237.773438 329.8125 241.875 330.71875 233.203125 327.066406 L 233.203125 321.601562 C 233.203125 305.039062 246.625 291.617188 263.1875 291.617188 L 264.925781 291.617188 C 269.011719 295.300781 269.324219 301.0625 269.824219 306.039062 C 269.824219 319.585938 258.839844 330.570312 245.289062 330.570312 " fill-opacity="1" fill-rule="nonzero"/><path fill="#5a3113" d="M 54.109375 388.457031 C 59.953125 388.457031 64.6875 393.191406 64.6875 399.03125 L 64.6875 439.421875 C 64.6875 445.261719 59.953125 449.992188 54.109375 449.992188 C 48.265625 449.992188 43.535156 445.261719 43.535156 439.421875 L 43.535156 399.03125 C 43.535156 393.191406 48.265625 388.457031 54.109375 388.457031 " fill-opacity="1" fill-rule="nonzero"/><path fill="#5a3113" d="M 78.351562 388.457031 C 84.195312 388.457031 88.925781 393.191406 88.925781 399.03125 L 88.925781 439.421875 C 88.925781 445.261719 84.195312 449.992188 78.351562 449.992188 C 72.511719 449.992188 67.773438 445.261719 67.773438 439.421875 L 67.773438 399.03125 C 67.773438 393.191406 72.511719 388.457031 78.351562 388.457031 " fill-opacity="1" fill-rule="nonzero"/><path fill="#5a3113" d="M 155.757812 388.457031 C 161.601562 388.457031 166.332031 393.191406 166.332031 399.03125 L 166.332031 439.421875 C 166.332031 445.261719 161.59375 449.992188 155.757812 449.992188 C 149.914062 449.992188 145.175781 445.261719 145.175781 439.421875 L 145.175781 399.03125 C 145.175781 393.191406 149.910156 388.457031 155.757812 388.457031 " fill-opacity="1" fill-rule="nonzero"/><path fill="#5a3113" d="M 179.996094 388.457031 C 185.839844 388.457031 190.570312 393.191406 190.570312 399.03125 L 190.570312 439.421875 C 190.570312 445.261719 185.839844 449.992188 179.996094 449.992188 C 174.15625 449.992188 169.417969 445.261719 169.417969 439.421875 L 169.417969 399.03125 C 169.417969 393.191406 174.15625 388.457031 179.996094 388.457031 " fill-opacity="1" fill-rule="nonzero"/><g clip-path="url(#7c608c891c)"><path fill="#a9581c" d="M 48.316406 128.769531 L 185.785156 128.769531 C 208.292969 128.769531 226.554688 147.019531 226.554688 169.535156 L 226.554688 379.730469 C 226.554688 402.246094 208.292969 420.496094 185.785156 420.496094 L 48.316406 420.496094 C 25.792969 420.496094 7.546875 402.246094 7.546875 379.730469 L 7.546875 169.535156 C 7.546875 147.019531 25.792969 128.769531 48.316406 128.769531 " fill-opacity="1" fill-rule="nonzero"/></g><path fill="#5a3113" d="M 76.984375 151.804688 L 157.117188 151.804688 C 182.828125 151.804688 203.667969 171.855469 203.667969 196.59375 L 203.667969 352.671875 C 203.667969 377.410156 182.828125 397.457031 157.117188 397.457031 L 76.984375 397.457031 C 51.273438 397.457031 30.433594 377.410156 30.433594 352.671875 L 30.433594 196.59375 C 30.433594 171.855469 51.273438 151.804688 76.984375 151.804688 " fill-opacity="1" fill-rule="nonzero"/><path fill="#f57919" d="M 82.285156 163.515625 L 151.816406 163.515625 C 174.121094 163.515625 192.207031 181.652344 192.207031 204.035156 L 192.207031 345.230469 C 192.207031 367.613281 174.121094 385.75 151.816406 385.75 L 82.285156 385.75 C 59.980469 385.75 41.894531 367.613281 41.894531 345.230469 L 41.894531 204.035156 C 41.894531 181.652344 59.980469 163.515625 82.285156 163.515625 " fill-opacity="1" fill-rule="nonzero"/><path fill="#194260" d="M 82.964844 0.0078125 L 153.320312 0.0078125 L 153.320312 24.738281 L 82.964844 24.738281 L 82.964844 0.0078125 " fill-opacity="1" fill-rule="nonzero"/></svg>