<svg xmlns="http://www.w3.org/2000/svg" xmlns:xlink="http://www.w3.org/1999/xlink" width="600" zoomAndPan="magnify" viewBox="0 0 450 449.999984" height="600" preserveAspectRatio="xMidYMid meet" version="1.0"><defs><clipPath id="f87553095c"><path d="M 175 1.105469 L 314 1.105469 L 314 117 L 175 117 Z M 175 1.105469 " clip-rule="nonzero"/></clipPath></defs><path fill="#464749" d="M 296.082031 313.710938 C 293.808594 313.230469 291.511719 312.84375 289.289062 312.09375 C 288.445312 311.800781 287.5 311.683594 286.800781 311.199219 C 284.554688 309.652344 282.863281 310.402344 280.929688 311.972656 C 277.109375 315.066406 272.835938 317.484375 268.316406 319.441406 C 261.332031 322.460938 254.011719 322.945312 246.542969 322.511719 C 243.933594 322.367188 241.347656 321.929688 238.738281 321.710938 C 234.558594 321.375 230.472656 321.90625 226.632812 323.695312 C 225.835938 324.058594 225.035156 324.445312 224.382812 325.074219 C 223.296875 325.605469 222.402344 326.425781 221.460938 327.152344 C 219.429688 328.722656 217.28125 330.125 215.058594 331.40625 C 211.433594 333.460938 207.46875 334.113281 203.386719 334.234375 C 198.671875 334.015625 194.6875 332.035156 191.109375 329.132812 C 189.320312 327.683594 187.777344 326.015625 186.589844 324.007812 C 186.15625 323.285156 186.082031 322.65625 186.351562 321.859375 C 192.609375 302.449219 198.84375 283.039062 205.054688 263.605469 C 209.28125 250.429688 213.488281 237.257812 217.691406 224.085938 C 217.882812 224.058594 218.101562 224.035156 218.296875 224.035156 C 224.796875 224.277344 231.296875 224.519531 237.820312 224.761719 C 242.796875 224.929688 247.777344 225.101562 252.753906 225.292969 C 256.378906 225.4375 259.980469 225.582031 263.601562 225.726562 C 266.332031 225.824219 269.0625 225.898438 271.796875 226.019531 C 272.519531 226.042969 272.785156 225.800781 272.761719 225.074219 C 272.738281 223.578125 272.808594 222.101562 272.808594 220.605469 C 272.835938 206.269531 272.835938 191.960938 272.882812 177.628906 C 272.882812 176.5625 272.472656 176.320312 271.554688 176.347656 C 269.378906 176.371094 267.203125 176.296875 265.027344 176.320312 C 264.351562 176.320312 264.085938 176.152344 264.230469 175.425781 C 265.414062 169.117188 266.574219 162.785156 267.734375 156.453125 C 271.457031 156.71875 275.152344 157.035156 278.898438 156.960938 C 281.027344 156.914062 283.152344 156.9375 285.277344 156.9375 C 285.761719 156.9375 286.246094 156.914062 286.679688 157.179688 C 290.015625 168.730469 293.375 180.285156 296.707031 191.839844 C 303.621094 215.769531 310.53125 239.699219 317.417969 263.628906 C 321.1875 276.65625 324.933594 289.6875 328.726562 302.691406 C 328.96875 303.488281 328.75 303.945312 328.21875 304.480469 C 325.632812 307.089844 322.589844 309 319.253906 310.519531 C 318.84375 310.714844 318.457031 310.90625 318.070312 311.101562 C 313.625 312.816406 309.007812 313.785156 304.246094 314.097656 C 301.492188 314.292969 298.785156 313.929688 296.082031 313.710938 Z M 296.082031 313.710938 " fill-opacity="1" fill-rule="nonzero"/><g clip-path="url(#f87553095c)"><path fill="#f96164" d="M 226.316406 113.9375 C 224.699219 114.347656 223.078125 114.757812 221.4375 115.144531 C 215.5625 116.523438 209.621094 117.054688 203.601562 116.835938 C 203.628906 116.765625 203.628906 116.691406 203.601562 116.59375 C 203.699219 116.425781 203.820312 116.257812 203.867188 116.085938 C 204.933594 113.1875 206.527344 110.625 208.75 108.425781 C 211.40625 105.789062 214.523438 103.734375 217.351562 101.320312 C 221.484375 97.789062 224.167969 93.535156 224.382812 87.925781 C 224.457031 85.898438 225.0625 83.914062 226.222656 82.152344 C 228.734375 78.332031 232.261719 75.625 236.054688 73.28125 C 239.824219 70.933594 243.425781 68.519531 246.351562 65.085938 C 248.742188 62.257812 250.601562 59.164062 251.761719 55.683594 C 252.367188 53.820312 252.320312 53.820312 250.746094 52.589844 C 248.886719 51.140625 248.910156 51.140625 248.332031 53.410156 C 246.640625 59.914062 242.507812 64.578125 237 68.105469 C 232.867188 70.742188 228.855469 73.472656 225.375 77.003906 C 222.402344 80.046875 220.710938 83.648438 220.519531 87.832031 C 220.300781 92.59375 217.835938 95.953125 214.378906 98.78125 C 210.996094 101.558594 207.421875 104.074219 204.496094 107.386719 C 202.273438 109.921875 200.628906 112.800781 199.953125 116.136719 C 199.859375 116.160156 199.738281 116.160156 199.640625 116.183594 C 191.859375 114.683594 185.140625 111.347656 180.164062 104.96875 C 179.996094 104.679688 179.824219 104.386719 179.65625 104.074219 C 179.875 103.90625 179.898438 103.6875 179.921875 103.421875 C 180.042969 101.390625 180.234375 99.359375 180.671875 97.355469 C 181.492188 93.414062 182.871094 89.714844 185.890625 86.863281 C 188.429688 84.445312 191.617188 83.382812 194.902344 82.5625 C 199.859375 81.351562 203.722656 78.667969 206.480469 74.367188 C 208.363281 71.417969 209.378906 68.105469 210.5625 64.867188 C 211.648438 61.894531 213.148438 59.332031 216.507812 58.460938 C 220.613281 57.398438 224.722656 56.335938 228.804688 55.222656 C 233.203125 54.0625 236.78125 51.792969 238.519531 47.367188 C 239.800781 44.128906 240.914062 40.816406 242.121094 37.53125 C 242.339844 36.949219 242.265625 36.417969 241.710938 36.03125 C 240.890625 35.476562 240.066406 34.894531 239.269531 34.339844 C 238.90625 34.628906 238.882812 35.015625 238.761719 35.355469 C 237.820312 38.039062 236.851562 40.722656 235.984375 43.429688 C 234.75 47.222656 232.722656 50.195312 228.613281 51.285156 C 224.554688 52.347656 220.492188 53.484375 216.410156 54.5 C 212.496094 55.464844 209.644531 57.617188 207.90625 61.316406 C 206.890625 63.515625 206.210938 65.835938 205.320312 68.058594 C 204.039062 71.25 202.417969 74.199219 199.566406 76.324219 C 197.246094 78.042969 194.492188 78.621094 191.785156 79.394531 C 185.578125 81.160156 181.105469 84.882812 178.617188 90.902344 C 177.722656 93.050781 177.238281 95.324219 176.539062 97.523438 C 175.71875 95.566406 175.546875 93.460938 175.402344 91.382812 C 174.679688 80.578125 178.011719 71.273438 185.867188 63.660156 C 188.839844 60.757812 191.933594 58.003906 195.21875 55.488281 C 197.394531 53.820312 199.90625 52.878906 202.46875 52.007812 C 205.488281 50.992188 208.507812 50.003906 211.023438 47.949219 C 212.398438 46.835938 213.390625 45.507812 213.898438 43.765625 C 215.058594 39.800781 216.484375 35.933594 218.921875 32.597656 C 222.621094 27.523438 227.621094 24.453125 234 23.847656 C 239.390625 23.339844 243.621094 20.972656 246.832031 16.5 C 250.675781 11.109375 255.554688 6.785156 261.816406 4.367188 C 266.671875 2.53125 271.625 1.105469 276.894531 1.347656 C 281.96875 1.585938 286.753906 2.820312 291.078125 5.527344 C 292.550781 6.46875 294.121094 6.734375 295.789062 6.761719 C 298.398438 6.808594 301.007812 6.855469 303.621094 6.832031 C 305.335938 6.808594 306.496094 7.679688 307.535156 8.886719 C 309.757812 11.496094 310.601562 14.664062 311.0625 17.976562 C 311.496094 21.046875 311.351562 24.164062 311.449219 27.257812 C 311.519531 29.554688 311.957031 31.730469 312.800781 33.832031 C 313.816406 36.320312 314.011719 38.90625 313.480469 41.519531 C 313.09375 43.523438 312.003906 44.976562 310.09375 45.773438 C 308.164062 46.59375 306.15625 47.199219 304.007812 47.003906 C 303.234375 46.933594 303.0625 47.175781 302.992188 47.875 C 302.820312 49.421875 302.554688 50.96875 302.339844 52.539062 C 302.167969 52.539062 302.023438 52.566406 301.855469 52.566406 C 298.496094 52.589844 295.960938 49.976562 296.082031 46.644531 C 296.199219 43.453125 299.148438 40.960938 302.433594 41.347656 C 303.257812 41.445312 303.28125 41.109375 303.28125 40.503906 C 303.355469 37.480469 303.015625 34.484375 302.507812 31.511719 C 302.703125 31.027344 302.628906 30.640625 302.195312 30.328125 C 301.035156 24.597656 298.980469 19.257812 295.453125 14.398438 C 294.824219 17.566406 294.097656 20.539062 292.191406 23.027344 C 288.324219 28.078125 283.585938 32.140625 278.003906 35.1875 C 277.523438 34.75 277.230469 34.195312 276.917969 33.636719 C 276.773438 33.398438 276.75 32.9375 276.265625 33.226562 C 275.878906 33.46875 275.878906 33.785156 276.097656 34.144531 C 276.386719 34.628906 276.652344 35.113281 276.917969 35.597656 C 275.953125 36.226562 274.863281 36.515625 273.777344 36.78125 C 270.078125 37.652344 266.503906 37.53125 263.265625 35.257812 C 261.285156 33.855469 259.953125 33.929688 258.261719 35.691406 C 255.703125 38.375 255.824219 42.558594 258.433594 45.410156 C 260.195312 47.320312 262.347656 48.601562 264.59375 49.761719 C 267.421875 51.1875 269.210938 53.3125 269.425781 56.578125 C 269.523438 58.050781 269.210938 59.453125 268.917969 60.855469 C 268.410156 63.25 267.640625 65.59375 267.855469 68.082031 C 267.855469 69.96875 267.253906 71.660156 266.359375 73.28125 C 265.753906 73.28125 265.175781 73.304688 264.570312 73.304688 C 262.734375 73.328125 261.042969 73.789062 259.59375 74.972656 C 257.078125 75.285156 254.808594 76.179688 252.679688 77.582031 C 248.015625 80.628906 245.335938 85.390625 242.023438 89.59375 C 241.082031 90.78125 240.429688 92.183594 239.609375 93.460938 C 236.734375 98.03125 233.785156 102.550781 230.8125 107.070312 C 229.386719 109.246094 228.128906 111.542969 226.511719 113.621094 C 226.414062 113.695312 226.269531 113.765625 226.316406 113.9375 Z M 226.316406 113.9375 " fill-opacity="1" fill-rule="nonzero"/></g><path fill="#426dba" d="M 167.332031 299.210938 C 169.265625 300.03125 171.175781 300.828125 173.109375 301.652344 C 175.332031 302.617188 175.886719 303.875 175.089844 306.195312 C 171.585938 316.492188 167.574219 326.644531 163.757812 336.820312 C 152.207031 367.46875 140.628906 398.117188 129.078125 428.769531 C 129.03125 428.914062 128.960938 429.058594 128.910156 429.203125 C 128.621094 429.058594 128.332031 428.914062 128.066406 428.742188 C 124.199219 426.328125 119.125 426.953125 115.984375 430.265625 C 115.644531 430.628906 115.5 431.207031 114.917969 431.355469 C 110.523438 429.6875 106.101562 427.996094 101.703125 426.328125 C 101.265625 426.15625 100.832031 425.890625 100.324219 425.941406 C 98.972656 425.117188 97.449219 424.632812 95.925781 424.199219 C 95.683594 424.054688 95.46875 423.910156 95.226562 423.765625 C 96.070312 421.46875 96.894531 419.171875 97.738281 416.875 C 100.589844 409.164062 103.464844 401.476562 106.316406 393.765625 C 108.296875 388.425781 110.257812 383.082031 112.214844 377.742188 C 114.894531 370.515625 117.578125 363.289062 120.234375 356.085938 C 122.726562 349.339844 125.214844 342.621094 127.703125 335.878906 C 130.652344 327.902344 133.597656 319.925781 136.546875 311.949219 C 138.746094 306 140.96875 300.054688 143.121094 294.109375 C 143.675781 292.5625 144.425781 291.085938 144.714844 289.46875 C 144.933594 289.515625 145.148438 289.539062 145.222656 289.78125 L 145.292969 289.855469 L 145.367188 289.804688 C 145.535156 289.804688 145.730469 289.804688 145.898438 289.78125 C 146.550781 290.675781 147.515625 290.992188 148.53125 291.234375 C 148.703125 291.28125 148.894531 291.328125 149.0625 291.378906 C 149.257812 291.667969 149.546875 291.644531 149.835938 291.621094 C 151.527344 292.730469 153.4375 293.359375 155.324219 294.011719 C 156.773438 294.519531 158.101562 295.34375 159.625 295.777344 C 160.589844 296.066406 161.507812 296.742188 162.570312 296.960938 C 164.023438 298 165.664062 298.628906 167.332031 299.210938 Z M 148.4375 336.433594 C 148.410156 335.320312 147.953125 334.476562 146.890625 334.0625 C 145.851562 333.652344 144.90625 333.894531 144.132812 334.691406 C 143.578125 335.25 143.359375 335.996094 143.070312 336.699219 C 140.195312 344.023438 137.320312 351.371094 134.445312 358.695312 C 133.550781 360.96875 132.632812 363.261719 131.859375 365.582031 C 131.425781 366.914062 132.125 368.171875 133.332031 368.628906 C 134.46875 369.0625 135.726562 368.605469 136.425781 367.421875 C 136.691406 366.960938 136.886719 366.476562 137.078125 365.996094 C 140.726562 356.710938 144.351562 347.429688 148 338.148438 C 148.21875 337.59375 148.410156 337.039062 148.4375 336.433594 Z M 148.4375 336.433594 " fill-opacity="1" fill-rule="nonzero"/><path fill="#395ea1" d="M 144.714844 289.515625 C 144.425781 291.160156 143.675781 292.632812 143.121094 294.15625 C 140.96875 300.128906 138.746094 306.050781 136.546875 311.996094 C 133.597656 319.972656 130.652344 327.949219 127.703125 335.925781 C 125.214844 342.667969 122.726562 349.390625 120.234375 356.132812 C 117.554688 363.359375 114.871094 370.5625 112.214844 377.789062 C 110.230469 383.132812 108.296875 388.472656 106.316406 393.816406 C 103.464844 401.527344 100.589844 409.214844 97.738281 416.921875 C 96.894531 419.21875 96.070312 421.515625 95.226562 423.8125 C 95.007812 423.738281 94.765625 423.691406 94.550781 423.59375 C 92.277344 422.773438 90.078125 421.710938 87.734375 421.105469 C 86.382812 420.332031 84.957031 419.800781 83.433594 419.460938 C 82.441406 418.761719 81.234375 418.496094 80.121094 418.058594 C 75.894531 416.417969 71.640625 414.796875 67.414062 413.175781 C 65.308594 412.355469 64.851562 411.414062 65.648438 409.261719 C 67.703125 403.726562 69.757812 398.191406 71.859375 392.65625 C 81.234375 367.832031 90.417969 342.960938 100.035156 318.230469 C 104.578125 306.582031 109.097656 294.929688 113.589844 283.257812 C 113.929688 282.410156 114.265625 282.214844 115.183594 282.433594 C 124.777344 284.683594 134.371094 286.859375 143.964844 289.058594 C 144.039062 289.082031 144.132812 289.058594 144.207031 289.058594 C 144.375 289.203125 144.546875 289.347656 144.714844 289.515625 Z M 144.714844 289.515625 " fill-opacity="1" fill-rule="nonzero"/><path fill="#426dba" d="M 226.535156 113.621094 C 228.152344 111.566406 229.410156 109.269531 230.835938 107.070312 C 233.785156 102.550781 236.757812 98.03125 239.632812 93.460938 C 240.429688 92.183594 241.105469 90.78125 242.046875 89.59375 C 245.359375 85.390625 248.066406 80.628906 252.707031 77.582031 C 254.832031 76.179688 257.101562 75.285156 259.617188 74.972656 C 261.113281 74.828125 262.539062 75.214844 263.988281 75.527344 C 264.136719 75.601562 264.253906 75.695312 264.402344 75.769531 C 267.421875 77.316406 269.691406 79.46875 270.464844 82.949219 C 270.902344 84.980469 270.851562 87.03125 270.707031 89.0625 C 270.585938 90.902344 270.078125 92.664062 269.113281 94.308594 C 266.625 98.464844 264.183594 102.671875 261.71875 106.855469 C 257.875 113.378906 254.011719 119.90625 250.144531 126.433594 C 246.011719 133.417969 241.878906 140.378906 237.796875 147.363281 C 237.046875 148.621094 236.007812 149.757812 235.765625 151.28125 C 235.136719 151.472656 235.015625 152.078125 234.75 152.5625 C 230.667969 159.476562 226.582031 166.386719 222.5 173.300781 C 220.132812 177.3125 217.8125 181.351562 215.46875 185.386719 C 214.550781 186.667969 213.777344 188.070312 213.050781 189.472656 C 212.207031 190.875 211.289062 192.226562 210.515625 193.675781 C 210.03125 194.59375 209.621094 194.863281 208.628906 194.234375 C 206.960938 193.195312 205.199219 192.347656 203.480469 191.40625 C 199.15625 188.890625 194.808594 186.472656 190.386719 184.152344 C 188.574219 183.113281 186.785156 182.027344 184.925781 181.082031 C 184.03125 180.625 184.054688 180.261719 184.539062 179.488281 C 190.894531 169.578125 197.222656 159.644531 203.554688 149.710938 C 203.75 149.394531 203.917969 149.082031 204.109375 148.765625 C 204.183594 148.765625 204.230469 148.742188 204.304688 148.742188 C 207.566406 150.433594 210.996094 150.820312 214.574219 150.21875 C 218.078125 149.613281 220.878906 147.777344 223.222656 145.164062 C 227.863281 139.96875 229.917969 133.925781 228.878906 127.011719 C 228.347656 123.484375 226.460938 120.800781 223.105469 119.277344 C 223.128906 119.207031 223.128906 119.109375 223.105469 119.035156 C 224.167969 117.367188 225.375 115.75 226.269531 113.960938 C 226.269531 113.960938 226.269531 113.984375 226.269531 113.984375 C 226.390625 113.839844 226.460938 113.742188 226.535156 113.621094 Z M 226.535156 113.621094 " fill-opacity="1" fill-rule="nonzero"/><path fill="#fcca48" d="M 213.027344 189.472656 C 213.753906 188.046875 214.5 186.667969 215.445312 185.386719 C 215.371094 187.003906 215.273438 188.625 215.179688 190.535156 C 216.84375 187.660156 218.996094 185.507812 220.566406 182.898438 C 221 182.195312 221.484375 181.617188 221.292969 180.625 C 221.121094 179.683594 221.917969 179.027344 222.765625 178.640625 C 223.222656 178.425781 223.757812 178.328125 224.238281 178.109375 C 224.601562 177.941406 225.085938 177.796875 224.917969 177.167969 C 224.625 176.03125 225.300781 175.71875 226.246094 175.71875 C 228.566406 175.71875 230.910156 175.742188 233.230469 175.742188 C 242.460938 175.910156 251.714844 176.054688 260.945312 176.226562 C 261.621094 176.25 261.9375 176.054688 262.058594 175.332031 C 262.445312 172.960938 262.949219 170.59375 263.363281 168.226562 C 264.0625 164.238281 264.90625 160.273438 265.414062 156.234375 C 265.464844 156.089844 265.5625 155.945312 265.585938 155.800781 C 267.855469 141.949219 270.683594 128.222656 272.808594 114.347656 C 273.96875 106.757812 274.984375 99.144531 274.742188 91.433594 C 274.644531 88.144531 274.476562 84.832031 273.367188 81.691406 C 271.746094 77.171875 268.558594 75.09375 263.941406 75.574219 C 262.492188 75.285156 261.066406 74.875 259.566406 75.019531 C 261.019531 73.835938 262.710938 73.375 264.546875 73.351562 C 265.148438 73.351562 265.730469 73.328125 266.332031 73.328125 C 267.976562 73.449219 269.476562 73.957031 270.828125 74.898438 C 274.089844 77.171875 275.589844 80.484375 276.21875 84.253906 C 277.425781 91.578125 277.039062 98.949219 276.097656 106.25 C 274.695312 117.152344 272.738281 127.929688 270.730469 138.734375 C 269.644531 144.632812 268.679688 150.53125 267.664062 156.453125 C 266.503906 162.785156 265.34375 169.09375 264.160156 175.429688 C 264.015625 176.152344 264.28125 176.320312 264.957031 176.320312 C 267.132812 176.296875 269.304688 176.371094 271.480469 176.347656 C 272.421875 176.347656 272.835938 176.5625 272.808594 177.628906 C 272.761719 191.960938 272.761719 206.269531 272.738281 220.605469 C 272.738281 222.101562 272.664062 223.578125 272.6875 225.074219 C 272.714844 225.824219 272.449219 226.066406 271.722656 226.019531 C 268.992188 225.898438 266.261719 225.824219 263.53125 225.726562 C 259.90625 225.582031 256.304688 225.414062 252.679688 225.292969 C 247.703125 225.101562 242.726562 224.953125 237.746094 224.761719 C 231.246094 224.519531 224.746094 224.277344 218.222656 224.035156 C 218.027344 224.035156 217.8125 224.058594 217.617188 224.085938 C 216.167969 223.671875 214.671875 223.941406 213.195312 223.84375 C 212.714844 223.820312 212.230469 223.820312 211.746094 223.792969 C 211.046875 223.769531 210.707031 223.503906 210.753906 222.683594 C 211.070312 218.523438 211.3125 214.34375 211.578125 210.160156 C 211.867188 205.640625 212.207031 201.097656 212.496094 196.578125 C 212.738281 194.207031 212.882812 191.839844 213.027344 189.472656 Z M 234.242188 202.957031 C 235.910156 202.886719 237.289062 202.234375 238.207031 200.808594 C 238.570312 200.25 239.003906 200.011719 239.632812 199.839844 C 245.3125 198.316406 250.242188 195.464844 254.277344 191.164062 C 255.097656 190.292969 255.847656 189.328125 256.476562 188.3125 C 257.03125 187.390625 256.0625 187.390625 255.703125 187.03125 C 255.363281 186.714844 255.050781 186.546875 254.664062 187.125 C 251.160156 192.371094 246.109375 195.488281 240.234375 197.449219 C 239.390625 197.738281 239.027344 197.640625 238.761719 196.675781 C 238.207031 194.789062 236.828125 193.628906 234.847656 193.386719 C 232.769531 193.121094 230.980469 194.136719 229.992188 195.851562 C 229.699219 196.382812 229.84375 197.351562 229.121094 197.398438 C 228.492188 197.449219 227.839844 196.988281 227.210938 196.746094 C 226.996094 196.648438 226.777344 196.53125 226.582031 196.410156 C 224.796875 195.367188 223.175781 194.113281 222.160156 192.25 C 221.847656 191.671875 221.363281 191.285156 220.6875 191.648438 C 220.011719 192.007812 220.035156 192.636719 220.324219 193.21875 C 220.566406 193.726562 220.855469 194.207031 221.21875 194.644531 C 223.152344 197.035156 225.617188 198.632812 228.539062 199.503906 C 229.289062 199.71875 229.871094 200.058594 230.328125 200.785156 C 231.175781 202.28125 232.578125 202.886719 234.242188 202.957031 Z M 267.082031 201.945312 C 267.371094 195.078125 267.640625 188.191406 267.929688 181.324219 C 267.953125 180.695312 267.855469 180.308594 267.105469 180.382812 C 266.503906 180.457031 265.730469 180.019531 265.707031 181.230469 C 265.609375 185.363281 265.390625 189.519531 265.246094 193.652344 C 264.859375 203.226562 264.523438 212.796875 264.085938 222.367188 C 264.039062 223.648438 264.859375 223.433594 265.535156 223.554688 C 266.40625 223.722656 266.261719 223.070312 266.285156 222.5625 C 266.574219 215.695312 266.816406 208.832031 267.082031 201.945312 Z M 267.082031 201.945312 " fill-opacity="1" fill-rule="nonzero"/><path fill="#426dba" d="M 354.003906 75.84375 C 354.027344 75.867188 354.050781 75.914062 354.074219 75.9375 C 356.539062 76.808594 356.515625 76.785156 355.695312 79.296875 C 353.324219 86.621094 350.257812 93.632812 346.703125 100.425781 C 343.613281 106.320312 339.550781 111.445312 334.1875 115.507812 C 332.328125 116.910156 330.320312 118.070312 328.171875 119.011719 C 327.324219 114.417969 324.910156 111.058594 320.582031 109.199219 C 318.09375 108.132812 315.507812 108.039062 312.824219 108.351562 C 307.269531 109.027344 300.742188 113.042969 299.65625 119.300781 C 296.199219 117.972656 292.9375 116.304688 289.941406 114.128906 C 289.433594 113.765625 288.953125 113.476562 288.371094 113.285156 C 288.371094 110.550781 288.347656 107.84375 288.347656 105.113281 C 288.347656 104.558594 288.421875 103.929688 288.082031 103.46875 C 287.574219 102.746094 287.671875 101.972656 287.914062 101.320312 C 288.347656 100.15625 287.984375 99.023438 288.035156 97.886719 C 288.128906 95.347656 287.886719 92.808594 287.839844 90.246094 C 287.816406 88.289062 287.9375 86.355469 287.40625 84.445312 C 287.1875 83.671875 287.234375 82.875 287.695312 82.175781 C 289.53125 84.132812 291.367188 86.113281 293.179688 88.074219 C 296.417969 91.554688 299.777344 94.9375 303.667969 97.667969 C 306.859375 99.917969 310.363281 101.753906 314.542969 101.148438 C 317.925781 100.664062 320.871094 99.214844 323.144531 96.628906 C 327.6875 91.433594 330.515625 85.269531 332.785156 78.839844 C 333.726562 76.179688 334.671875 73.546875 335.589844 70.886719 C 335.878906 70.039062 336.265625 69.824219 337.085938 70.1875 C 337.714844 70.453125 338.390625 70.574219 339.042969 70.742188 C 344.046875 72.433594 349.023438 74.148438 354.003906 75.84375 Z M 354.003906 75.84375 " fill-opacity="1" fill-rule="nonzero"/><path fill="#fcd8e2" d="M 296.082031 313.710938 C 298.785156 313.90625 301.492188 314.269531 304.246094 314.097656 C 309.007812 313.785156 313.597656 312.792969 318.070312 311.101562 C 317.828125 312.816406 318.648438 314.316406 319.085938 315.863281 C 320.097656 319.441406 321.285156 322.96875 322.371094 326.523438 C 323.601562 330.582031 324.8125 334.644531 326.042969 338.707031 C 328.894531 348.058594 331.722656 357.414062 334.574219 366.769531 C 335.832031 370.878906 337.085938 374.960938 338.34375 379.070312 C 338.464844 379.457031 338.511719 379.84375 338.609375 380.230469 C 332.738281 382.574219 326.746094 384.65625 320.800781 386.804688 C 319.109375 381.441406 317.128906 376.171875 315.289062 370.851562 C 314.371094 368.21875 313.527344 365.558594 312.65625 362.902344 C 311.90625 360.628906 311.015625 358.355469 310.144531 356.109375 C 309.03125 353.160156 308.066406 350.136719 307.316406 347.042969 C 306.808594 344.988281 305.988281 342.960938 305.285156 340.929688 C 303.886719 336.867188 302.53125 332.808594 301.15625 328.746094 C 299.585938 324.152344 297.988281 319.585938 296.394531 314.992188 C 296.25 314.582031 296.175781 314.148438 296.082031 313.710938 Z M 296.082031 313.710938 " fill-opacity="1" fill-rule="nonzero"/><path fill="#395ea1" d="M 287.695312 82.175781 C 287.234375 82.875 287.1875 83.671875 287.40625 84.445312 C 287.9375 86.355469 287.816406 88.3125 287.839844 90.246094 C 287.886719 92.785156 288.128906 95.347656 288.035156 97.886719 C 287.984375 99.023438 288.347656 100.15625 287.914062 101.320312 C 287.671875 101.972656 287.597656 102.769531 288.082031 103.46875 C 288.394531 103.929688 288.347656 104.535156 288.347656 105.113281 C 288.347656 107.84375 288.371094 110.550781 288.371094 113.285156 C 288.105469 123.21875 287.863281 133.128906 287.597656 143.0625 C 287.574219 143.667969 287.597656 144.269531 287.5 144.875 C 287.285156 146.351562 287.210938 147.511719 289.097656 148.164062 C 290.789062 148.742188 291.511719 150.964844 291.199219 153.019531 C 290.933594 154.808594 289.386719 156.527344 287.671875 156.9375 C 287.332031 157.007812 286.96875 157.105469 286.632812 157.179688 C 286.195312 156.914062 285.714844 156.9375 285.230469 156.9375 C 283.105469 156.9375 280.976562 156.914062 278.851562 156.960938 C 275.128906 157.035156 271.410156 156.695312 267.6875 156.453125 C 268.703125 150.554688 269.667969 144.632812 270.757812 138.734375 C 272.761719 127.929688 274.71875 117.152344 276.121094 106.25 C 277.0625 98.925781 277.449219 91.578125 276.242188 84.253906 C 275.613281 80.484375 274.113281 77.171875 270.851562 74.898438 C 269.5 73.957031 268 73.449219 266.359375 73.328125 C 267.253906 71.707031 267.878906 70.015625 267.855469 68.132812 C 272.179688 68.832031 276.507812 69.507812 280.855469 70.210938 C 282.476562 70.5 284.070312 70.789062 285.691406 71.03125 C 286.730469 71.175781 287.140625 71.660156 286.996094 72.746094 C 286.679688 75.042969 286.824219 77.363281 286.824219 79.683594 C 286.824219 80.335938 287.332031 80.75 287.355469 81.351562 C 286.96875 81.738281 287.066406 81.980469 287.574219 82.078125 C 287.671875 82.078125 287.71875 82.101562 287.695312 82.175781 Z M 287.695312 82.175781 " fill-opacity="1" fill-rule="nonzero"/><path fill="#47484a" d="M 213.246094 386.25 C 215.417969 386.855469 215.394531 386.855469 214.910156 389.101562 C 213.484375 395.628906 212.0625 402.15625 210.660156 408.679688 C 210.273438 410.492188 210.585938 412.1875 211.820312 413.660156 C 214.285156 416.632812 217.472656 418.664062 220.832031 420.429688 C 226.292969 423.304688 231.972656 425.671875 237.964844 427.125 C 238.496094 427.246094 238.691406 427.488281 238.617188 428.042969 C 238.351562 429.929688 238.109375 431.789062 237.917969 433.675781 C 237.820312 434.519531 237.3125 434.230469 236.878906 434.132812 C 230.738281 432.851562 224.601562 431.59375 218.464844 430.316406 C 212.664062 429.128906 206.890625 427.921875 201.089844 426.738281 C 200.148438 426.542969 199.542969 426.132812 199.058594 425.285156 C 197.511719 422.652344 195.894531 420.066406 194.300781 417.457031 C 194.15625 417.238281 194.082031 416.949219 193.648438 416.804688 C 192.632812 418.953125 191.546875 421.082031 190.601562 423.28125 C 190.191406 424.199219 189.734375 424.441406 188.765625 424.175781 C 187.460938 423.8125 186.109375 423.546875 184.753906 423.351562 C 183.886719 423.230469 183.765625 422.871094 183.933594 422.070312 C 185.792969 413.007812 187.628906 403.945312 189.492188 394.878906 C 190.265625 391.109375 191.109375 387.339844 191.785156 383.542969 C 192.003906 382.335938 192.488281 382.117188 193.550781 382.429688 C 194.394531 382.671875 195.289062 382.746094 196.160156 382.914062 C 196.621094 383.011719 197.101562 383.15625 197.5625 383.230469 C 202.757812 384.242188 208 385.234375 213.246094 386.25 Z M 213.246094 386.25 " fill-opacity="1" fill-rule="nonzero"/><path fill="#47484a" d="M 320.777344 386.804688 C 326.71875 384.65625 332.6875 382.550781 338.585938 380.230469 C 338.851562 380.160156 339.140625 380.109375 339.40625 380.015625 C 341.292969 379.363281 341.292969 379.363281 341.894531 381.175781 C 344.117188 387.652344 346.316406 394.105469 348.542969 400.558594 C 349.195312 402.421875 350.449219 403.679688 352.335938 404.28125 C 355.910156 405.441406 359.609375 405.539062 363.304688 405.296875 C 369.46875 404.910156 375.53125 403.992188 381.453125 402.15625 C 382.082031 401.960938 382.296875 402.203125 382.539062 402.734375 C 383.191406 404.28125 383.871094 405.851562 384.617188 407.351562 C 385.03125 408.171875 384.933594 408.488281 384.039062 408.800781 C 377.851562 410.953125 371.667969 413.152344 365.503906 415.351562 C 360.164062 417.238281 354.824219 419.125 349.484375 421.058594 C 348.734375 421.324219 348.128906 421.273438 347.453125 420.910156 C 344.722656 419.460938 341.96875 418.058594 339.214844 416.609375 C 338.441406 416.199219 338.152344 416.269531 338.269531 417.238281 C 338.535156 419.390625 338.683594 421.566406 338.949219 423.714844 C 339.042969 424.511719 338.828125 424.875 338.078125 425.09375 C 336.699219 425.527344 335.324219 425.988281 333.996094 426.542969 C 333.195312 426.882812 332.882812 426.6875 332.59375 425.914062 C 330.296875 419.390625 327.953125 412.886719 325.632812 406.386719 C 323.628906 400.777344 321.644531 395.167969 319.640625 389.585938 C 318.941406 387.605469 318.914062 387.605469 320.777344 386.804688 Z M 320.777344 386.804688 " fill-opacity="1" fill-rule="nonzero"/><path fill="#fdd9e2" d="M 280.878906 70.1875 C 276.554688 69.484375 272.230469 68.808594 267.878906 68.105469 C 267.664062 65.617188 268.410156 63.273438 268.945312 60.878906 C 269.257812 59.453125 269.546875 58.050781 269.449219 56.601562 C 269.234375 53.339844 267.445312 51.210938 264.617188 49.785156 C 262.371094 48.625 260.195312 47.34375 258.457031 45.433594 C 255.847656 42.582031 255.726562 38.402344 258.285156 35.71875 C 259.980469 33.953125 261.332031 33.878906 263.289062 35.28125 C 266.503906 37.554688 270.101562 37.675781 273.800781 36.804688 C 274.886719 36.539062 275.976562 36.25 276.941406 35.621094 C 278.367188 37.046875 279.9375 38.0625 282.089844 37.601562 C 284.167969 37.167969 285.859375 36.078125 287.210938 34.460938 C 287.40625 34.21875 287.839844 33.929688 287.355469 33.566406 C 286.921875 33.226562 286.730469 33.613281 286.488281 33.878906 C 285.449219 35.160156 284.09375 36.03125 282.546875 36.539062 C 280.734375 37.121094 279.238281 36.660156 278.03125 35.210938 C 283.613281 32.140625 288.347656 28.101562 292.214844 23.050781 C 294.097656 20.5625 294.847656 17.589844 295.476562 14.421875 C 299.003906 19.28125 301.035156 24.648438 302.21875 30.351562 C 302.097656 30.472656 301.976562 30.570312 301.902344 30.691406 C 300.332031 32.792969 299.703125 32.9375 297.507812 31.535156 C 297.289062 31.390625 297.121094 31.222656 296.925781 31.535156 C 296.734375 31.851562 296.78125 32.089844 297.046875 32.382812 C 298.011719 33.492188 299.730469 33.785156 300.960938 32.960938 C 301.542969 32.574219 302.023438 32.019531 302.554688 31.535156 C 303.0625 34.507812 303.402344 37.507812 303.328125 40.527344 C 303.304688 41.132812 303.304688 41.46875 302.484375 41.375 C 299.199219 40.988281 296.25 43.453125 296.128906 46.667969 C 296.007812 50.003906 298.546875 52.613281 301.902344 52.589844 C 302.074219 52.589844 302.21875 52.566406 302.386719 52.566406 C 301.976562 56.890625 300.597656 60.878906 297.675781 64.144531 C 296.007812 65.980469 293.761719 66.972656 291.175781 67.117188 C 287.960938 67.285156 284.917969 66.585938 281.894531 65.640625 C 281.847656 65.109375 281.363281 64.964844 281.027344 64.722656 C 280.058594 64.070312 279.164062 63.34375 278.246094 62.644531 C 276.75 61.460938 275.515625 60.007812 274.042969 58.777344 C 275.324219 62.402344 277.085938 65.714844 279.960938 68.347656 C 280.277344 68.640625 280.664062 68.90625 281.148438 68.734375 C 280.90625 69.195312 280.832031 69.679688 280.878906 70.1875 Z M 276.53125 53.53125 C 280.253906 53.53125 283.273438 50.460938 283.273438 46.765625 C 283.25 43.136719 280.203125 40.066406 276.578125 40.042969 C 272.882812 40.019531 269.789062 43.089844 269.789062 46.789062 C 269.765625 50.511719 272.785156 53.554688 276.53125 53.53125 Z M 289.941406 46.8125 C 292.070312 46.789062 293.300781 45.988281 294.507812 45.214844 C 294.824219 45 294.945312 44.757812 294.703125 44.417969 C 294.460938 44.082031 294.242188 44.25 294.003906 44.417969 C 293.351562 44.804688 292.722656 45.242188 292.019531 45.554688 C 290.351562 46.28125 289.074219 45.820312 288.128906 44.273438 C 287.382812 43.015625 286.96875 41.640625 286.511719 40.261719 C 286.414062 39.972656 286.4375 39.5625 285.929688 39.730469 C 285.542969 39.851562 285.496094 40.117188 285.59375 40.480469 C 286.125 42.171875 286.609375 43.863281 287.671875 45.3125 C 288.394531 46.304688 289.3125 46.835938 289.941406 46.8125 Z M 293.664062 40.285156 C 294.847656 40.019531 296.128906 39.730469 297.410156 39.414062 C 298.011719 39.269531 298.132812 38.835938 297.84375 38.304688 C 296.828125 36.492188 295.8125 34.679688 294.773438 32.863281 C 294.605469 32.574219 294.339844 32.164062 293.929688 32.40625 C 293.46875 32.671875 293.832031 33.035156 293.976562 33.324219 C 294.800781 34.800781 295.574219 36.273438 296.46875 37.699219 C 296.925781 38.449219 296.660156 38.667969 295.960938 38.789062 C 295.089844 38.957031 294.242188 39.148438 293.398438 39.367188 C 293.109375 39.441406 292.695312 39.535156 292.84375 39.996094 C 292.9375 40.359375 293.300781 40.261719 293.664062 40.285156 Z M 260.65625 37.625 C 260.292969 37.820312 260.367188 38.085938 260.582031 38.375 C 261.597656 39.828125 262.613281 41.277344 263.628906 42.703125 C 263.773438 42.894531 263.894531 43.1875 264.183594 43.042969 C 264.59375 42.847656 264.28125 42.535156 264.160156 42.339844 C 263.167969 40.867188 262.152344 39.414062 261.164062 37.964844 C 261.042969 37.820312 260.921875 37.675781 260.65625 37.625 Z M 260.65625 37.625 " fill-opacity="1" fill-rule="nonzero"/><path fill="#fcd8e2" d="M 213.246094 386.25 C 208 385.234375 202.757812 384.242188 197.511719 383.230469 C 197.054688 383.132812 196.570312 383.011719 196.113281 382.914062 C 196.835938 378.105469 197.585938 373.292969 198.261719 368.460938 C 199.035156 363.046875 199.6875 357.605469 200.511719 352.21875 C 201.285156 347.09375 202.203125 341.96875 203.046875 336.867188 C 203.191406 335.996094 203.289062 335.128906 203.386719 334.257812 C 207.46875 334.136719 211.433594 333.484375 215.058594 331.429688 C 217.304688 330.171875 219.429688 328.769531 221.460938 327.175781 C 222.402344 326.449219 223.296875 325.628906 224.382812 325.097656 C 224.214844 327.660156 223.539062 330.148438 223.105469 332.664062 C 221.945312 339.117188 220.734375 345.546875 219.527344 351.976562 C 218.632812 356.808594 217.667969 361.621094 216.75 366.453125 C 215.589844 372.617188 214.429688 378.78125 213.292969 384.945312 C 213.21875 385.355469 213.269531 385.789062 213.246094 386.25 Z M 213.246094 386.25 " fill-opacity="1" fill-rule="nonzero"/><path fill="#48494b" d="M 144.714844 289.515625 C 144.546875 289.371094 144.375 289.226562 144.207031 289.058594 C 144.640625 287.898438 145.078125 286.761719 145.535156 285.601562 C 156.097656 259.59375 166.65625 233.609375 177.214844 207.625 C 177.554688 206.828125 177.84375 206.269531 176.5625 205.957031 C 175.257812 205.640625 174.652344 204.359375 174.894531 203.128906 C 175.113281 201.96875 176.105469 201.144531 177.457031 201.171875 C 178.691406 201.195312 179.945312 201.316406 181.179688 201.410156 C 183.835938 201.726562 186.519531 202.089844 189.199219 202.378906 C 191.160156 202.570312 192.171875 203.757812 191.90625 205.714844 C 191.859375 206.027344 191.761719 206.34375 191.761719 206.65625 C 191.738281 207.601562 191.230469 207.71875 190.410156 207.625 C 188.5 207.359375 186.566406 207.261719 184.65625 206.972656 C 183.378906 206.777344 182.652344 207.140625 182.460938 208.445312 C 182.363281 208.664062 182.242188 208.882812 182.144531 209.097656 C 172.960938 231.675781 163.804688 254.273438 154.621094 276.851562 C 152.710938 281.539062 150.925781 286.277344 148.824219 290.871094 C 147.734375 290.847656 146.914062 290.074219 145.898438 289.855469 C 145.730469 289.855469 145.535156 289.855469 145.367188 289.878906 C 145.320312 289.878906 145.269531 289.855469 145.222656 289.855469 C 145.148438 289.566406 144.90625 289.566406 144.714844 289.515625 Z M 144.714844 289.515625 " fill-opacity="1" fill-rule="nonzero"/><path fill="#48494b" d="M 167.332031 299.210938 C 165.664062 298.628906 164.023438 297.976562 162.546875 296.984375 C 164.214844 292.585938 165.90625 288.1875 167.574219 283.789062 C 176.394531 260.511719 185.191406 237.234375 194.011719 213.933594 C 195.023438 213.882812 195.507812 213.304688 195.820312 212.363281 C 196.859375 209.386719 197.78125 206.367188 199.035156 203.464844 C 201.089844 203.585938 203.144531 203.613281 205.148438 204 C 206.648438 204.265625 207.542969 205.253906 207.46875 206.585938 C 207.398438 207.9375 206.285156 208.929688 204.761719 208.953125 C 204.59375 208.953125 204.449219 208.929688 204.28125 208.929688 C 201.5 208.710938 201.5 208.710938 200.511719 211.371094 C 189.5625 240.253906 178.640625 269.140625 167.695312 298.023438 C 167.550781 298.4375 167.453125 298.824219 167.332031 299.210938 Z M 167.332031 299.210938 " fill-opacity="1" fill-rule="nonzero"/><path fill="#fdd9e2" d="M 199.035156 203.492188 C 197.753906 206.390625 196.859375 209.414062 195.820312 212.386719 C 195.484375 213.328125 195.023438 213.910156 194.011719 213.957031 C 193.527344 213.714844 192.921875 213.644531 192.558594 213.160156 C 192.050781 212.484375 191.449219 212.484375 190.652344 212.652344 C 188.042969 213.207031 185.648438 212.84375 183.789062 210.667969 C 183.207031 209.96875 182.992188 209.097656 182.433594 208.398438 C 182.628906 207.09375 183.351562 206.730469 184.632812 206.921875 C 186.542969 207.238281 188.476562 207.332031 190.386719 207.574219 C 191.207031 207.695312 191.714844 207.550781 191.738281 206.609375 C 191.738281 206.292969 191.835938 205.980469 191.882812 205.667969 C 192.148438 203.707031 191.132812 202.523438 189.175781 202.332031 C 186.496094 202.066406 183.835938 201.703125 181.15625 201.363281 C 180.648438 199.019531 179.847656 196.699219 181.128906 194.328125 C 181.832031 193.046875 182.941406 192.105469 183.910156 191.042969 C 186.011719 188.671875 188.234375 186.402344 190.410156 184.105469 C 194.808594 186.425781 199.15625 188.867188 203.457031 191.382812 C 202.925781 191.71875 202.878906 192.324219 202.707031 192.832031 C 201.402344 196.382812 200.125 199.890625 199.035156 203.492188 Z M 199.035156 203.492188 " fill-opacity="1" fill-rule="nonzero"/><path fill="#f64345" d="M 176.5625 97.523438 C 177.265625 95.324219 177.746094 93.050781 178.640625 90.902344 C 181.128906 84.882812 185.601562 81.160156 191.8125 79.394531 C 194.492188 78.621094 197.246094 78.042969 199.589844 76.324219 C 202.441406 74.199219 204.0625 71.25 205.34375 68.058594 C 206.238281 65.835938 206.914062 63.515625 207.929688 61.316406 C 209.667969 57.617188 212.519531 55.464844 216.433594 54.5 C 220.519531 53.507812 224.554688 52.371094 228.636719 51.285156 C 232.746094 50.195312 234.800781 47.246094 236.007812 43.429688 C 236.878906 40.722656 237.84375 38.039062 238.785156 35.355469 C 238.90625 35.015625 238.929688 34.628906 239.292969 34.339844 C 240.089844 34.894531 240.914062 35.476562 241.734375 36.03125 C 242.289062 36.417969 242.363281 36.925781 242.144531 37.53125 C 240.960938 40.816406 239.824219 44.128906 238.542969 47.367188 C 236.804688 51.792969 233.230469 54.039062 228.832031 55.222656 C 224.722656 56.3125 220.613281 57.398438 216.53125 58.460938 C 213.171875 59.332031 211.675781 61.871094 210.585938 64.867188 C 209.402344 68.105469 208.386719 71.417969 206.503906 74.367188 C 203.75 78.644531 199.882812 81.328125 194.929688 82.539062 C 191.640625 83.335938 188.453125 84.421875 185.914062 86.839844 C 182.894531 89.714844 181.515625 93.390625 180.695312 97.332031 C 180.285156 99.335938 180.066406 101.367188 179.945312 103.398438 C 179.921875 103.640625 179.921875 103.878906 179.679688 104.050781 C 179.34375 103.566406 179.003906 103.082031 178.664062 102.574219 C 177.890625 101.414062 177.578125 100.039062 176.757812 98.902344 C 176.707031 98.441406 176.636719 97.984375 176.5625 97.523438 Z M 176.5625 97.523438 " fill-opacity="1" fill-rule="nonzero"/><path fill="#fdd9e2" d="M 354.003906 75.84375 C 349.023438 74.148438 344.046875 72.433594 339.070312 70.742188 C 339.070312 66.125 339.070312 61.484375 339.070312 56.867188 C 339.070312 55.175781 340.277344 54.085938 341.945312 54.304688 C 342.933594 54.425781 343.539062 55.03125 343.636719 56.046875 C 343.683594 56.601562 343.707031 57.15625 344 57.738281 C 344.117188 57.617188 344.238281 57.519531 344.3125 57.398438 C 345.761719 54.160156 348.589844 54.28125 351.390625 54.59375 C 353.398438 54.835938 355.28125 55.515625 357.070312 56.503906 C 359.414062 57.785156 360.863281 60.6875 360.019531 63.175781 C 358.691406 67.1875 357.214844 71.128906 354.847656 74.65625 C 354.558594 75.066406 354.269531 75.457031 354.003906 75.84375 Z M 342.960938 63.273438 C 342.886719 64.554688 343.613281 65.230469 344.601562 65.738281 C 346.824219 66.898438 349.265625 67.429688 351.683594 68.035156 C 352.191406 68.15625 352.699219 68.226562 353.230469 68.277344 C 353.640625 68.300781 353.929688 68.105469 354.003906 67.695312 C 354.074219 67.285156 353.882812 66.996094 353.519531 66.824219 C 353.253906 66.730469 352.988281 66.65625 352.722656 66.585938 C 350.5 66.003906 348.273438 65.519531 346.148438 64.675781 C 345.109375 64.265625 344.410156 63.730469 344.820312 62.449219 C 345.011719 61.847656 345.039062 61.195312 345.0625 60.542969 C 345.085938 60.082031 344.917969 59.648438 344.359375 59.574219 C 343.78125 59.503906 343.5625 59.890625 343.464844 60.347656 C 343.273438 61.339844 343.128906 62.328125 342.960938 63.273438 Z M 342.960938 63.273438 " fill-opacity="1" fill-rule="nonzero"/><path fill="#294ea2" d="M 299.679688 119.300781 C 300.769531 113.042969 307.292969 109.003906 312.851562 108.351562 C 315.53125 108.039062 318.117188 108.132812 320.605469 109.199219 C 324.933594 111.058594 327.375 114.445312 328.195312 119.011719 C 328.171875 119.085938 328.144531 119.132812 328.144531 119.207031 C 327.878906 119.300781 327.613281 119.375 327.347656 119.472656 C 320.703125 122.515625 313.839844 123.242188 306.710938 121.671875 C 304.320312 121.140625 302.046875 120.21875 299.730469 119.472656 C 299.703125 119.421875 299.679688 119.375 299.679688 119.300781 Z M 299.679688 119.300781 " fill-opacity="1" fill-rule="nonzero"/><path fill="#48494b" d="M 114.894531 431.402344 C 115.476562 431.257812 115.597656 430.675781 115.957031 430.316406 C 119.101562 427.003906 124.175781 426.375 128.039062 428.792969 C 128.308594 428.960938 128.597656 429.082031 128.886719 429.25 C 129.515625 429.976562 130.238281 430.652344 130.796875 431.425781 C 134.007812 435.921875 132.558594 442.8125 127.773438 445.855469 C 123.085938 448.855469 116.902344 447.332031 114.21875 442.449219 C 112.429688 439.183594 112.695312 435.875 114.339844 432.636719 C 114.558594 432.199219 114.894531 431.863281 114.894531 431.402344 Z M 117.410156 437.542969 C 117.410156 440.613281 119.65625 442.90625 122.675781 442.933594 C 125.625 442.957031 128.039062 440.5625 128.066406 437.589844 C 128.066406 434.519531 125.792969 432.394531 122.75 432.222656 C 119.898438 432.101562 117.167969 434.859375 117.410156 437.542969 Z M 117.410156 437.542969 " fill-opacity="1" fill-rule="nonzero"/><path fill="#48494b" d="M 83.433594 419.484375 C 84.957031 419.824219 86.382812 420.355469 87.734375 421.128906 C 85.316406 422.628906 84.546875 425.746094 85.972656 428.285156 C 87.277344 430.628906 90.441406 431.644531 92.859375 430.460938 C 95.46875 429.179688 96.167969 426.929688 95.902344 424.246094 C 97.425781 424.683594 98.921875 425.140625 100.300781 425.988281 C 99.960938 430.21875 97.882812 433.238281 93.871094 434.691406 C 89.8125 436.164062 85.34375 434.640625 82.878906 431.113281 C 80.414062 427.605469 80.628906 423.015625 83.433594 419.484375 Z M 83.433594 419.484375 " fill-opacity="1" fill-rule="nonzero"/><path fill="#a0b5dc" d="M 204.328125 148.71875 C 204.253906 148.71875 204.207031 148.742188 204.132812 148.742188 C 201.71875 146.738281 201.695312 146.738281 203.507812 144.101562 C 208.917969 136.171875 214.355469 128.269531 219.792969 120.367188 C 221.074219 118.503906 221.074219 118.480469 223.152344 119.011719 C 223.152344 119.085938 223.152344 119.179688 223.152344 119.253906 C 223.007812 119.398438 222.863281 119.519531 222.742188 119.6875 C 217.910156 127.253906 213.050781 134.820312 208.242188 142.410156 C 206.914062 144.488281 205.441406 146.496094 204.328125 148.71875 Z M 204.328125 148.71875 " fill-opacity="1" fill-rule="nonzero"/><path fill="#a0b5dc" d="M 299.730469 119.472656 C 302.046875 120.246094 304.296875 121.164062 306.710938 121.671875 C 313.839844 123.21875 320.726562 122.515625 327.347656 119.472656 C 327.589844 119.351562 327.878906 119.277344 328.144531 119.207031 C 328.824219 122.421875 328.847656 122.492188 325.679688 123.339844 C 321.1875 124.570312 316.597656 125.320312 311.90625 125.007812 C 307.921875 124.742188 304.101562 123.75 300.527344 121.863281 C 299.34375 121.234375 299.753906 120.339844 299.730469 119.472656 Z M 299.730469 119.472656 " fill-opacity="1" fill-rule="nonzero"/><path fill="#f28a87" d="M 176.78125 98.925781 C 177.625 100.039062 177.917969 101.4375 178.691406 102.597656 C 179.027344 103.082031 179.367188 103.566406 179.703125 104.074219 C 179.875 104.363281 180.042969 104.652344 180.210938 104.96875 C 179.609375 105.476562 179.800781 106.152344 179.945312 106.734375 C 180.089844 107.265625 179.921875 107.457031 179.488281 107.628906 C 178.808594 107.867188 178.109375 108.085938 177.480469 108.402344 C 176.5625 108.835938 176.175781 108.425781 176.152344 107.578125 C 176.007812 104.894531 176.152344 102.210938 176.464844 99.554688 C 176.464844 99.3125 176.660156 99.117188 176.78125 98.925781 Z M 176.78125 98.925781 " fill-opacity="1" fill-rule="nonzero"/><path fill="#f28a87" d="M 281.097656 68.734375 C 280.589844 68.90625 280.226562 68.640625 279.914062 68.347656 C 277.039062 65.714844 275.300781 62.402344 273.992188 58.777344 C 275.46875 60.007812 276.699219 61.460938 278.199219 62.644531 C 279.117188 63.371094 280.011719 64.09375 280.976562 64.722656 C 281.316406 64.964844 281.800781 65.109375 281.847656 65.640625 C 281.605469 66.65625 281.074219 67.648438 281.097656 68.734375 Z M 281.097656 68.734375 " fill-opacity="1" fill-rule="nonzero"/><path fill="#f28a87" d="M 199.6875 116.160156 C 199.785156 116.136719 199.90625 116.136719 200.003906 116.109375 C 201.164062 116.644531 202.394531 116.617188 203.628906 116.59375 C 203.628906 116.667969 203.628906 116.738281 203.628906 116.835938 C 203.457031 118.3125 203.3125 119.785156 203.121094 121.234375 C 203 122.152344 201.453125 121.863281 200.558594 122.203125 C 200.246094 122.324219 199.785156 122.589844 199.617188 122.128906 C 199.398438 121.5 199.351562 120.824219 199.421875 120.125 C 199.542969 118.792969 199.589844 117.464844 199.6875 116.160156 Z M 199.6875 116.160156 " fill-opacity="1" fill-rule="nonzero"/><path fill="#426dba" d="M 287.621094 82.054688 C 287.113281 81.957031 287.019531 81.714844 287.40625 81.328125 C 287.648438 81.523438 287.597656 81.789062 287.621094 82.054688 Z M 287.621094 82.054688 " fill-opacity="1" fill-rule="nonzero"/><path fill="#f64345" d="M 203.628906 116.59375 C 202.394531 116.617188 201.164062 116.644531 200.003906 116.109375 C 200.679688 112.75 202.324219 109.898438 204.546875 107.359375 C 207.445312 104.050781 211.046875 101.535156 214.429688 98.757812 C 217.882812 95.929688 220.347656 92.570312 220.566406 87.804688 C 220.761719 83.648438 222.453125 80.046875 225.421875 76.976562 C 228.878906 73.449219 232.890625 70.71875 237.046875 68.082031 C 242.53125 64.578125 246.6875 59.914062 248.378906 53.386719 C 248.960938 51.113281 248.933594 51.113281 250.796875 52.566406 C 252.367188 53.773438 252.414062 53.796875 251.8125 55.660156 C 250.652344 59.164062 248.789062 62.257812 246.398438 65.0625 C 243.5 68.492188 239.875 70.910156 236.105469 73.253906 C 232.308594 75.601562 228.78125 78.308594 226.269531 82.125 C 225.109375 83.890625 224.503906 85.871094 224.433594 87.902344 C 224.214844 93.535156 221.53125 97.765625 217.402344 101.292969 C 214.574219 103.710938 211.457031 105.789062 208.796875 108.402344 C 206.597656 110.574219 204.980469 113.136719 203.917969 116.0625 C 203.820312 116.257812 203.722656 116.425781 203.628906 116.59375 Z M 203.628906 116.59375 " fill-opacity="1" fill-rule="nonzero"/><path fill="#48494b" d="M 278.003906 35.210938 C 279.214844 36.660156 280.710938 37.121094 282.523438 36.539062 C 284.09375 36.03125 285.421875 35.160156 286.460938 33.878906 C 286.679688 33.589844 286.875 33.226562 287.332031 33.566406 C 287.816406 33.929688 287.382812 34.21875 287.1875 34.460938 C 285.835938 36.078125 284.144531 37.167969 282.066406 37.601562 C 279.914062 38.0625 278.34375 37.023438 276.917969 35.621094 C 276.652344 35.136719 276.386719 34.652344 276.097656 34.171875 C 275.878906 33.808594 275.878906 33.492188 276.265625 33.25 C 276.75 32.960938 276.796875 33.421875 276.917969 33.664062 C 277.207031 34.21875 277.523438 34.773438 278.003906 35.210938 Z M 278.003906 35.210938 " fill-opacity="1" fill-rule="nonzero"/><path fill="#48494b" d="M 302.507812 31.535156 C 301.976562 32.019531 301.492188 32.574219 300.914062 32.960938 C 299.679688 33.785156 297.941406 33.492188 297 32.382812 C 296.734375 32.089844 296.707031 31.824219 296.878906 31.535156 C 297.070312 31.222656 297.238281 31.414062 297.457031 31.535156 C 299.65625 32.9375 300.285156 32.816406 301.855469 30.691406 C 301.953125 30.570312 302.074219 30.472656 302.167969 30.351562 C 302.628906 30.664062 302.703125 31.078125 302.507812 31.535156 Z M 302.507812 31.535156 " fill-opacity="1" fill-rule="nonzero"/><path fill="#80848c" d="M 95.902344 424.273438 C 96.167969 426.980469 95.46875 429.203125 92.859375 430.484375 C 90.441406 431.667969 87.277344 430.652344 85.972656 428.308594 C 84.546875 425.769531 85.316406 422.652344 87.734375 421.152344 C 90.078125 421.757812 92.277344 422.820312 94.550781 423.644531 C 94.765625 423.714844 95.007812 423.789062 95.226562 423.859375 C 95.441406 423.980469 95.683594 424.125 95.902344 424.273438 Z M 95.902344 424.273438 " fill-opacity="1" fill-rule="nonzero"/><path fill="#a0b5dc" d="M 148.824219 290.820312 C 148.726562 290.964844 148.628906 291.113281 148.507812 291.28125 C 147.492188 291.039062 146.527344 290.726562 145.875 289.832031 C 146.914062 290.046875 147.734375 290.796875 148.824219 290.820312 Z M 148.824219 290.820312 " fill-opacity="1" fill-rule="nonzero"/><path fill="#a0b5dc" d="M 149.0625 291.425781 C 149.449219 291.113281 149.691406 291.207031 149.835938 291.667969 C 149.523438 291.691406 149.257812 291.714844 149.0625 291.425781 Z M 149.0625 291.425781 " fill-opacity="1" fill-rule="nonzero"/><path fill="#a0b5dc" d="M 145.222656 289.832031 C 145.269531 289.832031 145.320312 289.855469 145.367188 289.855469 C 145.367188 289.855469 145.292969 289.902344 145.292969 289.902344 Z M 145.222656 289.832031 " fill-opacity="1" fill-rule="nonzero"/><path fill="#395ea1" d="M 263.988281 75.550781 C 268.582031 75.09375 271.769531 77.148438 273.414062 81.667969 C 274.550781 84.808594 274.695312 88.121094 274.792969 91.40625 C 275.03125 99.117188 274.019531 106.734375 272.859375 114.324219 C 270.730469 128.195312 267.90625 141.949219 265.632812 155.777344 C 265.609375 155.921875 265.535156 156.066406 265.464844 156.210938 C 263.023438 156.1875 260.582031 155.898438 258.140625 155.703125 C 254.976562 155.460938 251.859375 155.101562 248.742188 154.566406 C 246.035156 154.109375 243.328125 153.527344 240.621094 152.996094 C 239.003906 152.417969 237.359375 151.8125 235.742188 151.230469 C 236.007812 149.710938 237.046875 148.574219 237.773438 147.316406 C 241.855469 140.308594 246.011719 133.34375 250.121094 126.382812 C 253.984375 119.859375 257.851562 113.332031 261.695312 106.804688 C 264.160156 102.625 266.574219 98.417969 269.089844 94.261719 C 270.054688 92.640625 270.5625 90.851562 270.683594 89.015625 C 270.804688 86.984375 270.875 84.929688 270.441406 82.898438 C 269.667969 79.445312 267.421875 77.269531 264.375 75.722656 C 264.253906 75.722656 264.109375 75.625 263.988281 75.550781 Z M 263.988281 75.550781 " fill-opacity="1" fill-rule="nonzero"/><path fill="#294ea2" d="M 204.328125 148.71875 C 205.441406 146.496094 206.914062 144.488281 208.242188 142.386719 C 213.050781 134.796875 217.910156 127.230469 222.742188 119.664062 C 222.839844 119.496094 223.007812 119.375 223.152344 119.230469 C 226.511719 120.726562 228.394531 123.433594 228.925781 126.964844 C 229.964844 133.878906 227.914062 139.945312 223.273438 145.117188 C 220.929688 147.726562 218.125 149.5625 214.621094 150.167969 C 211.023438 150.796875 207.589844 150.410156 204.328125 148.71875 Z M 204.328125 148.71875 " fill-opacity="1" fill-rule="nonzero"/><path fill="#47484a" d="M 238.738281 158.820312 C 239.269531 156.863281 239.800781 154.90625 240.597656 153.046875 C 243.304688 153.578125 246.011719 154.15625 248.71875 154.617188 C 251.835938 155.148438 254.976562 155.511719 258.117188 155.753906 C 260.558594 155.945312 262.976562 156.234375 265.441406 156.261719 C 264.933594 160.296875 264.085938 164.261719 263.386719 168.25 C 262.976562 170.617188 262.46875 172.988281 262.082031 175.355469 C 261.960938 176.082031 261.644531 176.273438 260.96875 176.25 C 251.738281 176.082031 242.484375 175.933594 233.253906 175.765625 C 234.605469 171.488281 235.984375 167.234375 237.335938 162.957031 C 238.714844 162.980469 239.125 162.519531 238.8125 161.261719 C 238.761719 161.046875 238.738281 160.949219 238.90625 160.78125 C 239.945312 159.765625 239.945312 159.765625 238.738281 158.820312 Z M 238.738281 158.820312 " fill-opacity="1" fill-rule="nonzero"/><path fill="#426dba" d="M 234.242188 202.957031 C 232.578125 202.886719 231.152344 202.28125 230.28125 200.808594 C 229.84375 200.082031 229.265625 199.742188 228.492188 199.527344 C 225.570312 198.65625 223.105469 197.0625 221.171875 194.667969 C 220.808594 194.234375 220.519531 193.75 220.277344 193.242188 C 219.988281 192.660156 219.988281 192.035156 220.640625 191.671875 C 221.339844 191.308594 221.800781 191.695312 222.113281 192.273438 C 223.152344 194.136719 224.746094 195.394531 226.535156 196.433594 C 226.753906 196.554688 226.945312 196.675781 227.164062 196.769531 C 227.792969 197.011719 228.445312 197.472656 229.074219 197.421875 C 229.796875 197.375 229.652344 196.410156 229.941406 195.875 C 230.933594 194.160156 232.722656 193.144531 234.800781 193.410156 C 236.78125 193.652344 238.15625 194.789062 238.714844 196.699219 C 239.003906 197.664062 239.34375 197.761719 240.1875 197.472656 C 246.058594 195.515625 251.109375 192.394531 254.613281 187.152344 C 255 186.570312 255.316406 186.714844 255.652344 187.054688 C 256.015625 187.390625 256.980469 187.417969 256.425781 188.335938 C 255.796875 189.375 255.050781 190.316406 254.226562 191.1875 C 250.167969 195.488281 245.261719 198.34375 239.582031 199.863281 C 238.957031 200.035156 238.519531 200.277344 238.15625 200.832031 C 237.289062 202.234375 235.933594 202.910156 234.242188 202.957031 Z M 234.242188 202.957031 " fill-opacity="1" fill-rule="nonzero"/><path fill="#426dba" d="M 267.082031 201.945312 C 266.816406 208.832031 266.550781 215.695312 266.308594 222.585938 C 266.285156 223.070312 266.429688 223.746094 265.5625 223.578125 C 264.882812 223.433594 264.039062 223.671875 264.109375 222.394531 C 264.546875 212.820312 264.882812 203.25 265.269531 193.675781 C 265.441406 189.542969 265.632812 185.386719 265.730469 181.253906 C 265.753906 180.042969 266.550781 180.480469 267.132812 180.40625 C 267.878906 180.308594 267.976562 180.695312 267.953125 181.351562 C 267.640625 188.191406 267.371094 195.078125 267.082031 201.945312 Z M 267.082031 201.945312 " fill-opacity="1" fill-rule="nonzero"/><path fill="#f96164" d="M 276.53125 53.53125 C 272.808594 53.53125 269.789062 50.511719 269.789062 46.789062 C 269.789062 43.113281 272.882812 40.042969 276.578125 40.042969 C 280.203125 40.066406 283.25 43.136719 283.273438 46.765625 C 283.273438 50.484375 280.253906 53.53125 276.53125 53.53125 Z M 276.53125 53.53125 " fill-opacity="1" fill-rule="nonzero"/><path fill="#f96164" d="M 289.941406 46.8125 C 289.3125 46.835938 288.394531 46.304688 287.671875 45.3125 C 286.609375 43.863281 286.148438 42.148438 285.59375 40.480469 C 285.472656 40.117188 285.519531 39.851562 285.929688 39.730469 C 286.4375 39.5625 286.414062 39.972656 286.511719 40.261719 C 286.945312 41.640625 287.355469 43.015625 288.128906 44.273438 C 289.074219 45.820312 290.328125 46.28125 292.019531 45.554688 C 292.722656 45.265625 293.351562 44.804688 294.003906 44.417969 C 294.242188 44.273438 294.460938 44.082031 294.703125 44.417969 C 294.945312 44.757812 294.847656 45.023438 294.507812 45.214844 C 293.300781 45.988281 292.070312 46.789062 289.941406 46.8125 Z M 289.941406 46.8125 " fill-opacity="1" fill-rule="nonzero"/><path fill="#f96164" d="M 293.664062 40.285156 C 293.277344 40.285156 292.9375 40.382812 292.84375 40.019531 C 292.695312 39.585938 293.109375 39.488281 293.398438 39.390625 C 294.242188 39.175781 295.113281 38.980469 295.960938 38.8125 C 296.660156 38.667969 296.925781 38.472656 296.46875 37.722656 C 295.574219 36.296875 294.800781 34.800781 293.976562 33.347656 C 293.808594 33.058594 293.46875 32.695312 293.929688 32.429688 C 294.339844 32.1875 294.605469 32.597656 294.773438 32.890625 C 295.8125 34.703125 296.828125 36.515625 297.84375 38.328125 C 298.132812 38.859375 298.039062 39.269531 297.410156 39.441406 C 296.152344 39.730469 294.847656 40.019531 293.664062 40.285156 Z M 293.664062 40.285156 " fill-opacity="1" fill-rule="nonzero"/><path fill="#f28a87" d="M 260.65625 37.625 C 260.945312 37.652344 261.042969 37.820312 261.164062 37.988281 C 262.152344 39.441406 263.167969 40.890625 264.160156 42.363281 C 264.28125 42.558594 264.59375 42.871094 264.183594 43.066406 C 263.917969 43.210938 263.773438 42.894531 263.628906 42.726562 C 262.613281 41.277344 261.597656 39.828125 260.582031 38.402344 C 260.367188 38.085938 260.292969 37.820312 260.65625 37.625 Z M 260.65625 37.625 " fill-opacity="1" fill-rule="nonzero"/><path fill="#f28a87" d="M 342.960938 63.273438 C 343.128906 62.328125 343.273438 61.339844 343.441406 60.347656 C 343.539062 59.890625 343.757812 59.503906 344.335938 59.574219 C 344.917969 59.648438 345.0625 60.082031 345.039062 60.542969 C 345.011719 61.167969 344.988281 61.847656 344.796875 62.449219 C 344.386719 63.757812 345.0625 64.265625 346.125 64.675781 C 348.25 65.519531 350.5 66.027344 352.699219 66.585938 C 352.964844 66.65625 353.253906 66.730469 353.496094 66.824219 C 353.855469 66.996094 354.050781 67.285156 353.976562 67.695312 C 353.90625 68.132812 353.589844 68.324219 353.203125 68.277344 C 352.699219 68.226562 352.164062 68.15625 351.660156 68.035156 C 349.242188 67.429688 346.800781 66.921875 344.578125 65.738281 C 343.613281 65.230469 342.886719 64.554688 342.960938 63.273438 Z M 342.960938 63.273438 " fill-opacity="1" fill-rule="nonzero"/><path fill="#80848c" d="M 117.410156 437.542969 C 117.167969 434.859375 119.898438 432.078125 122.75 432.25 C 125.792969 432.417969 128.066406 434.570312 128.066406 437.613281 C 128.066406 440.5625 125.648438 442.980469 122.675781 442.957031 C 119.65625 442.90625 117.410156 440.613281 117.410156 437.542969 Z M 117.410156 437.542969 " fill-opacity="1" fill-rule="nonzero"/><path fill="#48494b" d="M 238.738281 158.820312 C 239.945312 159.742188 239.945312 159.765625 238.929688 160.78125 C 238.761719 160.949219 238.761719 161.046875 238.835938 161.261719 C 239.148438 162.496094 238.738281 162.957031 237.359375 162.957031 C 237.820312 161.578125 238.109375 160.152344 238.738281 158.820312 Z M 238.738281 158.820312 " fill-opacity="1" fill-rule="nonzero"/></svg>