<svg xmlns="http://www.w3.org/2000/svg" xmlns:xlink="http://www.w3.org/1999/xlink" width="600" zoomAndPan="magnify" viewBox="0 0 450 449.999984" height="600" preserveAspectRatio="xMidYMid meet" version="1.0"><defs><clipPath id="f2bcacf5ad"><path d="M 1 28.03125 L 446 28.03125 L 446 421.78125 L 1 421.78125 Z M 1 28.03125 " clip-rule="nonzero"/></clipPath><clipPath id="d6e3f1c29a"><path d="M 2 100 L 447 100 L 447 421.78125 L 2 421.78125 Z M 2 100 " clip-rule="nonzero"/></clipPath><clipPath id="afb82cd512"><path d="M 112 28.03125 L 447 28.03125 L 447 421.78125 L 112 421.78125 Z M 112 28.03125 " clip-rule="nonzero"/></clipPath><clipPath id="46e9f93944"><path d="M 112 28.03125 L 412 28.03125 L 412 421.78125 L 112 421.78125 Z M 112 28.03125 " clip-rule="nonzero"/></clipPath></defs><g clip-path="url(#f2bcacf5ad)"><path fill="#f4eedd" d="M 129.257812 28.082031 L 128.390625 28.128906 C 126.039062 28.371094 123.359375 29.578125 120.355469 31.75 L 50.40625 83.945312 C 43.085938 90.285156 34.179688 100.023438 23.695312 113.160156 C 8.597656 137.695312 1.453125 153.695312 2.265625 161.152344 C 0.75 172.476562 2.535156 182.980469 7.617188 192.671875 C 8.566406 195.992188 13.527344 202.15625 22.503906 211.167969 C 37.015625 221.175781 56.589844 232.511719 81.234375 245.1875 C 153.84375 304.453125 214.894531 350.75 264.390625 384.070312 C 294.167969 403.382812 319.511719 415.851562 340.417969 421.488281 C 345.429688 421.613281 350.878906 418.589844 356.769531 412.40625 C 362.796875 403.710938 370.804688 390.582031 380.789062 373.019531 L 407.972656 339.671875 C 410.523438 334.074219 411.691406 329.320312 411.476562 325.414062 C 432.570312 304.058594 443.167969 292.6875 443.265625 291.304688 C 446.125 287.945312 446.71875 284.460938 445.039062 280.84375 C 443.699219 278.246094 441.046875 275.335938 437.089844 272.117188 L 255.535156 141.464844 C 240.367188 129.230469 205.097656 95.726562 149.734375 40.953125 C 141.417969 33.4375 134.59375 29.144531 129.257812 28.082031 Z M 129.257812 28.082031 " fill-opacity="1" fill-rule="nonzero"/></g><path fill="#32602a" d="M 44.878906 155.871094 C 39.742188 150.207031 35.203125 141.65625 31.257812 130.210938 C 29.589844 124.242188 29.6875 117.714844 31.558594 110.632812 C 32.316406 107.46875 33.105469 105.457031 33.929688 104.597656 C 33.933594 104.191406 36.328125 102.371094 41.109375 99.136719 L 46.742188 92.007812 C 47.257812 91.164062 50.066406 90.210938 55.171875 89.148438 C 59.304688 86.238281 61.878906 84.625 62.894531 84.308594 C 63.71875 83.851562 65.574219 83.695312 68.457031 83.839844 C 71.796875 82.902344 74.089844 82.417969 75.324219 82.390625 C 76.792969 82.386719 78.097656 82.902344 79.234375 83.941406 C 80.113281 83.96875 81.734375 87.289062 84.101562 93.894531 C 89.398438 96.394531 93.734375 99.617188 97.109375 103.558594 L 105.617188 122.222656 C 107.546875 125.816406 109.222656 128.148438 110.640625 129.21875 Z M 44.878906 155.871094 " fill-opacity="1" fill-rule="nonzero"/><path fill="#dc8241" d="M 99.441406 99.21875 C 89.292969 94.472656 83.957031 91.144531 83.425781 89.238281 C 80.761719 83.679688 81.074219 78.433594 84.359375 73.5 C 86.4375 70.089844 89.898438 65.78125 94.75 60.582031 C 107.542969 48.117188 115.046875 41.316406 117.265625 40.175781 C 123.339844 35.785156 129.859375 34.933594 136.824219 37.613281 Z M 99.441406 99.21875 " fill-opacity="1" fill-rule="nonzero"/><path fill="#a73829" d="M 89.898438 128.941406 C 86.613281 128.292969 82.476562 122.738281 77.492188 112.277344 C 74.480469 104.261719 73.261719 96.496094 73.839844 88.980469 C 74.121094 88.101562 74.683594 87.144531 75.53125 86.117188 C 78.382812 83.433594 81.730469 79.558594 85.582031 74.492188 C 86.800781 72.949219 91.375 69.5 99.308594 64.140625 C 99.476562 64.15625 101.464844 62.210938 105.265625 58.308594 C 106.328125 56.992188 108.664062 57.070312 112.269531 58.550781 C 117.699219 60.710938 121.304688 62.058594 123.082031 62.589844 C 124.023438 63.035156 124.597656 63.507812 124.796875 64.011719 C 125.171875 64.4375 125.707031 66.347656 126.398438 69.738281 C 128.851562 81.644531 130.160156 89.136719 130.316406 92.214844 C 130.972656 97.8125 130.730469 104.0625 129.589844 110.957031 C 129.164062 114.613281 126.425781 124.460938 121.367188 140.5 Z M 89.898438 128.941406 " fill-opacity="1" fill-rule="nonzero"/><path fill="#c95927" d="M 121.917969 101.445312 C 115.132812 98.828125 111.320312 96.121094 110.480469 93.324219 C 110.109375 92.589844 109.78125 91.832031 109.5 91.046875 C 108.019531 85.84375 106.1875 80.488281 104.003906 74.988281 C 103.402344 71.765625 103.410156 68.835938 104.035156 66.203125 C 108.164062 55.074219 113.582031 46.902344 120.285156 41.691406 C 121.363281 40.945312 122.300781 40.65625 123.101562 40.824219 C 126.574219 42.726562 131.070312 44.058594 136.585938 44.8125 Z M 121.917969 101.445312 " fill-opacity="1" fill-rule="nonzero"/><path fill="#943633" d="M 84.230469 138.472656 C 69.542969 135.601562 62.308594 134.089844 62.523438 133.929688 C 59.203125 133.007812 55.960938 131.492188 52.789062 129.386719 C 49.140625 126.925781 46.382812 123.972656 44.519531 120.523438 C 41.558594 114.683594 40.84375 111.199219 42.378906 110.070312 C 43.65625 104.710938 53.667969 100.007812 72.410156 95.964844 C 87.910156 92.703125 98.804688 92.378906 105.089844 94.988281 C 113.617188 98.492188 119.253906 104.800781 122.003906 113.921875 C 126.09375 126.40625 126.585938 139.378906 123.480469 152.832031 Z M 84.230469 138.472656 " fill-opacity="1" fill-rule="nonzero"/><path fill="#44763b" d="M 25.398438 186.621094 C 14.304688 183.132812 8.328125 175.203125 7.464844 162.839844 C 6.226562 152.152344 6.40625 145.574219 8.003906 143.113281 C 10.644531 136.089844 14.4375 131.03125 19.378906 127.941406 C 19.726562 127.511719 24.449219 125.96875 33.550781 123.3125 C 42.09375 118.035156 46.597656 115.503906 47.066406 115.710938 L 57.6875 114.074219 C 57.96875 114.183594 62.113281 112.566406 70.125 109.214844 C 72.671875 108.429688 75.863281 109.0625 79.707031 111.113281 C 83.792969 113.007812 86.375 115.113281 87.457031 117.4375 C 91.195312 124.363281 92.933594 129.488281 92.675781 132.816406 C 92.527344 136.941406 91.960938 140.023438 90.96875 142.054688 C 84.71875 151.253906 81.148438 157.070312 80.257812 159.511719 Z M 25.398438 186.621094 " fill-opacity="1" fill-rule="nonzero"/><g clip-path="url(#d6e3f1c29a)"><path fill="#f0e2b8" d="M 170.902344 100.085938 L 167.183594 100.148438 C 119.285156 104.304688 86.5 112.128906 68.824219 123.617188 C 28.722656 151.96875 6.550781 169.726562 2.308594 176.894531 C 3.09375 184.464844 4.515625 189.832031 6.566406 193 C 10.132812 199.746094 16.554688 206.472656 25.835938 213.183594 C 33.105469 219.167969 46.3125 226.398438 65.457031 234.878906 L 80.855469 244.914062 C 85.539062 247.277344 115.835938 271.304688 171.753906 317 L 255.15625 377.511719 C 278.234375 392.832031 290.988281 400.890625 293.410156 401.683594 C 308.269531 407.414062 321.589844 413.425781 333.375 419.714844 C 336.503906 420.929688 339.011719 421.496094 340.894531 421.417969 C 347.191406 421.453125 353.257812 417.253906 359.09375 408.824219 L 381.09375 372.59375 L 405.613281 344.183594 C 410.027344 336.207031 412.011719 329.75 411.566406 324.8125 C 422.15625 314.832031 430.015625 306.753906 435.140625 300.578125 C 445.042969 289.359375 448.441406 282.996094 445.335938 281.5 C 443.152344 277.550781 438.453125 272.859375 431.230469 267.425781 C 414.800781 257.644531 382.226562 233.800781 333.519531 195.898438 C 295.738281 171.144531 272.203125 154.902344 262.90625 147.167969 C 240.199219 128.074219 223.726562 113.390625 213.484375 103.125 C 199.949219 101.574219 185.757812 100.5625 170.902344 100.085938 Z M 170.902344 100.085938 " fill-opacity="1" fill-rule="nonzero"/></g><path fill="#b67446" d="M 170.902344 100.085938 L 167.183594 100.148438 C 119.285156 104.304688 86.5 112.128906 68.824219 123.617188 C 28.722656 151.96875 6.550781 169.726562 2.308594 176.894531 C 3.09375 184.464844 4.515625 189.832031 6.566406 193 C 8.125 195.941406 10.222656 198.882812 12.867188 201.820312 C 32.933594 179.222656 46.160156 166.179688 52.546875 162.6875 C 71.40625 149.375 89.234375 140.085938 106.03125 134.824219 C 115.492188 131.492188 125.394531 129.828125 135.730469 129.828125 C 156.078125 129.828125 178.121094 136.277344 201.855469 149.179688 L 270.996094 153.425781 C 267.625 150.9375 264.929688 148.851562 262.90625 147.167969 C 240.199219 128.074219 223.726562 113.390625 213.484375 103.125 C 199.949219 101.574219 185.757812 100.5625 170.902344 100.085938 Z M 170.902344 100.085938 " fill-opacity="0.2137" fill-rule="nonzero"/><path fill="#b67446" d="M 120.105469 226.644531 L 123.472656 226.628906 C 130.28125 227.089844 135.835938 229.269531 140.128906 233.167969 C 144.417969 237.097656 146.34375 241.902344 145.90625 247.585938 C 145.148438 253.03125 142.265625 257.515625 137.257812 261.042969 C 135.640625 262.171875 133.863281 263.132812 131.921875 263.914062 L 128.917969 264.933594 C 126.84375 265.519531 124.667969 265.882812 122.382812 266.019531 C 115.371094 266.28125 109.429688 264.699219 104.5625 261.261719 C 99.695312 257.828125 97.011719 253.328125 96.511719 247.761719 C 96.367188 242.171875 98.511719 237.394531 102.949219 233.421875 C 107.390625 229.449219 113.109375 227.1875 120.105469 226.644531 " fill-opacity="0.478" fill-rule="nonzero"/><path fill="#b67446" d="M 104.894531 184.332031 L 104.328125 185.28125 C 102.96875 187.085938 101.078125 188.136719 98.65625 188.429688 C 96.222656 188.710938 93.816406 188.125 91.429688 186.667969 C 89.199219 185.179688 87.75 183.316406 87.074219 181.082031 C 86.863281 180.359375 86.75 179.636719 86.742188 178.90625 L 86.8125 177.824219 C 86.910156 177.101562 87.125 176.40625 87.457031 175.734375 C 88.539062 173.699219 90.238281 172.402344 92.554688 171.839844 C 94.871094 171.277344 97.277344 171.578125 99.773438 172.746094 C 102.21875 174.015625 103.921875 175.738281 104.882812 177.917969 C 105.847656 180.097656 105.851562 182.238281 104.894531 184.332031 " fill-opacity="0.478" fill-rule="nonzero"/><path fill="#b67446" d="M 29.230469 178.8125 L 30.867188 176.125 C 34.832031 171.046875 40.503906 168.214844 47.878906 167.632812 C 55.292969 167.074219 62.730469 169.03125 70.191406 173.507812 C 77.171875 178.066406 81.816406 183.613281 84.121094 190.152344 C 86.410156 196.722656 85.667969 202.761719 81.902344 208.277344 C 77.933594 213.355469 72.261719 216.1875 64.886719 216.769531 C 57.472656 217.328125 50.039062 215.371094 42.574219 210.894531 C 35.59375 206.339844 30.953125 200.789062 28.644531 194.25 C 27.914062 192.140625 27.492188 190.03125 27.386719 187.921875 L 27.484375 184.792969 C 27.714844 182.71875 28.296875 180.726562 29.230469 178.8125 " fill-opacity="0.478" fill-rule="nonzero"/><path fill="#b67446" d="M 81.011719 137.871094 L 81.875 137.78125 C 83.632812 137.714844 85.105469 138.089844 86.292969 138.90625 C 87.476562 139.726562 88.074219 140.816406 88.082031 142.175781 C 88.003906 143.484375 87.359375 144.621094 86.152344 145.585938 C 84.933594 146.550781 83.40625 147.101562 81.574219 147.234375 C 79.816406 147.300781 78.34375 146.925781 77.15625 146.109375 C 75.972656 145.289062 75.375 144.199219 75.363281 142.839844 C 75.441406 141.53125 76.085938 140.394531 77.296875 139.429688 C 77.6875 139.121094 78.125 138.847656 78.605469 138.613281 L 79.355469 138.292969 C 79.875 138.101562 80.425781 137.960938 81.011719 137.871094 " fill-opacity="0.478" fill-rule="nonzero"/><path fill="#b67446" d="M 119.375 132.066406 L 121.9375 132.746094 C 127.007812 134.570312 130.734375 137.683594 133.113281 142.097656 C 135.484375 146.535156 135.859375 151.277344 134.238281 156.332031 C 132.429688 161.097656 129.222656 164.5625 124.621094 166.722656 C 119.988281 168.875 114.992188 169.125 109.625 167.476562 C 104.554688 165.65625 100.828125 162.539062 98.449219 158.128906 C 96.078125 153.691406 95.703125 148.945312 97.324219 143.894531 C 99.136719 139.125 102.34375 135.660156 106.945312 133.5 C 108.429688 132.8125 110 132.3125 111.652344 132.003906 L 114.164062 131.699219 C 115.875 131.597656 117.609375 131.71875 119.375 132.066406 " fill-opacity="0.478" fill-rule="nonzero"/><g clip-path="url(#afb82cd512)"><path fill="#f1e7c9" d="M 131.738281 28.523438 L 131.011719 30.171875 C 115.386719 63.917969 109.582031 109.660156 113.605469 167.394531 C 119.363281 208.925781 128.429688 250.34375 140.796875 291.65625 L 168.71875 314.621094 C 193.945312 332.152344 222.316406 352.8125 253.828125 376.59375 L 282.953125 395.628906 C 290.46875 400.144531 294.855469 402.609375 296.113281 403.027344 C 307.882812 407.238281 320.027344 412.679688 332.539062 419.359375 C 336.105469 420.949219 339.289062 421.613281 342.097656 421.359375 C 347.390625 420.824219 352.304688 417.636719 356.839844 411.792969 L 381.398438 372.171875 L 405.613281 344.183594 C 409.886719 336.652344 411.871094 330.195312 411.566406 324.8125 C 428.222656 309.386719 439.523438 296.675781 445.464844 286.679688 C 447.777344 283.09375 443.460938 277 432.519531 268.398438 C 414.640625 257.53125 381.796875 233.476562 333.992188 196.234375 C 295.976562 171.449219 270.929688 154.015625 258.851562 143.941406 C 221.867188 111.808594 186.277344 78.21875 152.085938 43.171875 C 144.28125 35.757812 137.5 30.878906 131.738281 28.523438 Z M 131.738281 28.523438 " fill-opacity="1" fill-rule="nonzero"/></g><path fill="#b67446" d="M 136.972656 60.191406 L 138.578125 59.394531 C 141.972656 58.066406 145.300781 58.050781 148.5625 59.34375 C 151.828125 60.65625 154.242188 63.042969 155.796875 66.5 C 157.125 69.894531 157.140625 73.222656 155.847656 76.480469 C 154.535156 79.746094 152.148438 82.160156 148.683594 83.714844 C 145.289062 85.039062 141.960938 85.058594 138.699219 83.761719 C 135.433594 82.449219 133.019531 80.066406 131.464844 76.605469 C 130.136719 73.210938 130.121094 69.882812 131.414062 66.625 C 131.835938 65.578125 132.390625 64.59375 133.074219 63.675781 L 134.191406 62.367188 C 135 61.535156 135.925781 60.808594 136.972656 60.191406 " fill-opacity="0.478" fill-rule="nonzero"/><path fill="#b67446" d="M 136.496094 115.691406 L 136.335938 115.695312 C 134.925781 115.882812 133.476562 116.769531 131.984375 118.355469 C 131.789062 118.503906 131.433594 119.089844 130.910156 120.113281 L 130.664062 120.773438 C 130.578125 121.121094 130.519531 121.410156 130.496094 121.640625 C 130.289062 122.140625 130.128906 122.710938 130.019531 123.355469 C 129.945312 123.976562 130.078125 125.042969 130.417969 126.554688 C 130.621094 127.726562 130.960938 128.765625 131.433594 129.664062 C 132.125 130.917969 133.171875 131.605469 134.578125 131.730469 C 135.554688 131.65625 136.246094 131.261719 136.660156 130.546875 L 138.136719 127.703125 L 140.933594 123.757812 C 141.019531 123.621094 141.101562 123.480469 141.179688 123.335938 C 141.789062 122.160156 142.121094 121.21875 142.179688 120.511719 C 142.300781 119.757812 142.273438 119.136719 142.089844 118.648438 C 142 118.402344 141.871094 118.195312 141.703125 118.015625 L 141.425781 117.777344 C 141.304688 117.664062 141.046875 117.515625 140.648438 117.328125 L 137.152344 115.792969 C 136.898438 115.71875 136.679688 115.683594 136.496094 115.691406 Z M 136.496094 115.691406 " fill-opacity="0.478" fill-rule="nonzero"/><path fill="#b67446" d="M 146.578125 191.152344 L 147.28125 192.625 C 148.535156 195.679688 148.941406 198.4375 148.5 200.902344 C 148.046875 203.367188 146.804688 204.925781 144.773438 205.578125 C 142.753906 206.054688 140.625 205.457031 138.382812 203.785156 C 137.660156 203.246094 136.964844 202.605469 136.292969 201.871094 L 135.320312 200.707031 C 134.691406 199.886719 134.117188 198.984375 133.597656 198.003906 C 132.050781 194.964844 131.359375 192.125 131.523438 189.480469 C 131.6875 186.835938 132.667969 184.988281 134.46875 183.941406 C 136.347656 183.046875 138.425781 183.277344 140.703125 184.636719 C 142.980469 185.992188 144.9375 188.164062 146.578125 191.152344 " fill-opacity="0.478" fill-rule="nonzero"/><path fill="#b67446" d="M 190.78125 132.648438 L 192.25 133.191406 C 195.109375 134.632812 197.039062 137.097656 198.039062 140.589844 C 199.03125 144.101562 198.796875 147.851562 197.339844 151.847656 C 195.796875 155.617188 193.542969 158.355469 190.578125 160.0625 C 189.621094 160.605469 188.632812 161 187.617188 161.242188 L 186.082031 161.484375 C 185.050781 161.5625 184.019531 161.464844 182.996094 161.191406 C 179.886719 160.234375 177.65625 158.128906 176.304688 154.875 C 174.953125 151.625 174.785156 147.964844 175.808594 143.902344 C 176.992188 139.878906 178.992188 136.8125 181.808594 134.695312 C 184.625 132.578125 187.613281 131.898438 190.78125 132.648438 " fill-opacity="0.478" fill-rule="nonzero"/><path fill="#b67446" d="M 165.136719 122.675781 L 165.914062 122.367188 C 167.535156 121.855469 169.027344 121.859375 170.382812 122.386719 C 171.746094 122.917969 172.640625 123.871094 173.066406 125.25 C 173.398438 126.597656 173.152344 127.917969 172.320312 129.203125 C 171.480469 130.492188 170.226562 131.441406 168.558594 132.042969 C 166.9375 132.554688 165.449219 132.550781 164.089844 132.023438 C 162.730469 131.492188 161.835938 130.539062 161.40625 129.160156 C 161.074219 127.8125 161.324219 126.492188 162.15625 125.207031 C 162.425781 124.792969 162.746094 124.40625 163.125 124.042969 L 163.722656 123.527344 C 164.148438 123.203125 164.621094 122.917969 165.136719 122.675781 " fill-opacity="0.478" fill-rule="nonzero"/><path fill="#b67446" d="M 157.84375 159.042969 L 158.320312 159.472656 C 159.210938 160.425781 159.679688 161.488281 159.726562 162.664062 C 159.769531 163.84375 159.355469 164.859375 158.480469 165.714844 C 157.597656 166.488281 156.550781 166.832031 155.34375 166.753906 C 154.132812 166.667969 153.042969 166.152344 152.070312 165.203125 C 151.179688 164.253906 150.710938 163.1875 150.664062 162.011719 C 150.621094 160.832031 151.039062 159.816406 151.910156 158.964844 C 152.792969 158.191406 153.839844 157.84375 155.046875 157.925781 C 155.433594 157.953125 155.820312 158.027344 156.207031 158.152344 L 156.773438 158.375 C 157.148438 158.546875 157.503906 158.769531 157.84375 159.042969 " fill-opacity="0.478" fill-rule="nonzero"/><path fill="#b67446" d="M 219.246094 184.941406 L 221.792969 186.449219 C 226.628906 190.097656 229.398438 195.289062 230.101562 202.023438 C 230.785156 208.789062 229.117188 215.5625 225.09375 222.34375 C 220.984375 228.683594 215.898438 232.886719 209.832031 234.949219 C 207.878906 235.605469 205.914062 235.972656 203.945312 236.054688 L 201.015625 235.949219 C 199.074219 235.726562 197.199219 235.183594 195.386719 234.320312 C 189.929688 231.464844 186.480469 226.828125 185.042969 220.40625 C 183.605469 213.984375 184.503906 207.242188 187.746094 200.179688 C 191.265625 193.253906 195.988281 188.355469 201.914062 185.492188 C 207.839844 182.625 213.617188 182.441406 219.246094 184.941406 " fill-opacity="0.478" fill-rule="nonzero"/><path fill="#b67446" d="M 147.898438 237.277344 L 148.664062 235.9375 C 150.398438 233.339844 152.539062 231.632812 155.078125 230.820312 C 157.628906 230.015625 159.992188 230.355469 162.167969 231.832031 C 164.171875 233.378906 165.308594 235.554688 165.582031 238.351562 C 165.664062 239.253906 165.640625 240.179688 165.511719 241.128906 L 165.234375 242.554688 C 164.996094 243.511719 164.644531 244.460938 164.179688 245.398438 C 162.683594 248.246094 160.695312 250.242188 158.210938 251.386719 C 155.726562 252.535156 153.3125 252.566406 150.96875 251.488281 C 148.699219 250.265625 147.277344 248.320312 146.699219 245.644531 C 146.121094 242.972656 146.523438 240.183594 147.898438 237.277344 " fill-opacity="0.478" fill-rule="nonzero"/><path fill="#b67446" d="M 201.460938 305.445312 L 200.621094 306.296875 C 198.707031 307.824219 196.351562 308.367188 193.554688 307.921875 C 190.746094 307.464844 188.140625 306.074219 185.746094 303.746094 C 183.535156 301.429688 182.28125 298.957031 181.984375 296.328125 C 181.695312 293.6875 182.488281 291.511719 184.363281 289.804688 C 186.277344 288.277344 188.632812 287.734375 191.429688 288.179688 C 194.238281 288.636719 196.839844 290.027344 199.238281 292.355469 C 201.449219 294.671875 202.703125 297.144531 203 299.773438 C 203.09375 300.621094 203.066406 301.441406 202.925781 302.234375 L 202.621094 303.382812 L 202.132812 304.460938 L 201.460938 305.445312 " fill-opacity="0.478" fill-rule="nonzero"/><path fill="#b67446" d="M 232.296875 248.148438 L 233.949219 247.972656 C 237.335938 247.914062 240.242188 248.972656 242.660156 251.152344 C 245.085938 253.351562 246.414062 256.207031 246.648438 259.722656 C 246.707031 263.109375 245.648438 266.011719 243.464844 268.429688 C 242.761719 269.207031 241.960938 269.886719 241.070312 270.464844 L 239.671875 271.242188 C 238.699219 271.707031 237.65625 272.039062 236.546875 272.238281 C 233.117188 272.753906 230.070312 272.078125 227.402344 270.210938 C 224.738281 268.34375 223.058594 265.714844 222.371094 262.316406 C 221.855469 258.890625 222.53125 255.84375 224.398438 253.179688 C 226.265625 250.515625 228.898438 248.835938 232.296875 248.148438 " fill-opacity="0.478" fill-rule="nonzero"/><path fill="#b67446" d="M 272.8125 184.726562 L 274.761719 183.582031 C 278.824219 181.507812 282.613281 180.679688 286.121094 181.09375 C 289.640625 181.523438 292.019531 183.167969 293.257812 186.027344 C 294.246094 188.882812 293.757812 191.996094 291.785156 195.367188 C 291.144531 196.449219 290.367188 197.507812 289.449219 198.535156 L 287.976562 200.035156 C 286.929688 201.011719 285.765625 201.917969 284.480469 202.753906 C 280.488281 205.242188 276.628906 206.488281 272.910156 206.488281 C 269.191406 206.488281 266.453125 205.242188 264.699219 202.753906 C 263.148438 200.136719 263.136719 197.132812 264.660156 193.738281 C 266.1875 190.347656 268.90625 187.34375 272.8125 184.726562 " fill-opacity="0.478" fill-rule="nonzero"/><path fill="#b67446" d="M 270.171875 240.800781 L 270.972656 240.179688 C 272.722656 239.074219 274.609375 238.734375 276.632812 239.160156 C 278.667969 239.597656 280.359375 240.742188 281.707031 242.589844 C 282.917969 244.425781 283.378906 246.347656 283.082031 248.363281 C 282.984375 249.011719 282.804688 249.636719 282.539062 250.238281 L 282.082031 251.105469 C 281.734375 251.667969 281.304688 252.179688 280.796875 252.640625 C 279.183594 254.007812 277.355469 254.605469 275.3125 254.429688 C 273.265625 254.253906 271.472656 253.34375 269.929688 251.703125 C 268.464844 249.988281 267.753906 248.109375 267.796875 246.058594 C 267.84375 244.007812 268.632812 242.253906 270.171875 240.800781 " fill-opacity="0.478" fill-rule="nonzero"/><path fill="#b67446" d="M 345.148438 231.929688 L 345.226562 234.441406 C 344.863281 239.558594 342.632812 243.863281 338.53125 247.355469 C 334.402344 250.847656 329.285156 252.640625 323.183594 252.730469 C 317.332031 252.5625 312.46875 250.742188 308.589844 247.265625 C 307.347656 246.140625 306.289062 244.882812 305.410156 243.492188 L 304.257812 241.324219 C 303.59375 239.820312 303.164062 238.21875 302.972656 236.527344 C 302.558594 231.308594 304.144531 226.757812 307.734375 222.871094 C 311.324219 218.984375 316.097656 216.652344 322.058594 215.867188 C 328.046875 215.347656 333.210938 216.597656 337.554688 219.621094 C 341.898438 222.640625 344.429688 226.742188 345.148438 231.929688 " fill-opacity="0.478" fill-rule="nonzero"/><path fill="#b67446" d="M 376.429688 250.273438 L 377.589844 249.726562 C 380.09375 248.910156 382.703125 249.292969 385.425781 250.871094 C 388.15625 252.472656 390.347656 254.957031 392.003906 258.332031 C 393.46875 261.617188 393.894531 264.683594 393.285156 267.53125 C 392.660156 270.382812 391.085938 272.320312 388.558594 273.339844 C 386.058594 274.15625 383.445312 273.777344 380.722656 272.195312 C 377.992188 270.597656 375.800781 268.109375 374.148438 264.738281 C 372.679688 261.453125 372.253906 258.386719 372.863281 255.539062 C 373.066406 254.621094 373.378906 253.78125 373.800781 253.015625 L 374.515625 251.945312 L 375.390625 251.023438 L 376.429688 250.273438 " fill-opacity="0.478" fill-rule="nonzero"/><path fill="#b67446" d="M 360.800781 290.351562 L 361.671875 291.371094 C 363.296875 293.550781 364.074219 295.792969 364.007812 298.09375 C 363.933594 300.402344 362.980469 302.21875 361.152344 303.546875 C 359.316406 304.714844 357.21875 304.992188 354.859375 304.378906 C 354.101562 304.179688 353.351562 303.886719 352.613281 303.5 L 351.53125 302.851562 C 350.816406 302.375 350.144531 301.808594 349.515625 301.152344 C 347.621094 299.09375 346.5625 296.886719 346.339844 294.53125 C 346.117188 292.175781 346.78125 290.207031 348.332031 288.625 C 349.980469 287.148438 351.976562 286.570312 354.320312 286.894531 C 356.664062 287.21875 358.824219 288.375 360.800781 290.351562 " fill-opacity="0.478" fill-rule="nonzero"/><path fill="#b67446" d="M 281.734375 273.535156 L 285.925781 272.949219 C 294.515625 272.457031 301.910156 274.640625 308.109375 279.492188 C 314.3125 284.382812 317.757812 290.933594 318.449219 299.136719 C 318.6875 307.046875 316.070312 313.949219 310.597656 319.839844 C 305.082031 325.734375 297.863281 329.136719 288.945312 330.050781 C 280.355469 330.542969 272.960938 328.359375 266.761719 323.507812 C 260.558594 318.617188 257.113281 312.070312 256.425781 303.867188 C 256.1875 295.953125 258.804688 289.050781 264.273438 283.160156 C 266.046875 281.269531 268.054688 279.601562 270.304688 278.152344 L 273.824219 276.1875 C 276.28125 275 278.917969 274.117188 281.734375 273.535156 " fill-opacity="0.478" fill-rule="nonzero"/><path fill="#b67446" d="M 307.546875 371.628906 L 306.96875 372.878906 C 305.5625 375.308594 303.570312 376.914062 300.988281 377.703125 C 298.394531 378.484375 295.796875 378.207031 293.195312 376.875 C 290.765625 375.472656 289.15625 373.480469 288.367188 370.898438 C 288.117188 370.066406 287.976562 369.210938 287.945312 368.328125 L 287.988281 367.003906 C 288.074219 366.117188 288.285156 365.234375 288.617188 364.359375 C 289.714844 361.707031 291.496094 359.832031 293.960938 358.734375 C 296.425781 357.640625 299.011719 357.570312 301.71875 358.535156 C 304.371094 359.628906 306.25 361.410156 307.34375 363.875 C 308.441406 366.335938 308.507812 368.921875 307.546875 371.628906 " fill-opacity="0.478" fill-rule="nonzero"/><path fill="#b67446" d="M 324.253906 337.054688 L 326.5625 335.066406 C 331.546875 331.410156 336.765625 329.757812 342.210938 330.109375 C 347.675781 330.484375 352.070312 332.890625 355.394531 337.332031 C 358.347656 341.785156 359.222656 346.777344 358.027344 352.3125 C 356.804688 357.863281 353.675781 362.65625 348.644531 366.683594 C 343.65625 370.339844 338.441406 371.992188 332.996094 371.640625 C 327.53125 371.269531 323.136719 368.863281 319.8125 364.421875 C 316.859375 359.96875 315.980469 354.976562 317.179688 349.441406 C 317.574219 347.660156 318.1875 345.914062 319.023438 344.195312 L 320.441406 341.683594 C 321.496094 340.039062 322.765625 338.492188 324.253906 337.054688 " fill-opacity="0.478" fill-rule="nonzero"/><path fill="#b67446" d="M 341.269531 398.542969 L 340.617188 399.632812 C 339.152344 401.75 337.410156 403.140625 335.390625 403.804688 C 333.363281 404.464844 331.527344 404.195312 329.882812 402.996094 C 328.375 401.742188 327.574219 399.976562 327.476562 397.707031 C 327.445312 396.972656 327.5 396.21875 327.640625 395.445312 L 327.914062 394.285156 C 328.140625 393.507812 328.453125 392.738281 328.855469 391.972656 C 330.140625 389.65625 331.777344 388.03125 333.769531 387.09375 C 335.757812 386.15625 337.648438 386.125 339.4375 386.996094 C 341.164062 387.988281 342.203125 389.566406 342.546875 391.738281 C 342.890625 393.910156 342.464844 396.179688 341.269531 398.542969 " fill-opacity="0.478" fill-rule="nonzero"/><path fill="#b67446" d="M 383.238281 346.347656 L 383.722656 347.039062 C 384.546875 348.566406 384.621094 350.277344 383.953125 352.171875 C 383.273438 354.070312 381.96875 355.707031 380.035156 357.082031 C 378.136719 358.328125 376.25 358.890625 374.378906 358.761719 C 373.773438 358.71875 373.207031 358.597656 372.671875 358.398438 L 371.90625 358.042969 L 371.21875 357.5625 L 370.617188 356.96875 C 369.53125 355.585938 369.203125 353.949219 369.636719 352.054688 C 370.070312 350.164062 371.167969 348.445312 372.929688 346.910156 C 374.746094 345.4375 376.621094 344.648438 378.5625 344.542969 C 380.5 344.4375 382.0625 345.039062 383.238281 346.347656 " fill-opacity="0.478" fill-rule="nonzero"/><path fill="#b67446" d="M 402.332031 307.816406 L 402.230469 310.285156 C 401.652344 315.261719 399.796875 319.261719 396.664062 322.289062 C 393.511719 325.3125 389.761719 326.574219 385.417969 326.078125 C 381.269531 325.355469 377.925781 323.105469 375.390625 319.328125 C 374.574219 318.109375 373.898438 316.773438 373.363281 315.328125 L 372.679688 313.097656 C 372.300781 311.558594 372.097656 309.953125 372.066406 308.273438 C 372.097656 303.125 373.507812 298.820312 376.304688 295.359375 C 379.097656 291.902344 382.640625 290.074219 386.925781 289.878906 C 391.214844 289.941406 394.808594 291.664062 397.707031 295.035156 C 400.605469 298.410156 402.148438 302.671875 402.332031 307.816406 " fill-opacity="0.478" fill-rule="nonzero"/><path fill="#b67446" d="M 418.96875 290.433594 L 418.671875 289.464844 C 418.25 287.445312 418.550781 285.585938 419.578125 283.882812 C 420.621094 282.183594 422.179688 281.058594 424.257812 280.515625 C 426.28125 280.089844 428.140625 280.394531 429.84375 281.421875 C 431.546875 282.460938 432.671875 284.019531 433.214844 286.097656 C 433.636719 288.117188 433.335938 289.980469 432.308594 291.679688 C 431.265625 293.382812 429.707031 294.503906 427.628906 295.050781 C 425.605469 295.472656 423.746094 295.171875 422.042969 294.140625 C 421.496094 293.808594 421 293.40625 420.550781 292.941406 L 419.921875 292.195312 C 419.535156 291.664062 419.214844 291.078125 418.96875 290.433594 " fill-opacity="0.478" fill-rule="nonzero"/><g clip-path="url(#46e9f93944)"><path fill="#b67446" d="M 131.738281 28.523438 L 131.011719 30.171875 C 115.386719 63.917969 109.582031 109.660156 113.605469 167.394531 C 119.363281 208.925781 128.429688 250.34375 140.796875 291.65625 L 168.71875 314.621094 C 193.945312 332.152344 222.316406 352.8125 253.828125 376.59375 L 282.953125 395.628906 C 290.46875 400.144531 294.855469 402.609375 296.113281 403.027344 C 307.882812 407.238281 320.027344 412.679688 332.539062 419.359375 C 335.609375 420.726562 338.402344 421.410156 340.910156 421.410156 C 341.3125 421.410156 341.707031 421.394531 342.097656 421.359375 C 347.390625 420.824219 352.304688 417.636719 356.839844 411.792969 L 381.398438 372.171875 L 405.613281 344.183594 C 409.386719 337.53125 411.378906 331.71875 411.582031 326.742188 L 411.578125 326.742188 C 408.5625 328.640625 405.570312 330.785156 402.597656 333.171875 C 395.617188 338.550781 382.320312 355.570312 362.707031 384.230469 C 358.507812 388.871094 354.644531 392.4375 351.117188 394.929688 C 343.488281 399.96875 335.523438 402.484375 327.21875 402.484375 C 325.019531 402.484375 322.792969 402.308594 320.546875 401.957031 C 302.601562 400.175781 284.632812 391.777344 266.636719 376.757812 L 181.210938 310.332031 C 161.914062 292.53125 151.472656 281.226562 149.890625 276.421875 C 137.71875 240.042969 131.371094 204.335938 130.851562 169.296875 L 130.671875 140.890625 C 131.085938 121.53125 132.566406 101.339844 135.113281 80.3125 C 136.90625 65.5 139.230469 50.273438 142.082031 34.636719 C 138.328125 31.84375 134.882812 29.808594 131.738281 28.523438 Z M 131.738281 28.523438 " fill-opacity="0.2868" fill-rule="nonzero"/></g></svg>