<svg xmlns="http://www.w3.org/2000/svg" viewBox="0 0 640 640">
  <circle cx="320" cy="320" r="320" fill="#0a969d"/>
  <g transform="translate(320, 320) scale(0.85)">
    <path fill="white" d="M84 -112.1L-115.3 -215.8C-123.3 -219.9-132.6 -220.6-141 -217.5L-182.1 -202.5C-192.4 -198.8-195.9 -186.1-189.2 -177.5L-87.7 -49.6L-187.9 -13.2L-248 -49.8C-254.2 -53.6-261.8 -54.3-268.7 -51.9L-285 -45.9C-294.4 -42.5-298.4 -31.4-293.3 -22.8L-239.7 69C-224.1 95.7-191.6 107.4-162.6 96.8L-149.7 92.1L-149.7 92.1L248.7 -52.9C277.8 -63.5 292.7 -95.6 282.2 -124.7C271.7 -153.8 239.5 -168.7 210.4 -158.2L84 -112.1zM-255.8 192C-273.5 192-287.8 206.3-287.8 224C-287.8 241.7-273.5 256-255.8 256L256.2 256C273.9 256 288.2 241.7 288.2 224C288.2 206.3 273.9 192 256.2 192L-255.8 192z"/>
  </g>
</svg>
