<svg xmlns="http://www.w3.org/2000/svg" xmlns:xlink="http://www.w3.org/1999/xlink" width="600" zoomAndPan="magnify" viewBox="0 0 450 449.999984" height="600" preserveAspectRatio="xMidYMid meet" version="1.0"><defs><clipPath id="20c4e3cac2"><path d="M 154 369 L 172 369 L 172 385.40625 L 154 385.40625 Z M 154 369 " clip-rule="nonzero"/></clipPath><clipPath id="c542b591c3"><path d="M 355 64.40625 L 380 64.40625 L 380 80 L 355 80 Z M 355 64.40625 " clip-rule="nonzero"/></clipPath><clipPath id="af42b1c93d"><path d="M 352 64.40625 L 359 64.40625 L 359 75 L 352 75 Z M 352 64.40625 " clip-rule="nonzero"/></clipPath></defs><path fill="#76316b" d="M 289.351562 160.363281 C 289.511719 159.316406 289.609375 158.257812 289.601562 157.273438 C 289.628906 156.964844 289.644531 156.667969 289.640625 156.390625 L 289.082031 119.40625 C 289.027344 115.65625 285.941406 112.667969 282.191406 112.722656 L 281.523438 112.734375 C 277.773438 112.789062 274.777344 115.871094 274.832031 119.621094 L 275.445312 160.082031 C 275.058594 160.5625 274.742188 161.03125 274.523438 161.464844 L 273.785156 162.917969 C 274.035156 163.136719 274.257812 163.34375 274.453125 163.546875 C 277.796875 162.582031 283.285156 161.460938 289.351562 160.363281 " fill-opacity="1" fill-rule="nonzero"/><path fill="#76316b" d="M 260.203125 201.683594 L 260.304688 203.800781 L 261.339844 203.789062 L 261.378906 201.742188 L 270 201.488281 L 286.183594 169.382812 C 280.886719 169.539062 276.527344 169.625 274.511719 169.664062 C 273.625 170.257812 272.265625 170.730469 270.222656 170.941406 L 270.34375 171.003906 L 269.703125 171.027344 L 254.246094 201.691406 L 260.203125 201.683594 " fill-opacity="1" fill-rule="nonzero"/><path fill="#76316b" d="M 185.253906 222.5 L 191.21875 222.34375 L 190.355469 219.007812 C 188.855469 219.03125 187.347656 219.058594 185.847656 219.082031 L 185.253906 222.5 " fill-opacity="1" fill-rule="nonzero"/><path fill="#fac5e5" d="M 196.785156 176.210938 C 197.742188 176.289062 198.335938 176.304688 198.335938 176.304688 C 198.335938 176.304688 199.964844 174.164062 202.011719 170.921875 C 202.046875 168.359375 201.980469 166.167969 201.808594 164.488281 C 200.636719 153.023438 197.800781 147.074219 202.574219 140.511719 C 195.46875 142.4375 181.3125 169.355469 181.3125 169.355469 C 181.558594 169.976562 181.914062 170.542969 182.34375 171.058594 C 185.589844 174.921875 193.453125 175.945312 196.785156 176.210938 " fill-opacity="1" fill-rule="nonzero"/><path fill="#fac2b8" d="M 124.875 314.933594 C 126.816406 315.738281 129.652344 317.878906 128.675781 319.914062 C 128.570312 320.140625 128.417969 320.378906 128.242188 320.621094 C 129.738281 321.03125 131.191406 320.902344 132.539062 320.386719 C 132.800781 319.804688 134.011719 317.085938 135.558594 312.984375 L 124.8125 310.679688 C 124.8125 312.28125 124.835938 313.710938 124.875 314.933594 " fill-opacity="1" fill-rule="nonzero"/><path fill="#fac2b8" d="M 127.652344 261.988281 C 127.402344 264.203125 127.160156 266.511719 126.9375 268.882812 C 127.207031 266.378906 127.480469 264.019531 127.75 261.886719 C 127.691406 261.949219 127.652344 261.984375 127.652344 261.988281 " fill-opacity="1" fill-rule="nonzero"/><path fill="#b4328d" d="M 128.242188 320.621094 C 128.417969 320.378906 128.570312 320.140625 128.675781 319.914062 C 129.652344 317.878906 126.816406 315.738281 124.875 314.933594 C 124.113281 314.617188 123.492188 314.503906 123.285156 314.683594 C 122.558594 315.316406 121.855469 317.785156 121.023438 318.304688 C 120.773438 318.457031 119.964844 318.789062 118.910156 319.214844 C 121.507812 320.300781 123.839844 322.53125 124.621094 325.117188 C 124.941406 326.175781 123.273438 326.570312 122.953125 325.515625 C 122.199219 323.023438 119.21875 320.675781 116.648438 320.304688 C 116.558594 320.289062 116.480469 320.261719 116.40625 320.230469 C 116 320.398438 115.597656 320.566406 115.199219 320.738281 C 117.878906 321.984375 120.023438 324.085938 121.34375 326.78125 C 121.828125 327.773438 120.328125 328.597656 119.839844 327.609375 C 118.503906 324.886719 116.273438 322.824219 113.386719 321.847656 C 113.277344 321.8125 113.1875 321.757812 113.109375 321.695312 C 112.6875 321.910156 112.320312 322.113281 112.03125 322.296875 C 114.410156 323.570312 116.324219 325.542969 117.539062 328.015625 C 118.023438 329.007812 116.523438 329.832031 116.035156 328.84375 C 114.699219 326.117188 112.46875 324.058594 109.578125 323.082031 C 109.496094 323.050781 109.425781 323.011719 109.359375 322.96875 C 108.976562 323.015625 108.601562 323.054688 108.238281 323.082031 C 102.027344 323.558594 100.800781 328.578125 100.800781 328.578125 C 102.910156 334.382812 134.769531 334.242188 135.542969 332.289062 C 136.023438 331.078125 135.109375 325.109375 134.347656 320.769531 C 134.277344 320.351562 134.203125 319.953125 134.136719 319.570312 C 133.625 319.902344 133.089844 320.175781 132.539062 320.386719 C 131.191406 320.902344 129.738281 321.03125 128.242188 320.621094 " fill-opacity="1" fill-rule="nonzero"/><path fill="#ecf1f8" d="M 122.953125 325.515625 C 123.273438 326.570312 124.941406 326.175781 124.621094 325.117188 C 123.839844 322.53125 121.507812 320.300781 118.910156 319.214844 C 118.183594 318.910156 117.441406 318.691406 116.707031 318.589844 C 115.703125 318.441406 115.585938 319.875 116.40625 320.230469 C 116.480469 320.261719 116.558594 320.289062 116.648438 320.304688 C 119.21875 320.675781 122.199219 323.023438 122.953125 325.515625 " fill-opacity="1" fill-rule="nonzero"/><path fill="#ecf1f8" d="M 113.386719 321.847656 C 116.273438 322.824219 118.503906 324.886719 119.839844 327.609375 C 120.328125 328.597656 121.828125 327.773438 121.34375 326.78125 C 120.023438 324.085938 117.878906 321.984375 115.199219 320.738281 C 114.773438 320.539062 114.335938 320.355469 113.882812 320.207031 C 112.941406 319.886719 112.453125 321.171875 113.109375 321.695312 C 113.1875 321.757812 113.277344 321.8125 113.386719 321.847656 " fill-opacity="1" fill-rule="nonzero"/><path fill="#ecf1f8" d="M 109.578125 323.082031 C 112.46875 324.058594 114.699219 326.117188 116.035156 328.84375 C 116.523438 329.832031 118.023438 329.007812 117.539062 328.015625 C 116.324219 325.542969 114.410156 323.570312 112.03125 322.296875 C 111.410156 321.964844 110.761719 321.671875 110.074219 321.4375 C 109.109375 321.109375 108.617188 322.472656 109.359375 322.96875 C 109.425781 323.011719 109.496094 323.050781 109.578125 323.082031 " fill-opacity="1" fill-rule="nonzero"/><path fill="#b4328d" d="M 144.210938 338.894531 C 144.109375 338.890625 144.015625 338.867188 143.933594 338.835938 C 143.597656 339.160156 143.3125 339.453125 143.097656 339.707031 C 145.75 340.230469 148.164062 341.585938 150.050781 343.59375 C 150.804688 344.402344 149.5625 345.589844 148.808594 344.78125 C 146.730469 342.5625 143.980469 341.273438 140.933594 341.183594 C 140.855469 341.183594 140.78125 341.171875 140.714844 341.152344 C 140.363281 341.304688 140.023438 341.449219 139.6875 341.582031 C 133.890625 343.859375 134.191406 349.023438 134.191406 349.023438 C 136 351.417969 144.121094 350.410156 152.003906 348.5 L 151.824219 342.234375 C 149.78125 340.179688 147.132812 338.972656 144.210938 338.894531 " fill-opacity="1" fill-rule="nonzero"/><path fill="#b4328d" d="M 151.628906 335.453125 L 151.457031 329.492188 C 151.105469 330.53125 151.082031 332.609375 150.507812 333.269531 C 150.316406 333.488281 149.636719 334.042969 148.753906 334.761719 C 149.722656 334.859375 150.699219 335.089844 151.628906 335.453125 " fill-opacity="1" fill-rule="nonzero"/><path fill="#b4328d" d="M 151.753906 339.871094 L 151.683594 337.328125 C 150.140625 336.589844 148.347656 336.25 146.886719 336.464844 C 146.804688 336.480469 146.726562 336.476562 146.652344 336.472656 C 146.320312 336.742188 145.988281 337.019531 145.664062 337.296875 C 147.898438 337.605469 149.984375 338.496094 151.753906 339.871094 " fill-opacity="1" fill-rule="nonzero"/><path fill="#ecf1f8" d="M 151.683594 337.328125 L 151.628906 335.453125 C 150.699219 335.089844 149.722656 334.859375 148.753906 334.761719 C 147.984375 334.6875 147.21875 334.691406 146.488281 334.796875 C 145.480469 334.949219 145.75 336.375 146.652344 336.472656 C 146.726562 336.476562 146.804688 336.480469 146.886719 336.464844 C 148.347656 336.25 150.140625 336.589844 151.683594 337.328125 " fill-opacity="1" fill-rule="nonzero"/><path fill="#ecf1f8" d="M 151.824219 342.234375 L 151.753906 339.871094 C 149.984375 338.496094 147.898438 337.605469 145.664062 337.296875 C 145.203125 337.230469 144.738281 337.191406 144.269531 337.175781 C 143.269531 337.152344 143.132812 338.546875 143.933594 338.835938 C 144.015625 338.867188 144.109375 338.890625 144.210938 338.894531 C 147.132812 338.972656 149.78125 340.179688 151.824219 342.234375 " fill-opacity="1" fill-rule="nonzero"/><path fill="#ecf1f8" d="M 148.808594 344.78125 C 149.5625 345.589844 150.804688 344.402344 150.050781 343.59375 C 148.164062 341.585938 145.75 340.230469 143.097656 339.707031 C 142.410156 339.574219 141.707031 339.492188 140.996094 339.472656 C 139.96875 339.445312 139.847656 340.914062 140.714844 341.152344 C 140.78125 341.171875 140.855469 341.183594 140.933594 341.183594 C 143.980469 341.273438 146.730469 342.5625 148.808594 344.78125 " fill-opacity="1" fill-rule="nonzero"/><path fill="#3e3348" d="M 148.882812 240.328125 C 140.1875 243.914062 132.960938 247.800781 129.722656 251.667969 C 129.144531 252.355469 128.457031 256.320312 127.75 261.886719 C 127.480469 264.019531 127.207031 266.378906 126.9375 268.882812 C 125.0625 286.226562 123.296875 310.351562 123.296875 310.351562 L 124.8125 310.679688 L 135.558594 312.984375 L 137.46875 313.398438 C 137.46875 313.398438 140.90625 306.066406 144.1875 296.789062 C 147.160156 311.035156 150.351562 325 150.351562 325 L 151.324219 324.917969 L 148.882812 240.328125 " fill-opacity="1" fill-rule="nonzero"/><path fill="#b4328d" d="M 222.945312 200.5 C 222.953125 200.996094 222.558594 201.40625 222.058594 201.414062 L 221.773438 201.417969 L 220.792969 207.054688 L 222.292969 207.03125 C 222.792969 207.023438 223.199219 207.421875 223.207031 207.917969 C 223.214844 208.417969 222.816406 208.824219 222.320312 208.832031 L 222.035156 208.835938 L 221.132812 214.015625 C 225.929688 206.351562 230.613281 197.039062 234.96875 190.210938 C 235.042969 188.566406 235.148438 186.125 235.253906 183.25 C 230.902344 183.664062 222.644531 183.25 220.269531 183.117188 C 213.6875 186.921875 212.75 186.296875 205.75 190.042969 C 204.117188 190.910156 202.308594 191.710938 200.394531 192.414062 C 200.09375 194.910156 199.753906 197.433594 199.378906 199.953125 L 222.03125 199.609375 C 222.527344 199.605469 222.9375 200 222.945312 200.5 " fill-opacity="1" fill-rule="nonzero"/><path fill="#b4328d" d="M 252.589844 180.957031 C 252.347656 180.960938 252.109375 180.960938 251.871094 180.960938 C 248.8125 191.117188 244.949219 199.925781 243.578125 201.199219 C 243.457031 201.207031 243.332031 201.203125 243.203125 201.1875 C 243.105469 201.359375 243.003906 201.527344 242.898438 201.695312 L 251.730469 201.6875 C 251.902344 198.617188 252.03125 195.859375 252.078125 193.691406 C 252.152344 190.339844 252.363281 185.851562 252.589844 180.957031 " fill-opacity="1" fill-rule="nonzero"/><path fill="#b4328d" d="M 229.84375 216.460938 C 227.949219 218.1875 226.0625 219.855469 224.136719 221.472656 L 229.96875 221.324219 L 229.84375 216.460938 " fill-opacity="1" fill-rule="nonzero"/><path fill="#b4328d" d="M 201.8125 164.488281 C 201.980469 166.167969 202.046875 168.359375 202.015625 170.921875 C 201.988281 173.132812 201.886719 175.621094 201.71875 178.304688 C 205.171875 177.804688 208.859375 177.253906 213.425781 176.242188 C 215.472656 175.789062 218.085938 175.527344 219.238281 175.425781 C 219.460938 175.140625 219.753906 174.925781 220.140625 174.816406 C 222.976562 173.949219 228.570312 174.929688 233.09375 172.65625 C 232.28125 157.367188 237.574219 141.113281 247.09375 142.347656 C 247.363281 142.433594 247.617188 142.527344 247.867188 142.625 C 243.515625 140.207031 237.484375 138.585938 231.828125 137.667969 L 231.953125 137.871094 L 221.695312 145.226562 L 221.210938 140.984375 C 218.738281 140.84375 216.792969 138.75 216.320312 137.625 L 210.960938 140.464844 L 211.03125 138.070312 C 206.234375 139.160156 202.574219 140.511719 202.574219 140.511719 C 197.804688 147.074219 200.636719 153.023438 201.8125 164.488281 " fill-opacity="1" fill-rule="nonzero"/><path fill="#f1aba4" d="M 229.84375 216.460938 L 229.464844 201.703125 L 231.816406 201.703125 L 231.777344 199.027344 L 239.863281 198.902344 L 239.90625 201.699219 L 242.898438 201.695312 C 243.003906 201.527344 243.105469 201.359375 243.203125 201.1875 C 243.332031 201.203125 243.457031 201.207031 243.578125 201.199219 C 244.949219 199.925781 248.8125 191.117188 251.871094 180.960938 C 248.464844 180.917969 245.050781 180.507812 242.113281 180.015625 C 240.109375 181.519531 238.214844 182.691406 236.976562 182.992188 C 236.523438 183.101562 235.933594 183.1875 235.253906 183.25 C 235.148438 186.125 235.042969 188.566406 234.96875 190.210938 C 230.613281 197.039062 225.929688 206.351562 221.132812 214.015625 L 220.851562 215.628906 L 222.570312 215.601562 C 223.066406 215.597656 223.472656 215.992188 223.484375 216.488281 C 223.488281 216.984375 223.09375 217.394531 222.597656 217.402344 L 222.3125 217.410156 L 221.59375 221.542969 L 224.136719 221.472656 C 226.0625 219.855469 227.949219 218.1875 229.84375 216.460938 " fill-opacity="1" fill-rule="nonzero"/><path fill="#fac5e5" d="M 233.097656 172.65625 C 233.496094 172.457031 233.886719 172.242188 234.265625 171.988281 C 236.359375 170.585938 238.789062 169.867188 241.015625 169.472656 L 239.210938 162.289062 L 239.132812 162.292969 C 238.632812 162.296875 238.226562 161.898438 238.222656 161.398438 C 238.222656 160.898438 238.625 160.496094 239.117188 160.492188 L 256.671875 160.371094 C 256.300781 152.554688 254.152344 145.113281 247.867188 142.625 C 247.617188 142.527344 247.363281 142.433594 247.097656 142.347656 C 237.570312 141.117188 232.28125 157.371094 233.097656 172.65625 " fill-opacity="1" fill-rule="nonzero"/><path fill="#fac5e5" d="M 252.589844 180.957031 C 253.304688 180.953125 254.023438 180.933594 254.734375 180.894531 C 255.167969 178.816406 255.835938 175.246094 256.28125 171.070312 L 251.675781 169.476562 L 250.089844 169.515625 C 250.71875 169.929688 251.125 170.519531 251.09375 171.210938 C 251.050781 172.21875 246.34375 176.851562 242.113281 180.015625 C 245.050781 180.507812 248.464844 180.917969 251.871094 180.960938 C 252.109375 180.960938 252.347656 180.960938 252.589844 180.957031 " fill-opacity="1" fill-rule="nonzero"/><path fill="#fac2b8" d="M 220.269531 183.117188 C 222.644531 183.25 230.902344 183.664062 235.253906 183.25 C 235.933594 183.1875 236.523438 183.101562 236.976562 182.992188 C 238.214844 182.691406 240.109375 181.519531 242.113281 180.015625 C 246.34375 176.851562 251.050781 172.21875 251.09375 171.210938 C 251.125 170.519531 250.71875 169.929688 250.089844 169.515625 C 249.359375 169.035156 248.320312 168.792969 247.289062 168.898438 C 246.222656 169.011719 243.777344 168.988281 241.011719 169.476562 C 238.789062 169.867188 236.359375 170.585938 234.265625 171.988281 C 233.886719 172.242188 233.496094 172.457031 233.097656 172.65625 C 228.566406 174.929688 222.972656 173.953125 220.136719 174.816406 C 219.753906 174.925781 219.460938 175.140625 219.234375 175.429688 C 218.085938 175.527344 215.46875 175.789062 213.425781 176.246094 C 208.859375 177.253906 205.171875 177.804688 201.714844 178.304688 C 199.457031 178.632812 197.300781 178.945312 195.0625 179.34375 C 195.632812 178.34375 196.207031 177.300781 196.785156 176.210938 C 193.453125 175.945312 185.589844 174.921875 182.34375 171.058594 C 179.246094 178.257812 176.40625 187.105469 177.136719 191.742188 C 177.199219 192.410156 177.335938 193.003906 177.554688 193.410156 C 177.726562 193.726562 177.960938 193.992188 178.234375 194.222656 C 178.710938 194.636719 179.304688 194.90625 179.933594 195.050781 C 185.234375 196.277344 193.464844 194.972656 200.394531 192.414062 C 202.308594 191.710938 204.117188 190.910156 205.75 190.042969 C 212.75 186.296875 213.6875 186.921875 220.269531 183.117188 " fill-opacity="1" fill-rule="nonzero"/><path fill="#fac5e5" d="M 210.957031 140.464844 L 216.320312 137.625 C 216.226562 137.398438 216.1875 137.214844 216.21875 137.085938 C 217.058594 135.839844 216.882812 132.949219 216.441406 130.15625 L 211.257812 130.757812 L 211.03125 138.070312 L 210.957031 140.464844 " fill-opacity="1" fill-rule="nonzero"/><path fill="#f1aba4" d="M 216.324219 137.625 C 216.792969 138.75 218.738281 140.84375 221.210938 140.984375 L 220.675781 136.277344 L 226.835938 132.46875 C 222.507812 132.066406 219.519531 130.417969 217.433594 128.515625 C 217.3125 128.863281 217.003906 129.078125 216.4375 129.101562 C 216.378906 129.101562 216.320312 129.09375 216.261719 129.09375 C 216.324219 129.441406 216.386719 129.796875 216.445312 130.15625 C 216.886719 132.945312 217.0625 135.839844 216.222656 137.085938 C 216.1875 137.214844 216.226562 137.398438 216.324219 137.625 " fill-opacity="1" fill-rule="nonzero"/><path fill="#fac5e5" d="M 226.835938 132.46875 L 220.675781 136.277344 L 221.210938 140.984375 L 221.695312 145.230469 L 231.949219 137.875 L 231.824219 137.667969 L 228.652344 132.5625 C 228.023438 132.558594 227.417969 132.523438 226.835938 132.46875 " fill-opacity="1" fill-rule="nonzero"/><path fill="#3e3348" d="M 217.433594 128.515625 C 216.175781 127.375 215.242188 126.144531 214.546875 125.039062 C 211.195312 124.679688 207.738281 120.484375 208.65625 118.292969 C 209.300781 116.753906 211.464844 117.714844 213.171875 118.792969 C 214.519531 115.777344 214.003906 110.535156 214.003906 110.535156 L 214.34375 104.226562 C 217.515625 105.539062 227.375 109.140625 233.4375 106.1875 C 233.832031 105.992188 234.214844 105.777344 234.574219 105.527344 C 241.585938 100.640625 237.464844 93.679688 237.464844 93.679688 C 237.464844 93.679688 236.1875 97.902344 232.3125 95.867188 C 228.4375 93.832031 225.035156 89.949219 218.738281 90.820312 C 212.695312 91.648438 206.589844 95.777344 207.382812 100.625 C 206.296875 102.28125 205.007812 104.808594 204.847656 105.222656 C 203.042969 109.925781 204.1875 115.34375 207.292969 119.230469 C 207.449219 119.429688 207.621094 119.652344 207.8125 119.855469 C 209.230469 122.9375 212.507812 129.03125 216.261719 129.097656 C 216.316406 129.097656 216.378906 129.101562 216.4375 129.101562 C 217 129.082031 217.308594 128.863281 217.433594 128.515625 " fill-opacity="1" fill-rule="nonzero"/><path fill="#fac2b8" d="M 231.421875 115.355469 C 231.605469 114.976562 232.0625 114.820312 232.441406 115.007812 C 232.820312 115.195312 232.976562 115.652344 232.792969 116.03125 C 232.605469 116.410156 232.148438 116.566406 231.765625 116.378906 C 231.386719 116.191406 231.230469 115.734375 231.421875 115.355469 Z M 210.445312 119.191406 C 212.050781 119.027344 213.550781 119.816406 214.453125 121.125 C 214.726562 121.53125 214.0625 121.890625 213.789062 121.492188 C 213.027344 120.386719 211.75 119.8125 210.417969 119.949219 C 209.933594 119.996094 209.964844 119.238281 210.445312 119.191406 Z M 223.601562 118.511719 C 223.417969 118.890625 222.960938 119.046875 222.578125 118.859375 C 222.199219 118.675781 222.046875 118.214844 222.230469 117.835938 C 222.417969 117.457031 222.875 117.300781 223.253906 117.488281 C 223.632812 117.675781 223.789062 118.132812 223.601562 118.511719 Z M 217.898438 117.4375 C 219.011719 115.066406 221.890625 113.859375 224.359375 113.46875 C 224.988281 113.371094 225.21875 114.335938 224.589844 114.433594 C 222.355469 114.785156 219.753906 115.804688 218.742188 117.957031 C 218.472656 118.539062 217.628906 118.011719 217.898438 117.4375 Z M 214.347656 104.226562 L 214.003906 110.535156 C 214.003906 110.535156 214.519531 115.777344 213.171875 118.792969 C 211.46875 117.714844 209.300781 116.75 208.65625 118.289062 C 207.738281 120.484375 211.199219 124.679688 214.546875 125.039062 C 215.246094 126.140625 216.175781 127.371094 217.433594 128.515625 C 219.515625 130.417969 222.507812 132.070312 226.835938 132.46875 C 227.417969 132.523438 228.023438 132.558594 228.652344 132.5625 C 229.332031 132.570312 230.039062 132.550781 230.777344 132.496094 C 232.003906 132.402344 233.042969 131.550781 233.378906 130.363281 C 233.679688 129.273438 233.921875 128.148438 234.113281 127.003906 C 233.730469 127.027344 233.324219 127.035156 232.894531 127.027344 C 231.871094 127.003906 230.988281 126.46875 230.460938 125.691406 C 230.300781 126.566406 229.761719 127.375 228.898438 127.828125 C 222.34375 131.273438 220.496094 126.628906 220.496094 126.628906 C 220.496094 126.628906 222.359375 128.5 224.820312 125.683594 C 226.101562 124.21875 227.347656 123.570312 228.253906 123.285156 C 228.226562 123.179688 228.207031 123.066406 228.1875 122.953125 C 227.78125 120.503906 227.398438 118.050781 227.011719 115.597656 C 226.992188 115.488281 226.980469 115.328125 226.988281 115.152344 C 227.003906 114.726562 227.417969 113.609375 227.996094 114.289062 C 228.113281 114.421875 228.152344 114.601562 228.199219 114.777344 C 228.804688 117.347656 229.507812 119.421875 231.148438 121.539062 C 231.394531 121.855469 231.664062 122.234375 231.785156 122.621094 C 231.789062 122.621094 231.789062 122.628906 231.792969 122.632812 C 232.511719 122.5625 233.449219 122.609375 234.582031 122.941406 C 234.8125 119.652344 234.707031 116.425781 234.496094 113.707031 C 234.359375 113.730469 234.207031 113.710938 234.070312 113.59375 C 232.808594 112.503906 230.777344 112.71875 229.300781 113.230469 C 228.695312 113.4375 228.46875 112.46875 229.066406 112.261719 C 230.78125 111.671875 232.875 111.597656 234.40625 112.636719 C 234.226562 110.671875 234 109.039062 233.835938 107.960938 C 233.738281 107.359375 233.605469 106.769531 233.441406 106.183594 C 227.375 109.136719 217.515625 105.535156 214.347656 104.226562 " fill-opacity="1" fill-rule="nonzero"/><path fill="#3e3348" d="M 222.230469 117.839844 C 222.046875 118.21875 222.199219 118.675781 222.582031 118.859375 C 222.957031 119.050781 223.414062 118.894531 223.601562 118.511719 C 223.789062 118.132812 223.632812 117.679688 223.253906 117.492188 C 222.875 117.304688 222.417969 117.457031 222.230469 117.839844 " fill-opacity="1" fill-rule="nonzero"/><path fill="#3e3348" d="M 232.789062 116.035156 C 232.976562 115.652344 232.820312 115.195312 232.441406 115.007812 C 232.0625 114.824219 231.605469 114.980469 231.417969 115.359375 C 231.230469 115.734375 231.386719 116.195312 231.765625 116.378906 C 232.144531 116.570312 232.601562 116.414062 232.789062 116.035156 " fill-opacity="1" fill-rule="nonzero"/><path fill="#3e3348" d="M 218.742188 117.957031 C 219.753906 115.804688 222.355469 114.785156 224.589844 114.4375 C 225.21875 114.339844 224.988281 113.371094 224.359375 113.46875 C 221.886719 113.859375 219.011719 115.066406 217.898438 117.441406 C 217.628906 118.011719 218.472656 118.539062 218.742188 117.957031 " fill-opacity="1" fill-rule="nonzero"/><path fill="#3e3348" d="M 229.066406 112.265625 C 228.46875 112.472656 228.695312 113.4375 229.300781 113.230469 C 230.777344 112.71875 232.804688 112.503906 234.070312 113.597656 C 234.207031 113.710938 234.355469 113.734375 234.496094 113.707031 C 234.859375 113.640625 235.136719 113.207031 234.789062 112.90625 C 234.667969 112.800781 234.535156 112.722656 234.40625 112.636719 C 232.875 111.597656 230.78125 111.675781 229.066406 112.265625 " fill-opacity="1" fill-rule="nonzero"/><path fill="#3e3348" d="M 231.75 123.367188 C 231.617188 123.613281 231.34375 123.757812 231.078125 123.832031 C 230.382812 124.019531 228.894531 124.410156 228.402344 123.644531 C 228.332031 123.539062 228.285156 123.414062 228.253906 123.289062 C 227.347656 123.574219 226.101562 124.21875 224.820312 125.683594 C 222.355469 128.5 220.492188 126.628906 220.492188 126.628906 C 220.492188 126.628906 222.339844 131.277344 228.898438 127.828125 C 229.757812 127.375 230.300781 126.566406 230.460938 125.691406 C 230.984375 126.46875 231.871094 127.003906 232.890625 127.027344 C 233.324219 127.039062 233.730469 127.027344 234.113281 127.003906 C 240.253906 126.640625 239.894531 122.222656 239.894531 122.222656 C 239.894531 122.222656 239.054688 124.730469 235.59375 123.300781 C 235.238281 123.152344 234.902344 123.039062 234.578125 122.945312 C 233.449219 122.609375 232.511719 122.566406 231.789062 122.632812 C 231.867188 122.875 231.871094 123.148438 231.75 123.367188 " fill-opacity="1" fill-rule="nonzero"/><path fill="#eca8a1" d="M 228.402344 123.644531 C 228.890625 124.410156 230.382812 124.019531 231.078125 123.832031 C 231.34375 123.757812 231.617188 123.613281 231.75 123.367188 C 231.871094 123.148438 231.867188 122.875 231.789062 122.632812 C 231.789062 122.628906 231.789062 122.625 231.785156 122.621094 C 231.660156 122.234375 231.394531 121.855469 231.148438 121.539062 C 229.507812 119.421875 228.804688 117.347656 228.195312 114.777344 C 228.152344 114.605469 228.109375 114.421875 227.992188 114.292969 C 227.417969 113.609375 227.003906 114.726562 226.988281 115.152344 C 226.980469 115.328125 226.992188 115.488281 227.007812 115.597656 C 227.398438 118.050781 227.777344 120.503906 228.1875 122.957031 C 228.203125 123.066406 228.226562 123.179688 228.25 123.289062 C 228.285156 123.414062 228.332031 123.535156 228.402344 123.644531 " fill-opacity="1" fill-rule="nonzero"/><path fill="#e9a395" d="M 210.417969 119.949219 C 211.746094 119.8125 213.027344 120.386719 213.789062 121.492188 C 214.058594 121.890625 214.726562 121.53125 214.449219 121.128906 C 213.550781 119.816406 212.050781 119.03125 210.445312 119.191406 C 209.964844 119.238281 209.933594 119.996094 210.417969 119.949219 " fill-opacity="1" fill-rule="nonzero"/><path fill="#c7c9ea" d="M 386.488281 294.46875 C 386.488281 294.46875 385.957031 294.699219 384.96875 295.066406 C 386.371094 298.425781 387.742188 301.980469 389.0625 305.597656 L 393.828125 285.859375 L 383.347656 285.808594 L 386.488281 294.46875 " fill-opacity="1" fill-rule="nonzero"/><path fill="#c7c9ea" d="M 334.089844 328.304688 C 329.984375 328.367188 326.554688 324.933594 326.328125 320.535156 L 324.53125 285.507812 L 315.503906 285.460938 C 314.773438 285.457031 314.078125 285.285156 313.453125 284.980469 L 320.132812 334.984375 L 320.136719 335.128906 L 342.320312 334.796875 C 341.839844 332.695312 341.359375 330.492188 340.863281 328.203125 L 334.089844 328.304688 " fill-opacity="1" fill-rule="nonzero"/><path fill="#c7c9ea" d="M 371.007812 327.75 L 354.113281 328.003906 C 354.199219 330.289062 354.269531 332.503906 354.324219 334.617188 L 381.964844 334.203125 C 382.113281 334.199219 382.230469 334.070312 382.230469 333.914062 C 382.226562 333.886719 382.230469 333.859375 382.238281 333.835938 L 382.855469 331.273438 C 381.222656 328.429688 379.523438 325.425781 377.828125 322.332031 C 376.894531 325.464844 374.183594 327.703125 371.007812 327.75 " fill-opacity="1" fill-rule="nonzero"/><path fill="#76316b" d="M 442.246094 110.320312 L 441.578125 110.332031 C 437.828125 110.386719 434.832031 113.46875 434.890625 117.21875 L 435.496094 157.675781 C 435.113281 158.15625 434.800781 158.628906 434.578125 159.0625 L 401.789062 224.113281 C 405.847656 227.507812 409.042969 231.835938 411.105469 236.679688 L 447.53125 164.414062 C 448.519531 162.460938 449.675781 158.242188 449.65625 154.871094 C 449.683594 154.558594 449.699219 154.265625 449.695312 153.988281 L 449.136719 117.003906 C 449.082031 113.253906 445.996094 110.265625 442.246094 110.320312 " fill-opacity="1" fill-rule="nonzero"/><path fill="#76316b" d="M 313.722656 270.070312 L 331.152344 269.632812 C 331.765625 266.582031 332.621094 262.605469 333.660156 258.070312 L 311.234375 258.40625 C 308.082031 258.449219 305.246094 259.765625 303.207031 261.855469 L 302.714844 277.34375 C 304.691406 279.636719 307.550781 281.136719 310.757812 281.3125 L 309.273438 276.117188 C 308.417969 273.132812 310.617188 270.144531 313.722656 270.070312 " fill-opacity="1" fill-rule="nonzero"/><path fill="#dfddf2" d="M 398.769531 221.867188 C 397.28125 230.386719 393.910156 240.789062 387.632812 253.445312 C 380.167969 270.3125 379.8125 276.050781 379.8125 276.050781 L 383.347656 285.808594 L 393.828125 285.859375 L 396.628906 285.875 C 398.449219 285.886719 400.121094 284.851562 400.917969 283.21875 L 410.332031 264.003906 C 414.839844 254.816406 414.640625 244.992188 411.101562 236.679688 C 409.046875 231.835938 405.847656 227.503906 401.785156 224.109375 C 400.828125 223.3125 399.820312 222.5625 398.769531 221.867188 " fill-opacity="1" fill-rule="nonzero"/><path fill="#dfddf2" d="M 319.804688 217.136719 C 317.171875 217.164062 315.0625 219.332031 315.101562 221.960938 C 315.140625 224.539062 317.230469 226.613281 319.804688 226.636719 L 341.675781 226.832031 C 342.253906 224.828125 342.835938 222.851562 343.425781 220.929688 C 335.828125 220.902344 329.484375 220.828125 326.996094 220.683594 C 318.898438 220.214844 319.804688 217.136719 319.804688 217.136719 " fill-opacity="1" fill-rule="nonzero"/><path fill="#dfddf2" d="M 324.53125 285.507812 L 330.8125 285.539062 C 329.433594 279.660156 329.625 279.949219 330.160156 275.253906 C 330.269531 274.261719 330.621094 272.304688 331.152344 269.632812 L 313.722656 270.070312 C 310.617188 270.144531 308.421875 273.132812 309.269531 276.117188 L 310.757812 281.3125 L 310.960938 282.015625 C 311.339844 283.347656 312.265625 284.40625 313.453125 284.980469 C 314.078125 285.285156 314.773438 285.457031 315.503906 285.460938 L 324.53125 285.507812 " fill-opacity="1" fill-rule="nonzero"/><path fill="#76316b" d="M 326.996094 220.683594 C 329.484375 220.824219 335.828125 220.902344 343.425781 220.929688 C 343.867188 219.488281 344.3125 218.074219 344.753906 216.699219 C 331.746094 216.917969 319.804688 217.136719 319.804688 217.136719 C 319.804688 217.136719 318.898438 220.214844 326.996094 220.683594 " fill-opacity="1" fill-rule="nonzero"/><path fill="#327887" d="M 336.023438 179.378906 C 339.117188 180.125 341.589844 180.144531 343.542969 179.792969 C 345.28125 178.769531 346.964844 177.820312 348.585938 176.953125 C 347.90625 171.90625 347.460938 168.921875 347.460938 168.921875 C 346.808594 165.722656 346.046875 162.441406 345.183594 159.273438 C 339.402344 156.570312 338.285156 148.53125 340.507812 145.410156 C 340.949219 144.789062 341.34375 143.773438 341.683594 142.59375 C 341.691406 142.585938 341.699219 142.578125 341.707031 142.570312 C 342.878906 135.371094 349.828125 119.015625 351.585938 114.953125 C 351.84375 114.355469 351.988281 114.019531 351.988281 114.019531 L 340.804688 119.820312 C 340.644531 119.824219 340.554688 119.824219 340.554688 119.824219 C 340.554688 119.824219 340.410156 120.355469 340.164062 121.308594 C 338.929688 126.054688 335.085938 141.386719 333.203125 155.121094 C 331.53125 167.324219 331.402344 178.261719 336.023438 179.378906 " fill-opacity="1" fill-rule="nonzero"/><path fill="#979dc9" d="M 220.792969 207.054688 L 221.773438 201.417969 L 189.53125 201.898438 L 190.980469 207.5 L 220.792969 207.054688 " fill-opacity="1" fill-rule="nonzero"/><path fill="#dee0f3" d="M 221.773438 201.417969 L 222.058594 201.414062 C 222.558594 201.40625 222.953125 200.996094 222.945312 200.5 C 222.9375 200 222.527344 199.605469 222.03125 199.609375 L 199.378906 199.953125 L 189.421875 200.101562 C 188.925781 200.109375 188.527344 200.519531 188.535156 201.015625 C 188.542969 201.515625 188.953125 201.910156 189.453125 201.902344 L 189.53125 201.898438 L 221.773438 201.417969 " fill-opacity="1" fill-rule="nonzero"/><path fill="#979dc9" d="M 220.851562 215.628906 L 221.132812 214.015625 L 222.035156 208.835938 L 189.792969 209.324219 L 191.539062 216.070312 L 220.851562 215.628906 " fill-opacity="1" fill-rule="nonzero"/><path fill="#dee0f3" d="M 222.035156 208.835938 L 222.320312 208.832031 C 222.816406 208.824219 223.214844 208.417969 223.207031 207.917969 C 223.199219 207.421875 222.792969 207.023438 222.292969 207.03125 L 220.792969 207.054688 L 190.980469 207.5 L 189.683594 207.519531 C 189.1875 207.527344 188.789062 207.9375 188.796875 208.433594 C 188.804688 208.933594 189.214844 209.328125 189.710938 209.320312 L 189.792969 209.324219 L 222.035156 208.835938 " fill-opacity="1" fill-rule="nonzero"/><path fill="#979dc9" d="M 191.21875 222.34375 L 221.59375 221.542969 L 222.3125 217.410156 L 190.066406 217.890625 L 190.355469 219.007812 L 191.21875 222.34375 " fill-opacity="1" fill-rule="nonzero"/><path fill="#dee0f3" d="M 222.3125 217.410156 L 222.597656 217.402344 C 223.09375 217.394531 223.488281 216.984375 223.484375 216.488281 C 223.472656 215.992188 223.066406 215.597656 222.570312 215.601562 L 220.851562 215.628906 L 191.539062 216.070312 L 189.960938 216.09375 C 189.460938 216.101562 189.0625 216.507812 189.070312 217.007812 C 189.082031 217.503906 189.488281 217.898438 189.988281 217.894531 L 190.066406 217.890625 L 222.3125 217.410156 " fill-opacity="1" fill-rule="nonzero"/><path fill="#979dc9" d="M 185.253906 222.5 L 185.847656 219.082031 L 185.992188 218.246094 L 153.75 218.730469 L 154.933594 223.296875 L 185.253906 222.5 " fill-opacity="1" fill-rule="nonzero"/><path fill="#dee0f3" d="M 186.277344 218.242188 C 186.777344 218.234375 187.175781 217.828125 187.164062 217.328125 C 187.15625 216.832031 186.746094 216.433594 186.25 216.441406 L 153.644531 216.933594 C 153.144531 216.9375 152.75 217.351562 152.753906 217.847656 C 152.761719 218.339844 153.171875 218.738281 153.667969 218.734375 L 153.75 218.730469 L 185.992188 218.246094 L 186.277344 218.242188 " fill-opacity="1" fill-rule="nonzero"/><path fill="#dfddf2" d="M 289.714844 198.230469 L 281.625 198.347656 L 281.667969 201.144531 L 289.753906 200.910156 L 289.714844 198.230469 " fill-opacity="1" fill-rule="nonzero"/><path fill="#327887" d="M 289.753906 200.910156 L 281.667969 201.144531 L 270 201.488281 L 261.378906 201.742188 L 261.339844 203.789062 L 264.683594 203.753906 L 264.996094 206.722656 L 264.398438 206.742188 L 264.65625 209.679688 L 268.410156 215.382812 C 268.410156 215.386719 268.457031 217.359375 268.527344 220.308594 L 270.15625 220.261719 L 269.867188 214.75 L 273.660156 208.960938 L 273.566406 206.144531 L 273.152344 206.152344 L 273.070312 203.117188 L 279.082031 203.046875 L 279.398438 206.019531 L 278.800781 206.035156 L 279.0625 208.976562 L 282.816406 214.675781 C 282.816406 214.675781 282.867188 216.800781 282.9375 219.925781 L 292.1875 219.6875 L 292.109375 200.839844 L 289.753906 200.910156 " fill-opacity="1" fill-rule="nonzero"/><path fill="#dfddf2" d="M 239.863281 198.902344 L 231.777344 199.027344 L 231.816406 201.703125 L 239.90625 201.699219 L 239.863281 198.902344 " fill-opacity="1" fill-rule="nonzero"/><path fill="#604c72" d="M 255.46875 215.453125 L 259.257812 209.667969 L 259.164062 206.851562 L 258.75 206.863281 L 258.667969 203.820312 L 260.304688 203.800781 L 260.203125 201.683594 L 254.246094 201.691406 L 251.730469 201.6875 L 242.898438 201.695312 L 239.90625 201.699219 L 231.816406 201.703125 L 229.464844 201.703125 L 229.84375 216.460938 L 229.96875 221.324219 L 255.734375 220.644531 L 255.46875 215.453125 " fill-opacity="1" fill-rule="nonzero"/><path fill="#dfddf2" d="M 259.164062 206.851562 L 259.257812 209.667969 L 255.46875 215.453125 L 268.410156 215.382812 L 264.65625 209.679688 L 264.398438 206.742188 L 259.164062 206.851562 " fill-opacity="1" fill-rule="nonzero"/><path fill="#b4328d" d="M 268.410156 215.382812 L 255.46875 215.453125 L 255.734375 220.644531 L 268.527344 220.308594 C 268.457031 217.359375 268.410156 215.386719 268.410156 215.382812 " fill-opacity="1" fill-rule="nonzero"/><path fill="#b4328d" d="M 258.667969 203.820312 L 258.75 206.863281 L 259.164062 206.851562 L 264.398438 206.742188 L 264.996094 206.722656 L 264.683594 203.753906 L 261.339844 203.789062 L 260.304688 203.800781 L 258.667969 203.820312 " fill-opacity="1" fill-rule="nonzero"/><path fill="#dfddf2" d="M 282.816406 214.675781 L 279.0625 208.976562 L 278.800781 206.035156 L 273.566406 206.144531 L 273.660156 208.960938 L 269.867188 214.75 L 282.816406 214.675781 " fill-opacity="1" fill-rule="nonzero"/><path fill="#b4328d" d="M 282.816406 214.675781 L 269.867188 214.75 L 270.15625 220.261719 L 282.9375 219.925781 C 282.867188 216.800781 282.816406 214.675781 282.816406 214.675781 " fill-opacity="1" fill-rule="nonzero"/><path fill="#b4328d" d="M 279.398438 206.019531 L 279.082031 203.046875 L 273.070312 203.117188 L 273.152344 206.152344 L 273.566406 206.144531 L 278.800781 206.035156 L 279.398438 206.019531 " fill-opacity="1" fill-rule="nonzero"/><path fill="#dfddf2" d="M 301.566406 206.519531 L 297.921875 219.535156 L 302.195312 219.421875 L 304.871094 208.941406 C 304.015625 208.929688 301.8125 208.683594 301.566406 206.519531 " fill-opacity="1" fill-rule="nonzero"/><path fill="#fac5e5" d="M 367.011719 177.605469 C 366.65625 177.929688 366.304688 178.234375 365.941406 178.523438 C 363.242188 182.070312 359.414062 184.816406 355.054688 186.429688 C 353.605469 186.964844 351.898438 187.601562 350.027344 188.304688 C 350.457031 191.847656 350.90625 195.742188 351.355469 199.902344 C 358.675781 200.359375 366.054688 198.902344 372.902344 196.121094 C 378.496094 193.585938 382.910156 190.421875 385.488281 188.359375 C 386.3125 187.621094 387.136719 186.890625 388 186.203125 C 384.113281 182.8125 383.445312 176.792969 383.53125 172.578125 C 380.285156 176.859375 373.519531 183.753906 367.011719 177.605469 " fill-opacity="1" fill-rule="nonzero"/><path fill="#fac5e5" d="M 341.703125 142.570312 C 341.695312 142.582031 341.691406 142.585938 341.683594 142.59375 C 341.339844 143.777344 340.949219 144.789062 340.503906 145.410156 C 338.28125 148.535156 339.402344 156.570312 345.183594 159.273438 C 346.046875 162.445312 346.808594 165.722656 347.457031 168.925781 C 347.457031 168.925781 347.902344 171.90625 348.582031 176.953125 C 351.59375 175.34375 354.378906 174.019531 356.847656 173.035156 C 357.777344 170.578125 358.9375 167.792969 360.261719 164.832031 C 354.429688 143.453125 369.335938 120.320312 372.109375 116.273438 C 371.191406 115.980469 370.265625 115.726562 369.335938 115.527344 C 368.347656 115.3125 367.429688 115.132812 366.601562 114.988281 C 366.605469 114.992188 366.609375 115 366.613281 115.007812 C 360.519531 125.394531 351.984375 119.324219 353.820312 116.140625 C 354.167969 115.539062 354.402344 114.828125 354.558594 114.074219 C 353.804688 114.316406 352.699219 114.601562 351.582031 114.953125 C 349.824219 119.015625 342.878906 135.375 341.703125 142.570312 " fill-opacity="1" fill-rule="nonzero"/><path fill="#f1aba4" d="M 366.617188 115.003906 C 366.609375 115 366.609375 114.992188 366.605469 114.988281 C 365.589844 112.761719 364.78125 110.382812 364.140625 108.109375 C 363.9375 107.382812 363.753906 106.667969 363.582031 105.972656 C 362.707031 106.605469 361.75 107.132812 360.730469 107.511719 C 358.855469 108.210938 357.160156 109 354.738281 109.40625 C 354.847656 110.808594 354.871094 112.535156 354.558594 114.070312 C 354.402344 114.828125 354.171875 115.539062 353.824219 116.140625 C 351.984375 119.324219 360.523438 125.394531 366.617188 115.003906 " fill-opacity="1" fill-rule="nonzero"/><path fill="#3e3348" d="M 409.195312 363.246094 C 408.777344 363.972656 408.359375 364.703125 407.933594 365.425781 C 406.691406 367.554688 405.472656 369.707031 404.097656 371.761719 C 403.042969 373.347656 401.972656 375.105469 400.570312 376.40625 C 399.207031 377.65625 397.546875 378.433594 395.878906 379.097656 C 393.246094 380.152344 390.523438 380.960938 387.746094 381.53125 C 387.519531 381.578125 387.253906 381.609375 387.070312 381.421875 C 387.070312 381.421875 387.914062 384.308594 388.914062 384.285156 C 389.914062 384.261719 399.054688 381.929688 402.671875 380.273438 C 406.292969 378.613281 413.140625 371.441406 413.140625 371.441406 L 410.152344 361.222656 C 410.132812 361.929688 409.53125 362.652344 409.195312 363.246094 " fill-opacity="1" fill-rule="nonzero"/><path fill="#327887" d="M 402.859375 350.609375 C 402.859375 350.609375 402.839844 350.617188 402.832031 350.621094 C 402.675781 350.902344 402.550781 351.203125 402.476562 351.496094 C 400.917969 358.132812 402.664062 365.960938 396.960938 370.851562 C 396.347656 370.46875 394.894531 369.648438 394.1875 369.484375 C 394.046875 369.773438 393.890625 370.050781 393.710938 370.3125 C 392.617188 371.871094 391.632812 373.085938 390.070312 374 C 388.507812 374.910156 386.945312 376.269531 386.699219 378.316406 C 386.601562 379.144531 386.730469 380.003906 386.859375 380.847656 C 386.890625 381.054688 386.933594 381.277344 387.070312 381.421875 C 387.253906 381.609375 387.523438 381.578125 387.75 381.53125 C 390.523438 380.960938 393.246094 380.152344 395.878906 379.097656 C 397.546875 378.433594 399.207031 377.65625 400.570312 376.402344 C 401.972656 375.105469 403.042969 373.347656 404.101562 371.761719 C 405.46875 369.707031 406.6875 367.554688 407.933594 365.425781 C 408.359375 364.703125 408.777344 363.972656 409.195312 363.246094 C 409.53125 362.648438 410.136719 361.929688 410.15625 361.222656 C 410.285156 356.785156 406.867188 352.136719 402.878906 350.53125 C 402.867188 350.550781 402.859375 350.570312 402.851562 350.585938 C 402.851562 350.597656 402.859375 350.609375 402.859375 350.609375 " fill-opacity="1" fill-rule="nonzero"/><path fill="#3e3348" d="M 356.632812 367.886719 C 356.007812 368.445312 355.378906 369.007812 354.75 369.558594 C 352.894531 371.1875 351.058594 372.84375 349.109375 374.363281 C 347.605469 375.535156 346.03125 376.859375 344.289062 377.648438 C 342.605469 378.414062 340.785156 378.625 338.992188 378.730469 C 336.160156 378.894531 333.320312 378.804688 330.503906 378.46875 C 330.277344 378.445312 330.011719 378.390625 329.898438 378.152344 C 329.898438 378.152344 329.789062 381.15625 330.742188 381.449219 C 331.699219 381.746094 341.109375 382.417969 345.066406 381.984375 C 349.023438 381.550781 357.789062 376.910156 357.789062 376.910156 L 358.183594 366.269531 C 357.941406 366.9375 357.144531 367.425781 356.632812 367.886719 " fill-opacity="1" fill-rule="nonzero"/><path fill="#327887" d="M 342.625 371.242188 C 342.164062 370.683594 341.042969 369.445312 340.421875 369.070312 C 340.199219 369.300781 339.964844 369.515625 339.710938 369.703125 C 338.179688 370.839844 336.859375 371.683594 335.089844 372.054688 C 333.320312 372.429688 331.410156 373.222656 330.53125 375.089844 C 330.175781 375.839844 330.027344 376.699219 329.878906 377.539062 C 329.847656 377.746094 329.8125 377.972656 329.898438 378.152344 C 330.015625 378.390625 330.277344 378.445312 330.507812 378.46875 C 333.320312 378.804688 336.160156 378.894531 338.992188 378.730469 C 340.785156 378.625 342.605469 378.414062 344.292969 377.648438 C 346.03125 376.859375 347.605469 375.535156 349.113281 374.363281 C 351.0625 372.84375 352.890625 371.1875 354.75 369.558594 C 355.382812 369.007812 356.011719 368.445312 356.632812 367.886719 C 357.144531 367.425781 357.945312 366.9375 358.1875 366.269531 C 359.714844 362.097656 357.933594 356.613281 354.65625 353.832031 C 354.390625 354.0625 354.15625 354.339844 353.972656 354.617188 C 350.394531 360.425781 349.578125 368.402344 342.625 371.242188 " fill-opacity="1" fill-rule="nonzero"/><path fill="#f1aba4" d="M 366.320312 299.664062 C 369.703125 307.085938 373.78125 314.957031 377.832031 322.332031 C 379.527344 325.425781 381.222656 328.429688 382.855469 331.273438 C 389.175781 342.269531 394.632812 350.886719 396.160156 353.058594 C 395.476562 356.355469 395.765625 359.816406 395.386719 363.601562 C 395.226562 365.140625 394.816406 368.171875 394.1875 369.480469 C 394.894531 369.648438 396.347656 370.46875 396.964844 370.851562 C 402.664062 365.960938 400.914062 358.132812 402.476562 351.496094 C 402.554688 351.203125 402.675781 350.902344 402.832031 350.621094 C 402.839844 350.617188 402.859375 350.609375 402.859375 350.609375 C 402.859375 350.609375 402.855469 350.597656 402.847656 350.585938 C 402.863281 350.570312 402.867188 350.550781 402.878906 350.53125 C 402.863281 350.523438 402.847656 350.523438 402.832031 350.515625 C 402.429688 348.945312 396.566406 326.195312 389.058594 305.601562 C 387.742188 301.980469 386.371094 298.425781 384.96875 295.066406 C 382.105469 296.132812 375.367188 298.371094 366.320312 299.664062 " fill-opacity="1" fill-rule="nonzero"/><path fill="#f1aba4" d="M 352.332031 300.640625 C 346.929688 300.609375 341.136719 300.109375 335.15625 298.859375 C 336.84375 308.644531 338.898438 319.050781 340.863281 328.203125 C 341.355469 330.492188 341.839844 332.695312 342.320312 334.796875 C 344.550781 344.699219 346.507812 352.191406 347.445312 354.179688 C 345.78125 357.078125 344.960938 360.421875 343.417969 363.867188 C 342.78125 365.28125 341.433594 368.027344 340.421875 369.070312 C 341.042969 369.445312 342.164062 370.683594 342.625 371.242188 C 349.578125 368.402344 350.394531 360.425781 353.972656 354.621094 C 354.15625 354.339844 354.386719 354.0625 354.65625 353.832031 C 354.601562 353.78125 354.539062 353.742188 354.480469 353.691406 C 354.5625 353.6875 354.613281 353.6875 354.613281 353.6875 C 354.613281 353.6875 354.628906 345.554688 354.328125 334.617188 C 354.269531 332.503906 354.199219 330.285156 354.113281 328.003906 C 353.785156 319.136719 353.238281 309.265625 352.332031 300.640625 " fill-opacity="1" fill-rule="nonzero"/><path fill="#fac5ba" d="M 346.234375 102.988281 C 346.234375 102.988281 346.457031 101.609375 347.09375 101.5 C 347.730469 101.394531 348.089844 102.414062 348.089844 102.414062 C 348.089844 102.414062 348.207031 101.949219 348.46875 101.773438 C 349.453125 101.128906 352.527344 103.132812 352.527344 103.132812 C 348 105.628906 346.234375 102.988281 346.234375 102.988281 Z M 345.605469 98.605469 C 345.726562 98.191406 346 97.78125 346.253906 97.433594 C 347.945312 95.140625 348.640625 92.917969 349.222656 90.164062 C 349.257812 89.976562 349.300781 89.785156 349.417969 89.640625 C 350.015625 88.902344 350.488281 90.078125 350.515625 90.527344 C 350.527344 90.714844 350.515625 90.890625 350.5 91.003906 C 350.152344 93.625 349.816406 96.246094 349.445312 98.867188 C 349.410156 99.125 349.367188 99.386719 349.234375 99.609375 C 348.730469 100.433594 347.136719 100.058594 346.394531 99.875 C 346.101562 99.800781 345.8125 99.660156 345.664062 99.398438 C 345.527344 99.164062 345.527344 98.867188 345.605469 98.605469 Z M 345.5 92.03125 C 345.921875 91.871094 346.394531 92.078125 346.554688 92.496094 C 346.71875 92.917969 346.507812 93.386719 346.089844 93.546875 C 345.671875 93.714844 345.203125 93.503906 345.039062 93.085938 C 344.875 92.664062 345.082031 92.195312 345.5 92.03125 Z M 354.171875 93.082031 C 354.59375 92.917969 355.066406 93.128906 355.226562 93.546875 C 355.390625 93.96875 355.179688 94.441406 354.761719 94.601562 C 354.34375 94.761719 353.871094 94.554688 353.707031 94.132812 C 353.546875 93.714844 353.753906 93.246094 354.171875 93.082031 Z M 353.492188 89.242188 C 354.789062 89.324219 356.152344 89.605469 357.359375 90.085938 C 358.449219 90.523438 359.015625 91.152344 359.410156 92.242188 C 359.667969 92.945312 358.535156 93.207031 358.285156 92.511719 C 357.664062 90.824219 355.035156 90.5 353.453125 90.402344 C 352.710938 90.355469 352.746094 89.195312 353.492188 89.242188 Z M 368.289062 97.28125 C 369.300781 95.554688 371.101562 94.542969 373.097656 94.542969 C 373.703125 94.546875 373.667969 95.480469 373.066406 95.476562 C 371.390625 95.476562 369.929688 96.328125 369.082031 97.765625 C 368.777344 98.285156 367.980469 97.796875 368.289062 97.28125 Z M 360.726562 107.515625 C 361.753906 107.132812 362.707031 106.609375 363.582031 105.976562 C 364.742188 105.132812 365.746094 104.082031 366.554688 102.867188 C 366.683594 102.613281 366.804688 102.359375 366.914062 102.117188 C 371.617188 102.769531 376.75 96.15625 375.152344 93.273438 C 373.449219 90.207031 366.992188 96.574219 366.992188 96.574219 C 364.074219 94.945312 364.722656 82.332031 364.8125 80.792969 C 361.261719 82.492188 351.730469 86.722656 345.191406 86.53125 C 345.046875 87.433594 344.933594 88.34375 344.839844 89.273438 C 345.546875 88.972656 346.328125 89.003906 347.101562 89.011719 C 347.851562 89.019531 347.8125 90.183594 347.0625 90.175781 C 346.363281 90.171875 345.660156 90.089844 345.042969 90.480469 C 344.933594 90.546875 344.828125 90.574219 344.722656 90.570312 C 344.230469 97.082031 344.785156 104.054688 345.503906 109.164062 C 349.675781 109.824219 352.511719 109.78125 354.734375 109.410156 C 357.160156 109.003906 358.855469 108.210938 360.726562 107.515625 " fill-opacity="1" fill-rule="nonzero"/><path fill="#3e3348" d="M 356.511719 71.667969 C 356.65625 71.230469 356.789062 70.820312 356.910156 70.4375 L 356.511719 71.667969 " fill-opacity="1" fill-rule="nonzero"/><path fill="#3e3348" d="M 355.65625 74.347656 C 355.824219 73.832031 355.976562 73.351562 356.121094 72.886719 L 355.65625 74.347656 " fill-opacity="1" fill-rule="nonzero"/><path fill="#3e3348" d="M 364.8125 80.792969 C 364.722656 82.332031 364.074219 94.945312 366.992188 96.578125 C 366.992188 96.578125 373.449219 90.207031 375.148438 93.273438 C 376.746094 96.15625 371.617188 102.769531 366.917969 102.117188 C 366.804688 102.359375 366.683594 102.613281 366.554688 102.871094 C 365.746094 104.082031 364.738281 105.132812 363.582031 105.976562 C 363.75 106.671875 363.9375 107.386719 364.140625 108.113281 L 373.746094 107.023438 L 373.597656 103.59375 L 375.011719 107.105469 L 384.917969 106.074219 C 384.917969 106.074219 383.636719 89.382812 378.835938 79.535156 C 378.835938 79.550781 378.832031 79.566406 378.828125 79.585938 C 378.828125 79.585938 365.21875 79.058594 355.660156 74.347656 L 352.34375 70.785156 C 345.761719 73.601562 342.464844 80.261719 344.023438 86.449219 C 344.398438 86.5 344.789062 86.519531 345.195312 86.535156 C 351.730469 86.722656 361.261719 82.492188 364.8125 80.792969 " fill-opacity="1" fill-rule="nonzero"/><path fill="#f1aba4" d="M 346.394531 99.875 C 347.136719 100.058594 348.730469 100.433594 349.234375 99.609375 C 349.363281 99.386719 349.40625 99.125 349.445312 98.867188 C 349.816406 96.246094 350.152344 93.625 350.5 91.007812 C 350.515625 90.890625 350.527344 90.714844 350.511719 90.527344 C 350.484375 90.082031 350.011719 88.90625 349.417969 89.640625 C 349.300781 89.785156 349.257812 89.980469 349.21875 90.164062 C 348.640625 92.917969 347.941406 95.140625 346.253906 97.433594 C 346 97.78125 345.726562 98.191406 345.605469 98.605469 C 345.527344 98.867188 345.527344 99.164062 345.667969 99.402344 C 345.8125 99.660156 346.101562 99.800781 346.394531 99.875 " fill-opacity="1" fill-rule="nonzero"/><path fill="#3e3348" d="M 354.761719 94.601562 C 355.179688 94.441406 355.390625 93.964844 355.226562 93.550781 C 355.066406 93.128906 354.59375 92.917969 354.175781 93.082031 C 353.753906 93.246094 353.546875 93.714844 353.707031 94.136719 C 353.871094 94.554688 354.34375 94.765625 354.761719 94.601562 " fill-opacity="1" fill-rule="nonzero"/><path fill="#3e3348" d="M 346.085938 93.550781 C 346.507812 93.390625 346.71875 92.917969 346.554688 92.496094 C 346.394531 92.078125 345.917969 91.871094 345.503906 92.035156 C 345.082031 92.195312 344.871094 92.667969 345.035156 93.085938 C 345.199219 93.503906 345.671875 93.714844 346.085938 93.550781 " fill-opacity="1" fill-rule="nonzero"/><path fill="#3e3348" d="M 353.457031 90.402344 C 355.035156 90.503906 357.664062 90.820312 358.28125 92.511719 C 358.535156 93.207031 359.667969 92.945312 359.410156 92.242188 C 359.011719 91.152344 358.445312 90.523438 357.359375 90.089844 C 356.148438 89.605469 354.789062 89.324219 353.492188 89.242188 C 352.746094 89.191406 352.710938 90.355469 353.457031 90.402344 " fill-opacity="1" fill-rule="nonzero"/><path fill="#3e3348" d="M 345.042969 90.480469 C 345.660156 90.089844 346.363281 90.167969 347.066406 90.175781 C 347.8125 90.179688 347.851562 89.019531 347.105469 89.011719 C 346.332031 89.003906 345.546875 88.972656 344.839844 89.273438 C 344.71875 89.328125 344.597656 89.390625 344.480469 89.460938 C 343.960938 89.789062 344.253906 90.546875 344.726562 90.570312 C 344.828125 90.574219 344.933594 90.546875 345.042969 90.480469 " fill-opacity="1" fill-rule="nonzero"/><path fill="#eea698" d="M 369.082031 97.765625 C 369.929688 96.328125 371.390625 95.472656 373.066406 95.476562 C 373.667969 95.480469 373.703125 94.546875 373.097656 94.542969 C 371.097656 94.542969 369.300781 95.554688 368.285156 97.28125 C 367.980469 97.796875 368.777344 98.28125 369.082031 97.765625 " fill-opacity="1" fill-rule="nonzero"/><path fill="#3e3348" d="M 287.675781 375.394531 C 285.152344 375.167969 284.820312 368.382812 284.777344 365.957031 C 284.332031 366.128906 283.910156 366.332031 283.507812 366.574219 C 281.019531 368.0625 279.363281 370.796875 279.414062 373.90625 C 279.480469 378.542969 283.300781 382.246094 287.941406 382.175781 C 292.582031 382.105469 296.285156 378.292969 296.214844 373.652344 C 296.183594 371.539062 295.367188 369.621094 294.050781 368.164062 C 292.367188 371.257812 289.65625 375.574219 287.675781 375.394531 " fill-opacity="1" fill-rule="nonzero"/><g clip-path="url(#20c4e3cac2)"><path fill="#3e3348" d="M 163.007812 378.558594 C 160.484375 378.332031 160.148438 371.546875 160.109375 369.117188 C 156.929688 370.355469 154.691406 373.457031 154.742188 377.066406 C 154.8125 381.707031 158.628906 385.410156 163.269531 385.335938 C 167.910156 385.269531 171.617188 381.453125 171.546875 376.816406 C 171.515625 374.699219 170.695312 372.785156 169.382812 371.328125 C 167.699219 374.425781 164.984375 378.734375 163.007812 378.558594 " fill-opacity="1" fill-rule="nonzero"/></g><path fill="#3e3348" d="M 301.566406 206.519531 C 301.8125 208.683594 304.015625 208.929688 304.871094 208.941406 C 305.082031 208.949219 305.214844 208.9375 305.214844 208.9375 L 317.996094 202.496094 C 316.074219 202.671875 313.699219 202.492188 310.785156 201.671875 L 301.566406 206.519531 " fill-opacity="1" fill-rule="nonzero"/><path fill="#fac5ba" d="M 308.601562 193.613281 C 308.453125 193.617188 308.308594 193.644531 308.167969 193.695312 C 308.324219 193.664062 308.480469 193.636719 308.636719 193.609375 L 308.601562 193.613281 " fill-opacity="1" fill-rule="nonzero"/><path fill="#eea698" d="M 311.554688 193.429688 C 310.691406 193.351562 309.679688 193.4375 308.636719 193.609375 C 308.480469 193.636719 308.324219 193.664062 308.167969 193.691406 C 305.730469 194.160156 303.230469 195.066406 302.214844 195.558594 L 302.105469 195.617188 L 302.042969 195.722656 C 302.015625 195.769531 301.8125 196.179688 302.066406 196.636719 C 302.222656 196.90625 302.492188 197.113281 302.894531 197.265625 C 301.75 197.746094 300.75 198.191406 300.261719 198.429688 L 300.152344 198.480469 L 300.089844 198.59375 C 300.066406 198.636719 299.863281 199.050781 300.117188 199.507812 C 300.328125 199.882812 300.789062 200.140625 301.5 200.285156 C 301.496094 200.285156 301.488281 200.289062 301.484375 200.289062 C 301.480469 200.292969 301.476562 200.296875 301.472656 200.296875 C 301.441406 200.308594 301.417969 200.324219 301.394531 200.34375 C 301.375 200.351562 301.359375 200.363281 301.34375 200.375 C 301.324219 200.390625 301.308594 200.414062 301.292969 200.4375 C 301.28125 200.457031 301.265625 200.472656 301.257812 200.492188 C 301.25 200.511719 301.242188 200.539062 301.238281 200.566406 C 301.234375 200.589844 301.226562 200.613281 301.222656 200.640625 C 301.222656 200.644531 301.21875 200.648438 301.21875 200.65625 C 301.222656 201.125 301.394531 201.5 301.722656 201.773438 C 302.734375 202.605469 305 202.183594 307.191406 201.78125 C 308.414062 201.550781 309.679688 201.316406 310.125 201.480469 C 310.347656 201.550781 310.570312 201.613281 310.785156 201.671875 C 313.695312 202.492188 316.074219 202.671875 317.996094 202.496094 C 318.65625 202.441406 319.261719 202.335938 319.816406 202.203125 C 323.675781 201.28125 325.117188 198.871094 325.210938 198.710938 C 325.261719 198.625 325.269531 198.53125 325.25 198.4375 L 324.542969 198.742188 C 324.542969 198.742188 324.4375 198.738281 324.257812 198.71875 C 323.257812 199.949219 319.421875 203.519531 310.367188 200.753906 C 309.777344 200.53125 308.722656 200.710938 307.050781 201.027344 C 305.316406 201.34375 302.945312 201.785156 302.210938 201.179688 C 302.148438 201.128906 302.074219 201.046875 302.03125 200.90625 C 302.601562 200.691406 303.242188 200.398438 303.863281 200.105469 C 304.578125 199.769531 305.316406 199.421875 305.914062 199.226562 C 306.765625 198.945312 307.652344 198.652344 308.539062 198.480469 C 310.191406 198.160156 310.191406 198.160156 311.875 198.242188 C 312.082031 198.253906 312.265625 198.089844 312.273438 197.875 C 312.28125 197.667969 312.121094 197.484375 311.90625 197.472656 C 310.171875 197.394531 310.105469 197.398438 308.394531 197.726562 C 307.457031 197.90625 306.550781 198.207031 305.671875 198.496094 C 305.03125 198.703125 304.269531 199.066406 303.535156 199.410156 C 303.285156 199.523438 303.042969 199.644531 302.796875 199.753906 C 302.726562 199.6875 302.644531 199.644531 302.542969 199.640625 C 301.15625 199.566406 300.851562 199.234375 300.789062 199.132812 C 300.769531 199.101562 300.761719 199.070312 300.757812 199.039062 C 301.511719 198.6875 302.882812 198.089844 304.285156 197.523438 C 304.34375 197.527344 304.394531 197.53125 304.453125 197.535156 C 304.492188 197.539062 304.527344 197.535156 304.5625 197.523438 C 304.679688 197.496094 304.773438 197.414062 304.824219 197.304688 C 306.285156 196.730469 307.679688 196.222656 308.328125 196.101562 L 308.726562 196.023438 C 309.867188 195.800781 309.988281 195.777344 311.339844 195.9375 C 311.550781 195.964844 311.742188 195.816406 311.765625 195.605469 C 311.792969 195.394531 311.644531 195.207031 311.433594 195.179688 C 309.960938 195 309.75 195.039062 308.582031 195.269531 L 308.183594 195.347656 C 307.40625 195.488281 305.777344 196.089844 304.164062 196.742188 C 303.066406 196.636719 302.796875 196.359375 302.742188 196.265625 C 302.71875 196.234375 302.714844 196.199219 302.710938 196.175781 C 304.292969 195.449219 308.792969 193.945312 311.484375 194.195312 C 311.695312 194.214844 311.878906 194.0625 311.898438 193.847656 C 311.910156 193.753906 311.878906 193.667969 311.832031 193.59375 C 311.765625 193.507812 311.671875 193.441406 311.554688 193.429688 " fill-opacity="1" fill-rule="nonzero"/><path fill="#fbc5bd" d="M 269.140625 159.40625 C 268.355469 159.09375 267.910156 159.046875 267.304688 158.992188 C 265.402344 158.816406 261.15625 158.386719 260.34375 157.953125 C 259.527344 157.8125 259.738281 159.230469 260.96875 160.019531 C 261.140625 160.132812 261.304688 160.238281 261.46875 160.332031 L 270.332031 160.273438 C 269.945312 159.992188 269.550781 159.707031 269.140625 159.40625 " fill-opacity="1" fill-rule="nonzero"/><path fill="#fbc5bd" d="M 271.746094 162.0625 L 271.460938 162.0625 L 270.191406 169.015625 L 251.679688 169.476562 L 256.28125 171.070312 L 257.152344 171.371094 C 257.332031 171.4375 257.527344 171.464844 257.722656 171.464844 L 269.703125 171.023438 L 270.34375 171.003906 L 270.21875 170.941406 C 272.265625 170.730469 273.625 170.261719 274.507812 169.660156 C 276.53125 169.625 280.886719 169.539062 286.183594 169.382812 C 298.640625 169.023438 316.25 168.304688 320.679688 167.078125 C 320.972656 166.996094 321.230469 166.898438 321.472656 166.792969 C 322.140625 166.53125 322.910156 166.125 323.792969 165.550781 C 326.507812 163.785156 329.796875 159.917969 333.203125 155.121094 C 335.085938 141.386719 338.929688 126.054688 340.164062 121.308594 C 335.765625 123.308594 332.148438 126.828125 330.0625 131.339844 L 319.257812 154.691406 C 319.257812 154.691406 319.132812 155.054688 318.949219 155.652344 C 313.738281 156.402344 300.5625 158.347656 289.351562 160.367188 C 283.285156 161.460938 277.796875 162.582031 274.453125 163.546875 C 274.257812 163.347656 274.035156 163.136719 273.789062 162.917969 C 273.378906 162.5625 272.910156 162.183594 272.382812 161.789062 C 272.226562 161.957031 272 162.0625 271.746094 162.0625 " fill-opacity="1" fill-rule="nonzero"/><path fill="#979dc9" d="M 270.191406 169.015625 L 271.457031 162.0625 L 239.210938 162.292969 L 241.011719 169.476562 C 243.777344 168.988281 246.222656 169.011719 247.289062 168.898438 C 248.320312 168.792969 249.359375 169.035156 250.089844 169.515625 L 251.675781 169.476562 L 270.191406 169.015625 " fill-opacity="1" fill-rule="nonzero"/><path fill="#dee0f3" d="M 239.117188 160.492188 C 238.621094 160.496094 238.21875 160.898438 238.222656 161.398438 C 238.230469 161.898438 238.632812 162.296875 239.132812 162.292969 L 239.210938 162.292969 L 271.457031 162.0625 L 271.746094 162.0625 C 272 162.0625 272.226562 161.953125 272.382812 161.785156 C 272.546875 161.625 272.636719 161.402344 272.636719 161.160156 C 272.636719 160.65625 272.226562 160.261719 271.730469 160.261719 L 270.332031 160.273438 L 261.46875 160.332031 L 256.671875 160.371094 L 239.117188 160.492188 " fill-opacity="1" fill-rule="nonzero"/><path fill="#b4328d" d="M 348.46875 101.773438 C 348.207031 101.949219 348.089844 102.414062 348.089844 102.414062 C 348.089844 102.414062 347.726562 101.394531 347.09375 101.5 C 346.457031 101.609375 346.230469 102.988281 346.230469 102.988281 C 346.230469 102.988281 348 105.628906 352.523438 103.136719 C 352.523438 103.136719 349.453125 101.128906 348.46875 101.773438 " fill-opacity="1" fill-rule="nonzero"/><g clip-path="url(#c542b591c3)"><path fill="#327887" d="M 358.664062 64.941406 L 358.65625 64.96875 C 358.648438 64.988281 358.640625 65.011719 358.632812 65.039062 L 358.601562 65.144531 C 358.585938 65.179688 358.574219 65.21875 358.558594 65.269531 L 358.546875 65.300781 C 358.519531 65.386719 358.484375 65.492188 358.449219 65.613281 L 358.375 65.851562 C 358.359375 65.890625 358.34375 65.941406 358.328125 65.996094 L 358.105469 66.695312 C 358 67.019531 357.878906 67.40625 357.730469 67.863281 L 357.59375 68.285156 C 357.570312 68.359375 357.546875 68.4375 357.519531 68.515625 L 357.285156 69.265625 C 357.261719 69.332031 357.242188 69.394531 357.214844 69.464844 L 356.90625 70.4375 C 356.785156 70.824219 356.652344 71.234375 356.511719 71.671875 L 356.121094 72.886719 C 355.976562 73.351562 355.824219 73.832031 355.65625 74.347656 C 365.21875 79.054688 378.828125 79.585938 378.828125 79.585938 C 378.832031 79.566406 378.835938 79.550781 378.835938 79.535156 C 379.558594 74.894531 378.152344 68.574219 378.152344 68.574219 L 358.679688 64.894531 C 358.679688 64.902344 358.671875 64.914062 358.664062 64.941406 " fill-opacity="1" fill-rule="nonzero"/></g><g clip-path="url(#af42b1c93d)"><path fill="#205256" d="M 355.660156 74.347656 L 356.125 72.886719 L 356.515625 71.671875 L 356.910156 70.4375 L 357.214844 69.464844 L 357.285156 69.261719 L 357.523438 68.515625 L 357.59375 68.28125 L 357.730469 67.863281 L 358.105469 66.691406 L 358.332031 65.992188 L 358.375 65.847656 L 358.449219 65.613281 L 358.546875 65.300781 L 358.558594 65.265625 L 358.601562 65.144531 L 358.632812 65.039062 L 358.660156 64.964844 L 358.664062 64.9375 L 358.675781 64.894531 L 356.882812 64.40625 L 352.222656 70.648438 L 352.34375 70.78125 L 355.660156 74.347656 " fill-opacity="1" fill-rule="nonzero"/></g><path fill="#327887" d="M 372.902344 196.121094 C 366.050781 198.902344 358.675781 200.363281 351.355469 199.902344 C 349.28125 203.714844 347.011719 209.707031 344.753906 216.699219 C 344.3125 218.074219 343.867188 219.488281 343.425781 220.929688 C 342.835938 222.851562 342.25 224.828125 341.671875 226.835938 C 338.621094 237.421875 335.769531 248.882812 333.660156 258.070312 C 332.621094 262.605469 331.765625 266.582031 331.152344 269.632812 C 330.621094 272.300781 330.269531 274.261719 330.160156 275.253906 C 329.625 279.949219 329.433594 279.664062 330.8125 285.539062 C 331.441406 288.234375 332.410156 292.21875 333.816406 298.570312 C 334.265625 298.671875 334.707031 298.769531 335.152344 298.859375 C 341.136719 300.109375 346.925781 300.613281 352.332031 300.640625 C 357.386719 300.664062 362.101562 300.269531 366.316406 299.664062 C 375.367188 298.371094 382.101562 296.132812 384.964844 295.066406 C 385.953125 294.703125 386.484375 294.472656 386.484375 294.472656 L 383.34375 285.808594 L 379.808594 276.050781 C 379.808594 276.050781 380.167969 270.316406 387.628906 253.445312 C 393.90625 240.789062 397.277344 230.386719 398.765625 221.867188 C 403.671875 193.753906 388 186.207031 388 186.207031 C 387.136719 186.890625 386.3125 187.621094 385.484375 188.359375 C 382.910156 190.421875 378.492188 193.589844 372.902344 196.121094 " fill-opacity="1" fill-rule="nonzero"/><path fill="#6869a2" d="M 290.644531 361.957031 L 280.40625 362.207031 L 280.726562 351.300781 L 291.101562 351.296875 Z M 163.605469 361.054688 L 236.0625 359.964844 L 242.742188 351.304688 L 275.773438 351.300781 L 275.300781 362.332031 L 163.410156 365.058594 C 163.507812 364.394531 163.574219 362.539062 163.605469 361.054688 Z M 159.257812 242.886719 C 159.234375 241.460938 160.378906 240.285156 161.796875 240.265625 L 195.902344 239.753906 C 196.59375 239.746094 197.242188 240.003906 197.738281 240.484375 C 198.234375 240.964844 198.515625 241.609375 198.527344 242.296875 L 199.859375 330.988281 C 199.875 332.21875 199.027344 333.257812 197.878906 333.535156 C 197.695312 333.578125 197.507812 333.601562 197.316406 333.605469 L 163.210938 334.121094 C 161.785156 334.140625 160.609375 333 160.585938 331.578125 Z M 304.558594 219.359375 L 302.195312 219.421875 L 297.921875 219.535156 L 292.1875 219.6875 L 282.9375 219.925781 L 270.15625 220.261719 L 268.527344 220.308594 L 255.734375 220.644531 L 229.96875 221.324219 L 224.136719 221.472656 L 221.59375 221.542969 L 191.21875 222.34375 L 185.253906 222.5 L 154.933594 223.296875 L 148.398438 223.46875 L 148.882812 240.328125 L 151.324219 324.917969 L 151.457031 329.492188 L 151.628906 335.453125 L 151.683594 337.328125 L 151.753906 339.871094 L 151.824219 342.234375 L 152.003906 348.5 L 152.085938 351.316406 L 238.539062 351.304688 L 234.25 356.910156 L 163.640625 359.128906 C 163.644531 359.054688 163.640625 359.007812 163.640625 359.007812 L 161.03125 359.210938 L 160.179688 365.136719 L 159.90625 368.433594 L 160.105469 368.425781 C 160.105469 368.570312 160.101562 368.808594 160.109375 369.117188 C 160.148438 371.546875 160.484375 378.332031 163.007812 378.558594 C 164.984375 378.734375 167.699219 374.425781 169.382812 371.328125 C 170.316406 369.609375 170.933594 368.265625 170.933594 368.265625 L 283.507812 366.574219 C 283.910156 366.332031 284.332031 366.128906 284.777344 365.957031 C 284.820312 368.382812 285.152344 375.167969 287.675781 375.394531 C 289.65625 375.574219 292.367188 371.257812 294.050781 368.164062 C 294.695312 366.976562 295.191406 365.96875 295.433594 365.460938 L 295.609375 365.425781 L 296.019531 351.296875 L 300.363281 351.296875 L 302.714844 277.34375 L 303.207031 261.851562 L 304.558594 219.359375 " fill-opacity="1" fill-rule="nonzero"/><path fill="#6869a2" d="M 193.550781 298.078125 C 193.5625 298.992188 192.824219 299.757812 191.90625 299.773438 L 190.535156 299.789062 C 189.621094 299.800781 188.859375 299.066406 188.84375 298.148438 L 188.5 275.449219 C 188.488281 274.535156 189.226562 273.769531 190.144531 273.757812 L 191.515625 273.738281 C 192.429688 273.722656 193.195312 274.460938 193.210938 275.382812 Z M 162.800781 331.546875 C 162.804688 331.742188 162.976562 331.910156 163.175781 331.90625 L 197.28125 331.394531 C 197.476562 331.390625 197.648438 331.222656 197.644531 331.023438 L 196.3125 242.328125 C 196.308594 242.199219 196.242188 242.113281 196.199219 242.070312 C 196.15625 242.03125 196.066406 241.964844 195.9375 241.964844 L 161.828125 242.476562 C 161.628906 242.476562 161.464844 242.652344 161.464844 242.851562 L 162.800781 331.546875 " fill-opacity="1" fill-rule="nonzero"/><path fill="#327887" d="M 377.167969 164.296875 C 377.167969 164.296875 372.3125 172.777344 367.011719 177.609375 C 373.519531 183.753906 380.285156 176.859375 383.527344 172.578125 C 384.765625 170.945312 385.492188 169.6875 385.492188 169.6875 L 390.113281 140.320312 C 386.066406 151.90625 377.167969 164.296875 377.167969 164.296875 " fill-opacity="1" fill-rule="nonzero"/><path fill="#327887" d="M 360.261719 164.832031 C 368.460938 146.496094 382.984375 121.347656 389.449219 123.796875 L 372.546875 115.644531 C 372.546875 115.644531 372.390625 115.863281 372.109375 116.269531 C 369.339844 120.316406 354.429688 143.453125 360.261719 164.832031 " fill-opacity="1" fill-rule="nonzero"/><path fill="#9294c4" d="M 161.464844 242.851562 C 161.464844 242.652344 161.628906 242.476562 161.828125 242.476562 L 195.9375 241.964844 C 196.066406 241.964844 196.15625 242.03125 196.199219 242.070312 C 196.242188 242.113281 196.308594 242.199219 196.3125 242.328125 L 197.644531 331.023438 C 197.648438 331.222656 197.476562 331.390625 197.28125 331.394531 L 163.175781 331.90625 C 162.976562 331.910156 162.804688 331.742188 162.800781 331.546875 Z M 160.585938 331.578125 C 160.609375 333 161.785156 334.140625 163.210938 334.121094 L 197.316406 333.605469 C 197.507812 333.601562 197.695312 333.578125 197.878906 333.535156 C 199.027344 333.257812 199.875 332.21875 199.859375 330.988281 L 198.527344 242.296875 C 198.515625 241.609375 198.234375 240.964844 197.738281 240.484375 C 197.242188 240.003906 196.59375 239.746094 195.902344 239.753906 L 161.796875 240.265625 C 160.378906 240.285156 159.234375 241.460938 159.257812 242.886719 L 160.585938 331.578125 " fill-opacity="1" fill-rule="nonzero"/><path fill="#3e3348" d="M 191.515625 273.738281 L 190.144531 273.757812 C 189.226562 273.769531 188.488281 274.535156 188.5 275.449219 L 188.84375 298.148438 C 188.859375 299.066406 189.621094 299.800781 190.535156 299.789062 L 191.90625 299.773438 C 192.824219 299.757812 193.5625 298.992188 193.550781 298.078125 L 193.210938 275.382812 C 193.195312 274.460938 192.429688 273.722656 191.515625 273.738281 " fill-opacity="1" fill-rule="nonzero"/><path fill="#fac5ba" d="M 309.632812 196.421875 L 309.480469 196.429688 C 309.535156 196.429688 309.582031 196.429688 309.632812 196.421875 Z M 360.261719 164.832031 C 358.9375 167.792969 357.78125 170.574219 356.847656 173.035156 C 354.382812 174.019531 351.59375 175.34375 348.585938 176.953125 C 346.964844 177.820312 345.28125 178.769531 343.546875 179.792969 C 337.039062 183.628906 329.84375 188.503906 322.753906 193.933594 C 321.488281 193.480469 319.621094 193.269531 316.835938 193.574219 L 311.832031 193.59375 C 311.878906 193.667969 311.910156 193.753906 311.898438 193.851562 C 311.882812 194.058594 311.695312 194.214844 311.484375 194.195312 C 308.796875 193.945312 304.292969 195.449219 302.710938 196.171875 C 302.714844 196.199219 302.722656 196.234375 302.738281 196.265625 C 302.796875 196.359375 303.066406 196.636719 304.164062 196.738281 C 305.777344 196.089844 307.40625 195.488281 308.183594 195.347656 L 308.582031 195.269531 C 309.75 195.039062 309.960938 195 311.429688 195.179688 C 311.644531 195.203125 311.792969 195.394531 311.765625 195.601562 C 311.746094 195.820312 311.550781 195.964844 311.339844 195.941406 C 309.988281 195.777344 309.867188 195.800781 308.726562 196.019531 L 308.328125 196.097656 C 307.683594 196.222656 306.28125 196.730469 304.824219 197.308594 C 304.773438 197.414062 304.679688 197.496094 304.5625 197.523438 C 304.527344 197.53125 304.492188 197.539062 304.453125 197.535156 C 304.394531 197.53125 304.34375 197.527344 304.285156 197.523438 C 302.882812 198.089844 301.511719 198.683594 300.757812 199.039062 C 300.757812 199.066406 300.773438 199.101562 300.789062 199.132812 C 300.851562 199.234375 301.15625 199.566406 302.542969 199.636719 C 302.644531 199.644531 302.726562 199.6875 302.796875 199.753906 C 303.042969 199.644531 303.285156 199.523438 303.535156 199.410156 C 304.269531 199.066406 305.03125 198.707031 305.671875 198.492188 C 306.550781 198.203125 307.457031 197.90625 308.398438 197.726562 C 310.105469 197.398438 310.171875 197.390625 311.90625 197.472656 C 312.121094 197.484375 312.285156 197.667969 312.273438 197.875 C 312.265625 198.089844 312.082031 198.25 311.875 198.242188 C 310.195312 198.160156 310.195312 198.160156 308.539062 198.480469 C 307.652344 198.652344 306.769531 198.945312 305.914062 199.226562 C 305.316406 199.421875 304.578125 199.769531 303.863281 200.105469 C 303.242188 200.394531 302.601562 200.691406 302.03125 200.902344 C 302.074219 201.042969 302.148438 201.132812 302.210938 201.179688 C 302.945312 201.785156 305.316406 201.347656 307.050781 201.027344 C 308.722656 200.710938 309.777344 200.53125 310.371094 200.75 C 319.421875 203.519531 323.253906 199.953125 324.257812 198.722656 C 324.4375 198.738281 324.546875 198.742188 324.546875 198.742188 L 325.25 198.441406 L 325.644531 198.273438 C 333.105469 194.820312 342.8125 191.027344 350.03125 188.308594 C 351.898438 187.601562 353.605469 186.964844 355.054688 186.429688 C 359.417969 184.820312 363.238281 182.070312 365.941406 178.523438 C 366.300781 178.234375 366.65625 177.933594 367.011719 177.609375 C 372.3125 172.773438 377.167969 164.296875 377.167969 164.296875 C 377.167969 164.296875 386.066406 151.90625 390.117188 140.320312 C 392.277344 134.132812 393.054688 128.179688 390.359375 124.460938 C 390.230469 124.273438 390.066406 124.121094 389.875 124.003906 C 389.738281 123.921875 389.59375 123.855469 389.445312 123.800781 C 382.980469 121.347656 368.460938 146.496094 360.261719 164.832031 " fill-opacity="1" fill-rule="nonzero"/><path fill="#932877" d="M 34.417969 252.191406 C 40.792969 249.78125 49.105469 247.109375 56.59375 246.210938 C 64.277344 245.296875 70.667969 246.191406 75.03125 247.257812 C 74.804688 246.015625 74.5625 244.628906 74.3125 243.148438 C 72.757812 242.933594 71.128906 242.773438 69.417969 242.695312 C 55.046875 242.027344 36.648438 247.226562 35.492188 247.5625 C 35.453125 247.570312 35.433594 247.578125 35.433594 247.578125 C 35.433594 247.578125 34.046875 249.96875 34.417969 252.191406 " fill-opacity="1" fill-rule="nonzero"/><path fill="#fac5e5" d="M 12.539062 262.890625 L 24.582031 262.707031 C 24.492188 262.679688 24.417969 262.65625 24.378906 262.628906 C 22.433594 260.457031 23.878906 256.625 23.878906 256.625 C 23.878906 256.625 23.898438 256.617188 23.933594 256.597656 L 23.917969 256.535156 C 23.917969 256.535156 23.90625 256.535156 20.375 254.769531 C 23.253906 254.644531 26.382812 254.476562 29.082031 254.320312 C 30.617188 253.675781 32.421875 252.945312 34.417969 252.191406 C 34.046875 249.96875 35.433594 247.578125 35.433594 247.578125 C 35.433594 247.578125 35.453125 247.570312 35.492188 247.5625 L 35.484375 247.496094 C 35.484375 247.496094 35.484375 247.496094 31.867188 244.867188 C 28.25 242.238281 25.910156 241.957031 24.613281 243.175781 C 22.707031 244.964844 23.421875 247.601562 18.808594 249.578125 C 14.195312 251.554688 10.679688 252.828125 11.328125 254.761719 C 11.347656 254.832031 11.582031 254.882812 11.976562 254.914062 C 11.101562 256.804688 11.476562 258.984375 7.8125 261.335938 C 3.582031 264.042969 0.328125 265.882812 1.285156 267.679688 C 1.355469 267.808594 2.1875 267.730469 3.507812 267.511719 C 5.566406 264.753906 8.832031 262.941406 12.539062 262.890625 " fill-opacity="1" fill-rule="nonzero"/><path fill="#c7c9ea" d="M 82.847656 290.28125 L 79.445312 325.246094 C 79.0625 329.179688 76 332.179688 72.3125 332.234375 L 35.394531 332.789062 C 31.285156 332.847656 27.859375 329.417969 27.632812 325.019531 L 25.835938 289.992188 L 16.808594 289.945312 C 16.078125 289.941406 15.382812 289.765625 14.757812 289.464844 L 21.433594 339.464844 L 21.4375 339.609375 L 83.273438 338.6875 C 83.417969 338.683594 83.535156 338.554688 83.535156 338.394531 C 83.535156 338.371094 83.539062 338.34375 83.542969 338.316406 L 95.132812 290.347656 L 82.847656 290.28125 " fill-opacity="1" fill-rule="nonzero"/><path fill="#76316b" d="M 136.710938 134.460938 L 137.222656 152.457031 L 136.667969 153.300781 L 136.769531 160.011719 C 137.257812 159.324219 137.636719 158.773438 137.773438 158.53125 C 138.242188 157.691406 138.695312 159.117188 138.410156 159.949219 C 138.3125 160.230469 138.003906 160.910156 137.636719 161.691406 C 138.554688 161 139.46875 160.304688 140.34375 159.554688 C 140.582031 159.351562 140.902344 159.644531 140.777344 159.867188 C 140.824219 160.117188 140.78125 160.488281 140.660156 160.835938 C 140.800781 160.71875 140.949219 160.605469 141.085938 160.488281 C 141.3125 160.296875 141.609375 160.546875 141.539062 160.765625 C 141.632812 161.140625 141.488281 161.878906 141.15625 162.316406 C 140.777344 162.816406 138.976562 164.664062 137.871094 165.78125 C 137.691406 165.960938 137.527344 166.160156 137.375 166.363281 C 138.054688 165.933594 138.710938 165.460938 139.324219 164.9375 C 139.480469 165.628906 139.074219 166.339844 138.554688 166.828125 C 138.039062 167.316406 137.398438 167.65625 136.863281 168.125 C 136.617188 168.339844 136.398438 168.585938 136.207031 168.847656 C 136.175781 168.9375 136.148438 169.023438 136.128906 169.089844 C 135.875 171.710938 135.121094 175.15625 132.960938 176.722656 C 132.644531 176.953125 132.367188 177.074219 132.113281 177.121094 C 131.199219 177.777344 129.789062 178.695312 127.671875 179.832031 L 106.9375 220.960938 L 103.089844 228.597656 C 107.152344 231.988281 110.347656 236.324219 112.40625 241.164062 L 148.835938 168.898438 C 149.824219 166.945312 150.976562 162.726562 150.960938 159.355469 C 150.988281 159.046875 151 158.746094 151 158.472656 L 150.441406 121.484375 C 150.386719 117.742188 147.300781 114.75 143.550781 114.804688 L 142.882812 114.8125 C 139.128906 114.871094 136.136719 117.953125 136.191406 121.703125 L 136.375 133.898438 C 136.566406 134.003906 136.703125 134.195312 136.710938 134.460938 " fill-opacity="1" fill-rule="nonzero"/><path fill="#76316b" d="M 15.027344 274.550781 L 60.191406 273.429688 C 68.640625 273.21875 76.234375 269.007812 80.945312 262.460938 C 66.699219 263.515625 28.03125 263.6875 24.582031 262.707031 L 12.539062 262.890625 C 8.832031 262.941406 5.566406 264.753906 3.507812 267.511719 C 2.050781 269.464844 1.203125 271.898438 1.242188 274.523438 C 1.332031 280.578125 6.105469 285.460938 12.058594 285.792969 L 10.578125 280.601562 C 9.722656 277.617188 11.921875 274.628906 15.027344 274.550781 " fill-opacity="1" fill-rule="nonzero"/><path fill="#b4328d" d="M 88.699219 221.613281 L 88.652344 221.667969 C 94.144531 222.773438 99.046875 225.21875 103.089844 228.597656 L 106.9375 220.960938 L 107.726562 203.679688 C 100.789062 207.316406 88.332031 207.667969 78.503906 202.414062 C 78.503906 202.414062 72.882812 211.921875 72.023438 220.792969 C 74.253906 220.769531 76.046875 220.753906 77.214844 220.757812 C 86.332031 220.769531 88.699219 221.613281 88.699219 221.613281 " fill-opacity="1" fill-rule="nonzero"/><path fill="#b4328d" d="M 56.59375 246.210938 C 49.105469 247.109375 40.792969 249.78125 34.417969 252.191406 C 32.421875 252.945312 30.617188 253.675781 29.082031 254.320312 C 26.1875 255.535156 24.269531 256.441406 23.933594 256.597656 C 23.898438 256.617188 23.878906 256.625 23.878906 256.625 C 23.878906 256.625 22.433594 260.457031 24.378906 262.628906 C 24.417969 262.65625 24.492188 262.679688 24.582031 262.707031 C 28.03125 263.6875 66.699219 263.515625 80.945312 262.460938 C 82.972656 259.652344 84.46875 256.410156 85.265625 252.867188 C 87.386719 243.453125 81.507812 234.429688 72.652344 232.113281 C 73.113281 235.800781 73.730469 239.714844 74.3125 243.148438 C 74.5625 244.628906 74.804688 246.015625 75.03125 247.257812 C 70.667969 246.191406 64.277344 245.296875 56.59375 246.210938 " fill-opacity="1" fill-rule="nonzero"/><path fill="#a65956" d="M 110.175781 153.78125 C 110.984375 155.128906 110.886719 166.28125 110.566406 177.574219 C 115.160156 176.5625 120.152344 175.414062 124.089844 174.5 C 129.304688 166.308594 136.550781 153.480469 136.550781 153.480469 L 136.667969 153.300781 L 137.222656 152.460938 L 136.710938 134.464844 C 136.703125 134.199219 136.566406 134.007812 136.375 133.898438 C 136.070312 133.726562 135.636719 133.789062 135.4375 134.171875 C 134.238281 136.464844 132.605469 139.980469 132.75 141.800781 C 132.976562 144.640625 134.710938 150.207031 134.710938 150.207031 C 134.710938 150.207031 122.277344 162.566406 116.851562 169.566406 C 116.34375 168.019531 115.578125 165.136719 114.484375 159.769531 C 112.5625 150.34375 106.578125 150.039062 104.359375 150.265625 C 107.6875 150.867188 108.765625 151.4375 110.175781 153.78125 " fill-opacity="1" fill-rule="nonzero"/><path fill="#327887" d="M 80.433594 150.589844 C 78.433594 150.394531 76.773438 151.054688 76.082031 153.316406 C 76.925781 151.617188 78.441406 150.652344 80.433594 150.589844 " fill-opacity="1" fill-rule="nonzero"/><path fill="#327887" d="M 100.132812 179.734375 C 102.574219 179.304688 106.40625 178.492188 110.570312 177.574219 C 110.886719 166.277344 110.984375 155.128906 110.175781 153.78125 C 108.765625 151.4375 107.6875 150.867188 104.359375 150.261719 C 103.691406 150.140625 102.941406 150.019531 102.070312 149.878906 C 101.003906 149.710938 99.621094 149.421875 98.261719 149.113281 C 98.34375 149.605469 98.4375 150.074219 98.539062 150.515625 C 98.800781 151.660156 98.320312 152.851562 97.34375 153.472656 C 95.324219 154.746094 92.097656 154.546875 90.148438 153.351562 C 88.933594 152.601562 88.527344 151.019531 89.15625 149.71875 C 89.257812 149.503906 89.347656 149.253906 89.425781 149 C 86.757812 149.761719 83.140625 150.625 80.433594 150.589844 C 88.546875 153.820312 97.675781 174.007812 100.132812 179.734375 " fill-opacity="1" fill-rule="nonzero"/><path fill="#327887" d="M 107.726562 203.679688 C 108.402344 203.320312 109.03125 202.941406 109.59375 202.523438 C 109.59375 202.523438 109.929688 195.730469 110.25 187.214844 C 107.074219 188.34375 103.484375 189.535156 99.421875 190.785156 C 99.367188 190.714844 99.316406 190.648438 99.265625 190.574219 C 87.433594 181.121094 80.652344 172.363281 77.503906 165.464844 C 77.851562 166.613281 78.246094 167.835938 78.707031 169.148438 C 81.832031 177.523438 78.125 200.800781 78.503906 202.414062 C 88.332031 207.667969 100.789062 207.316406 107.726562 203.679688 " fill-opacity="1" fill-rule="nonzero"/><path fill="#e9a395" d="M 141.085938 160.488281 C 140.949219 160.605469 140.800781 160.71875 140.660156 160.835938 C 138.742188 162.425781 136.664062 163.820312 134.769531 165.4375 C 134.5 165.664062 134.878906 166.050781 135.140625 165.828125 C 137.179688 164.089844 139.429688 162.621094 141.460938 160.878906 C 141.503906 160.84375 141.527344 160.804688 141.539062 160.765625 C 141.609375 160.546875 141.3125 160.296875 141.085938 160.488281 " fill-opacity="1" fill-rule="nonzero"/><path fill="#e9a395" d="M 140.34375 159.554688 C 139.46875 160.304688 138.554688 161 137.636719 161.691406 C 136.414062 162.605469 135.183594 163.511719 134.023438 164.503906 C 133.757812 164.730469 134.132812 165.117188 134.398438 164.894531 C 136.4375 163.160156 138.683594 161.6875 140.71875 159.945312 C 140.746094 159.921875 140.765625 159.898438 140.777344 159.867188 C 140.902344 159.644531 140.582031 159.351562 140.34375 159.554688 " fill-opacity="1" fill-rule="nonzero"/><path fill="#a65956" d="M 90.148438 153.351562 C 92.097656 154.546875 95.320312 154.75 97.34375 153.472656 C 98.316406 152.855469 98.800781 151.664062 98.539062 150.515625 C 98.4375 150.074219 98.34375 149.605469 98.261719 149.113281 C 98.074219 148.03125 97.925781 146.847656 97.808594 145.660156 C 96.527344 145.109375 95.539062 144.453125 94.460938 143.835938 C 92.730469 142.847656 91.367188 141.335938 90.546875 139.515625 C 90.554688 139.535156 90.558594 139.554688 90.566406 139.574219 C 90.796875 140.558594 90.304688 141.195312 89.78125 141.476562 C 89.96875 144.003906 90.015625 147.066406 89.425781 149 C 89.347656 149.257812 89.257812 149.503906 89.15625 149.722656 C 88.523438 151.019531 88.933594 152.601562 90.148438 153.351562 " fill-opacity="1" fill-rule="nonzero"/><path fill="#c87876" d="M 102.316406 130.621094 C 102.898438 130.675781 102.871094 131.585938 102.285156 131.527344 C 100.964844 131.40625 98.949219 131.3125 98.214844 132.609375 C 97.925781 133.121094 97.152344 132.644531 97.4375 132.136719 C 98.375 130.484375 100.621094 130.464844 102.316406 130.621094 Z M 104.5 131.996094 C 104.578125 131.652344 105.09375 130.804688 105.460938 131.445312 C 105.53125 131.578125 105.542969 131.730469 105.550781 131.878906 C 105.648438 134.078125 105.90625 135.886719 106.921875 137.871094 C 107.070312 138.171875 107.230469 138.523438 107.277344 138.859375 C 107.300781 139.070312 107.265625 139.300781 107.128906 139.464844 C 106.980469 139.644531 106.738281 139.722656 106.503906 139.742188 C 105.90625 139.789062 104.628906 139.871094 104.34375 139.175781 C 104.265625 138.988281 104.269531 138.78125 104.273438 138.578125 C 104.316406 136.507812 104.390625 134.4375 104.449219 132.367188 C 104.449219 132.273438 104.46875 132.140625 104.5 131.996094 Z M 107.3125 134.015625 C 107.488281 133.714844 107.878906 133.613281 108.183594 133.792969 C 108.484375 133.96875 108.589844 134.363281 108.410156 134.664062 C 108.234375 134.964844 107.839844 135.070312 107.535156 134.890625 C 107.234375 134.710938 107.132812 134.324219 107.3125 134.015625 Z M 105.253906 142.21875 C 104.308594 142.3125 103.328125 142.394531 102.410156 142.09375 C 101.550781 141.8125 100.867188 141.21875 100.199219 140.632812 C 99.847656 140.320312 100.378906 139.816406 100.726562 140.125 C 101.40625 140.722656 102.085938 141.300781 102.996094 141.484375 C 103.75 141.644531 104.519531 141.5625 105.28125 141.492188 C 105.75 141.445312 105.71875 142.175781 105.253906 142.21875 Z M 86.480469 132.976562 C 86.019531 132.90625 86.039062 132.171875 86.503906 132.246094 C 88.09375 132.496094 89.359375 133.519531 89.929688 135.023438 C 90.097656 135.460938 89.382812 135.625 89.21875 135.191406 C 88.773438 134.027344 87.710938 133.167969 86.480469 132.976562 Z M 100.476562 133.734375 C 100.652344 133.433594 101.042969 133.328125 101.351562 133.507812 C 101.652344 133.683594 101.753906 134.078125 101.574219 134.378906 C 101.398438 134.683594 101.007812 134.785156 100.703125 134.609375 C 100.402344 134.425781 100.296875 134.039062 100.476562 133.734375 Z M 94.679688 122.667969 C 94.554688 123.867188 93.460938 133.699219 91 134.585938 C 91 134.585938 86.816406 128.851562 85.113281 131.007812 C 83.515625 133.03125 86.644531 138.796875 90.355469 138.882812 C 90.414062 139.085938 90.476562 139.292969 90.546875 139.507812 C 91.367188 141.332031 92.730469 142.84375 94.460938 143.832031 C 95.539062 144.453125 96.53125 145.105469 97.808594 145.65625 C 99.601562 146.429688 101.972656 147.015625 106.015625 147.035156 C 107.222656 143.167969 108.535156 137.828125 108.96875 132.722656 C 108.875 132.714844 108.777344 132.691406 108.6875 132.609375 C 108.308594 132.261719 107.738281 132.234375 107.253906 132.164062 C 107.011719 132.125 106.804688 131.960938 106.8125 131.691406 C 106.824219 131.46875 107.042969 131.214844 107.285156 131.253906 C 107.910156 131.347656 108.519531 131.425781 109.046875 131.753906 C 109.089844 131.019531 109.113281 130.296875 109.117188 129.585938 C 104.042969 128.90625 97.207031 124.429688 94.679688 122.667969 " fill-opacity="1" fill-rule="nonzero"/><path fill="#3e344b" d="M 90.566406 139.570312 C 90.558594 139.554688 90.554688 139.535156 90.546875 139.511719 C 90.472656 139.292969 90.414062 139.085938 90.355469 138.882812 C 86.644531 138.796875 83.515625 133.035156 85.113281 131.011719 C 86.816406 128.851562 91 134.589844 91 134.589844 C 93.460938 133.699219 94.554688 123.871094 94.679688 122.667969 C 97.207031 124.429688 104.042969 128.90625 109.117188 129.585938 C 109.429688 129.625 109.738281 129.65625 110.03125 129.667969 C 112.179688 124.710938 110.015625 118.605469 104.378906 115.828125 C 104.609375 115.039062 105.847656 110.039062 100.410156 108.496094 C 96.1875 107.300781 94.605469 111.761719 94.421875 114.617188 C 93.289062 114.863281 92.34375 115.242188 91.554688 115.699219 C 90.871094 115.632812 90.042969 115.75 89.039062 116.144531 C 88.273438 116.441406 87.558594 117 86.898438 117.738281 C 85.082031 114.914062 79.0625 106.921875 70.570312 109.972656 C 60.332031 113.65625 75.929688 133.707031 62.789062 140.226562 C 62.789062 140.226562 71.867188 147.292969 75.453125 141.214844 C 78.980469 135.230469 74.890625 114.726562 85.199219 120.320312 C 81.867188 126.980469 81.679688 139.058594 89.019531 141.601562 C 89.207031 141.667969 89.496094 141.625 89.78125 141.472656 C 90.304688 141.191406 90.796875 140.554688 90.566406 139.570312 " fill-opacity="1" fill-rule="nonzero"/><path fill="#a65956" d="M 104.34375 139.175781 C 104.625 139.878906 105.902344 139.789062 106.503906 139.746094 C 106.738281 139.726562 106.976562 139.648438 107.128906 139.46875 C 107.265625 139.304688 107.296875 139.074219 107.273438 138.863281 C 107.230469 138.527344 107.070312 138.175781 106.917969 137.875 C 105.902344 135.886719 105.644531 134.082031 105.546875 131.882812 C 105.539062 131.730469 105.53125 131.582031 105.457031 131.449219 C 105.09375 130.808594 104.578125 131.65625 104.5 132 C 104.46875 132.140625 104.449219 132.277344 104.449219 132.371094 C 104.386719 134.4375 104.316406 136.507812 104.273438 138.578125 C 104.269531 138.78125 104.265625 138.988281 104.34375 139.175781 " fill-opacity="1" fill-rule="nonzero"/><path fill="#3e3348" d="M 101.574219 134.382812 C 101.753906 134.078125 101.648438 133.683594 101.347656 133.511719 C 101.042969 133.332031 100.652344 133.433594 100.476562 133.734375 C 100.296875 134.039062 100.398438 134.429688 100.703125 134.609375 C 101.007812 134.785156 101.398438 134.683594 101.574219 134.382812 " fill-opacity="1" fill-rule="nonzero"/><path fill="#3e3348" d="M 108.410156 134.667969 C 108.589844 134.367188 108.484375 133.972656 108.183594 133.796875 C 107.878906 133.617188 107.488281 133.71875 107.3125 134.019531 C 107.128906 134.328125 107.234375 134.714844 107.535156 134.894531 C 107.839844 135.074219 108.230469 134.96875 108.410156 134.667969 " fill-opacity="1" fill-rule="nonzero"/><path fill="#3e344b" d="M 98.214844 132.613281 C 98.949219 131.3125 100.960938 131.410156 102.285156 131.53125 C 102.871094 131.585938 102.898438 130.675781 102.316406 130.621094 C 100.621094 130.46875 98.375 130.488281 97.4375 132.136719 C 97.148438 132.648438 97.921875 133.125 98.214844 132.613281 " fill-opacity="1" fill-rule="nonzero"/><path fill="#3e344b" d="M 106.8125 131.691406 C 106.804688 131.964844 107.011719 132.128906 107.253906 132.164062 C 107.734375 132.238281 108.308594 132.261719 108.6875 132.609375 C 108.777344 132.691406 108.875 132.71875 108.96875 132.726562 C 109.34375 132.746094 109.691406 132.292969 109.347656 131.980469 C 109.25 131.890625 109.148438 131.820312 109.042969 131.753906 C 108.519531 131.425781 107.910156 131.351562 107.285156 131.253906 C 107.042969 131.21875 106.824219 131.46875 106.8125 131.691406 " fill-opacity="1" fill-rule="nonzero"/><path fill="#f1a899" d="M 89.21875 135.191406 C 89.382812 135.625 90.097656 135.460938 89.929688 135.023438 C 89.359375 133.519531 88.09375 132.496094 86.503906 132.246094 C 86.039062 132.171875 86.019531 132.90625 86.480469 132.976562 C 87.710938 133.167969 88.773438 134.027344 89.21875 135.191406 " fill-opacity="1" fill-rule="nonzero"/><path fill="#f1a899" d="M 105.28125 141.492188 C 104.519531 141.566406 103.75 141.648438 102.992188 141.488281 C 102.085938 141.304688 101.40625 140.726562 100.726562 140.125 C 100.378906 139.816406 99.847656 140.320312 100.199219 140.632812 C 100.867188 141.222656 101.546875 141.8125 102.410156 142.09375 C 103.328125 142.398438 104.308594 142.3125 105.253906 142.222656 C 105.71875 142.179688 105.75 141.449219 105.28125 141.492188 " fill-opacity="1" fill-rule="nonzero"/><path fill="#c87876" d="M 99.421875 190.785156 C 103.484375 189.535156 107.074219 188.34375 110.25 187.214844 C 118.652344 184.234375 124.144531 181.726562 127.671875 179.832031 C 129.789062 178.695312 131.199219 177.777344 132.113281 177.121094 C 132.367188 177.078125 132.644531 176.953125 132.960938 176.722656 C 135.121094 175.15625 135.871094 171.710938 136.128906 169.089844 C 136.148438 169.023438 136.175781 168.9375 136.203125 168.847656 C 136.398438 168.582031 136.617188 168.339844 136.863281 168.125 C 137.398438 167.652344 138.039062 167.316406 138.554688 166.828125 C 139.074219 166.339844 139.480469 165.628906 139.324219 164.9375 C 138.710938 165.460938 138.054688 165.933594 137.375 166.363281 C 137.527344 166.164062 137.691406 165.960938 137.871094 165.78125 C 138.976562 164.664062 140.777344 162.816406 141.15625 162.316406 C 141.488281 161.878906 141.632812 161.144531 141.539062 160.765625 C 141.527344 160.804688 141.503906 160.84375 141.460938 160.878906 C 139.429688 162.621094 137.179688 164.089844 135.140625 165.828125 C 134.878906 166.050781 134.5 165.664062 134.769531 165.4375 C 136.664062 163.820312 138.742188 162.425781 140.660156 160.835938 C 140.78125 160.488281 140.824219 160.117188 140.777344 159.867188 C 140.765625 159.898438 140.746094 159.921875 140.71875 159.945312 C 138.683594 161.6875 136.4375 163.160156 134.398438 164.894531 C 134.132812 165.117188 133.757812 164.730469 134.023438 164.503906 C 135.183594 163.511719 136.414062 162.605469 137.636719 161.691406 C 138.003906 160.910156 138.3125 160.230469 138.410156 159.949219 C 138.695312 159.117188 138.242188 157.6875 137.773438 158.53125 C 137.636719 158.773438 137.257812 159.324219 136.769531 160.011719 C 135.589844 161.664062 133.773438 164.109375 133.179688 164.957031 C 132.28125 166.03125 130.800781 171.164062 130.277344 173.058594 C 129.03125 173.347656 126.8125 173.867188 124.089844 174.5 C 120.152344 175.414062 115.160156 176.5625 110.570312 177.574219 C 106.40625 178.492188 102.574219 179.304688 100.132812 179.734375 C 97.675781 174.007812 88.546875 153.820312 80.433594 150.589844 C 78.441406 150.652344 76.925781 151.617188 76.082031 153.316406 C 74.808594 155.875 75.058594 160.105469 77.503906 165.464844 C 80.652344 172.363281 87.433594 181.121094 99.265625 190.574219 C 99.316406 190.648438 99.367188 190.714844 99.421875 190.785156 " fill-opacity="1" fill-rule="nonzero"/><path fill="#dfddf2" d="M 25.835938 289.992188 L 82.847656 290.28125 L 95.132812 290.347656 L 97.929688 290.359375 C 99.753906 290.367188 101.421875 289.335938 102.222656 287.699219 L 111.636719 268.484375 C 116.136719 259.296875 115.941406 249.476562 112.40625 241.164062 C 110.347656 236.324219 107.152344 231.992188 103.089844 228.597656 C 99.046875 225.21875 94.144531 222.773438 88.652344 221.667969 L 85.371094 225.339844 C 85.371094 225.339844 36.394531 225.636719 28.300781 225.164062 C 20.203125 224.699219 21.109375 221.621094 21.109375 221.621094 C 18.476562 221.652344 16.363281 223.808594 16.40625 226.445312 C 16.445312 229.019531 18.535156 231.09375 21.113281 231.117188 L 68.359375 231.542969 C 69.847656 231.558594 71.289062 231.761719 72.652344 232.113281 C 81.507812 234.429688 87.386719 243.453125 85.265625 252.867188 C 84.46875 256.410156 82.972656 259.652344 80.945312 262.460938 C 76.234375 269.007812 68.640625 273.21875 60.191406 273.429688 L 15.027344 274.550781 C 11.921875 274.628906 9.722656 277.617188 10.578125 280.601562 L 12.058594 285.792969 L 12.261719 286.5 C 12.640625 287.828125 13.570312 288.886719 14.757812 289.464844 C 15.382812 289.765625 16.078125 289.941406 16.808594 289.945312 L 25.835938 289.992188 " fill-opacity="1" fill-rule="nonzero"/><path fill="#76316b" d="M 28.300781 225.164062 C 36.394531 225.636719 85.371094 225.339844 85.371094 225.339844 L 88.652344 221.667969 L 88.699219 221.613281 C 88.699219 221.613281 86.332031 220.769531 77.214844 220.757812 C 76.046875 220.753906 74.253906 220.769531 72.023438 220.792969 C 56.828125 220.953125 21.109375 221.621094 21.109375 221.621094 C 21.109375 221.621094 20.203125 224.699219 28.300781 225.164062 " fill-opacity="1" fill-rule="nonzero"/></svg>