<svg xmlns="http://www.w3.org/2000/svg" xmlns:xlink="http://www.w3.org/1999/xlink" width="600" zoomAndPan="magnify" viewBox="0 0 450 449.999984" height="600" preserveAspectRatio="xMidYMid meet" version="1.0"><defs><clipPath id="86c4f21da6"><path d="M 0 96 L 442 96 L 442 361.78125 L 0 361.78125 Z M 0 96 " clip-rule="nonzero"/></clipPath><clipPath id="b7cc45a44c"><path d="M 0 88.03125 L 442 88.03125 L 442 353 L 0 353 Z M 0 88.03125 " clip-rule="nonzero"/></clipPath></defs><g clip-path="url(#86c4f21da6)"><path fill="#e2d5d4" d="M 440.867188 220.074219 C 432.945312 151.277344 337.589844 96.902344 220.824219 96.902344 C 104.0625 96.902344 8.710938 151.277344 0.785156 220.074219 L 0.0117188 220.074219 L 0.0117188 230.964844 L 0.152344 230.964844 C 1.664062 303.296875 99.816406 361.671875 220.824219 361.671875 C 341.835938 361.671875 439.988281 303.296875 441.503906 230.964844 L 441.640625 230.964844 L 441.640625 220.074219 L 440.867188 220.074219 " fill-opacity="1" fill-rule="nonzero"/></g><g clip-path="url(#b7cc45a44c)"><path fill="#efe9e7" d="M 220.824219 88.109375 C 98.875 88.109375 0.0117188 147.382812 0.0117188 220.496094 C 0.0117188 293.609375 98.875 352.882812 220.824219 352.882812 C 342.777344 352.882812 441.640625 293.609375 441.640625 220.496094 C 441.640625 147.382812 342.777344 88.109375 220.824219 88.109375 " fill-opacity="1" fill-rule="nonzero"/></g><path fill="#e2d2d0" d="M 221.769531 104.273438 C 114.710938 104.273438 27.917969 156.308594 27.917969 220.496094 C 27.917969 284.683594 114.710938 336.714844 221.769531 336.714844 C 328.832031 336.714844 415.625 284.683594 415.625 220.496094 C 415.625 156.308594 328.832031 104.273438 221.769531 104.273438 " fill-opacity="1" fill-rule="nonzero"/><path fill="#cdb9b7" d="M 221.769531 122.628906 C 126.074219 122.628906 48.496094 169.140625 48.496094 226.515625 C 48.496094 283.886719 126.074219 330.398438 221.769531 330.398438 C 317.46875 330.398438 395.046875 283.886719 395.046875 226.515625 C 395.046875 169.140625 317.46875 122.628906 221.769531 122.628906 " fill-opacity="1" fill-rule="nonzero"/><path fill="#ef3327" d="M 99.148438 170.800781 C 99.148438 170.800781 103.066406 192.601562 96.328125 203.253906 C 89.589844 213.910156 79.285156 196.417969 79.285156 196.417969 L 99.148438 170.800781 " fill-opacity="1" fill-rule="nonzero"/><path fill="#ef3327" d="M 318.910156 174.132812 C 318.910156 174.132812 346.589844 152.964844 355.0625 134.675781 C 363.535156 116.386719 373.492188 101.992188 381.457031 101.039062 C 389.421875 100.089844 386.640625 108.449219 379.964844 118.730469 C 373.289062 129.011719 366.464844 144.097656 357.039062 154.679688 C 347.609375 165.265625 325.910156 182.039062 325.910156 182.039062 L 318.910156 174.132812 " fill-opacity="1" fill-rule="nonzero"/><path fill="#ef3327" d="M 326.558594 176.199219 C 326.558594 176.199219 358.707031 162.753906 371.550781 147.210938 C 384.394531 131.675781 397.683594 120.273438 405.628906 121.378906 C 413.574219 122.476562 408.757812 129.859375 399.6875 138.105469 C 390.621094 146.355469 380.183594 159.21875 368.378906 167.0625 C 356.566406 174.910156 331.320312 185.621094 331.320312 185.621094 L 326.558594 176.199219 " fill-opacity="1" fill-rule="nonzero"/><path fill="#ef3327" d="M 193.902344 140.128906 C 193.902344 140.128906 207.015625 108.722656 213.980469 101.644531 C 220.949219 94.570312 229.320312 97.316406 223.09375 107.792969 C 216.867188 118.265625 198.09375 143.296875 198.09375 143.296875 L 193.902344 140.128906 " fill-opacity="1" fill-rule="nonzero"/><path fill="#f0432f" d="M 177.660156 196.417969 C 177.660156 196.417969 181.226562 150.65625 187.171875 138.660156 C 193.117188 126.664062 205 126.65625 201.4375 142.699219 C 197.871094 158.742188 192.550781 191.058594 192.550781 191.058594 L 177.660156 196.417969 " fill-opacity="1" fill-rule="nonzero"/><path fill="#ef3327" d="M 215.550781 143.410156 C 215.550781 143.410156 238.046875 117.859375 246.914062 113.390625 C 255.78125 108.921875 262.832031 114.203125 253.574219 122.128906 C 244.316406 130.058594 218.503906 147.75 218.503906 147.75 L 215.550781 143.410156 " fill-opacity="1" fill-rule="nonzero"/><path fill="#f0432f" d="M 182.109375 191.527344 C 182.109375 191.527344 200.167969 149.320312 209.648438 139.859375 C 219.125 130.402344 230.386719 134.203125 221.863281 148.257812 C 213.339844 162.3125 197.9375 191.21875 197.9375 191.21875 L 182.109375 191.527344 " fill-opacity="1" fill-rule="nonzero"/><path fill="#ef3327" d="M 269.710938 126.246094 C 269.710938 126.246094 295.167969 103.640625 304.515625 100.292969 C 313.867188 96.941406 320.214844 103.046875 310.054688 109.78125 C 299.894531 116.515625 272.113281 130.914062 272.113281 130.914062 L 269.710938 126.246094 " fill-opacity="1" fill-rule="nonzero"/><path fill="#f0432f" d="M 230.621094 169.90625 C 230.621094 169.90625 253.71875 130.226562 264.289062 122 C 274.855469 113.769531 285.5625 118.921875 275.382812 131.828125 C 265.199219 144.734375 246.367188 171.539062 246.367188 171.539062 L 230.621094 169.90625 " fill-opacity="1" fill-rule="nonzero"/><path fill="#ef3327" d="M 287.785156 138.59375 C 287.785156 138.59375 319.152344 125.339844 329.082031 125.160156 C 339.015625 124.980469 343.066406 132.796875 331.285156 135.921875 C 319.5 139.046875 288.5625 143.785156 288.5625 143.785156 L 287.785156 138.59375 " fill-opacity="1" fill-rule="nonzero"/><path fill="#f0432f" d="M 236.753906 167.429688 C 236.753906 167.429688 271.363281 137.246094 284.007812 132.835938 C 296.660156 128.429688 305.148438 136.738281 291.367188 145.699219 C 277.582031 154.664062 251.144531 174.019531 251.144531 174.019531 L 236.753906 167.429688 " fill-opacity="1" fill-rule="nonzero"/><path fill="#f0432f" d="M 442.605469 169.222656 C 435.195312 165.398438 390.648438 182.039062 390.648438 182.039062 L 390.648438 203.253906 C 399.183594 198.625 437.882812 196.074219 443.160156 191.402344 C 448.4375 186.730469 450.015625 173.046875 442.605469 169.222656 " fill-opacity="1" fill-rule="nonzero"/><path fill="#ef3327" d="M 411.324219 169.84375 C 400.558594 164.289062 370.96875 177.078125 370.96875 177.078125 L 362.648438 214.832031 C 375.042969 208.105469 404.464844 208.84375 412.128906 202.058594 C 419.796875 195.273438 422.085938 175.394531 411.324219 169.84375 " fill-opacity="1" fill-rule="nonzero"/><path fill="#d92c24" d="M 374.9375 171.539062 C 359.878906 165.308594 329.847656 182.035156 329.847656 182.035156 L 326.558594 236.363281 C 342.414062 225.941406 370.152344 224.601562 379.664062 214.636719 C 389.175781 204.675781 389.996094 177.765625 374.9375 171.539062 " fill-opacity="1" fill-rule="nonzero"/><path fill="#76b434" d="M 107.582031 190.273438 C 108.21875 190.234375 113.304688 191.054688 113.6875 191.230469 C 122.148438 195.066406 122.621094 202.367188 121.667969 210.800781 C 121.507812 212.226562 122.84375 213.433594 124.214844 212.625 C 129.382812 209.59375 139.996094 200.902344 134.007812 194.300781 C 129.960938 189.835938 123.128906 187.773438 116.789062 187.882812 C 119.75 186.601562 122.5625 184.894531 125.097656 182.820312 C 128.539062 185.058594 131.601562 185.242188 133.875 189.449219 C 135.972656 193.328125 136.277344 197.960938 136.609375 202.261719 C 136.703125 203.445312 137.9375 204.148438 138.984375 203.53125 C 144.550781 200.253906 152.5625 193.648438 147.421875 186.507812 C 145.832031 184.300781 143.238281 182.691406 140.359375 181.710938 C 142.648438 181.417969 147.40625 180.476562 152.78125 182.667969 C 156.855469 184.960938 158.375 189.53125 159.117188 194.902344 C 159.550781 198.039062 160.285156 202.71875 164.5625 201.085938 C 168.875 199.4375 172.253906 191.960938 170.652344 187.6875 C 169.320312 184.140625 164.5 182.125 160.179688 181.6875 C 162.492188 180.800781 164.753906 179.570312 166.777344 178.351562 C 171.964844 175.234375 179.675781 170.363281 180.019531 163.445312 C 180.226562 159.242188 176.675781 156.613281 172.992188 158.78125 C 169.8125 160.648438 161.4375 172.140625 161.351562 172.234375 C 160.820312 166.390625 162.601562 154.863281 157.597656 154.195312 C 153.714844 153.679688 147.746094 153.289062 147.058594 158.332031 C 146.621094 161.542969 147.695312 165.851562 149.738281 168.292969 C 153.835938 173.199219 155.113281 175.871094 154.824219 179.066406 C 150.152344 178.347656 136.691406 178.851562 131.058594 182.621094 C 130.316406 182.273438 128.449219 180.640625 127.675781 180.511719 C 129.605469 178.636719 131.351562 176.605469 132.835938 174.488281 C 134.164062 172.59375 136.796875 169.480469 135.636719 166.914062 C 134.011719 163.328125 126.09375 161.800781 122.726562 160.699219 C 121.890625 160.429688 120.996094 161.101562 120.789062 161.886719 C 119.441406 167.042969 121.917969 171.535156 119.402344 176.765625 C 117.375 180.988281 113.75 183.800781 111.117188 187.484375 C 109.847656 188.089844 108.574219 188.679688 107.285156 189.28125 C 106.792969 189.511719 107.082031 190.308594 107.582031 190.273438 " fill-opacity="1" fill-rule="nonzero"/><path fill="#76b434" d="M 137.332031 183.453125 C 136.488281 180.585938 134.644531 178.226562 132.527344 176.175781 C 131.621094 175.292969 130.527344 174.152344 129.316406 173.210938 C 131.449219 172.144531 133.609375 171.078125 135.699219 169.917969 C 135.742188 169.941406 135.742188 169.980469 135.789062 170 C 139.464844 171.417969 142.6875 172.410156 145.277344 175.644531 C 146.550781 177.238281 147.4375 179.378906 149.457031 180.214844 C 154.140625 182.160156 156.183594 176.742188 156.015625 173.152344 C 155.828125 169.164062 154.664062 164.191406 150.105469 163.328125 C 148.292969 162.984375 146.1875 163.28125 144.070312 163.929688 C 144.828125 163.179688 145.550781 162.394531 146.207031 161.535156 C 147.539062 159.792969 150.15625 155.277344 150.605469 152.941406 C 152.015625 152.445312 153.148438 150.914062 154.25 150 C 156.574219 148.074219 159.113281 146.636719 161.988281 145.710938 C 163.753906 145.144531 165.914062 144.65625 166.421875 142.59375 C 166.914062 140.59375 165.464844 139.894531 164.148438 138.910156 C 162.367188 137.574219 161.84375 135.328125 159.609375 134.4375 C 157.746094 133.695312 155.585938 133.960938 153.808594 134.820312 C 152.300781 135.546875 151.164062 136.785156 150.34375 138.246094 C 149.816406 135.378906 148.871094 132.609375 147.332031 129.847656 C 145.457031 126.488281 142.816406 123.097656 139.1875 126.402344 C 135.085938 130.132812 134.378906 130.878906 137.863281 135.195312 C 140.148438 138.027344 144.078125 137.320312 146.957031 145.234375 C 143.242188 142.328125 135.246094 140.230469 131.234375 143.359375 C 128.28125 145.664062 126.273438 151.738281 130.320312 153.929688 C 132.804688 155.273438 135.746094 154.96875 138.425781 154.496094 C 141.503906 153.953125 143.714844 153.722656 146.222656 154.636719 C 144.878906 158.476562 142.539062 161.949219 138.746094 164.828125 C 135.664062 167.167969 131.949219 168.644531 128.617188 170.59375 C 129.652344 165.242188 127.394531 158.804688 123.953125 155.046875 C 123.917969 155.011719 123.867188 154.972656 123.832031 154.9375 C 126.1875 152.445312 124.917969 149.496094 122.972656 146.574219 C 123.144531 145.042969 123.375 143.515625 123.84375 142.011719 C 124.695312 139.273438 126.871094 136.734375 127.144531 133.824219 C 127.484375 130.210938 124.414062 127.773438 120.941406 128.507812 C 117.316406 129.273438 114.691406 133.511719 114.035156 136.964844 C 113.691406 138.757812 114.058594 140.015625 114.917969 141.613281 C 115.945312 143.519531 120.039062 146.140625 121.910156 148.675781 C 123.621094 150.988281 122.488281 152.777344 122.699219 153.851562 C 122.242188 153.550781 118.394531 150.6875 117.691406 150.429688 C 115.679688 147.371094 112.949219 143.636719 109.570312 143.511719 C 105.785156 143.371094 101.03125 147.214844 98.535156 149.71875 C 91.941406 156.324219 103.640625 164.347656 109.027344 166.964844 C 110.273438 167.570312 111.796875 166.546875 111.933594 165.246094 C 112.113281 163.5625 112.476562 152.148438 117.636719 153.65625 C 119.34375 154.574219 121.171875 156.902344 122.339844 158.457031 C 125.375 162.496094 125.058594 166.941406 125.539062 171.515625 C 116.269531 169.746094 113.464844 184.070312 114.070312 186.75 C 114.65625 186.496094 117.160156 182.289062 120.449219 182.097656 C 125.574219 181.804688 128.152344 188.875 131.589844 191.347656 C 137.03125 195.261719 138.417969 187.136719 137.332031 183.453125 " fill-opacity="1" fill-rule="nonzero"/><path fill="#76b434" d="M 198.066406 129.128906 C 197.53125 130.261719 196.75 131.269531 195.59375 131.816406 C 191.425781 133.792969 185.15625 128.558594 181.695312 131.28125 C 179.296875 135.511719 175.542969 139.375 171.417969 141.941406 C 172.234375 142.515625 172.855469 143.390625 173.378906 144.347656 C 175.847656 142.9375 178.734375 142.21875 181.414062 141.332031 C 183.859375 140.527344 186.503906 139.289062 189.128906 139.441406 C 193.128906 139.675781 195.75 143.296875 195.890625 147.128906 C 196 150.222656 194.40625 157.332031 190.6875 157.863281 C 188.554688 158.167969 186.179688 156.175781 184.410156 155.246094 C 183.683594 154.859375 182.984375 154.441406 182.269531 154.046875 C 183.03125 155.421875 183.566406 156.890625 183.714844 158.375 C 184.214844 163.273438 180.726562 167.148438 175.789062 166.699219 C 175.039062 166.632812 174.628906 165.867188 174.53125 165.226562 C 174.039062 162.199219 174.222656 157.316406 172.804688 152.042969 C 172.140625 149.570312 172.03125 147.070312 169.15625 143.207031 C 167.914062 143.8125 162.804688 145.449219 160.285156 143.984375 C 160.371094 143.046875 164.265625 141.796875 166.371094 140.691406 C 169.367188 138.484375 171.785156 137.5 174.464844 134.839844 C 172.640625 134.558594 170.789062 133.957031 168.929688 134.023438 C 166.886719 134.101562 162.808594 131.835938 159.050781 134.679688 C 156.089844 132.355469 160.902344 127.058594 162.792969 124.976562 C 165.585938 121.902344 170.035156 120.996094 173.652344 123.140625 C 175.90625 124.480469 177.671875 126.964844 178.195312 129.617188 C 178.4375 129.097656 178.707031 128.597656 178.890625 128.039062 C 182.957031 115.8125 172.890625 115.820312 167.777344 108.363281 C 167.421875 107.839844 167.332031 107.03125 167.664062 106.472656 C 170.34375 101.96875 176.808594 98.355469 181.289062 102.578125 C 185.300781 106.355469 184.273438 118.417969 182.519531 123.605469 C 184.414062 120.46875 187.710938 118.21875 189.199219 117.609375 C 194.277344 115.542969 198.589844 117.234375 202.683594 120.238281 C 198.828125 123.082031 198.667969 127.867188 198.066406 129.128906 " fill-opacity="1" fill-rule="nonzero"/><path fill="#f9e24f" d="M 202.703125 175.789062 C 202.703125 175.789062 204.671875 164.351562 193.46875 157.121094 C 182.265625 149.890625 160.171875 150.40625 134.667969 162.53125 C 109.164062 174.660156 104.925781 192.875 101.511719 200.0625 C 98.097656 207.253906 95.742188 212.199219 95.742188 212.199219 C 95.742188 212.199219 135.253906 206.285156 152.785156 199.671875 C 177.035156 190.53125 202.703125 175.789062 202.703125 175.789062 " fill-opacity="1" fill-rule="nonzero"/><path fill="#f9b019" d="M 123.660156 159.871094 C 138.019531 148.542969 161.8125 143.269531 177.753906 145.832031 C 192.765625 148.242188 193.46875 150.382812 200.738281 158.703125 C 189.15625 151.714844 163.050781 151.957031 149.25 155.988281 C 132.265625 160.949219 109.804688 175.105469 106.695312 194.378906 C 106.070312 195.429688 105.46875 196.394531 104.871094 197.21875 C 99.886719 204.097656 91.941406 212.199219 91.941406 212.199219 L 90.257812 207.570312 C 90.257812 207.570312 96.910156 180.976562 123.660156 159.871094 " fill-opacity="1" fill-rule="nonzero"/><path fill="#f9d617" d="M 201.089844 176.921875 C 201.089844 176.921875 204.253906 174.691406 206.488281 173.160156 C 206.035156 169.621094 204.039062 162.210938 200.738281 158.703125 C 194.203125 151.773438 185.207031 148.417969 163.09375 151.574219 C 130.566406 156.21875 125.339844 163.636719 113.355469 177.316406 C 101.371094 191 91.941406 212.199219 91.941406 212.199219 L 98.3125 212.199219 C 98.3125 212.199219 115.609375 179.609375 126.234375 170.386719 C 139.472656 158.902344 167.917969 151 185.207031 155.734375 C 202.496094 160.46875 201.089844 176.921875 201.089844 176.921875 " fill-opacity="1" fill-rule="nonzero"/><path fill="#f9d617" d="M 176.210938 187.308594 C 176.210938 187.308594 193.011719 180.621094 194.203125 171.839844 C 195.390625 163.0625 190.039062 158.113281 181.324219 157.515625 C 172.605469 156.921875 170.621094 164.445312 169.039062 172.566406 C 167.453125 180.6875 166.117188 191.789062 166.117188 191.789062 C 166.117188 191.789062 171.785156 189.382812 176.210938 187.308594 " fill-opacity="1" fill-rule="nonzero"/><path fill="#f9d617" d="M 157.367188 195.339844 C 157.367188 194.746094 164.480469 171.578125 162.101562 165.636719 C 159.722656 159.691406 148.824219 157.914062 141.292969 165.4375 C 133.765625 172.960938 138.378906 180.617188 142.34375 186.5625 C 146.304688 192.5 157.367188 195.339844 157.367188 195.339844 " fill-opacity="1" fill-rule="nonzero"/><path fill="#f9d617" d="M 146.875 197.390625 C 146.875 197.390625 136.648438 186.019531 131.144531 180.976562 C 125.640625 175.933594 120.410156 181.078125 116.722656 188.011719 C 113.039062 194.941406 111.335938 200.808594 120.121094 203.480469 C 128.910156 206.15625 146.875 197.390625 146.875 197.390625 " fill-opacity="1" fill-rule="nonzero"/><path fill="#ffffff" d="M 187.160156 169.117188 C 188.039062 167.617188 187.867188 166.003906 188.511719 164.476562 C 188.644531 164.160156 189.039062 163.867188 189.386719 164.121094 C 192.449219 166.359375 190.183594 174.902344 186 173.769531 C 185.511719 173.636719 185.105469 173.140625 185.125 172.625 C 185.183594 171.082031 186.417969 170.378906 187.160156 169.117188 " fill-opacity="1" fill-rule="nonzero"/><path fill="#ffffff" d="M 155.304688 170.175781 C 155.535156 168.652344 155.234375 167.148438 155.042969 165.632812 C 154.914062 164.617188 156.3125 164.25 156.945312 164.847656 C 158.957031 166.742188 160.484375 173.546875 156.609375 174.289062 C 156.082031 174.390625 155.523438 174.222656 155.246094 173.734375 C 154.515625 172.453125 155.097656 171.558594 155.304688 170.175781 " fill-opacity="1" fill-rule="nonzero"/><path fill="#ffffff" d="M 125.289062 182.601562 C 128.390625 182.617188 132.96875 186.566406 131.292969 189.851562 C 130.953125 190.523438 130.054688 190.664062 129.4375 190.335938 C 128.296875 189.730469 127.996094 188.691406 127.355469 187.636719 C 126.597656 186.378906 125.445312 185.589844 124.5 184.5 C 123.886719 183.796875 124.273438 182.59375 125.289062 182.601562 " fill-opacity="1" fill-rule="nonzero"/><path fill="#ffffff" d="M 133.566406 158.703125 C 149.898438 151.089844 175.144531 143.394531 191.992188 153.007812 C 192.125 153.085938 192.074219 153.332031 191.90625 153.320312 C 185.414062 152.78125 179.117188 151.175781 173.199219 151.378906 C 159.605469 151.84375 147.148438 155.675781 132.757812 159.804688 C 132.027344 160.015625 132.847656 159.042969 133.566406 158.703125 " fill-opacity="1" fill-rule="nonzero"/><path fill="#ef3327" d="M 328.175781 184.53125 C 317.878906 181.527344 307.835938 197.238281 298.074219 199.417969 C 281.234375 203.175781 264.15625 206.230469 246.882812 208.519531 C 213.347656 212.960938 179.179688 214.609375 144.957031 213.445312 C 114.675781 212.414062 74.898438 211.785156 53.699219 188.960938 C 50.855469 191.863281 50.972656 188.5 48.4375 191.636719 C 29.726562 236.363281 54.65625 261.59375 91.96875 282.027344 C 136.875 306.625 194.929688 307.164062 243.359375 296.679688 C 267.921875 291.363281 295.652344 283.765625 316.675781 272.019531 C 334.753906 261.914062 346.546875 248.363281 346.050781 203.253906 C 345.890625 188.894531 345.078125 189.464844 328.175781 184.53125 " fill-opacity="1" fill-rule="nonzero"/><path fill="#f0432f" d="M 341.464844 181.039062 C 321.828125 149.707031 278.386719 142.285156 233.253906 154.390625 C 204.691406 162.050781 185.59375 176.6875 160.765625 184.589844 C 118.800781 197.949219 101.625 198.894531 96.515625 196.695312 C 84.632812 191.582031 102.824219 176.542969 99.148438 170.800781 C 93.875 162.5625 81.714844 161.429688 73.105469 164.707031 C 49.84375 173.566406 41.953125 200.855469 47.546875 221.421875 C 63.894531 281.496094 162.820312 274.648438 212.691406 267.273438 C 245.179688 262.472656 289.527344 254.339844 315.238281 236.363281 C 336.539062 221.472656 356.660156 205.28125 341.464844 181.039062 " fill-opacity="1" fill-rule="nonzero"/><path fill="#ef3327" d="M 335.160156 182.292969 C 317.160156 153.574219 277.339844 146.765625 235.964844 157.863281 C 209.785156 164.886719 192.28125 178.304688 169.515625 185.550781 C 131.046875 197.796875 99.984375 202.171875 95.070312 200.808594 C 79.285156 196.421875 97.347656 180.386719 93.980469 175.121094 C 89.144531 167.566406 77.585938 165.617188 70.105469 169.535156 C 56.550781 176.632812 46.8125 201.644531 51.941406 220.496094 C 66.925781 275.566406 171.398438 268.105469 217.113281 261.34375 C 246.898438 256.941406 287.550781 249.488281 311.121094 233.007812 C 330.644531 219.355469 349.089844 204.515625 335.160156 182.292969 " fill-opacity="1" fill-rule="nonzero"/><path fill="#e9a14d" d="M 54.320312 200.34375 C 54.320312 200.34375 49.265625 213.019531 51.941406 220.496094 C 54.617188 227.96875 52.238281 233.910156 65.910156 245.492188 C 79.582031 257.078125 100.09375 262.148438 118.222656 266 C 136.355469 269.847656 171.683594 268.761719 182.109375 267.96875 C 192.535156 267.175781 238.453125 259.28125 251.757812 256.394531 C 265.058594 253.511719 296.125 245.023438 309.125 237.535156 C 322.128906 230.046875 334.054688 218.175781 338.492188 209.40625 C 342.933594 200.640625 341.019531 194.929688 341.019531 194.929688 C 341.019531 194.929688 242.46875 222.585938 212.152344 229.285156 C 181.832031 235.988281 75.71875 237.175781 54.320312 200.34375 " fill-opacity="1" fill-rule="nonzero"/><path fill="#fccd7d" d="M 76.125 169.140625 C 71.289062 173.660156 70.414062 181.792969 75.015625 187.089844 C 66.800781 191.640625 59.539062 196.578125 56.269531 203.4375 C 50.125 216.324219 66.75 216.8125 74.648438 217.171875 C 71.855469 226.511719 81.46875 229.058594 83.914062 229.589844 C 89.179688 230.722656 93.007812 229.960938 98.121094 229.105469 C 98.308594 233.613281 110.347656 241.1875 119.730469 240.757812 C 128.292969 240.363281 137.472656 238.585938 143.644531 232.175781 C 143.191406 240.742188 161.152344 248.945312 173.117188 247.929688 C 185.125 246.910156 189.328125 240.105469 195.644531 231.308594 C 197.585938 236.363281 212.25 244.886719 222.628906 245.8125 C 229.398438 246.417969 235.453125 245.5625 241.417969 242.070312 C 242.867188 241.21875 251.085938 236.363281 257.707031 228.496094 C 272.066406 239.871094 297.5 240.175781 301.34375 218.980469 C 317.164062 218.25 329.445312 201.683594 334.671875 185.398438 C 329.820312 180.683594 323.113281 176.929688 317.039062 176.617188 C 316.585938 171.585938 314.660156 166.789062 310.585938 162.785156 C 299.972656 152.34375 285.460938 158.519531 276.246094 168.082031 C 274.246094 165.363281 271.753906 163.003906 268.773438 161.261719 C 253.335938 152.242188 237.496094 164.011719 227.875 176.867188 C 224.976562 173.605469 220.984375 171.359375 216.191406 171.117188 C 208.46875 170.726562 192.863281 178.378906 187.191406 187.285156 C 184.863281 185.789062 182.246094 184.71875 179.464844 184.332031 C 167.230469 182.609375 155.476562 190.46875 148.394531 200.519531 C 146.816406 198.382812 144.699219 196.550781 142.175781 195.363281 C 131.222656 190.222656 120.269531 196.773438 111.613281 203.476562 C 108.328125 198.953125 102.925781 196.941406 98.265625 198.828125 C 98.6875 192.671875 96.492188 187 90.179688 184.335938 C 91.507812 181.488281 92.175781 178.683594 91.746094 175.84375 C 91.945312 175.714844 92.121094 175.535156 92.207031 175.289062 C 93.773438 170.960938 90.867188 166.902344 86.875 165.136719 C 84.992188 164.308594 83.011719 164.109375 81.0625 164.332031 C 79.671875 166.117188 77.882812 167.5 76.125 169.140625 " fill-opacity="1" fill-rule="nonzero"/><path fill="#fab861" d="M 66.046875 179.332031 C 65.792969 180.902344 65.796875 183.183594 66.292969 185.222656 C 53.699219 188.960938 53.140625 193.128906 48.496094 202.4375 C 42.308594 214.832031 50.722656 230.265625 62.671875 227.972656 C 58.679688 247.175781 85.707031 248.457031 94.253906 245.644531 C 95.929688 253.429688 105.261719 259.027344 113.402344 260.523438 C 125.085938 262.667969 138.628906 259.695312 148.191406 252.191406 C 153.21875 262.136719 166.578125 268.25 177.0625 267.957031 C 187.097656 267.679688 196.976562 262.199219 202.941406 254.070312 C 213.503906 263.945312 225.382812 266.199219 241.488281 261.011719 C 248.835938 258.648438 256.222656 254.375 261.53125 248.671875 C 272.5 256.917969 289.269531 252.214844 300.667969 244.554688 C 305.90625 241.039062 310.96875 236.457031 314.253906 230.914062 C 321.226562 228.027344 336.496094 217.078125 341.023438 194.929688 C 340.109375 191.777344 337.761719 188.398438 334.675781 185.398438 C 329.449219 201.683594 317.167969 218.246094 301.347656 218.980469 C 297.503906 240.175781 272.066406 239.871094 257.707031 228.496094 C 251.089844 236.363281 242.867188 241.21875 241.417969 242.066406 C 235.457031 245.5625 229.402344 246.417969 222.628906 245.8125 C 212.25 244.886719 197.585938 236.363281 195.644531 231.308594 C 189.328125 240.105469 185.125 246.910156 173.117188 247.929688 C 161.152344 248.945312 143.191406 240.738281 143.644531 232.175781 C 137.472656 238.585938 128.296875 240.363281 119.730469 240.757812 C 110.351562 241.1875 98.308594 233.613281 98.121094 229.105469 C 93.007812 229.960938 89.179688 230.722656 83.917969 229.585938 C 81.472656 229.058594 71.855469 226.511719 74.648438 217.167969 C 66.75 216.808594 50.125 216.324219 56.273438 203.433594 C 59.539062 196.574219 66.800781 191.636719 75.015625 187.085938 C 70.414062 181.789062 71.289062 173.660156 76.125 169.140625 C 77.882812 167.5 79.675781 166.113281 81.0625 164.332031 C 78.273438 164.648438 75.554688 165.859375 73.300781 167.554688 C 69.539062 170.378906 66.800781 174.667969 66.046875 179.332031 " fill-opacity="1" fill-rule="nonzero"/><path fill="#fcdaa7" d="M 77.132812 192.097656 C 76.316406 191.03125 72.101562 188.75 68.109375 194.210938 C 67.09375 195.320312 66.195312 196.542969 65.636719 197.910156 C 64.886719 199.761719 64.570312 202.179688 66.324219 203.59375 C 68.046875 204.984375 70.355469 204.394531 72.097656 203.34375 C 75.398438 201.351562 80.246094 196.136719 77.132812 192.097656 " fill-opacity="1" fill-rule="nonzero"/><path fill="#fcdaa7" d="M 81.644531 208.882812 C 80.859375 209.074219 80.28125 209.464844 79.796875 209.925781 C 76.417969 211.289062 77.046875 216.546875 78.46875 219.292969 C 79.453125 221.199219 81.101562 223.015625 83.464844 222.554688 C 85.472656 222.160156 86.75 219.945312 87.230469 218.132812 C 88.117188 214.820312 86.34375 207.722656 81.644531 208.882812 " fill-opacity="1" fill-rule="nonzero"/><path fill="#fcdaa7" d="M 152.386719 222.476562 C 151.601562 222.667969 151.023438 223.058594 150.539062 223.519531 C 147.160156 224.882812 147.789062 230.140625 149.207031 232.886719 C 150.195312 234.796875 151.84375 236.613281 154.203125 236.152344 C 156.214844 235.757812 157.492188 233.542969 157.972656 231.726562 C 158.855469 228.417969 157.085938 221.320312 152.386719 222.476562 " fill-opacity="1" fill-rule="nonzero"/><path fill="#fcdaa7" d="M 278.628906 226.515625 C 282.226562 221.402344 272.070312 215.128906 268.394531 214.863281 C 265.84375 214.679688 262.96875 215.222656 261.972656 217.910156 C 261.125 220.195312 262.582031 222.871094 264.128906 224.492188 C 266.945312 227.441406 275.308594 231.230469 278.628906 226.515625 " fill-opacity="1" fill-rule="nonzero"/><path fill="#fcdaa7" d="M 314.1875 197.589844 C 310.851562 192.304688 301.148438 199.257812 299.488281 202.546875 C 298.335938 204.828125 297.734375 207.691406 299.832031 209.644531 C 301.617188 211.304688 304.648438 210.988281 306.738281 210.183594 C 310.550781 208.722656 317.265625 202.464844 314.1875 197.589844 " fill-opacity="1" fill-rule="nonzero"/><path fill="#fcdaa7" d="M 206.328125 180.417969 C 200.929688 177.273438 197.59375 182.332031 196.566406 185.25 C 195.855469 187.273438 195.660156 189.722656 197.621094 191.121094 C 199.28125 192.308594 201.773438 191.71875 203.425781 190.824219 C 206.441406 189.195312 210.511719 182.851562 206.328125 180.417969 " fill-opacity="1" fill-rule="nonzero"/><path fill="#fcdaa7" d="M 112.4375 218.667969 C 110.433594 217.625 107.613281 216.21875 105.445312 217.605469 C 100.839844 220.550781 105.328125 226.875 108.121094 229.179688 C 111.3125 231.8125 118.3125 236.898438 121.191406 230.964844 C 123.121094 226.992188 113.667969 219.304688 112.4375 218.667969 " fill-opacity="1" fill-rule="nonzero"/><path fill="#fcdaa7" d="M 211.066406 219.804688 C 209.0625 218.761719 206.242188 217.355469 204.070312 218.746094 C 199.46875 221.691406 203.957031 228.015625 206.75 230.316406 C 209.941406 232.949219 216.941406 238.035156 219.820312 232.101562 C 221.75 228.128906 212.296875 220.445312 211.066406 219.804688 " fill-opacity="1" fill-rule="nonzero"/><path fill="#fcdaa7" d="M 128.46875 198.886719 C 127.015625 197.265625 124.789062 197.59375 123.078125 198.859375 C 120 201.128906 116.746094 203.664062 116.417969 205.640625 C 116.09375 207.609375 116.792969 209.640625 118.644531 210.585938 C 120.636719 211.601562 122.917969 210.734375 124.636719 209.578125 C 127.90625 207.375 131.972656 202.804688 128.46875 198.886719 " fill-opacity="1" fill-rule="nonzero"/><path fill="#fcdaa7" d="M 252.515625 167.277344 C 251.0625 165.652344 248.832031 165.984375 247.125 167.246094 C 244.046875 169.519531 240.792969 172.054688 240.464844 174.03125 C 240.140625 176 240.839844 178.027344 242.695312 178.976562 C 244.683594 179.988281 246.964844 179.125 248.679688 177.964844 C 251.953125 175.765625 256.019531 171.195312 252.515625 167.277344 " fill-opacity="1" fill-rule="nonzero"/><path fill="#fcdaa7" d="M 167.78125 191.21875 C 166.414062 189.691406 164.320312 190.003906 162.710938 191.191406 C 159.8125 193.332031 156.75 195.714844 156.441406 197.578125 C 156.132812 199.429688 156.792969 201.339844 158.539062 202.230469 C 160.410156 203.1875 162.558594 202.371094 164.175781 201.28125 C 167.253906 199.207031 171.082031 194.910156 167.78125 191.21875 " fill-opacity="1" fill-rule="nonzero"/><path fill="#fab861" d="M 204.289062 201.246094 C 198.652344 199.957031 189.875 197.558594 187.917969 192.773438 C 186.078125 196.238281 184.285156 198.941406 181.011719 201.246094 C 178.230469 203.207031 174.664062 204.375 172.207031 206.710938 C 172.113281 206.796875 172.101562 206.929688 172.039062 207.035156 C 164.699219 205.023438 156.007812 207.324219 150.914062 212.824219 C 150.570312 213.199219 151.003906 213.765625 151.457031 213.527344 C 158.9375 209.527344 169.09375 209.15625 175.980469 214.523438 C 178.394531 216.402344 181.773438 213.328125 179.449219 211.054688 C 178.835938 210.457031 178.128906 210.015625 177.445312 209.53125 C 179.222656 208.984375 186.488281 206.695312 191.621094 215.191406 C 191.859375 213.863281 193.714844 204.410156 204.289062 201.246094 " fill-opacity="1" fill-rule="nonzero"/><path fill="#fab861" d="M 133.625 211.5 C 130.457031 211.167969 126.542969 211.816406 123.761719 213.722656 C 122.570312 212.753906 121.183594 211.988281 120.035156 211.488281 C 115.136719 209.363281 108.773438 209.382812 104.300781 212.398438 C 104.152344 212.496094 104.152344 212.765625 104.351562 212.804688 C 108.667969 213.667969 113.207031 213.023438 117.289062 214.964844 C 120.019531 216.261719 122.007812 219.832031 124.9375 220.277344 C 125.34375 220.339844 125.875 220.246094 126.070312 219.816406 C 126.757812 218.308594 126.410156 216.902344 125.570312 215.664062 C 127.320312 215.460938 129.070312 215.089844 130.832031 215.101562 C 133.957031 215.121094 135.757812 216.402344 138.339844 217.78125 C 139.226562 218.253906 140.257812 217.660156 140.296875 216.65625 C 140.429688 213.222656 136.503906 211.804688 133.625 211.5 " fill-opacity="1" fill-rule="nonzero"/><path fill="#fab861" d="M 89.730469 201.65625 C 90.054688 200.140625 89.421875 198.230469 88.824219 196.941406 C 87.671875 194.449219 85.65625 192.867188 83.28125 191.597656 C 82.234375 191.039062 81.402344 192.507812 82.363281 193.167969 C 84.15625 194.40625 85.210938 196.542969 85.628906 198.65625 C 85.796875 199.5 85.726562 200.386719 85.800781 201.21875 C 85.003906 201.453125 84.421875 201.972656 84.230469 202.871094 C 84.21875 202.917969 84.226562 202.984375 84.269531 203.015625 C 84.867188 203.484375 85.503906 203.550781 86.226562 203.769531 C 87.585938 204.183594 88.851562 204.796875 89.992188 205.648438 C 91.863281 207.050781 92.535156 209.59375 94.472656 210.75 C 95.347656 211.273438 96.5625 210.789062 96.820312 209.796875 C 97.648438 206.59375 93.5 203.023438 89.730469 201.65625 " fill-opacity="1" fill-rule="nonzero"/><path fill="#fab861" d="M 258.203125 190.316406 C 252.683594 190.9375 247.226562 190.617188 243.394531 189.210938 C 240.578125 188.179688 237.878906 186.34375 235.507812 184.367188 C 234.800781 183.476562 234.003906 182.660156 233.101562 182.003906 C 235.433594 188.75 234.480469 193.574219 233.371094 195.277344 C 227.300781 195.28125 221.320312 197.335938 218.308594 201.960938 C 218.027344 202.398438 218.492188 202.921875 218.960938 202.804688 C 223.355469 201.71875 227.265625 199.941406 231.882812 199.691406 C 236.800781 199.429688 240.546875 200.792969 244.632812 203.011719 C 247.710938 197.5625 252.890625 192.746094 258.203125 190.316406 " fill-opacity="1" fill-rule="nonzero"/><path fill="#fab861" d="M 311.457031 178.042969 C 306.445312 178.628906 301.457031 179.921875 296.394531 179.945312 C 293.726562 179.953125 290.980469 179.734375 288.429688 178.917969 C 285.570312 178.003906 281.800781 176.484375 279.109375 174.484375 C 281.835938 180.136719 276.234375 184.003906 272.300781 186.710938 C 271.589844 187.203125 272 188.46875 272.917969 188.179688 C 278.605469 186.378906 287.785156 188.75 290.878906 194.839844 C 294.484375 188.75 299.238281 183.019531 311.457031 178.042969 " fill-opacity="1" fill-rule="nonzero"/><path fill="#76b434" d="M 387.734375 249.601562 C 387.117188 249.457031 382.480469 247.203125 382.167969 246.925781 C 375.175781 240.808594 376.839844 233.6875 380.191406 225.886719 C 380.761719 224.5625 379.828125 223.027344 378.277344 223.402344 C 372.457031 224.8125 359.785156 230.066406 363.601562 238.117188 C 366.183594 243.558594 372.128906 247.507812 378.230469 249.234375 C 375.023438 249.601562 371.839844 250.425781 368.8125 251.679688 C 366.167969 248.542969 363.285156 247.480469 362.328125 242.796875 C 361.441406 238.480469 362.488281 233.953125 363.414062 229.742188 C 363.671875 228.582031 362.695312 227.550781 361.511719 227.839844 C 355.230469 229.371094 345.652344 233.378906 348.511719 241.699219 C 349.394531 244.269531 351.40625 246.5625 353.882812 248.332031 C 351.605469 247.949219 346.777344 247.472656 342.265625 243.824219 C 339.03125 240.449219 338.894531 235.636719 339.742188 230.285156 C 340.238281 227.15625 340.886719 222.460938 336.320312 222.789062 C 331.714844 223.121094 326.316406 229.300781 326.613281 233.855469 C 326.859375 237.636719 330.890625 240.957031 334.902344 242.628906 C 332.429688 242.800781 329.90625 243.332031 327.617188 243.910156 C 321.75 245.394531 312.960938 247.832031 310.628906 254.355469 C 309.214844 258.316406 311.851562 261.859375 316.003906 260.851562 C 319.589844 259.980469 330.933594 251.398438 331.042969 251.335938 C 329.863281 257.082031 324.820312 267.601562 329.414062 269.6875 C 332.984375 271.304688 338.585938 273.402344 340.703125 268.773438 C 342.050781 265.828125 342.269531 261.394531 341.023438 258.464844 C 338.515625 252.585938 338.066406 249.65625 339.265625 246.679688 C 343.53125 248.722656 356.566406 252.128906 363.046875 250.144531 C 363.652344 250.695312 364.972656 252.796875 365.675781 253.144531 C 363.285156 254.378906 361.023438 255.820312 358.992188 257.417969 C 357.171875 258.847656 353.75 261.066406 354.117188 263.859375 C 354.636719 267.765625 361.773438 271.511719 364.679688 273.539062 C 365.402344 274.042969 366.449219 273.65625 366.875 272.960938 C 369.660156 268.417969 368.589844 263.402344 372.507812 259.117188 C 375.671875 255.664062 379.960938 254.023438 383.546875 251.253906 C 384.933594 251.046875 386.324219 250.84375 387.734375 250.640625 C 388.273438 250.566406 388.222656 249.71875 387.734375 249.601562 " fill-opacity="1" fill-rule="nonzero"/><path fill="#76b434" d="M 357.28125 247.539062 C 357.261719 250.527344 358.34375 253.316406 359.773438 255.894531 C 360.386719 257 361.105469 258.410156 361.992188 259.660156 C 359.640625 260.066406 357.265625 260.460938 354.929688 260.964844 C 354.890625 260.933594 354.902344 260.894531 354.863281 260.863281 C 351.757812 258.441406 348.957031 256.566406 347.417969 252.71875 C 346.660156 250.820312 346.425781 248.515625 344.738281 247.132812 C 340.820312 243.917969 337.292969 248.511719 336.414062 252 C 335.441406 255.871094 335.113281 260.96875 339.230469 263.113281 C 340.867188 263.964844 342.964844 264.289062 345.183594 264.277344 C 344.242188 264.777344 343.320312 265.320312 342.441406 265.953125 C 340.664062 267.234375 336.855469 270.800781 335.742188 272.910156 C 334.25 272.976562 332.726562 274.113281 331.40625 274.671875 C 328.625 275.84375 325.777344 276.488281 322.757812 276.542969 C 320.902344 276.574219 318.691406 276.414062 317.613281 278.246094 C 316.5625 280.015625 317.746094 281.105469 318.71875 282.429688 C 320.039062 284.222656 319.890625 286.523438 321.773438 288.019531 C 323.339844 289.269531 325.488281 289.640625 327.4375 289.332031 C 329.089844 289.070312 330.535156 288.214844 331.746094 287.050781 C 331.417969 289.949219 331.519531 292.875 332.199219 295.960938 C 333.019531 299.722656 334.566406 303.730469 338.996094 301.617188 C 344 299.226562 344.894531 298.71875 342.808594 293.582031 C 341.441406 290.207031 337.472656 289.75 337.011719 281.34375 C 339.722656 285.195312 346.769531 289.519531 351.515625 287.679688 C 355.011719 286.328125 358.691406 281.09375 355.449219 277.828125 C 353.460938 275.824219 350.554688 275.261719 347.855469 274.941406 C 344.753906 274.574219 342.570312 274.15625 340.429688 272.554688 C 342.832031 269.265625 346.074219 266.617188 350.539062 264.957031 C 354.164062 263.609375 358.148438 263.269531 361.902344 262.367188 C 359.367188 267.1875 359.660156 274.003906 361.867188 278.597656 C 361.890625 278.640625 361.929688 278.691406 361.953125 278.738281 C 358.976562 280.441406 359.339844 283.632812 360.355469 286.992188 C 359.75 288.410156 359.085938 289.800781 358.203125 291.109375 C 356.59375 293.484375 353.777344 295.285156 352.671875 297.992188 C 351.300781 301.351562 353.539062 304.570312 357.070312 304.875 C 360.765625 305.1875 364.5 301.886719 366.132812 298.773438 C 366.976562 297.15625 366.992188 295.84375 366.628906 294.066406 C 366.199219 291.949219 363.039062 288.253906 361.980469 285.285156 C 361.011719 282.578125 362.617188 281.195312 362.722656 280.101562 C 363.074219 280.523438 365.929688 284.375 366.523438 284.824219 C 367.570312 288.335938 369.101562 292.699219 372.296875 293.796875 C 375.882812 295.027344 381.546875 292.71875 384.660156 291.042969 C 392.882812 286.625 384.003906 275.5625 379.605469 271.5 C 378.589844 270.5625 376.835938 271.101562 376.324219 272.304688 C 375.667969 273.867188 372.015625 284.683594 367.515625 281.753906 C 366.144531 280.378906 365.070312 277.625 364.402344 275.800781 C 362.664062 271.054688 364.253906 266.890625 365.117188 262.371094 C 373.476562 266.746094 380.308594 253.84375 380.503906 251.105469 C 379.871094 251.179688 376.257812 254.484375 373.050781 253.710938 C 368.058594 252.515625 367.636719 244.996094 365.066406 241.640625 C 360.988281 236.320312 357.3125 243.695312 357.28125 247.539062 " fill-opacity="1" fill-rule="nonzero"/><path fill="#76b434" d="M 253.214844 276.65625 C 251.160156 278.828125 250.046875 281.605469 249.332031 284.46875 C 249.027344 285.691406 248.589844 287.210938 248.382812 288.730469 C 246.390625 287.425781 244.382812 286.09375 242.328125 284.871094 C 242.324219 284.824219 242.359375 284.804688 242.351562 284.753906 C 241.734375 280.863281 240.96875 277.585938 242.464844 273.722656 C 243.203125 271.816406 244.609375 269.976562 244.320312 267.8125 C 243.648438 262.789062 237.933594 263.742188 234.914062 265.695312 C 231.554688 267.863281 227.835938 271.367188 229.382812 275.742188 C 229.996094 277.476562 231.3125 279.148438 232.941406 280.652344 C 231.910156 280.375 230.863281 280.144531 229.792969 280.007812 C 227.617188 279.734375 222.398438 279.742188 220.144531 280.53125 C 219.011719 279.558594 217.117188 279.351562 215.773438 278.859375 C 212.9375 277.820312 210.417969 276.351562 208.171875 274.332031 C 206.792969 273.089844 205.285156 271.46875 203.246094 272.066406 C 201.269531 272.648438 201.394531 274.25 201.203125 275.882812 C 200.941406 278.09375 199.261719 279.671875 199.617188 282.054688 C 199.910156 284.035156 201.226562 285.769531 202.863281 286.875 C 204.246094 287.808594 205.890625 288.171875 207.570312 288.140625 C 205.351562 290.039062 203.429688 292.25 201.816406 294.964844 C 199.851562 298.273438 198.246094 302.261719 202.929688 303.734375 C 208.222656 305.398438 209.21875 305.636719 211.203125 300.460938 C 212.503906 297.0625 209.914062 294.023438 215.316406 287.554688 C 214.667969 292.226562 216.875 300.1875 221.597656 302.082031 C 225.074219 303.472656 231.339844 302.152344 231.199219 297.558594 C 231.117188 294.734375 229.371094 292.34375 227.617188 290.269531 C 225.597656 287.886719 224.285156 286.09375 223.816406 283.460938 C 227.816406 282.695312 232 282.96875 236.390625 284.796875 C 239.964844 286.28125 243.109375 288.753906 246.46875 290.652344 C 241.324219 292.449219 236.890625 297.632812 235.367188 302.492188 C 235.351562 302.542969 235.347656 302.605469 235.335938 302.65625 C 231.992188 301.875 230.078125 304.453125 228.53125 307.601562 C 227.121094 308.226562 225.683594 308.789062 224.144531 309.144531 C 221.347656 309.78125 218.058594 309.179688 215.40625 310.40625 C 212.109375 311.929688 211.546875 315.808594 213.921875 318.4375 C 216.40625 321.1875 221.394531 321.320312 224.714844 320.152344 C 226.433594 319.546875 227.339844 318.597656 228.289062 317.050781 C 229.421875 315.207031 229.632812 310.355469 230.882812 307.460938 C 232.023438 304.824219 234.140625 304.902344 234.964844 304.179688 C 234.933594 304.722656 234.390625 309.488281 234.519531 310.222656 C 232.886719 313.5 231.03125 317.738281 232.621094 320.71875 C 234.398438 324.0625 240.113281 326.234375 243.535156 327.132812 C 252.566406 329.507812 253.625 315.363281 253.179688 309.398438 C 253.078125 308.015625 251.425781 307.214844 250.234375 307.75 C 248.6875 308.441406 238.632812 313.863281 237.339844 308.652344 C 237.277344 306.714844 238.371094 303.964844 239.128906 302.175781 C 241.097656 297.523438 245.101562 295.5625 248.816406 292.847656 C 251.945312 301.742188 265.75 296.964844 267.761719 295.097656 C 267.242188 294.714844 262.351562 294.671875 260.53125 291.921875 C 257.699219 287.640625 262.519531 281.859375 262.933594 277.648438 C 263.582031 270.980469 255.859375 273.867188 253.214844 276.65625 " fill-opacity="1" fill-rule="nonzero"/><path fill="#76b434" d="M 283.417969 281.992188 C 284.261719 281.0625 285.296875 280.320312 286.566406 280.128906 C 291.128906 279.445312 295.613281 286.265625 299.710938 284.660156 C 303.234375 281.304688 307.949219 278.6875 312.636719 277.425781 C 312.023438 276.636719 311.679688 275.621094 311.457031 274.558594 C 308.6875 275.191406 305.714844 275.046875 302.890625 275.121094 C 300.316406 275.183594 297.429688 275.605469 294.957031 274.699219 C 291.199219 273.320312 289.734375 269.09375 290.710938 265.390625 C 291.503906 262.394531 295.085938 256.050781 298.796875 256.617188 C 300.929688 256.941406 302.628906 259.535156 304.050781 260.9375 C 304.636719 261.515625 305.183594 262.117188 305.753906 262.703125 C 305.421875 261.164062 305.335938 259.609375 305.625 258.140625 C 306.5625 253.308594 311.023438 250.605469 315.621094 252.464844 C 316.316406 252.746094 316.488281 253.59375 316.398438 254.238281 C 315.988281 257.277344 314.402344 261.894531 314.234375 267.355469 C 314.15625 269.914062 313.535156 272.335938 315.171875 276.867188 C 316.535156 276.644531 321.898438 276.558594 323.890625 278.6875 C 323.535156 279.5625 319.441406 279.628906 317.109375 280.082031 C 313.601562 281.324219 311 281.574219 307.667969 283.34375 C 309.328125 284.136719 310.929688 285.253906 312.726562 285.722656 C 314.707031 286.242188 317.957031 289.589844 322.371094 287.949219 C 324.535156 291.03125 318.398438 294.710938 315.984375 296.15625 C 312.425781 298.292969 307.902344 297.875 305.058594 294.777344 C 303.285156 292.84375 302.316406 289.957031 302.582031 287.265625 C 302.203125 287.691406 301.800781 288.09375 301.460938 288.574219 C 294.03125 299.105469 303.667969 302.007812 306.402344 310.625 C 306.59375 311.226562 306.449219 312.023438 305.964844 312.464844 C 302.097656 316 294.863281 317.59375 291.796875 312.253906 C 289.050781 307.480469 293.523438 296.230469 296.707031 291.769531 C 293.984375 294.226562 290.179688 295.425781 288.578125 295.578125 C 283.117188 296.089844 279.476562 293.226562 276.429688 289.167969 C 280.941406 287.558594 282.480469 283.027344 283.417969 281.992188 " fill-opacity="1" fill-rule="nonzero"/><path fill="#76b434" d="M 287.066406 284.757812 C 284.667969 281.746094 276.59375 279.394531 275.652344 278.789062 C 274.21875 277.863281 273.394531 276.574219 272.769531 274.96875 C 271.820312 272.550781 271.460938 269.957031 270.332031 267.597656 C 269.308594 265.46875 268.066406 263.96875 265.617188 263.90625 C 263.527344 263.855469 261.582031 264.742188 260.261719 266.394531 C 255.882812 271.886719 260.921875 279.46875 267.144531 282.359375 C 261.332031 284.820312 256.679688 289.566406 256.53125 295.6875 C 256.410156 300.398438 261.246094 305.222656 266.105469 303.203125 C 268.546875 302.195312 269.570312 299.800781 269.882812 297.34375 C 270.136719 295.296875 269.667969 293.234375 269.9375 291.183594 C 270.308594 288.359375 269.800781 284.820312 272.066406 283.359375 C 276.105469 280.765625 282.359375 284.695312 286.878906 286.476562 C 287.371094 285.929688 287.550781 285.367188 287.066406 284.757812 " fill-opacity="1" fill-rule="nonzero"/><path fill="#f9e24f" d="M 82.9375 292.851562 C 82.9375 292.851562 80.96875 281.414062 92.171875 274.183594 C 103.375 266.949219 125.472656 267.46875 150.972656 279.59375 C 176.476562 291.722656 180.714844 309.933594 184.128906 317.125 C 187.542969 324.316406 189.898438 329.257812 189.898438 329.257812 C 189.898438 329.257812 150.390625 323.347656 132.855469 316.738281 C 108.605469 307.597656 82.9375 292.851562 82.9375 292.851562 " fill-opacity="1" fill-rule="nonzero"/><path fill="#f9b019" d="M 161.980469 276.933594 C 147.621094 265.605469 123.828125 260.332031 107.886719 262.894531 C 92.878906 265.308594 92.171875 267.445312 84.90625 275.765625 C 96.484375 268.777344 122.589844 269.019531 136.390625 273.050781 C 153.375 278.011719 175.835938 292.167969 178.949219 311.441406 C 179.574219 312.492188 180.171875 313.457031 180.773438 314.28125 C 185.757812 321.160156 193.699219 329.257812 193.699219 329.257812 L 195.382812 324.636719 C 195.382812 324.636719 188.730469 298.039062 161.980469 276.933594 " fill-opacity="1" fill-rule="nonzero"/><path fill="#f9d617" d="M 84.550781 293.984375 C 84.550781 293.984375 81.386719 291.753906 79.152344 290.222656 C 79.605469 286.683594 81.601562 279.269531 84.90625 275.765625 C 91.441406 268.835938 100.433594 265.480469 122.550781 268.640625 C 155.078125 273.285156 160.300781 280.699219 172.285156 294.382812 C 184.273438 308.0625 193.699219 329.257812 193.699219 329.257812 L 187.328125 329.257812 C 187.328125 329.257812 170.03125 296.671875 159.40625 287.449219 C 146.171875 275.964844 117.722656 268.0625 100.433594 272.796875 C 83.144531 277.53125 84.550781 293.984375 84.550781 293.984375 " fill-opacity="1" fill-rule="nonzero"/><path fill="#f9d617" d="M 109.429688 304.371094 C 109.429688 304.371094 92.628906 297.683594 91.441406 288.90625 C 90.25 280.125 95.601562 275.171875 104.320312 274.578125 C 113.039062 273.984375 115.019531 281.511719 116.605469 289.628906 C 118.1875 297.746094 119.523438 308.851562 119.523438 308.851562 C 119.523438 308.851562 113.855469 306.445312 109.429688 304.371094 " fill-opacity="1" fill-rule="nonzero"/><path fill="#f9d617" d="M 128.277344 312.398438 C 128.277344 311.804688 121.160156 288.636719 123.539062 282.699219 C 125.917969 276.757812 136.816406 274.972656 144.347656 282.5 C 151.875 290.027344 147.261719 297.683594 143.300781 303.621094 C 139.335938 309.5625 128.277344 312.398438 128.277344 312.398438 " fill-opacity="1" fill-rule="nonzero"/><path fill="#f9d617" d="M 138.769531 314.453125 C 138.769531 314.453125 148.992188 303.082031 154.496094 298.039062 C 160 292.996094 165.230469 298.144531 168.917969 305.074219 C 172.605469 312.003906 174.304688 317.871094 165.519531 320.542969 C 156.734375 323.21875 138.769531 314.453125 138.769531 314.453125 " fill-opacity="1" fill-rule="nonzero"/><path fill="#ffffff" d="M 98.480469 286.179688 C 97.601562 284.679688 97.773438 283.066406 97.128906 281.539062 C 96.996094 281.222656 96.601562 280.929688 96.257812 281.183594 C 93.191406 283.421875 95.457031 291.96875 99.640625 290.832031 C 100.128906 290.699219 100.535156 290.203125 100.515625 289.6875 C 100.457031 288.144531 99.226562 287.445312 98.480469 286.179688 " fill-opacity="1" fill-rule="nonzero"/><path fill="#ffffff" d="M 130.335938 287.242188 C 130.105469 285.714844 130.40625 284.210938 130.597656 282.695312 C 130.726562 281.675781 129.328125 281.3125 128.695312 281.910156 C 126.683594 283.804688 125.15625 290.605469 129.035156 291.351562 C 129.558594 291.449219 130.117188 291.285156 130.398438 290.796875 C 131.125 289.515625 130.546875 288.621094 130.335938 287.242188 " fill-opacity="1" fill-rule="nonzero"/><path fill="#ffffff" d="M 160.351562 299.664062 C 157.25 299.679688 152.675781 303.628906 154.347656 306.914062 C 154.691406 307.585938 155.585938 307.726562 156.203125 307.398438 C 157.34375 306.792969 157.644531 305.753906 158.285156 304.699219 C 159.042969 303.441406 160.195312 302.652344 161.140625 301.566406 C 161.753906 300.859375 161.367188 299.65625 160.351562 299.664062 " fill-opacity="1" fill-rule="nonzero"/><path fill="#ffffff" d="M 152.074219 275.765625 C 135.746094 268.152344 110.496094 260.457031 93.652344 270.070312 C 93.515625 270.148438 93.566406 270.394531 93.734375 270.382812 C 100.226562 269.84375 106.527344 268.238281 112.445312 268.441406 C 126.039062 268.90625 138.492188 272.738281 152.882812 276.867188 C 153.613281 277.078125 152.792969 276.101562 152.074219 275.765625 " fill-opacity="1" fill-rule="nonzero"/></svg>