<svg xmlns="http://www.w3.org/2000/svg" xmlns:xlink="http://www.w3.org/1999/xlink" width="600" zoomAndPan="magnify" viewBox="0 0 450 449.999984" height="600" preserveAspectRatio="xMidYMid meet" version="1.0"><defs><clipPath id="8a0b3fedf0"><path d="M 97.03125 328 L 143 328 L 143 377 L 97.03125 377 Z M 97.03125 328 " clip-rule="nonzero"/></clipPath><clipPath id="611848eb6c"><path d="M 342.550781 398.296875 L 343.230469 398.296875 L 343.230469 405.789062 L 342.550781 405.789062 Z M 342.550781 398.296875 " clip-rule="nonzero"/></clipPath><clipPath id="d7ee7a406e"><path d="M 343.183594 398.390625 L 342.710938 405.265625 C 342.710938 406.007812 343.199219 406.75 344.175781 407.316406 C 346.136719 408.457031 349.328125 408.457031 351.300781 407.316406 C 352.292969 406.742188 352.792969 405.988281 352.789062 405.234375 L 352.253906 398.363281 C 352.257812 399.042969 351.808594 399.722656 350.914062 400.238281 C 349.136719 401.265625 346.269531 401.265625 344.503906 400.238281 C 343.625 399.730469 343.183594 399.058594 343.183594 398.390625 Z M 343.183594 398.390625 " clip-rule="nonzero"/></clipPath><clipPath id="99f282dd70"><path d="M 342.550781 398.523438 L 344.589844 398.523438 L 344.589844 407.378906 L 342.550781 407.378906 Z M 342.550781 398.523438 " clip-rule="nonzero"/></clipPath><clipPath id="a7f289183b"><path d="M 343.183594 398.390625 L 342.710938 405.265625 C 342.710938 406.007812 343.199219 406.75 344.175781 407.316406 C 346.136719 408.457031 349.328125 408.457031 351.300781 407.316406 C 352.292969 406.742188 352.792969 405.988281 352.789062 405.234375 L 352.253906 398.363281 C 352.257812 399.042969 351.808594 399.722656 350.914062 400.238281 C 349.136719 401.265625 346.269531 401.265625 344.503906 400.238281 C 343.625 399.730469 343.183594 399.058594 343.183594 398.390625 Z M 343.183594 398.390625 " clip-rule="nonzero"/></clipPath><clipPath id="cf38807819"><path d="M 344 400.113281 L 345.5 400.113281 L 345.5 407.832031 L 344 407.832031 Z M 344 400.113281 " clip-rule="nonzero"/></clipPath><clipPath id="b6b754462f"><path d="M 343.183594 398.390625 L 342.710938 405.265625 C 342.710938 406.007812 343.199219 406.75 344.175781 407.316406 C 346.136719 408.457031 349.328125 408.457031 351.300781 407.316406 C 352.292969 406.742188 352.792969 405.988281 352.789062 405.234375 L 352.253906 398.363281 C 352.257812 399.042969 351.808594 399.722656 350.914062 400.238281 C 349.136719 401.265625 346.269531 401.265625 344.503906 400.238281 C 343.625 399.730469 343.183594 399.058594 343.183594 398.390625 Z M 343.183594 398.390625 " clip-rule="nonzero"/></clipPath><clipPath id="003acbe96b"><path d="M 345.273438 400.566406 L 348.449219 400.566406 L 348.449219 408.285156 L 345.273438 408.285156 Z M 345.273438 400.566406 " clip-rule="nonzero"/></clipPath><clipPath id="127b7a9ad1"><path d="M 343.183594 398.390625 L 342.710938 405.265625 C 342.710938 406.007812 343.199219 406.75 344.175781 407.316406 C 346.136719 408.457031 349.328125 408.457031 351.300781 407.316406 C 352.292969 406.742188 352.792969 405.988281 352.789062 405.234375 L 352.253906 398.363281 C 352.257812 399.042969 351.808594 399.722656 350.914062 400.238281 C 349.136719 401.265625 346.269531 401.265625 344.503906 400.238281 C 343.625 399.730469 343.183594 399.058594 343.183594 398.390625 Z M 343.183594 398.390625 " clip-rule="nonzero"/></clipPath><clipPath id="b137e465c2"><path d="M 348.222656 398.296875 L 352.78125 398.296875 L 352.78125 408.285156 L 348.222656 408.285156 Z M 348.222656 398.296875 " clip-rule="nonzero"/></clipPath><clipPath id="79b5b28ba1"><path d="M 343.183594 398.390625 L 342.710938 405.265625 C 342.710938 406.007812 343.199219 406.75 344.175781 407.316406 C 346.136719 408.457031 349.328125 408.457031 351.300781 407.316406 C 352.292969 406.742188 352.792969 405.988281 352.789062 405.234375 L 352.253906 398.363281 C 352.257812 399.042969 351.808594 399.722656 350.914062 400.238281 C 349.136719 401.265625 346.269531 401.265625 344.503906 400.238281 C 343.625 399.730469 343.183594 399.058594 343.183594 398.390625 Z M 343.183594 398.390625 " clip-rule="nonzero"/></clipPath><clipPath id="a9a0420a3b"><path d="M 343 395 L 352.78125 395 L 352.78125 402 L 343 402 Z M 343 395 " clip-rule="nonzero"/></clipPath><clipPath id="acdd63d815"><path d="M 192.363281 394.664062 L 193.269531 394.664062 L 193.269531 401.929688 L 192.363281 401.929688 Z M 192.363281 394.664062 " clip-rule="nonzero"/></clipPath><clipPath id="dc3709abdf"><path d="M 193.027344 394.671875 L 192.558594 401.546875 C 192.558594 402.289062 193.046875 403.03125 194.023438 403.601562 C 195.984375 404.738281 199.171875 404.738281 201.144531 403.601562 C 202.140625 403.023438 202.640625 402.269531 202.636719 401.515625 L 202.101562 394.644531 C 202.105469 395.324219 201.65625 396.003906 200.761719 396.519531 C 198.984375 397.546875 196.117188 397.546875 194.347656 396.519531 C 193.472656 396.011719 193.03125 395.339844 193.027344 394.671875 Z M 193.027344 394.671875 " clip-rule="nonzero"/></clipPath><clipPath id="cef801d867"><path d="M 192.589844 394.890625 L 194.402344 394.890625 L 194.402344 403.746094 L 192.589844 403.746094 Z M 192.589844 394.890625 " clip-rule="nonzero"/></clipPath><clipPath id="8fd0fe67e8"><path d="M 193.027344 394.671875 L 192.558594 401.546875 C 192.558594 402.289062 193.046875 403.03125 194.023438 403.601562 C 195.984375 404.738281 199.171875 404.738281 201.144531 403.601562 C 202.140625 403.023438 202.640625 402.269531 202.636719 401.515625 L 202.101562 394.644531 C 202.105469 395.324219 201.65625 396.003906 200.761719 396.519531 C 198.984375 397.546875 196.117188 397.546875 194.347656 396.519531 C 193.472656 396.011719 193.03125 395.339844 193.027344 394.671875 Z M 193.027344 394.671875 " clip-rule="nonzero"/></clipPath><clipPath id="c7a1c53307"><path d="M 193.949219 396.480469 L 195.539062 396.480469 L 195.539062 404.199219 L 193.949219 404.199219 Z M 193.949219 396.480469 " clip-rule="nonzero"/></clipPath><clipPath id="8b24b1664c"><path d="M 193.027344 394.671875 L 192.558594 401.546875 C 192.558594 402.289062 193.046875 403.03125 194.023438 403.601562 C 195.984375 404.738281 199.171875 404.738281 201.144531 403.601562 C 202.140625 403.023438 202.640625 402.269531 202.636719 401.515625 L 202.101562 394.644531 C 202.105469 395.324219 201.65625 396.003906 200.761719 396.519531 C 198.984375 397.546875 196.117188 397.546875 194.347656 396.519531 C 193.472656 396.011719 193.03125 395.339844 193.027344 394.671875 Z M 193.027344 394.671875 " clip-rule="nonzero"/></clipPath><clipPath id="72f9e4bd37"><path d="M 195.085938 396.933594 L 198.488281 396.933594 L 198.488281 404.652344 L 195.085938 404.652344 Z M 195.085938 396.933594 " clip-rule="nonzero"/></clipPath><clipPath id="b77242ffdf"><path d="M 193.027344 394.671875 L 192.558594 401.546875 C 192.558594 402.289062 193.046875 403.03125 194.023438 403.601562 C 195.984375 404.738281 199.171875 404.738281 201.144531 403.601562 C 202.140625 403.023438 202.640625 402.269531 202.636719 401.515625 L 202.101562 394.644531 C 202.105469 395.324219 201.65625 396.003906 200.761719 396.519531 C 198.984375 397.546875 196.117188 397.546875 194.347656 396.519531 C 193.472656 396.011719 193.03125 395.339844 193.027344 394.671875 Z M 193.027344 394.671875 " clip-rule="nonzero"/></clipPath><clipPath id="43709f7682"><path d="M 198.035156 394.4375 L 202.796875 394.4375 L 202.796875 404.425781 L 198.035156 404.425781 Z M 198.035156 394.4375 " clip-rule="nonzero"/></clipPath><clipPath id="0557b8ebaa"><path d="M 193.027344 394.671875 L 192.558594 401.546875 C 192.558594 402.289062 193.046875 403.03125 194.023438 403.601562 C 195.984375 404.738281 199.171875 404.738281 201.144531 403.601562 C 202.140625 403.023438 202.640625 402.269531 202.636719 401.515625 L 202.101562 394.644531 C 202.105469 395.324219 201.65625 396.003906 200.761719 396.519531 C 198.984375 397.546875 196.117188 397.546875 194.347656 396.519531 C 193.472656 396.011719 193.03125 395.339844 193.027344 394.671875 Z M 193.027344 394.671875 " clip-rule="nonzero"/></clipPath><clipPath id="24179e2c52"><path d="M 270.859375 440.070312 L 271.539062 440.070312 L 271.539062 447.335938 L 270.859375 447.335938 Z M 270.859375 440.070312 " clip-rule="nonzero"/></clipPath><clipPath id="77f6e00789"><path d="M 271.398438 440.105469 L 270.925781 446.980469 C 270.925781 447.722656 271.417969 448.46875 272.394531 449.035156 C 274.355469 450.175781 277.539062 450.175781 279.511719 449.035156 C 280.507812 448.460938 281.007812 447.707031 281.003906 446.953125 L 280.472656 440.082031 C 280.472656 440.757812 280.023438 441.4375 279.128906 441.957031 C 277.351562 442.980469 274.484375 442.980469 272.71875 441.957031 C 271.839844 441.445312 271.402344 440.777344 271.398438 440.105469 Z M 271.398438 440.105469 " clip-rule="nonzero"/></clipPath><clipPath id="0eb47616f9"><path d="M 270.859375 440.296875 L 272.671875 440.296875 L 272.671875 449 L 270.859375 449 Z M 270.859375 440.296875 " clip-rule="nonzero"/></clipPath><clipPath id="f83430b5c1"><path d="M 271.398438 440.105469 L 270.925781 446.980469 C 270.925781 447.722656 271.417969 448.46875 272.394531 449.035156 C 274.355469 450.175781 277.539062 450.175781 279.511719 449.035156 C 280.507812 448.460938 281.007812 447.707031 281.003906 446.953125 L 280.472656 440.082031 C 280.472656 440.757812 280.023438 441.4375 279.128906 441.957031 C 277.351562 442.980469 274.484375 442.980469 272.71875 441.957031 C 271.839844 441.445312 271.402344 440.777344 271.398438 440.105469 Z M 271.398438 440.105469 " clip-rule="nonzero"/></clipPath><clipPath id="1fca6c598b"><path d="M 272.21875 441.886719 L 273.808594 441.886719 L 273.808594 449.605469 L 272.21875 449.605469 Z M 272.21875 441.886719 " clip-rule="nonzero"/></clipPath><clipPath id="df388881f4"><path d="M 271.398438 440.105469 L 270.925781 446.980469 C 270.925781 447.722656 271.417969 448.46875 272.394531 449.035156 C 274.355469 450.175781 277.539062 450.175781 279.511719 449.035156 C 280.507812 448.460938 281.007812 447.707031 281.003906 446.953125 L 280.472656 440.082031 C 280.472656 440.757812 280.023438 441.4375 279.128906 441.957031 C 277.351562 442.980469 274.484375 442.980469 272.71875 441.957031 C 271.839844 441.445312 271.402344 440.777344 271.398438 440.105469 Z M 271.398438 440.105469 " clip-rule="nonzero"/></clipPath><clipPath id="3adee37c80"><path d="M 273.355469 442.339844 L 276.757812 442.339844 L 276.757812 450 L 273.355469 450 Z M 273.355469 442.339844 " clip-rule="nonzero"/></clipPath><clipPath id="a3a7bc1523"><path d="M 271.398438 440.105469 L 270.925781 446.980469 C 270.925781 447.722656 271.417969 448.46875 272.394531 449.035156 C 274.355469 450.175781 277.539062 450.175781 279.511719 449.035156 C 280.507812 448.460938 281.007812 447.707031 281.003906 446.953125 L 280.472656 440.082031 C 280.472656 440.757812 280.023438 441.4375 279.128906 441.957031 C 277.351562 442.980469 274.484375 442.980469 272.71875 441.957031 C 271.839844 441.445312 271.402344 440.777344 271.398438 440.105469 Z M 271.398438 440.105469 " clip-rule="nonzero"/></clipPath><clipPath id="991a7206ef"><path d="M 276.53125 440.070312 L 281.066406 440.070312 L 281.066406 450 L 276.53125 450 Z M 276.53125 440.070312 " clip-rule="nonzero"/></clipPath><clipPath id="91f36978f4"><path d="M 271.398438 440.105469 L 270.925781 446.980469 C 270.925781 447.722656 271.417969 448.46875 272.394531 449.035156 C 274.355469 450.175781 277.539062 450.175781 279.511719 449.035156 C 280.507812 448.460938 281.007812 447.707031 281.003906 446.953125 L 280.472656 440.082031 C 280.472656 440.757812 280.023438 441.4375 279.128906 441.957031 C 277.351562 442.980469 274.484375 442.980469 272.71875 441.957031 C 271.839844 441.445312 271.402344 440.777344 271.398438 440.105469 Z M 271.398438 440.105469 " clip-rule="nonzero"/></clipPath></defs><path fill="#f6c1a8" d="M 200.394531 108.796875 L 213.546875 130.878906 C 221.3125 135.226562 249.40625 150.964844 251.628906 152.351562 L 254.242188 153.824219 C 258.472656 154.945312 258.8125 155.441406 263.914062 157.058594 C 267.917969 158.140625 271.402344 160.464844 279.632812 164.957031 C 280.980469 165.585938 282.019531 167.097656 280.683594 167.175781 C 280.621094 167.199219 280.597656 167.140625 280.597656 167.140625 C 278.6875 167.40625 273.378906 165.546875 271.164062 165.441406 C 274.722656 166.621094 277.832031 167.929688 281.128906 169.65625 C 281.90625 170.109375 283.371094 171.128906 282.488281 172.246094 C 281.636719 173.449219 279.984375 172.699219 274.34375 170.84375 C 277.023438 171.835938 279.546875 172.964844 281.878906 174.46875 C 283.359375 175.476562 282.730469 178.558594 275.515625 175.46875 C 272.839844 174.335938 270.203125 173.109375 267.441406 171.9375 C 270.632812 173.425781 273.632812 175.144531 276.566406 177.035156 C 277.199219 177.480469 278.492188 178.28125 278.121094 179.246094 C 277.199219 181.480469 267.488281 176.210938 263.871094 174.675781 C 266.335938 176.484375 269.335938 178.851562 267.40625 182.023438 C 266.652344 183.980469 263.609375 180.117188 262.566406 179.09375 C 258.382812 175.214844 255.066406 175.066406 250.996094 168.898438 L 248.601562 167.988281 C 246.503906 167.25 211.535156 159.382812 196.363281 145.695312 L 180.535156 120.707031 C 188.425781 119.527344 195.496094 115.179688 200.394531 108.796875 " fill-opacity="1" fill-rule="nonzero"/><path fill="#95c0bf" d="M 210.351562 120.898438 L 190.863281 79.539062 C 188.5 73.382812 181.632812 70.300781 175.519531 72.648438 C 169.402344 74.996094 166.359375 81.886719 168.71875 88.039062 L 184.523438 137.890625 C 192.414062 136.707031 205.453125 127.28125 210.351562 120.898438 " fill-opacity="1" fill-rule="nonzero"/><path fill="#f6e6e8" d="M 205.878906 111.40625 L 208.5625 117.105469 C 202.742188 126.21875 193.292969 131.378906 182.984375 133.023438 L 181.125 127.164062 C 191.171875 125.960938 200.128906 121.597656 205.878906 111.40625 " fill-opacity="1" fill-rule="nonzero"/><path fill="#101011" d="M 159.324219 387.441406 C 159.324219 387.441406 142.804688 383.664062 144.507812 405.707031 C 144.570312 406.628906 156.0625 411.703125 156.0625 411.703125 C 156.0625 411.703125 159.488281 410.835938 161.738281 412.074219 C 164.632812 413.652344 165.851562 415.363281 166.734375 416.027344 C 176.136719 423.085938 192.277344 422.351562 195.933594 417.585938 C 201.179688 410.734375 187.890625 402.277344 176.191406 396.746094 C 163.925781 390.945312 159.324219 387.441406 159.324219 387.441406 " fill-opacity="1" fill-rule="nonzero"/><g clip-path="url(#8a0b3fedf0)"><path fill="#101011" d="M 119.019531 331.613281 C 119.019531 331.613281 105.558594 320.824219 97.398438 341.789062 C 97.039062 342.679688 105.3125 352.394531 105.3125 352.394531 C 105.3125 352.394531 108.824219 353.101562 110.359375 355.242188 C 112.289062 357.964844 112.664062 360.078125 113.207031 361.085938 C 118.691406 371.703125 133.753906 378.175781 139.21875 375.425781 C 147.050781 371.484375 138.625 357.851562 130.335938 347.59375 C 121.6875 336.875 119.019531 331.613281 119.019531 331.613281 " fill-opacity="1" fill-rule="nonzero"/></g><path fill="#296272" d="M 115.414062 346.164062 C 120.53125 349.703125 133.046875 351.996094 137.960938 348.695312 C 137.960938 348.695312 168.816406 307.75 174.636719 288.496094 C 182.039062 264.019531 187.054688 196.140625 187.054688 196.140625 C 187.054688 196.140625 150.613281 166.527344 144.609375 176.644531 C 130.996094 199.578125 148.164062 266.820312 143.070312 272.113281 C 134.621094 280.90625 105.613281 330.265625 105.613281 330.265625 C 105.058594 334.414062 109.886719 342.339844 115.414062 346.164062 " fill-opacity="1" fill-rule="nonzero"/><path fill="#1c4450" d="M 170.640625 218.984375 C 175.753906 215.503906 179.023438 222.421875 184.863281 221.105469 C 186.269531 206.757812 187.054688 196.140625 187.054688 196.140625 C 187.054688 196.140625 150.613281 166.527344 144.609375 176.644531 C 130.996094 199.578125 148.164062 266.820312 143.070312 272.113281 C 142.558594 272.648438 141.96875 273.335938 141.3125 274.148438 L 146.863281 274.148438 L 146.863281 336.386719 C 156.453125 322.746094 170.847656 301.027344 174.636719 288.496094 C 174.773438 288.035156 174.910156 287.5625 175.046875 287.078125 C 173.105469 280.320312 172.179688 270.785156 170.464844 263.925781 C 167.351562 251.066406 158.179688 227.164062 170.640625 218.984375 " fill-opacity="1" fill-rule="nonzero"/><path fill="#f6e6e8" d="M 108.972656 324.601562 C 110.144531 322.632812 111.574219 320.25 113.183594 317.582031 C 117.234375 330.515625 129.785156 340.398438 143.660156 340.898438 C 141.957031 343.269531 140.542969 345.207031 139.550781 346.554688 C 125.273438 346.785156 112.511719 337.679688 108.972656 324.601562 " fill-opacity="1" fill-rule="nonzero"/><path fill="#1c4450" d="M 143.6875 285.253906 C 142.992188 281.542969 142.21875 277.835938 141.292969 274.171875 C 138.363281 277.820312 134.140625 284.058594 129.617188 291.082031 C 131.066406 293.933594 132.085938 296.972656 132.683594 300.210938 C 133.527344 304.835938 133.660156 309.554688 134.007812 314.226562 C 134.449219 320.242188 135.320312 326.242188 136.070312 332.222656 C 136.746094 337.613281 137.476562 343 138.183594 348.394531 C 139.214844 347.015625 143.710938 340.96875 149.25 332.96875 C 148.597656 316.894531 146.652344 301.074219 143.6875 285.253906 " fill-opacity="1" fill-rule="nonzero"/><path fill="#388ba2" d="M 158.003906 403.332031 C 151.332031 402.949219 149.171875 401.246094 144.035156 398.5 C 144.035156 398.5 136.523438 317.171875 136.96875 299.761719 C 137.394531 283.25 102.402344 223.359375 116.289062 197.222656 C 121.746094 186.929688 169.722656 197.421875 169.722656 197.421875 L 157.921875 220.679688 L 171.730469 287.449219 L 177.34375 396.574219 C 171.554688 400.609375 165.183594 403.753906 158.003906 403.332031 " fill-opacity="1" fill-rule="nonzero"/><path fill="#f6e6e8" d="M 176.570312 381.574219 L 176.945312 388.796875 C 168.558594 397.183594 155.933594 398.796875 143.84375 396.363281 C 143.671875 394.492188 143.398438 391.476562 143.058594 387.640625 C 154.875 391.257812 166.78125 391.167969 176.570312 381.574219 " fill-opacity="1" fill-rule="nonzero"/><path fill="#296272" d="M 116.289062 197.222656 C 121.746094 186.929688 169.722656 197.421875 169.722656 197.421875 L 158.339844 219.855469 C 149.078125 221.066406 138.382812 217.78125 130.449219 221.03125 C 122.6875 224.65625 127.34375 239.675781 129.933594 246.925781 C 140.800781 275.933594 147.011719 304.941406 149.082031 335.5 C 149.601562 338.089844 150.636719 341.195312 150.636719 343.789062 C 150.636719 364.019531 151.664062 383.914062 156.234375 403.183594 C 150.910156 402.613281 148.6875 400.984375 144.035156 398.5 C 144.035156 398.5 136.523438 317.171875 136.96875 299.761719 C 137.394531 283.25 102.402344 223.359375 116.289062 197.222656 " fill-opacity="1" fill-rule="nonzero"/><path fill="#aedbd8" d="M 196.84375 111.953125 C 196.746094 115.46875 188.101562 135.699219 187.601562 141.671875 C 186.941406 149.542969 186.554688 157.980469 186.992188 166.273438 C 187.175781 169.90625 188.476562 199.929688 188.671875 201.976562 C 189.9375 215.121094 116.382812 221.195312 111.257812 214.542969 C 110.195312 213.167969 117.886719 177.921875 120.234375 155.667969 C 122.648438 132.710938 116.789062 121.957031 115.484375 106.363281 C 115.46875 106.097656 115.441406 105.839844 115.421875 105.566406 C 114.777344 96.632812 109.792969 86.53125 110.464844 85.558594 C 111.152344 84.566406 120.398438 81.007812 123.636719 79.609375 C 123.636719 79.609375 123.640625 79.605469 123.644531 79.605469 C 126.996094 77.855469 130.578125 76.398438 134.183594 75.1875 C 150.355469 69.761719 167.175781 69.265625 167.175781 69.265625 C 167.207031 69.257812 167.3125 69.261719 167.488281 69.265625 C 168.105469 69.273438 168.722656 69.308594 169.339844 69.371094 C 169.640625 69.402344 169.945312 69.441406 170.246094 69.488281 C 171.644531 69.640625 173.296875 69.882812 174.699219 70.253906 C 176.457031 70.722656 178.316406 71.257812 180.0625 71.902344 C 180.109375 71.917969 180.15625 71.941406 180.203125 71.957031 C 183.050781 73.011719 185.597656 74.339844 186.90625 76.015625 C 193.441406 84.335938 196.984375 106.417969 196.84375 111.953125 " fill-opacity="1" fill-rule="nonzero"/><path fill="#95c0bf" d="M 146.617188 142.882812 C 140.707031 120.410156 139.164062 95.035156 119.820312 81.1875 C 115.890625 82.796875 110.960938 84.84375 110.464844 85.558594 C 109.792969 86.53125 114.777344 96.632812 115.421875 105.570312 C 115.441406 105.839844 115.46875 106.097656 115.484375 106.363281 C 116.789062 121.957031 122.648438 132.710938 120.234375 155.667969 C 117.886719 177.921875 110.195312 213.167969 111.257812 214.542969 C 111.78125 215.222656 113.019531 215.769531 114.824219 216.191406 C 116.410156 205.53125 118.289062 195.621094 120.164062 184.722656 C 120.589844 180.878906 120.589844 177.039062 121.445312 173.195312 C 121.445312 172.339844 121.871094 169.78125 122.296875 170.207031 C 126.136719 173.621094 126.136719 179.601562 131.257812 182.160156 C 139.363281 186.003906 147.898438 188.992188 156.429688 191.125 C 166.097656 193.546875 178.84375 195.960938 188.097656 190.683594 C 187.933594 187.085938 187.75 183.074219 187.585938 179.351562 C 177.988281 176.53125 168.234375 175.84375 159.84375 169.351562 C 151.738281 162.523438 149.175781 152.273438 146.617188 142.882812 " fill-opacity="1" fill-rule="nonzero"/><path fill="#f6e6e8" d="M 188.109375 190.90625 C 188.222656 193.371094 188.332031 195.640625 188.421875 197.472656 C 169.96875 210.847656 144.445312 212.0625 121.652344 209.632812 C 118.378906 209.167969 115.15625 208.316406 111.992188 207.199219 C 112.351562 204.972656 112.808594 202.324219 113.324219 199.394531 C 116.246094 200.308594 119.242188 200.949219 122.167969 201.347656 C 144.191406 203.742188 169.308594 204.355469 188.109375 190.90625 " fill-opacity="1" fill-rule="nonzero"/><path fill="#f6ae8d" d="M 149.457031 81.910156 C 145.328125 80.953125 140.890625 78.40625 140.207031 75.875 C 139.308594 72.542969 139.367188 63.515625 139.367188 63.515625 L 164.128906 63.515625 C 164.128906 63.515625 164.46875 72.824219 164.082031 75.902344 C 163.617188 79.625 155.660156 83.359375 149.457031 81.910156 " fill-opacity="1" fill-rule="nonzero"/><path fill="#36211e" d="M 171.851562 21.230469 C 172.40625 24.351562 172.644531 27.519531 172.449219 30.699219 C 172.152344 35.628906 158.507812 42.003906 147.082031 48.109375 C 146.476562 56.105469 148.648438 64.1875 154.492188 69.835938 C 156.492188 70.503906 158.746094 70.730469 160.710938 70.992188 C 164.660156 71.519531 168.792969 72.285156 172.785156 72.167969 C 175.183594 72.097656 177.746094 71.699219 179.894531 70.566406 C 182.621094 69.128906 183.566406 67.167969 183.761719 64.304688 C 183.648438 62.28125 183.535156 60.253906 183.410156 58.226562 C 183.082031 55.761719 182.148438 41.535156 181.628906 37.136719 C 181.019531 31.960938 180.121094 26.792969 178.417969 21.859375 C 177.886719 20.320312 177.277344 18.796875 176.394531 17.429688 C 175.632812 16.253906 174.6875 15.210938 173.671875 14.246094 C 171.546875 12.21875 169.113281 10.507812 166.484375 9.195312 C 167.820312 10.957031 168.996094 12.835938 169.996094 14.804688 C 171.015625 16.816406 171.457031 19.015625 171.851562 21.230469 " fill-opacity="1" fill-rule="nonzero"/><path fill="#4e2e27" d="M 134.496094 57.523438 C 146.6875 68.6875 151.28125 63.089844 162.828125 54.96875 C 174.375 46.84375 179.4375 38.089844 176.097656 21.886719 C 172.546875 4.667969 149.378906 0.128906 135.554688 8.578125 C 115.453125 20.863281 122.675781 46.691406 134.496094 57.523438 " fill-opacity="1" fill-rule="nonzero"/><path fill="#f6c1a8" d="M 137.996094 42.5625 C 138.03125 47.523438 139.539062 55.707031 141.289062 60.703125 C 146.359375 75.160156 164.824219 74.054688 168.160156 70.371094 C 172.296875 65.804688 178.382812 51.851562 177.453125 33.210938 C 176.675781 17.511719 168.542969 19.835938 156.429688 18.492188 C 148.90625 17.652344 137.878906 26.652344 137.996094 42.5625 " fill-opacity="1" fill-rule="nonzero"/><path fill="#4e2e27" d="M 124.394531 22.023438 C 124.394531 22.023438 133.199219 26.660156 139.679688 31.347656 C 140.113281 24.378906 141.539062 17.171875 145.242188 14.316406 C 152.363281 8.824219 161.453125 8.890625 167.675781 11.414062 C 167.742188 11.441406 167.792969 11.488281 167.832031 11.550781 C 168.222656 12.207031 171.738281 16.945312 174.511719 20.628906 L 177.015625 28.328125 C 158.519531 28.328125 147.050781 48.304688 144.664062 50.890625 C 141.90625 58.203125 142.671875 61.34375 144.492188 69.867188 C 147.949219 86.097656 116.003906 83.292969 118 77.613281 C 123.546875 61.820312 109.476562 65.28125 124.394531 22.023438 " fill-opacity="1" fill-rule="nonzero"/><path fill="#f6c1a8" d="M 146.660156 54.027344 C 148.667969 58.335938 148.195312 62.8125 145.628906 64 C 143.042969 65.207031 139.320312 62.679688 137.316406 58.378906 C 135.324219 54.054688 135.792969 49.585938 138.363281 48.402344 C 140.949219 47.179688 144.667969 49.714844 146.660156 54.027344 " fill-opacity="1" fill-rule="nonzero"/><path fill="#f6ae8d" d="M 144.246094 55.152344 C 145.210938 57.234375 144.984375 59.394531 143.746094 59.96875 C 142.5 60.546875 140.699219 59.328125 139.734375 57.253906 C 138.773438 55.164062 139 53.007812 140.238281 52.4375 C 141.488281 51.847656 143.28125 53.074219 144.246094 55.152344 " fill-opacity="1" fill-rule="nonzero"/><g clip-path="url(#611848eb6c)"><g clip-path="url(#d7ee7a406e)"><path fill="#161719" d="M 343.183594 398.390625 L 342.710938 405.265625 C 342.710938 405.375 342.722656 405.488281 342.746094 405.597656 L 343.214844 398.691406 C 343.195312 398.589844 343.183594 398.488281 343.183594 398.390625 " fill-opacity="1" fill-rule="nonzero"/></g></g><g clip-path="url(#99f282dd70)"><g clip-path="url(#a7f289183b)"><path fill="#191b1e" d="M 343.214844 398.691406 L 342.746094 405.597656 C 342.867188 406.210938 343.324219 406.804688 344.113281 407.28125 L 344.449219 400.207031 C 343.734375 399.777344 343.324219 399.242188 343.214844 398.691406 " fill-opacity="1" fill-rule="nonzero"/></g></g><g clip-path="url(#cf38807819)"><g clip-path="url(#b6b754462f)"><path fill="#1e2023" d="M 344.449219 400.207031 L 344.113281 407.28125 C 344.136719 407.292969 344.15625 407.304688 344.175781 407.316406 C 344.511719 407.511719 344.886719 407.675781 345.28125 407.804688 L 345.5 400.675781 C 345.140625 400.5625 344.804688 400.414062 344.503906 400.238281 C 344.484375 400.230469 344.464844 400.21875 344.449219 400.207031 " fill-opacity="1" fill-rule="nonzero"/></g></g><g clip-path="url(#003acbe96b)"><g clip-path="url(#127b7a9ad1)"><path fill="#191b1e" d="M 345.5 400.675781 L 345.28125 407.804688 C 346.253906 408.117188 347.371094 408.230469 348.445312 408.144531 L 348.347656 400.980469 C 347.378906 401.0625 346.371094 400.960938 345.5 400.675781 " fill-opacity="1" fill-rule="nonzero"/></g></g><g clip-path="url(#b137e465c2)"><g clip-path="url(#79b5b28ba1)"><path fill="#161719" d="M 348.347656 400.980469 L 348.445312 408.144531 C 349.488281 408.058594 350.496094 407.78125 351.300781 407.316406 C 352.292969 406.742188 352.792969 405.988281 352.789062 405.234375 L 352.253906 398.363281 C 352.257812 399.042969 351.808594 399.722656 350.914062 400.238281 C 350.191406 400.65625 349.285156 400.90625 348.347656 400.980469 " fill-opacity="1" fill-rule="nonzero"/></g></g><g clip-path="url(#a9a0420a3b)"><path fill="#222327" d="M 344.519531 396.519531 C 342.742188 397.546875 342.738281 399.210938 344.503906 400.238281 C 346.269531 401.265625 349.136719 401.265625 350.914062 400.238281 C 352.691406 399.210938 352.703125 397.546875 350.9375 396.519531 C 349.171875 395.496094 346.296875 395.496094 344.519531 396.519531 " fill-opacity="1" fill-rule="nonzero"/></g><path fill="#161719" d="M 345.644531 397.175781 C 344.496094 397.839844 344.492188 398.917969 345.636719 399.585938 C 346.78125 400.25 348.636719 400.25 349.789062 399.585938 C 350.9375 398.917969 350.949219 397.839844 349.804688 397.175781 C 348.660156 396.507812 346.796875 396.507812 345.644531 397.175781 " fill-opacity="1" fill-rule="nonzero"/><g clip-path="url(#acdd63d815)"><g clip-path="url(#dc3709abdf)"><path fill="#161719" d="M 193.027344 394.671875 L 192.558594 401.546875 C 192.558594 401.65625 192.566406 401.769531 192.589844 401.878906 L 193.058594 394.972656 C 193.039062 394.875 193.03125 394.773438 193.027344 394.671875 " fill-opacity="1" fill-rule="nonzero"/></g></g><g clip-path="url(#cef801d867)"><g clip-path="url(#8fd0fe67e8)"><path fill="#191b1e" d="M 193.058594 394.972656 L 192.589844 401.878906 C 192.714844 402.492188 193.167969 403.085938 193.960938 403.5625 L 194.292969 396.488281 C 193.582031 396.058594 193.171875 395.523438 193.058594 394.972656 " fill-opacity="1" fill-rule="nonzero"/></g></g><g clip-path="url(#c7a1c53307)"><g clip-path="url(#8b24b1664c)"><path fill="#1e2023" d="M 194.292969 396.488281 L 193.960938 403.5625 C 193.980469 403.574219 194.003906 403.585938 194.023438 403.601562 C 194.359375 403.796875 194.730469 403.957031 195.128906 404.085938 L 195.34375 396.960938 C 194.988281 396.84375 194.652344 396.695312 194.347656 396.519531 C 194.332031 396.507812 194.3125 396.496094 194.292969 396.488281 " fill-opacity="1" fill-rule="nonzero"/></g></g><g clip-path="url(#72f9e4bd37)"><g clip-path="url(#b77242ffdf)"><path fill="#191b1e" d="M 195.34375 396.960938 L 195.128906 404.085938 C 196.101562 404.402344 197.214844 404.515625 198.292969 404.425781 L 198.191406 397.261719 C 197.222656 397.34375 196.222656 397.242188 195.34375 396.960938 " fill-opacity="1" fill-rule="nonzero"/></g></g><g clip-path="url(#43709f7682)"><g clip-path="url(#0557b8ebaa)"><path fill="#161719" d="M 198.191406 397.261719 L 198.292969 404.425781 C 199.335938 404.339844 200.339844 404.066406 201.144531 403.601562 C 202.140625 403.023438 202.640625 402.269531 202.636719 401.515625 L 202.101562 394.644531 C 202.105469 395.324219 201.65625 396.003906 200.761719 396.519531 C 200.035156 396.9375 199.132812 397.1875 198.191406 397.261719 " fill-opacity="1" fill-rule="nonzero"/></g></g><path fill="#222327" d="M 194.367188 392.800781 C 192.589844 393.828125 192.585938 395.496094 194.347656 396.519531 C 196.117188 397.546875 198.984375 397.546875 200.761719 396.519531 C 202.539062 395.496094 202.550781 393.828125 200.785156 392.800781 C 199.019531 391.777344 196.144531 391.777344 194.367188 392.800781 " fill-opacity="1" fill-rule="nonzero"/><path fill="#161719" d="M 195.492188 393.457031 C 194.34375 394.121094 194.339844 395.199219 195.480469 395.863281 C 196.628906 396.53125 198.484375 396.53125 199.636719 395.863281 C 200.789062 395.199219 200.796875 394.121094 199.652344 393.457031 C 198.507812 392.792969 196.644531 392.792969 195.492188 393.457031 " fill-opacity="1" fill-rule="nonzero"/><g clip-path="url(#24179e2c52)"><g clip-path="url(#77f6e00789)"><path fill="#161719" d="M 271.398438 440.105469 L 270.925781 446.980469 C 270.925781 447.09375 270.9375 447.203125 270.957031 447.3125 L 271.429688 440.40625 C 271.40625 440.308594 271.398438 440.207031 271.398438 440.105469 " fill-opacity="1" fill-rule="nonzero"/></g></g><g clip-path="url(#0eb47616f9)"><g clip-path="url(#f83430b5c1)"><path fill="#191b1e" d="M 271.429688 440.40625 L 270.957031 447.3125 C 271.082031 447.925781 271.539062 448.519531 272.332031 449 L 272.660156 441.921875 C 271.949219 441.496094 271.539062 440.957031 271.429688 440.40625 " fill-opacity="1" fill-rule="nonzero"/></g></g><g clip-path="url(#1fca6c598b)"><g clip-path="url(#df388881f4)"><path fill="#1e2023" d="M 272.660156 441.921875 L 272.332031 449 C 272.351562 449.007812 272.371094 449.023438 272.394531 449.035156 C 272.726562 449.230469 273.101562 449.394531 273.496094 449.519531 L 273.710938 442.394531 C 273.355469 442.277344 273.019531 442.132812 272.71875 441.957031 C 272.699219 441.945312 272.679688 441.933594 272.660156 441.921875 " fill-opacity="1" fill-rule="nonzero"/></g></g><g clip-path="url(#3adee37c80)"><g clip-path="url(#a3a7bc1523)"><path fill="#191b1e" d="M 273.710938 442.394531 L 273.496094 449.519531 C 274.46875 449.835938 275.582031 449.949219 276.660156 449.859375 L 276.558594 442.699219 C 275.589844 442.78125 274.589844 442.675781 273.710938 442.394531 " fill-opacity="1" fill-rule="nonzero"/></g></g><g clip-path="url(#991a7206ef)"><g clip-path="url(#91f36978f4)"><path fill="#161719" d="M 276.558594 442.699219 L 276.660156 449.859375 C 277.703125 449.773438 278.710938 449.5 279.511719 449.035156 C 280.507812 448.460938 281.007812 447.707031 281.003906 446.953125 L 280.472656 440.082031 C 280.472656 440.757812 280.023438 441.4375 279.128906 441.957031 C 278.40625 442.375 277.5 442.621094 276.558594 442.699219 " fill-opacity="1" fill-rule="nonzero"/></g></g><path fill="#222327" d="M 272.734375 438.238281 C 270.957031 439.265625 270.953125 440.929688 272.71875 441.957031 C 274.484375 442.980469 277.351562 442.980469 279.128906 441.957031 C 280.90625 440.929688 280.921875 439.265625 279.152344 438.238281 C 277.386719 437.210938 274.511719 437.210938 272.734375 438.238281 " fill-opacity="1" fill-rule="nonzero"/><path fill="#161719" d="M 273.863281 438.890625 C 272.710938 439.558594 272.707031 440.636719 273.851562 441.300781 C 274.996094 441.96875 276.851562 441.96875 278.003906 441.300781 C 279.15625 440.636719 279.164062 439.558594 278.019531 438.890625 C 276.875 438.226562 275.011719 438.226562 273.863281 438.890625 " fill-opacity="1" fill-rule="nonzero"/><path fill="#f6c1a8" d="M 318.855469 212.1875 C 321.886719 212.917969 324.261719 215.363281 324.878906 218.414062 C 325.417969 221.085938 325.09375 224.941406 326.425781 227.355469 C 328.996094 232.011719 329.667969 225.746094 330.4375 223.730469 C 330.820312 224.457031 331.390625 225.292969 332.222656 225.226562 C 332.804688 225.179688 333.265625 224.660156 333.425781 224.097656 C 333.589844 223.539062 333.515625 222.949219 333.441406 222.371094 C 332.75 216.992188 332.644531 211.820312 329.550781 207.203125 C 328.914062 206.25 328.214844 205.34375 327.480469 204.464844 C 323.949219 206.246094 320.882812 208.929688 318.855469 212.1875 " fill-opacity="1" fill-rule="nonzero"/><path fill="#e3e4e1" d="M 347.734375 399.742188 C 347.765625 399.742188 347.804688 399.742188 347.839844 399.742188 C 349.121094 399.683594 350.109375 398.597656 350.050781 397.316406 L 343.78125 260.289062 C 342.871094 240.367188 328.976562 217.152344 312.15625 207.433594 L 307.265625 204.605469 C 298.546875 199.570312 290.1875 198.742188 283.71875 202.269531 C 277.472656 205.683594 273.78125 212.777344 273.324219 222.25 L 267.050781 352.035156 C 266.988281 353.3125 267.976562 354.402344 269.253906 354.460938 C 270.527344 354.527344 271.617188 353.535156 271.683594 352.257812 L 277.953125 222.472656 C 278.328125 214.679688 281.167969 208.953125 285.941406 206.34375 C 290.933594 203.621094 297.683594 204.429688 304.949219 208.625 L 309.835938 211.449219 C 325.429688 220.460938 338.304688 242.003906 339.152344 260.5 L 345.417969 397.53125 C 345.476562 398.773438 346.5 399.742188 347.734375 399.742188 " fill-opacity="1" fill-rule="nonzero"/><path fill="#18191e" d="M 329.609375 230.957031 C 330.324219 230.957031 331.054688 230.765625 331.707031 230.355469 C 333.570312 229.195312 334.140625 226.742188 332.976562 224.878906 C 329.097656 218.648438 324.4375 213.316406 319.496094 209.460938 L 315.042969 205.984375 C 307.699219 200.257812 299.894531 197.917969 293.070312 199.398438 C 290.925781 199.863281 289.5625 201.980469 290.027344 204.125 C 290.492188 206.273438 292.609375 207.636719 294.753906 207.171875 C 299.234375 206.195312 304.707031 208.007812 310.15625 212.257812 L 314.609375 215.730469 C 318.820312 219.019531 322.839844 223.636719 326.234375 229.085938 C 326.984375 230.292969 328.28125 230.957031 329.609375 230.957031 " fill-opacity="1" fill-rule="nonzero"/><path fill="#f6c1a8" d="M 327.480469 204.464844 C 325.28125 201.832031 322.78125 199.453125 320.640625 196.761719 C 319.683594 195.554688 316.25 196.34375 315.03125 196.628906 C 313.09375 197.082031 311.257812 197.898438 309.46875 198.777344 C 308.4375 199.285156 308.496094 201.324219 309.179688 204.023438 C 311.054688 211.441406 317.664062 223.851562 319.421875 223.183594 C 320.566406 222.742188 321.042969 221.316406 320.851562 220.121094 C 320.652344 218.925781 319.976562 217.871094 319.398438 216.8125 C 316.660156 211.808594 323.949219 206.246094 327.480469 204.464844 " fill-opacity="1" fill-rule="nonzero"/><path fill="#f6e6e8" d="M 320.503906 160.3125 C 317.878906 142.53125 325.59375 121.875 321.101562 105.628906 C 320.394531 103.074219 318.449219 100.632812 315.9375 98.214844 L 315.9375 99.722656 L 308.640625 99.722656 L 308.640625 136.863281 L 293.53125 136.863281 C 294.582031 141.585938 295.597656 146.523438 296.398438 152.125 C 301.152344 185.277344 305.503906 199.359375 305.949219 201.84375 C 307.078125 208.152344 325.238281 201.691406 325.144531 200.140625 C 324.777344 193.445312 324.292969 185.996094 320.503906 160.3125 " fill-opacity="1" fill-rule="nonzero"/><path fill="#131313" d="M 236.5625 390.378906 C 236.566406 391.78125 237.605469 392.921875 238.390625 394.09375 C 240.316406 396.949219 240.417969 400.484375 241.316406 403.726562 C 242.242188 407.105469 243.128906 410.523438 244.964844 413.527344 C 247.695312 417.949219 251.886719 421.496094 256.769531 423.289062 C 259.222656 424.1875 261.894531 424.679688 264.480469 424.222656 C 267.070312 423.789062 269.550781 422.332031 270.871094 420.054688 C 272.113281 417.84375 272.167969 415.113281 271.542969 412.648438 C 270.96875 410.5 269.949219 408.511719 268.875 406.5625 C 268.722656 406.292969 268.570312 406.003906 268.417969 405.730469 C 266.203125 401.71875 263.390625 397.695312 261.890625 393.375 C 260.757812 390.222656 260.386719 386.820312 259.101562 383.734375 C 258.570312 382.492188 257.863281 381.28125 256.796875 380.457031 C 256.507812 380.234375 256.207031 380.050781 255.878906 379.886719 C 255.214844 379.519531 254.492188 379.277344 253.765625 379.03125 C 252.222656 378.488281 250.636719 377.96875 249.007812 377.765625 C 248.371094 377.675781 241.402344 377.839844 241.355469 377.621094 C 241.917969 380.484375 241.132812 383.585938 239.296875 385.84375 C 238.546875 386.765625 237.582031 387.640625 237.015625 388.65625 C 236.722656 389.183594 236.550781 389.765625 236.5625 390.378906 " fill-opacity="1" fill-rule="nonzero"/><path fill="#131313" d="M 291.28125 373.09375 C 291.28125 373.09375 276.171875 370.292969 279.109375 388.671875 C 279.871094 393.449219 286.191406 393.894531 288.902344 393.542969 C 290.09375 393.386719 291.753906 392.757812 293.691406 393.765625 C 296.132812 395.054688 297.191406 396.476562 297.96875 397.015625 C 305.984375 402.804688 318.4375 399.867188 321.441406 395.792969 C 325.757812 389.960938 315.527344 385.140625 305.59375 380.660156 C 295.214844 375.980469 291.28125 373.09375 291.28125 373.09375 " fill-opacity="1" fill-rule="nonzero"/><path fill="#462520" d="M 304.105469 223.882812 C 302.769531 218.929688 269.167969 218.335938 269.167969 218.335938 L 263.277344 222.84375 C 263.082031 225.171875 272.683594 266.523438 275.851562 274.894531 C 275.851562 274.941406 275.851562 274.941406 275.851562 274.992188 C 278.71875 282.472656 281.09375 288.511719 281.9375 290.988281 C 282.085938 291.386719 282.183594 291.683594 282.234375 291.878906 C 282.085938 293.464844 281.6875 296.683594 281.492188 298.417969 C 279.015625 323.625 273.96875 382.3125 273.820312 382.757812 C 274.660156 383.003906 310.191406 382.261719 310.242188 382.164062 C 313.164062 361.660156 317.914062 310.898438 319.398438 297.675781 C 319.398438 297.675781 309.351562 243.148438 304.105469 223.882812 " fill-opacity="1" fill-rule="nonzero"/><path fill="#311814" d="M 290.429688 314.632812 C 295.105469 294.757812 282.644531 279.945312 278.359375 261.242188 C 274.445312 242.71875 291.03125 234.613281 306.101562 231.871094 C 305.386719 228.828125 304.714844 226.117188 304.105469 223.882812 C 302.769531 218.929688 269.167969 218.335938 269.167969 218.335938 L 263.277344 222.84375 C 263.082031 225.171875 272.683594 266.523438 275.851562 274.894531 C 275.851562 274.941406 275.851562 274.941406 275.851562 274.992188 C 278.71875 282.472656 281.09375 288.511719 281.9375 290.988281 C 282.085938 291.386719 282.183594 291.683594 282.234375 291.878906 C 282.085938 293.464844 281.6875 296.683594 281.492188 298.417969 C 279.015625 323.625 273.96875 382.3125 273.820312 382.757812 C 274.109375 382.84375 278.492188 382.8125 284.125 382.730469 C 282.144531 376.964844 280.648438 371.046875 279.917969 364.90625 C 277.972656 347.367188 286.539062 331.78125 290.429688 314.632812 " fill-opacity="1" fill-rule="nonzero"/><path fill="#4e2e27" d="M 275.851562 274.992188 C 275.15625 262.414062 269.859375 222.246094 269.167969 218.335938 C 268.820312 216.15625 227.695312 214.570312 227.597656 216.355469 C 226.757812 233.738281 231.457031 241.015625 232.792969 247.011719 C 236.308594 263.15625 238.335938 278.65625 239.671875 287.472656 C 239.527344 289.058594 239.375 290.691406 239.226562 292.425781 C 236.160156 328.976562 232.199219 388.847656 231.507812 391.820312 C 232.84375 392.316406 267.089844 391.871094 267.585938 391.722656 L 267.632812 391.722656 C 267.683594 391.671875 267.683594 391.671875 267.683594 391.671875 C 270.605469 367.601562 274.316406 309.460938 275.800781 293.515625 C 275.851562 293.417969 275.851562 293.367188 275.851562 293.265625 C 275.851562 293.265625 275.851562 293.21875 275.851562 293.167969 C 276.34375 288.761719 276.292969 282.371094 275.851562 274.992188 " fill-opacity="1" fill-rule="nonzero"/><path fill="#462520" d="M 245.257812 314.242188 C 248.765625 297.875 245.257812 282.285156 242.144531 265.527344 C 240.199219 255.785156 239.417969 244.09375 246.039062 237.859375 C 252.054688 231.523438 261.929688 232.914062 271.273438 233.65625 C 270.261719 225.839844 269.417969 219.746094 269.167969 218.335938 C 268.820312 216.15625 227.695312 214.570312 227.597656 216.355469 C 226.757812 233.738281 231.457031 241.015625 232.792969 247.011719 C 236.308594 263.15625 238.335938 278.65625 239.671875 287.472656 C 239.527344 289.058594 239.375 290.691406 239.226562 292.425781 C 236.160156 328.976562 232.199219 388.847656 231.507812 391.820312 C 231.886719 391.960938 234.871094 392.027344 238.976562 392.042969 C 235.429688 366.871094 239.464844 340.75 245.257812 314.242188 " fill-opacity="1" fill-rule="nonzero"/><path fill="#388ba2" d="M 317.371094 132.363281 C 313.359375 152.417969 313.65625 173.21875 312.171875 193.671875 C 311.480469 202.539062 308.660156 215.808594 303.859375 221.703125 C 302.871094 222.347656 301.832031 222.894531 300.792969 223.4375 C 299.304688 224.179688 297.773438 224.871094 296.136719 225.417969 C 274.511719 233.441406 240.863281 228.441406 227.203125 212.144531 C 226.65625 208.777344 227.5 204.617188 228.886719 200.160156 C 231.210938 192.78125 235.070312 184.710938 236.851562 178.269531 C 239.425781 168.8125 241.453125 159.300781 241.703125 149.449219 C 241.75 145.289062 241.554688 141.125 241.304688 136.964844 C 241.007812 132.65625 240.710938 128.351562 240.761719 124.042969 C 240.8125 115.917969 237.546875 104.726562 243.136719 98.089844 C 243.980469 97.101562 245.363281 96.308594 246.945312 95.664062 C 247.195312 95.566406 247.441406 95.464844 247.742188 95.367188 C 250.363281 94.425781 253.332031 93.832031 255.261719 93.382812 C 259.816406 92.34375 264.417969 91.304688 269.019531 90.511719 C 279.410156 88.632812 292.328125 87.542969 302.523438 90.367188 C 309.550781 92.34375 317.371094 95.367188 319.398438 103.09375 C 321.921875 112.453125 319.199219 123.101562 317.371094 132.363281 " fill-opacity="1" fill-rule="nonzero"/><path fill="#388ba2" d="M 264.339844 143.9375 C 269.015625 131.078125 271.738281 115.882812 262.78125 103.019531 C 260.257812 99.234375 256.753906 95.773438 252.476562 94.019531 C 250.96875 94.375 249.292969 94.808594 247.742188 95.367188 C 247.441406 95.464844 247.195312 95.566406 246.945312 95.664062 C 245.363281 96.308594 243.980469 97.101562 243.136719 98.089844 C 237.546875 104.726562 240.8125 115.917969 240.761719 124.042969 C 240.710938 128.351562 241.007812 132.65625 241.304688 136.964844 C 241.554688 141.125 241.75 145.289062 241.703125 149.449219 C 241.453125 159.300781 239.425781 168.8125 236.851562 178.269531 C 235.070312 184.710938 231.210938 192.78125 228.886719 200.160156 C 227.5 204.617188 226.65625 208.777344 227.203125 212.144531 C 233.359375 219.492188 243.585938 224.542969 254.9375 227.140625 C 254.722656 225.539062 254.605469 223.917969 254.605469 222.269531 C 254.605469 195.773438 254.605469 168.882812 264.339844 143.9375 " fill-opacity="1" fill-rule="nonzero"/><path fill="#eaaa8e" d="M 279.273438 101.65625 C 274.449219 100.390625 266.265625 94.660156 267.453125 91.667969 C 271.609375 81.179688 270.191406 69.433594 270.191406 69.433594 L 295.992188 76.347656 C 295.992188 76.347656 299.367188 91.296875 298.59375 95.019531 C 297.664062 99.523438 285.402344 103.265625 279.273438 101.65625 " fill-opacity="1" fill-rule="nonzero"/><path fill="#f6c1a8" d="M 271.566406 73.710938 C 269.355469 75.34375 265.421875 73.75 262.78125 70.15625 C 260.144531 66.566406 259.792969 62.335938 262.007812 60.707031 C 264.214844 59.078125 268.152344 60.671875 270.789062 64.261719 C 273.429688 67.855469 273.777344 72.085938 271.566406 73.710938 " fill-opacity="1" fill-rule="nonzero"/><path fill="#f6c1a8" d="M 304.617188 90.664062 C 301.402344 93.078125 297.148438 93.660156 292.800781 93.03125 C 287.183594 92.222656 280.308594 88.105469 276.398438 84.625 C 272.570312 81.21875 265.851562 67.488281 264.699219 61.914062 C 264.507812 60.960938 264.359375 60.058594 264.269531 59.1875 C 262.625 43.898438 264.445312 33.582031 275.140625 25.800781 C 286.441406 17.535156 312.371094 25.644531 313.253906 43.65625 C 314.144531 61.671875 314.453125 83.296875 304.617188 90.664062 " fill-opacity="1" fill-rule="nonzero"/><path fill="#e8e8e6" d="M 274.078125 24.863281 C 262.75 31.675781 261.246094 41.769531 264.269531 59.1875 L 264.378906 60.078125 C 265.253906 60.234375 267.722656 60.679688 270.726562 64.621094 C 271.078125 64.5625 275.179688 65.726562 274.875 65.222656 C 270.730469 58.351562 269.464844 50.316406 270.601562 44.449219 C 276.894531 11.953125 305.484375 30.054688 308.421875 32.996094 C 310.859375 35.433594 312.335938 39.890625 312.164062 44.171875 C 312.527344 44.550781 312.90625 44.914062 313.253906 45.304688 C 314.273438 28.757812 291.59375 14.328125 274.078125 24.863281 " fill-opacity="1" fill-rule="nonzero"/><path fill="#eaaa8e" d="M 269.117188 70.382812 C 268.039062 71.175781 266.121094 70.398438 264.832031 68.648438 C 263.546875 66.894531 263.375 64.832031 264.453125 64.039062 C 265.53125 63.242188 267.453125 64.019531 268.738281 65.773438 C 270.027344 67.523438 270.195312 69.585938 269.117188 70.382812 " fill-opacity="1" fill-rule="nonzero"/><path fill="#f6c1a8" d="M 229.992188 230.390625 C 230.347656 228.675781 234.226562 227.734375 235.609375 227.398438 C 237.800781 226.867188 240.074219 226.757812 242.332031 226.742188 C 243.632812 226.730469 244.613281 228.824219 245.296875 231.90625 C 247.167969 240.378906 246.789062 256.316406 244.667969 256.53125 C 243.285156 256.671875 242.074219 255.46875 241.664062 254.15625 C 241.253906 252.847656 241.421875 251.441406 241.453125 250.066406 C 241.503906 247.921875 240.976562 246.585938 240.046875 244.757812 C 239.605469 245.089844 239.207031 245.457031 238.84375 245.851562 C 235.136719 243.925781 231.425781 241.546875 227.582031 239.347656 C 228.394531 236.367188 229.359375 233.417969 229.992188 230.390625 " fill-opacity="1" fill-rule="nonzero"/><path fill="#e3e4e1" d="M 275.964844 441.273438 C 276 441.273438 276.035156 441.273438 276.070312 441.269531 C 277.347656 441.214844 278.339844 440.128906 278.28125 438.847656 L 272.011719 301.820312 C 271.101562 281.898438 257.207031 258.679688 240.386719 248.960938 L 235.496094 246.136719 C 226.78125 241.101562 218.417969 240.273438 211.953125 243.800781 C 205.703125 247.214844 202.011719 254.308594 201.550781 263.78125 L 195.28125 393.566406 C 195.222656 394.84375 196.207031 395.929688 197.484375 395.996094 C 198.765625 396.066406 199.851562 395.066406 199.914062 393.789062 L 206.183594 264.003906 C 206.558594 256.210938 209.398438 250.484375 214.171875 247.875 C 219.164062 245.148438 225.914062 245.960938 233.179688 250.15625 L 238.066406 252.980469 C 253.660156 261.988281 266.535156 283.535156 267.382812 302.03125 L 273.648438 439.058594 C 273.707031 440.300781 274.730469 441.273438 275.964844 441.273438 " fill-opacity="1" fill-rule="nonzero"/><path fill="#18191e" d="M 253.648438 267.457031 C 254.546875 267.457031 255.449219 267.15625 256.195312 266.535156 C 257.878906 265.125 258.105469 262.617188 256.695312 260.933594 C 251.996094 255.296875 246.644531 250.660156 241.214844 247.527344 L 236.324219 244.703125 C 228.261719 240.042969 220.210938 238.804688 213.652344 241.21875 C 211.59375 241.972656 210.535156 244.257812 211.292969 246.320312 C 212.050781 248.382812 214.335938 249.441406 216.394531 248.683594 C 220.699219 247.097656 226.363281 248.132812 232.351562 251.589844 L 237.242188 254.414062 C 241.867188 257.089844 246.484375 261.105469 250.59375 266.03125 C 251.382812 266.972656 252.511719 267.457031 253.648438 267.457031 " fill-opacity="1" fill-rule="nonzero"/><path fill="#e3e4e1" d="M 272.210938 341.367188 C 272.605469 341.367188 273.003906 341.269531 273.371094 341.058594 L 343.421875 300.582031 C 344.53125 299.941406 344.910156 298.519531 344.269531 297.414062 C 343.632812 296.304688 342.214844 295.921875 341.105469 296.5625 L 271.050781 337.039062 C 269.941406 337.679688 269.5625 339.097656 270.203125 340.207031 C 270.632812 340.953125 271.414062 341.367188 272.210938 341.367188 " fill-opacity="1" fill-rule="nonzero"/><path fill="#e3e4e1" d="M 269.828125 299.167969 C 270.222656 299.167969 270.621094 299.0625 270.984375 298.851562 L 341.039062 258.375 C 342.144531 257.738281 342.527344 256.316406 341.886719 255.210938 C 341.246094 254.097656 339.828125 253.71875 338.71875 254.359375 L 268.667969 294.835938 C 267.558594 295.476562 267.179688 296.894531 267.820312 298.007812 C 268.246094 298.75 269.027344 299.167969 269.828125 299.167969 " fill-opacity="1" fill-rule="nonzero"/><path fill="#f6c1a8" d="M 236.71875 253.78125 C 236.992188 254.796875 240.027344 255.382812 240.496094 256.519531 C 236.375 258.953125 232.632812 257.195312 230.226562 255.699219 C 228.421875 254.582031 227.519531 253.011719 226.457031 251.484375 C 226.125 249.5625 226.015625 247.589844 226.277344 245.507812 C 226.542969 243.414062 227.027344 241.371094 227.582031 239.347656 C 231.425781 241.546875 236.339844 242.832031 240.046875 244.757812 C 237.917969 247.054688 235.882812 250.726562 236.71875 253.78125 " fill-opacity="1" fill-rule="nonzero"/><path fill="#f6e6e8" d="M 264.023438 110.972656 C 261.898438 97.90625 252.210938 94.148438 252.210938 94.148438 C 233.703125 92.539062 225.230469 151.359375 225.230469 151.359375 C 223.265625 165.804688 223.464844 178.433594 224.632812 185.746094 C 226.097656 194.871094 226.441406 219.726562 227.035156 232.570312 C 232.472656 235.921875 244.363281 232.351562 246.503906 230.765625 C 247.078125 217.800781 248.644531 176.640625 252.007812 160.914062 C 253.667969 152.703125 266.140625 124.039062 264.023438 110.972656 " fill-opacity="1" fill-rule="nonzero"/><path fill="#cdcfd3" d="M 248.375 97.957031 C 249.488281 96.394531 251.113281 95.21875 252.953125 94.496094 C 252.488281 94.257812 252.210938 94.148438 252.210938 94.148438 C 233.703125 92.539062 225.230469 151.359375 225.230469 151.359375 C 223.265625 165.804688 223.464844 178.433594 224.632812 185.746094 C 226.097656 194.871094 226.441406 219.726562 227.035156 232.570312 C 228.296875 233.347656 229.910156 233.75 231.667969 233.894531 C 230.019531 223.59375 229.03125 213.191406 228.515625 202.785156 C 226.957031 167.324219 226.175781 129.519531 248.375 97.957031 " fill-opacity="1" fill-rule="nonzero"/><path fill="#e3e4e1" d="M 273.390625 394.640625 C 274.304688 394.640625 275.042969 393.898438 275.042969 392.980469 L 275.042969 375.351562 C 275.046875 366.019531 268.476562 354.632812 260.398438 349.964844 L 214.375 323.375 C 210.152344 320.929688 206.09375 320.589844 202.949219 322.40625 C 199.804688 324.222656 198.074219 327.910156 198.074219 332.792969 L 198.074219 350.421875 C 198.074219 351.339844 198.8125 352.082031 199.726562 352.082031 C 200.640625 352.082031 201.382812 351.339844 201.382812 350.421875 L 201.382812 332.792969 C 201.382812 329.144531 202.527344 326.476562 204.605469 325.277344 C 206.683594 324.074219 209.5625 324.421875 212.71875 326.246094 L 258.746094 352.835938 C 265.90625 356.972656 271.734375 367.074219 271.734375 375.351562 L 271.734375 392.980469 C 271.734375 393.898438 272.472656 394.640625 273.390625 394.640625 " fill-opacity="1" fill-rule="nonzero"/><path fill="#f6c1a8" d="M 117.023438 131.574219 C 125 131.53125 135 137.503906 140.753906 131.882812 C 140.753906 131.882812 145.804688 155.59375 151.613281 160.609375 C 151.613281 160.609375 188.914062 171.878906 199.609375 175.863281 C 204.167969 177.566406 210.6875 173.90625 215.714844 174.390625 C 223.582031 175.148438 232.726562 182.941406 232.902344 185.347656 C 232.917969 185.371094 232.929688 185.398438 232.945312 185.421875 C 232.125 186.378906 232.039062 186.320312 232.285156 187.410156 C 232.785156 189.640625 231.015625 189.085938 230.023438 190.960938 C 227.59375 193.585938 225.757812 190.875 223 191.027344 C 222.085938 191.082031 221.484375 191.496094 220.339844 191.882812 C 213 191.15625 205.863281 189.40625 199.320312 187.957031 C 191.738281 186.277344 181.832031 187.898438 175.089844 186.972656 C 161 185.042969 151.242188 182.890625 137.324219 179.949219 C 125.269531 177.398438 117.023438 131.574219 117.023438 131.574219 " fill-opacity="1" fill-rule="nonzero"/><path fill="#bee0dc" d="M 145.007812 141.53125 L 129.097656 93.46875 C 126.660156 86.015625 118.675781 81.941406 111.273438 84.371094 C 103.867188 86.792969 101.355469 98.125 103.792969 105.578125 L 118.257812 150.53125 C 126.847656 152.128906 138.285156 148.046875 145.007812 141.53125 " fill-opacity="1" fill-rule="nonzero"/><path fill="#f6e6e8" d="M 115.324219 141.414062 L 116.253906 144.304688 C 125.703125 145.207031 135.265625 142.074219 143.433594 136.777344 L 142.078125 132.679688 C 134.246094 138.039062 124.835938 141.058594 115.324219 141.414062 " fill-opacity="1" fill-rule="nonzero"/></svg>