<svg xmlns="http://www.w3.org/2000/svg" xmlns:xlink="http://www.w3.org/1999/xlink" width="600" zoomAndPan="magnify" viewBox="0 0 450 449.999984" height="600" preserveAspectRatio="xMidYMid meet" version="1.0"><path fill="#bcd7f1" d="M 342.070312 41.535156 C 405.332031 69.84375 449.945312 286.015625 388.21875 337.199219 C 326.496094 388.386719 91.542969 448.734375 45.8125 345.023438 C 0.0820312 241.308594 249.269531 0.0078125 342.070312 41.535156 " fill-opacity="1" fill-rule="nonzero"/><path fill="#deebf8" d="M 153.417969 93.949219 C 176.019531 34.75 327.722656 16.363281 335.554688 107.230469 C 343.382812 198.097656 364.375 446.042969 238.828125 435.570312 C 130.636719 426.546875 130.585938 153.746094 153.417969 93.949219 " fill-opacity="1" fill-rule="nonzero"/><path fill="#bcd7f1" d="M 168.527344 430.671875 C 119.847656 391.671875 268.132812 394.996094 317.1875 415.269531 C 366.242188 435.546875 192.667969 450.011719 168.527344 430.671875 " fill-opacity="1" fill-rule="nonzero"/><path fill="#0b111c" d="M 235.757812 76.015625 C 240.761719 76.738281 259.644531 82.96875 263.488281 92.960938 C 267.335938 102.949219 260.847656 122.277344 265.535156 126.085938 C 270.222656 129.890625 273.753906 127.644531 273.753906 127.644531 C 273.753906 127.644531 262.929688 142.714844 249.574219 141.160156 C 236.214844 139.605469 210.90625 137.25 208.445312 133.511719 C 205.984375 129.777344 202.558594 123.175781 202.558594 123.175781 C 202.558594 123.175781 209.277344 125.117188 211.371094 123.175781 C 213.460938 121.230469 206.675781 97.179688 209.269531 91.726562 C 211.859375 86.277344 229.789062 75.152344 235.757812 76.015625 " fill-opacity="1" fill-rule="nonzero"/><path fill="#f68488" d="M 269.023438 310.675781 C 268.484375 324.121094 267.984375 335.226562 268.539062 339.714844 C 269.3125 345.984375 270.914062 411.527344 270.914062 411.527344 L 259.070312 413.113281 C 259.070312 413.113281 246.503906 376.007812 243.773438 364.734375 C 240.632812 351.761719 245.285156 337.871094 245.285156 337.871094 C 245.285156 337.871094 240.863281 329.5625 235.589844 317.695312 C 247.101562 319.398438 259.671875 318.324219 269.023438 310.675781 " fill-opacity="1" fill-rule="nonzero"/><path fill="#3b4faa" d="M 237.707031 325.734375 C 229.96875 308.328125 218.273438 275.226562 218.132812 257.5 C 217.957031 235.1875 237.5 223.117188 261.3125 232.6875 C 271.722656 236.871094 274.390625 287.164062 273.152344 317.929688 C 263.800781 325.578125 249.222656 327.4375 237.707031 325.734375 " fill-opacity="1" fill-rule="nonzero"/><path fill="#f25759" d="M 244.660156 137.542969 C 270.210938 142.523438 296.914062 178.714844 301.957031 186.816406 C 308.269531 196.964844 310.804688 211.898438 304.03125 213.109375 C 297.261719 214.320312 259.726562 176.578125 255.746094 170.730469 C 251.765625 164.882812 244.660156 137.542969 244.660156 137.542969 " fill-opacity="1" fill-rule="nonzero"/><path fill="#f8eb3f" d="M 246.851562 137.335938 C 261.082031 137.640625 287.167969 163.949219 287.363281 164.539062 C 287.5625 165.132812 276.230469 194.304688 276.230469 194.304688 L 258.71875 183.710938 L 246.851562 137.335938 " fill-opacity="1" fill-rule="nonzero"/><path fill="#fabc18" d="M 284.523438 161.59375 C 285.09375 159.695312 294.128906 167.753906 293.609375 170.117188 C 293.164062 172.113281 284.976562 192.066406 282.4375 198.21875 C 282.058594 199.144531 280.921875 199.46875 280.105469 198.894531 L 273.515625 194.265625 C 272.9375 193.855469 272.707031 193.105469 272.953125 192.441406 L 284.523438 161.59375 " fill-opacity="1" fill-rule="nonzero"/><path fill="#f68488" d="M 315.3125 162.054688 C 315.613281 148.816406 316.324219 138.09375 314.175781 135.515625 C 312.027344 132.941406 308.8125 132.753906 306.257812 141.808594 C 303.703125 150.867188 296.316406 182.382812 294.984375 191.242188 C 293.652344 200.097656 295.113281 212.507812 302.578125 213.964844 C 315.078125 216.035156 315.015625 175.289062 315.3125 162.054688 " fill-opacity="1" fill-rule="nonzero"/><path fill="#f68488" d="M 315.554688 148.554688 C 316.28125 141.125 315.019531 137.347656 315.574219 132.019531 C 315.757812 130.257812 316.53125 123.441406 315.503906 122.957031 C 314.472656 122.46875 313.652344 130.402344 313.210938 129.851562 C 312.816406 129.363281 314.296875 118.882812 313.28125 118.542969 C 312.269531 118.203125 310.839844 128.152344 310.449219 127.820312 C 309.847656 127.304688 311.230469 116.175781 310.316406 116.144531 C 308.832031 116.097656 308.75 127.425781 308.085938 127.296875 C 307.644531 127.210938 308.386719 118.582031 307.03125 118.238281 C 305.671875 117.890625 305.175781 131.375 305.375 132.835938 C 305.570312 134.296875 299.375 126.667969 297.582031 128.582031 C 296.632812 129.589844 301.027344 135.136719 304.945312 138.527344 C 307.984375 141.160156 305.441406 144.75 304.242188 149.542969 C 303.523438 152.410156 315.421875 150.609375 315.421875 150.609375 L 315.554688 148.554688 " fill-opacity="1" fill-rule="nonzero"/><path fill="#0b111c" d="M 218.484375 402.347656 C 222.78125 415.316406 222.308594 423.253906 217.5625 428.316406 C 212.8125 433.382812 202.222656 418.457031 205.339844 411.726562 C 208.453125 404.996094 211.699219 394.136719 211.699219 394.136719 L 218.484375 402.347656 " fill-opacity="1" fill-rule="nonzero"/><path fill="#0b111c" d="M 270.847656 408.878906 C 283.539062 413.566406 292.976562 419.566406 291.226562 423.164062 C 289.476562 426.765625 265.722656 425.808594 261.875 422.578125 C 258.027344 419.351562 257.648438 408.878906 257.648438 408.878906 L 270.847656 408.878906 " fill-opacity="1" fill-rule="nonzero"/><path fill="#f68488" d="M 207.011719 315.855469 C 216.152344 321 226.832031 323.625 237.078125 322.027344 C 233.214844 333.378906 230.082031 341.65625 229.335938 343.234375 C 226.628906 348.9375 219.371094 405.191406 219.371094 405.191406 L 207.632812 406.179688 C 207.632812 406.179688 201.214844 372.617188 201.234375 361.019531 C 201.257812 347.667969 209.671875 330.3125 209.671875 330.3125 C 209.671875 330.3125 208.433594 324.578125 207.011719 315.855469 " fill-opacity="1" fill-rule="nonzero"/><path fill="#3b4faa" d="M 200.546875 317.929688 C 197.660156 300.15625 198.929688 267.882812 203.519531 248.421875 C 208.640625 226.703125 230.484375 219.613281 251.351562 234.554688 C 260.835938 241.351562 247.84375 295.972656 237.707031 325.734375 C 227.457031 327.328125 209.683594 323.070312 200.546875 317.929688 " fill-opacity="1" fill-rule="nonzero"/><path fill="#fabc18" d="M 203.089844 243.4375 C 207.628906 223.492188 217.191406 220.507812 216.261719 208.414062 C 215.328125 196.320312 212.6875 174.660156 211.757812 166.402344 C 210.828125 158.140625 211.554688 127.125 236.210938 132.691406 C 260.867188 138.261719 263.859375 147.183594 266.648438 169.386719 C 269.441406 191.589844 263.6875 191.714844 263.289062 210.164062 C 263.179688 215.308594 270.914062 243.273438 270.914062 243.273438 C 270.914062 243.273438 256.257812 254.300781 241.703125 254.484375 C 233.84375 254.582031 220.5 250.164062 212.21875 247.09375 C 210.816406 246.578125 215.6875 238.058594 214.476562 237.582031 C 213.535156 237.210938 208.738281 245.847656 207.945312 245.519531 C 204.949219 244.289062 203.089844 243.4375 203.089844 243.4375 " fill-opacity="1" fill-rule="nonzero"/><path fill="#f25759" d="M 246.183594 143.9375 C 244.171875 146.617188 233.472656 140.746094 231.761719 138.625 C 230.054688 136.5 228.738281 130.910156 229.4375 125.332031 C 230.136719 119.746094 236.769531 120.210938 240.664062 121.609375 C 244.554688 123.003906 248.976562 140.214844 246.183594 143.9375 " fill-opacity="1" fill-rule="nonzero"/><path fill="#f68488" d="M 235.894531 83.671875 C 243.886719 81.273438 254.9375 85.308594 257.0625 96.847656 C 259.464844 109.910156 257.890625 129.796875 248.964844 131.40625 C 241.417969 132.761719 229.675781 130.242188 226.339844 117.367188 C 225.914062 115.714844 216.394531 109.371094 216.261719 104.589844 C 216.117188 99.234375 221.734375 102.054688 221.820312 100.933594 C 222.480469 92.328125 226.5625 86.46875 235.894531 83.671875 " fill-opacity="1" fill-rule="nonzero"/><path fill="#f25759" d="M 250.710938 112.3125 C 252.824219 113.246094 255.1875 122.601562 253.546875 123.464844 C 251.902344 124.328125 249.933594 124.71875 249.261719 124.121094 C 248.589844 123.523438 250.195312 112.085938 250.710938 112.3125 " fill-opacity="1" fill-rule="nonzero"/><path fill="#f68488" d="M 214.472656 144.621094 C 226.90625 138.789062 224.449219 158.144531 216.261719 167.632812 C 207.402344 177.902344 184.386719 191.660156 175.445312 199.296875 C 173.109375 193.363281 159.941406 197.582031 154.296875 200.132812 C 169.238281 174.011719 175.09375 163.109375 214.472656 144.621094 " fill-opacity="1" fill-rule="nonzero"/><path fill="#f8eb3f" d="M 224.703125 143.046875 C 232.898438 151.304688 223.632812 165.613281 210.742188 175.4375 C 197.855469 185.265625 203.363281 180.355469 203.363281 180.355469 L 185.820312 159.949219 C 185.820312 159.949219 180.152344 163.011719 194.738281 151.792969 C 209.328125 140.574219 217.121094 135.414062 224.703125 143.046875 " fill-opacity="1" fill-rule="nonzero"/><path fill="#f68488" d="M 179.429688 194.925781 C 178.691406 197.21875 178.21875 198.78125 178.105469 199.300781 C 177.535156 201.902344 203.472656 213.371094 215.582031 223.410156 C 217.601562 225.085938 212.449219 231.378906 212.566406 231.761719 C 213.371094 234.421875 158.992188 216.53125 153.457031 203.105469 C 152.9375 201.851562 157.730469 192.972656 162.265625 186.246094 C 165.734375 181.109375 174.328125 191.097656 179.429688 194.925781 " fill-opacity="1" fill-rule="nonzero"/><path fill="#f25759" d="M 211.308594 239.832031 C 208.441406 238.484375 208.601562 234.976562 208.855469 233.292969 C 209.109375 231.609375 212.582031 228.421875 212.582031 228.421875 L 215.707031 232.253906 L 211.308594 239.832031 " fill-opacity="1" fill-rule="nonzero"/><path fill="#f68488" d="M 214.207031 222.3125 C 218.589844 225.144531 222.203125 227.246094 222.621094 231.703125 C 223.035156 236.160156 216.796875 239.382812 212.855469 239.800781 C 208.910156 240.214844 211.539062 236.683594 211.398438 235.4375 C 211.261719 234.191406 213.269531 231.910156 208.265625 230.535156 C 205.078125 229.660156 204.96875 216.34375 214.207031 222.3125 " fill-opacity="1" fill-rule="nonzero"/><path fill="#fabc18" d="M 185.929688 157.652344 C 184.023438 159.742188 176.40625 165.269531 177.917969 166.277344 C 179.429688 167.289062 198.492188 184.984375 198.492188 184.984375 C 199.234375 184.875 207.59375 181.542969 207.628906 179.835938 C 207.664062 178.132812 187.113281 156.351562 185.929688 157.652344 " fill-opacity="1" fill-rule="nonzero"/><path fill="#f8eb3f" d="M 239.566406 165.699219 C 240.609375 165.496094 241.648438 165.296875 242.691406 165.09375 C 242.707031 166.902344 242.71875 168.714844 242.734375 170.527344 C 242.738281 171.011719 242.726562 171.542969 242.417969 171.910156 C 242.21875 172.148438 241.925781 172.28125 241.640625 172.40625 C 239.9375 173.144531 238.175781 173.75 236.378906 174.214844 C 232.824219 175.136719 229.15625 175.507812 225.5 175.875 C 225.488281 174.050781 225.46875 172.226562 225.457031 170.40625 C 225.453125 169.992188 225.453125 169.566406 225.617188 169.1875 C 226.671875 166.769531 237.253906 166.164062 239.566406 165.699219 " fill-opacity="1" fill-rule="nonzero"/><path fill="#0b111c" d="M 258.089844 96.730469 C 258.660156 103.027344 238.207031 103.933594 234.953125 102.785156 C 231.703125 101.636719 235.480469 113.804688 235.480469 113.804688 C 235.480469 113.804688 229.042969 113.566406 227.828125 112.734375 C 226.613281 111.90625 223.640625 104.429688 221.964844 100.917969 C 220.289062 97.40625 218.730469 88.808594 220.046875 86.496094 C 221.363281 84.175781 234.316406 78.566406 234.316406 78.566406 L 246.378906 81.710938 C 246.378906 81.710938 257.089844 85.71875 258.089844 96.730469 " fill-opacity="1" fill-rule="nonzero"/><path fill="#f8eb3f" d="M 251.195312 252.953125 C 248.285156 237.992188 248.390625 204.535156 249.203125 198.09375 C 249.488281 195.855469 250.230469 192.992188 251.019531 189.960938 C 252.066406 185.925781 253.148438 181.761719 253.191406 178.828125 C 253.367188 167.183594 250.628906 155.5625 245.269531 145.222656 L 246.414062 144.628906 C 251.875 155.160156 254.667969 166.988281 254.480469 178.847656 C 254.4375 181.933594 253.335938 186.179688 252.265625 190.285156 C 251.492188 193.273438 250.757812 196.097656 250.484375 198.257812 C 249.679688 204.648438 249.570312 237.855469 252.464844 252.707031 L 251.195312 252.953125 " fill-opacity="1" fill-rule="nonzero"/><path fill="#f8eb3f" d="M 240.222656 154.386719 C 240.175781 154.386719 240.128906 154.382812 240.085938 154.378906 C 239.644531 154.332031 239.375 154.042969 239.191406 153.851562 C 234.988281 149.710938 229.207031 139.269531 229.871094 137.085938 C 229.980469 136.71875 230.25 136.46875 230.601562 136.402344 L 230.839844 137.667969 C 230.992188 137.640625 231.089844 137.515625 231.105469 137.457031 C 230.742188 138.828125 235.667969 148.566406 240.007812 152.839844 L 240.132812 152.964844 C 240.164062 152.996094 240.195312 153.035156 240.230469 153.066406 C 240.246094 153.015625 240.320312 152.914062 240.417969 152.707031 C 241.71875 149.933594 243.316406 147.289062 245.167969 144.855469 C 245.324219 144.648438 245.582031 144.304688 246.011719 144.15625 C 246.839844 143.867188 247.566406 144.507812 247.839844 144.75 C 248.609375 145.433594 249.582031 146.371094 250.5625 147.304688 C 251.609375 148.3125 252.941406 149.589844 253.75 150.265625 C 253.605469 148.851562 252.933594 145.957031 251.792969 144.113281 C 248.1875 138.285156 247.105469 137.980469 246.929688 137.976562 L 246.765625 136.695312 C 248.050781 136.53125 249.820312 138.476562 252.886719 143.4375 C 254.371094 145.832031 255.300781 150.175781 255.003906 151.339844 C 254.9375 151.597656 254.804688 151.785156 254.609375 151.894531 C 253.960938 152.25 253.460938 151.878906 249.667969 148.238281 C 248.703125 147.316406 247.742188 146.390625 246.984375 145.71875 C 246.550781 145.332031 246.4375 145.375 246.4375 145.375 C 246.375 145.394531 246.238281 145.574219 246.195312 145.632812 C 244.398438 148 242.847656 150.5625 241.585938 153.253906 C 241.230469 154.003906 240.773438 154.386719 240.222656 154.386719 " fill-opacity="1" fill-rule="nonzero"/><path fill="#ffffff" d="M 131.800781 332.769531 C 136.90625 334.625 141.085938 337.683594 144.332031 341.9375 C 147.582031 346.195312 149.207031 350.71875 149.207031 355.515625 C 149.207031 359.382812 147.429688 363.367188 143.867188 367.464844 C 140.3125 371.566406 136.367188 374.234375 132.035156 375.472656 C 130.332031 376.089844 128.242188 376.398438 125.769531 376.398438 C 119.117188 376.398438 113.433594 374.078125 108.710938 369.4375 C 103.992188 364.796875 101.632812 359.074219 101.632812 352.265625 C 101.632812 345.921875 103.570312 340.894531 107.4375 337.179688 C 111.304688 333.46875 116.796875 331.609375 123.910156 331.609375 C 127.160156 331.609375 129.792969 331.996094 131.800781 332.769531 Z M 113.234375 220.449219 C 123.601562 221.6875 129.792969 223.621094 131.800781 226.25 C 132.730469 227.640625 133.273438 229.964844 133.425781 233.210938 C 133.738281 236.773438 134.085938 246.207031 134.472656 261.523438 C 134.859375 276.839844 135.050781 290.300781 135.050781 301.90625 L 135.050781 309.332031 C 135.050781 314.75 134.898438 318.539062 134.585938 320.703125 C 134.28125 322.871094 133.542969 324.300781 132.382812 324.996094 C 131.222656 325.691406 129.171875 326.039062 126.230469 326.039062 L 117.644531 325.808594 L 103.953125 325.808594 L 102.328125 321.398438 C 98.152344 308.09375 94.128906 281.328125 90.261719 241.101562 C 89.179688 231.820312 88.636719 225.632812 88.636719 222.535156 C 88.636719 220.835938 88.867188 219.90625 89.332031 219.753906 C 90.109375 219.289062 91.886719 219.054688 94.671875 219.054688 C 99.625 219.054688 105.808594 219.519531 113.234375 220.449219 " fill-opacity="1" fill-rule="nonzero"/><path fill="#ffffff" d="M 386.683594 220.578125 C 390.289062 221.886719 393.238281 224.050781 395.535156 227.050781 C 397.824219 230.058594 398.972656 233.253906 398.972656 236.640625 C 398.972656 239.371094 397.71875 242.1875 395.207031 245.078125 C 392.695312 247.976562 389.910156 249.863281 386.84375 250.734375 C 385.644531 251.171875 384.171875 251.390625 382.421875 251.390625 C 377.722656 251.390625 373.710938 249.75 370.375 246.472656 C 367.042969 243.195312 365.378906 239.152344 365.378906 234.34375 C 365.378906 229.863281 366.742188 226.3125 369.472656 223.691406 C 372.207031 221.070312 376.082031 219.757812 381.109375 219.757812 C 383.40625 219.757812 385.261719 220.03125 386.683594 220.578125 Z M 373.570312 141.253906 C 380.890625 142.128906 385.261719 143.492188 386.683594 145.351562 C 387.339844 146.332031 387.722656 147.972656 387.832031 150.269531 C 388.050781 152.78125 388.296875 159.445312 388.566406 170.261719 C 388.84375 181.078125 388.972656 190.585938 388.972656 198.78125 L 388.972656 204.027344 C 388.972656 207.851562 388.871094 210.527344 388.648438 212.054688 C 388.429688 213.585938 387.910156 214.59375 387.09375 215.085938 C 386.273438 215.578125 384.824219 215.824219 382.75 215.824219 L 376.6875 215.660156 L 367.015625 215.660156 L 365.867188 212.546875 C 362.917969 203.152344 360.078125 184.25 357.347656 155.839844 C 356.578125 149.285156 356.199219 144.914062 356.199219 142.730469 C 356.199219 141.527344 356.359375 140.871094 356.6875 140.761719 C 357.238281 140.433594 358.492188 140.269531 360.460938 140.269531 C 363.957031 140.269531 368.328125 140.597656 373.570312 141.253906 " fill-opacity="1" fill-rule="nonzero"/></svg>