<svg xmlns="http://www.w3.org/2000/svg" xmlns:xlink="http://www.w3.org/1999/xlink" width="600" zoomAndPan="magnify" viewBox="0 0 450 449.999984" height="600" preserveAspectRatio="xMidYMid meet" version="1.0"><defs><clipPath id="e17763b22d"><path d="M 46.6875 292 L 95 292 L 95 375 L 46.6875 375 Z M 46.6875 292 " clip-rule="nonzero"/></clipPath></defs><path fill="#907e62" d="M 136.382812 278.535156 C 136.382812 278.535156 131.144531 269.3125 119.6875 272.230469 C 111.871094 274.222656 106.320312 287 106.320312 294.570312 C 107.085938 295.464844 108.582031 295.683594 109.621094 296.539062 C 108.230469 301.929688 106.957031 323.546875 108.027344 334.105469 C 109.03125 344.015625 116.25 351.222656 127.054688 353.128906 C 137.855469 355.035156 158.738281 349.671875 152.746094 341.527344 C 146.757812 333.382812 137.363281 323.546875 137.363281 323.546875 L 124.433594 307.414062 L 136.382812 278.535156 " fill-opacity="1" fill-rule="nonzero"/><path fill="#722621" d="M 143.539062 291.34375 C 143.539062 291.34375 136.632812 295.613281 134.164062 302.914062 C 131.699219 310.214844 137.332031 315.71875 137.332031 315.71875 L 147.832031 325.628906 C 147.832031 325.628906 164.773438 342.273438 144.941406 348.023438 C 129.792969 352.417969 120.621094 349.597656 115.273438 341.527344 C 111.214844 335.402344 110.046875 324.894531 112.652344 304.054688 C 115.046875 284.871094 115.433594 277.40625 126.234375 275.109375 C 137.035156 272.8125 144.566406 284.066406 146.855469 287.4375 C 149.148438 290.804688 148.710938 294.574219 148.710938 294.574219 L 143.539062 291.34375 " fill-opacity="1" fill-rule="nonzero"/><path fill="#621d1b" d="M 147.683594 293.9375 C 147.683594 293.9375 146.097656 295.902344 142.492188 295.605469 C 138.886719 295.304688 134.753906 299.101562 134.164062 302.914062 C 133.574219 306.726562 134.574219 312.925781 137.332031 315.71875 C 140.09375 318.503906 140.8125 319.101562 143.082031 321.195312 C 145.355469 323.289062 154.8125 332.507812 144.941406 336.195312 C 135.074219 339.878906 128.746094 331.480469 125.90625 325.644531 C 123.070312 319.8125 123.882812 308.742188 126.140625 303.285156 C 128.933594 296.539062 130.460938 290.757812 136.585938 287.945312 C 142.710938 285.132812 146.113281 290.085938 147.683594 293.9375 " fill-opacity="1" fill-rule="nonzero"/><path fill="#907e62" d="M 128.984375 331.957031 C 128.53125 331.957031 128.085938 331.714844 127.847656 331.285156 C 127.492188 330.65625 127.714844 329.859375 128.347656 329.503906 C 138.46875 323.820312 148.542969 325.296875 148.972656 325.351562 C 149.683594 325.460938 150.175781 326.128906 150.066406 326.839844 C 149.960938 327.558594 149.28125 328.050781 148.582031 327.9375 C 148.472656 327.925781 138.9375 326.5625 129.625 331.789062 C 129.425781 331.898438 129.207031 331.957031 128.984375 331.957031 " fill-opacity="1" fill-rule="nonzero"/><path fill="#907e62" d="M 124.089844 325.671875 C 123.636719 325.671875 123.191406 325.433594 122.953125 325.003906 C 122.597656 324.375 122.816406 323.578125 123.453125 323.226562 C 133.570312 317.550781 143.660156 319.007812 144.085938 319.066406 C 144.796875 319.171875 145.285156 319.835938 145.179688 320.550781 C 145.070312 321.265625 144.390625 321.777344 143.691406 321.648438 C 143.582031 321.636719 134.035156 320.296875 124.730469 325.503906 C 124.53125 325.617188 124.3125 325.671875 124.089844 325.671875 " fill-opacity="1" fill-rule="nonzero"/><path fill="#907e62" d="M 121.523438 319.546875 C 121.070312 319.546875 120.625 319.304688 120.382812 318.875 C 120.03125 318.246094 120.25 317.449219 120.886719 317.09375 C 131.007812 311.414062 141.085938 312.878906 141.511719 312.9375 C 142.222656 313.046875 142.714844 313.71875 142.605469 314.429688 C 142.5 315.148438 141.8125 315.628906 141.117188 315.527344 C 141.015625 315.511719 131.476562 314.152344 122.164062 319.375 C 121.964844 319.488281 121.746094 319.546875 121.523438 319.546875 " fill-opacity="1" fill-rule="nonzero"/><path fill="#907e62" d="M 119.953125 333.230469 C 118.109375 333.230469 116.476562 332.710938 115.324219 331.65625 C 114.339844 330.75 112.34375 328.082031 115.15625 322.917969 C 119.855469 314.292969 133.214844 312.082031 133.785156 311.988281 C 134.488281 311.890625 135.167969 312.367188 135.28125 313.078125 C 135.394531 313.789062 134.910156 314.457031 134.191406 314.578125 C 134.070312 314.59375 121.539062 316.679688 117.457031 324.171875 C 116.660156 325.636719 115.550781 328.304688 117.09375 329.726562 C 118.570312 331.082031 122.324219 331.019531 126.058594 328.5625 C 132.367188 324.40625 132.679688 316.457031 132.679688 316.378906 C 132.699219 315.660156 133.160156 315.035156 134.023438 315.105469 C 134.746094 315.128906 135.316406 315.730469 135.296875 316.453125 C 135.285156 316.828125 134.96875 325.820312 127.503906 330.75 C 125.011719 332.390625 122.3125 333.230469 119.953125 333.230469 " fill-opacity="1" fill-rule="nonzero"/><path fill="#907e62" d="M 146.699219 328.175781 C 146.097656 328.175781 145.464844 328.136719 144.808594 328.070312 C 137.492188 327.308594 135.125 320.96875 133.84375 317.5625 C 133.585938 316.847656 133.253906 315.96875 133.078125 315.761719 C 132.546875 315.277344 132.519531 314.460938 133.007812 313.925781 C 133.496094 313.390625 134.332031 313.359375 134.867188 313.855469 C 135.457031 314.386719 135.792969 315.285156 136.300781 316.648438 C 137.527344 319.921875 139.378906 324.875 145.078125 325.464844 C 147.855469 325.769531 149.9375 325.335938 151.1875 324.261719 C 152.40625 323.226562 152.496094 321.886719 152.496094 321.828125 C 152.539062 321.113281 153.136719 320.601562 153.863281 320.585938 C 154.578125 320.617188 155.136719 321.210938 155.117188 321.925781 C 155.109375 322.03125 155.015625 324.394531 152.949219 326.199219 C 151.445312 327.507812 149.347656 328.175781 146.699219 328.175781 " fill-opacity="1" fill-rule="nonzero"/><path fill="#fabdbe" d="M 258.15625 141.199219 C 258.15625 141.199219 267.6875 176.566406 269.777344 186.28125 C 270.351562 188.957031 273.484375 201.679688 274.363281 213.945312 C 274.976562 222.402344 280.097656 229.933594 283.199219 235.574219 C 288.460938 245.140625 285.527344 258.304688 281.210938 263.597656 C 275.382812 270.742188 268.847656 270.699219 264.261719 264.488281 C 259.671875 258.273438 256.738281 242.96875 258.15625 237.398438 C 259.570312 231.820312 261.78125 227.097656 261.78125 223.945312 C 261.78125 220.789062 248.125 198.367188 244.632812 190.546875 C 241.144531 182.722656 232.890625 171.742188 229.851562 156.796875 C 227.4375 144.925781 258.15625 141.199219 258.15625 141.199219 " fill-opacity="1" fill-rule="nonzero"/><path fill="#fbc15c" d="M 249.171875 101.675781 C 254.015625 108.972656 263.488281 143.0625 266.609375 157.441406 C 266.609375 157.441406 238.457031 169.84375 229.785156 165.824219 C 223.859375 163.074219 220.851562 146.402344 215.992188 143.664062 C 211.136719 140.921875 221.753906 89.289062 221.753906 89.289062 C 221.753906 89.289062 236.125 82.023438 249.171875 101.675781 " fill-opacity="1" fill-rule="nonzero"/><path fill="#f89da3" d="M 201.078125 73.28125 C 209.03125 73.660156 223.300781 102.136719 223.300781 102.136719 C 223.300781 102.136719 229.894531 126.355469 228.738281 134.460938 C 227.578125 142.570312 211.902344 157.632812 211.902344 157.632812 C 211.902344 157.632812 194.511719 164.582031 181.335938 153 C 168.160156 141.414062 180.449219 102.304688 180.449219 102.304688 C 180.449219 102.304688 189.21875 88.921875 201.078125 73.28125 " fill-opacity="1" fill-rule="nonzero"/><path fill="#8b6947" d="M 254.59375 346.195312 C 257.859375 354.84375 245.878906 359.605469 233.609375 364.804688 C 221.335938 370.007812 210.625 354.710938 210.625 354.710938 C 210.625 354.710938 246.683594 325.222656 254.59375 346.195312 " fill-opacity="1" fill-rule="nonzero"/><g clip-path="url(#e17763b22d)"><path fill="#907e62" d="M 76.78125 299.058594 C 76.78125 299.058594 71.542969 289.832031 60.085938 292.753906 C 52.269531 294.75 46.71875 307.527344 46.71875 315.089844 C 47.484375 315.988281 48.980469 316.203125 50.019531 317.0625 C 48.628906 322.449219 47.355469 344.066406 48.425781 354.628906 C 49.429688 364.539062 56.648438 371.746094 67.453125 373.652344 C 78.253906 375.558594 99.136719 370.191406 93.144531 362.050781 C 87.15625 353.902344 77.761719 344.066406 77.761719 344.066406 L 64.832031 327.9375 L 76.78125 299.058594 " fill-opacity="1" fill-rule="nonzero"/></g><path fill="#722621" d="M 83.9375 311.863281 C 83.9375 311.863281 77.03125 316.136719 74.5625 323.4375 C 72.097656 330.738281 77.730469 336.238281 77.730469 336.238281 L 88.230469 346.148438 C 88.230469 346.148438 105.171875 362.796875 85.339844 368.546875 C 70.191406 372.941406 61.019531 370.121094 55.671875 362.050781 C 51.613281 355.925781 50.445312 345.417969 53.050781 324.578125 C 55.445312 305.394531 55.832031 297.929688 66.632812 295.632812 C 77.433594 293.335938 84.964844 304.589844 87.253906 307.957031 C 89.546875 311.328125 89.109375 315.101562 89.109375 315.101562 L 83.9375 311.863281 " fill-opacity="1" fill-rule="nonzero"/><path fill="#621d1b" d="M 88.082031 314.457031 C 88.082031 314.457031 86.496094 316.425781 82.890625 316.128906 C 79.285156 315.828125 75.152344 319.625 74.5625 323.4375 C 73.972656 327.25 74.972656 333.449219 77.730469 336.238281 C 80.488281 339.027344 81.210938 339.625 83.480469 341.722656 C 85.753906 343.8125 95.210938 353.03125 85.339844 356.714844 C 75.472656 360.402344 69.144531 352.003906 66.304688 346.167969 C 63.46875 340.335938 64.28125 329.265625 66.542969 323.808594 C 69.332031 317.0625 70.859375 311.277344 76.984375 308.46875 C 83.109375 305.660156 86.511719 310.609375 88.082031 314.457031 " fill-opacity="1" fill-rule="nonzero"/><path fill="#907e62" d="M 69.386719 352.476562 C 68.929688 352.476562 68.484375 352.238281 68.246094 351.808594 C 67.894531 351.179688 68.113281 350.382812 68.746094 350.03125 C 78.867188 344.347656 88.941406 345.816406 89.371094 345.875 C 90.082031 345.980469 90.574219 346.652344 90.46875 347.363281 C 90.359375 348.082031 89.679688 348.574219 88.980469 348.460938 C 88.871094 348.449219 79.339844 347.085938 70.023438 352.308594 C 69.824219 352.421875 69.605469 352.476562 69.386719 352.476562 " fill-opacity="1" fill-rule="nonzero"/><path fill="#907e62" d="M 64.488281 346.195312 C 64.035156 346.195312 63.589844 345.957031 63.351562 345.527344 C 62.996094 344.898438 63.21875 344.101562 63.851562 343.746094 C 73.96875 338.074219 84.058594 339.53125 84.484375 339.585938 C 85.191406 339.695312 85.683594 340.359375 85.578125 341.074219 C 85.46875 341.789062 84.789062 342.300781 84.089844 342.171875 C 83.980469 342.15625 74.433594 340.820312 65.128906 346.027344 C 64.929688 346.140625 64.710938 346.195312 64.488281 346.195312 " fill-opacity="1" fill-rule="nonzero"/><path fill="#907e62" d="M 61.921875 340.066406 C 61.46875 340.066406 61.023438 339.824219 60.785156 339.398438 C 60.429688 338.769531 60.648438 337.96875 61.285156 337.621094 C 71.40625 331.941406 81.484375 333.402344 81.910156 333.460938 C 82.621094 333.570312 83.113281 334.238281 83.003906 334.949219 C 82.898438 335.671875 82.210938 336.152344 81.519531 336.046875 C 81.414062 336.035156 71.875 334.671875 62.5625 339.898438 C 62.363281 340.011719 62.144531 340.066406 61.921875 340.066406 " fill-opacity="1" fill-rule="nonzero"/><path fill="#907e62" d="M 60.351562 353.75 C 58.507812 353.75 56.875 353.234375 55.722656 352.175781 C 54.738281 351.273438 52.742188 348.605469 55.554688 343.441406 C 60.257812 334.816406 73.617188 332.605469 74.183594 332.511719 C 74.890625 332.414062 75.570312 332.890625 75.683594 333.601562 C 75.792969 334.3125 75.308594 334.980469 74.59375 335.097656 C 74.46875 335.121094 61.9375 337.203125 57.855469 344.691406 C 57.058594 346.160156 55.949219 348.828125 57.492188 350.25 C 58.964844 351.605469 62.722656 351.542969 66.460938 349.085938 C 72.765625 344.929688 73.078125 336.980469 73.078125 336.902344 C 73.097656 336.183594 73.558594 335.558594 74.421875 335.628906 C 75.144531 335.648438 75.714844 336.253906 75.695312 336.976562 C 75.6875 337.351562 75.367188 346.34375 67.902344 351.273438 C 65.410156 352.914062 62.710938 353.75 60.351562 353.75 " fill-opacity="1" fill-rule="nonzero"/><path fill="#907e62" d="M 87.097656 348.695312 C 86.5 348.695312 85.863281 348.660156 85.207031 348.59375 C 77.890625 347.832031 75.523438 341.492188 74.246094 338.085938 C 73.984375 337.375 73.652344 336.496094 73.476562 336.285156 C 72.945312 335.796875 72.917969 334.988281 73.40625 334.449219 C 73.898438 333.914062 74.730469 333.882812 75.265625 334.375 C 75.855469 334.910156 76.191406 335.808594 76.699219 337.167969 C 77.925781 340.445312 79.777344 345.398438 85.476562 345.984375 C 88.253906 346.292969 90.335938 345.859375 91.585938 344.785156 C 92.804688 343.746094 92.894531 342.410156 92.894531 342.351562 C 92.9375 341.636719 93.535156 341.125 94.261719 341.109375 C 94.976562 341.140625 95.535156 341.734375 95.515625 342.449219 C 95.511719 342.550781 95.414062 344.917969 93.347656 346.722656 C 91.84375 348.03125 89.746094 348.695312 87.097656 348.695312 " fill-opacity="1" fill-rule="nonzero"/><path fill="#fabdbe" d="M 132.917969 303.84375 C 133.253906 298.183594 138.152344 295.714844 143.890625 295.15625 C 145.128906 295.03125 147.578125 294.621094 147.683594 293.9375 C 154.925781 297.507812 178.832031 306.433594 200.613281 317.394531 C 225.394531 329.867188 249.394531 328.175781 249.394531 328.175781 C 249.394531 328.175781 249.433594 358.703125 249.570312 372.128906 C 249.652344 380.117188 245.171875 385.21875 238.832031 387.957031 C 231.984375 390.914062 222.960938 391.117188 215.160156 389.214844 C 209.570312 387.855469 195.570312 376.039062 182.984375 359.328125 C 173.054688 346.15625 148.632812 327.128906 135.828125 315.429688 C 134.863281 311.929688 132.691406 307.683594 132.917969 303.84375 " fill-opacity="1" fill-rule="nonzero"/><path fill="#8b6947" d="M 195.714844 370.308594 C 196.757812 381.242188 180.371094 385.242188 169.21875 382.875 C 158.0625 380.507812 164.550781 362.796875 164.550781 362.796875 C 164.550781 362.796875 194.167969 354.167969 195.714844 370.308594 " fill-opacity="1" fill-rule="nonzero"/><path fill="#fabdbe" d="M 73.316406 324.367188 C 73.652344 318.707031 78.550781 316.238281 84.289062 315.675781 C 85.527344 315.554688 87.976562 315.144531 88.082031 314.457031 C 95.324219 318.027344 119.230469 326.957031 141.015625 337.917969 C 165.789062 350.390625 189.796875 348.695312 189.796875 348.695312 C 189.796875 348.695312 189.832031 379.230469 189.96875 392.652344 C 190.050781 400.640625 185.574219 405.742188 179.230469 408.480469 C 172.382812 411.4375 163.359375 411.636719 155.558594 409.738281 C 149.96875 408.378906 135.96875 396.5625 123.378906 379.851562 C 113.457031 366.679688 89.03125 347.652344 76.226562 335.953125 C 75.261719 332.453125 73.089844 328.207031 73.316406 324.367188 " fill-opacity="1" fill-rule="nonzero"/><path fill="#8b6947" d="M 138.882812 368.707031 L 140.773438 383.53125 C 140.773438 383.53125 138.34375 382.441406 135.300781 377.21875 C 132.253906 372 138.882812 368.707031 138.882812 368.707031 " fill-opacity="1" fill-rule="nonzero"/><path fill="#907e62" d="M 101.730469 269.058594 C 107.25 223.472656 130.777344 216.253906 130.777344 216.253906 L 203.917969 240.519531 C 203.917969 240.519531 212.195312 255.964844 230.585938 287.828125 C 241.65625 306.996094 248.648438 333.011719 254.59375 346.195312 C 240.035156 345.414062 203.234375 352.78125 194 363.664062 C 194.492188 365.332031 195.023438 367.1875 195.613281 369.394531 C 185.433594 364.820312 166.734375 365.492188 158.472656 366.71875 C 151.382812 367.765625 142.621094 372.011719 135.300781 377.21875 C 127.746094 364.457031 96.617188 311.28125 101.730469 269.058594 " fill-opacity="1" fill-rule="nonzero"/><path fill="#6e5e4d" d="M 173.351562 285.226562 C 176.605469 282.871094 181.675781 278.675781 182.511719 274.804688 C 185.546875 260.734375 182.242188 251.59375 182.242188 251.59375 L 191.234375 249.042969 C 191.234375 249.042969 194.496094 273.015625 187.09375 282.964844 C 182.578125 289.039062 178.824219 292.28125 176.566406 293.902344 C 175.628906 290.9375 174.546875 288.042969 173.351562 285.226562 " fill-opacity="1" fill-rule="nonzero"/><path fill="#5a493b" d="M 140.773438 247.214844 C 140.773438 247.214844 141.109375 258.691406 127.679688 267.367188 C 114.25 276.035156 101.167969 278.636719 101.167969 278.636719 L 101.730469 269.058594 C 101.730469 269.058594 111.371094 266.550781 120.214844 261.828125 C 129.058594 257.109375 136.722656 244.925781 136.722656 244.925781 L 140.773438 247.214844 " fill-opacity="1" fill-rule="nonzero"/><path fill="#fce99f" d="M 145.898438 159.289062 C 149.839844 147.847656 133.792969 124.144531 157.949219 109.667969 C 166.375 104.621094 170.839844 102.136719 174.847656 100.285156 C 181.8125 107.734375 185.492188 115.863281 196.847656 126.429688 C 214.863281 143.191406 217.09375 119.816406 217.617188 112.628906 C 218.488281 100.761719 217.46875 90.402344 217.46875 90.402344 C 217.46875 90.402344 235.871094 123.679688 239.144531 137.417969 C 241.335938 146.601562 243.316406 158.125 228.871094 178.039062 C 222.488281 186.851562 219.023438 197.6875 214.949219 211.5625 C 211.878906 222.019531 213.445312 236.84375 213.488281 245.792969 C 200.683594 253.257812 160.628906 260.230469 137.1875 249.519531 C 127.484375 245.085938 117.371094 234.128906 115.21875 225.574219 C 119.980469 214.734375 129.300781 203.640625 132.605469 198.792969 C 137.988281 190.90625 143.652344 165.820312 145.898438 159.289062 " fill-opacity="1" fill-rule="nonzero"/><path fill="#fbc15c" d="M 217.523438 128.054688 C 217.523438 128.054688 219.914062 142.648438 220.011719 154.089844 C 220.109375 166.265625 218.074219 173.503906 218.074219 173.503906 L 209.628906 175.277344 C 209.628906 175.277344 212.882812 143.472656 207.464844 131.542969 C 205.398438 126.988281 217.523438 128.054688 217.523438 128.054688 " fill-opacity="1" fill-rule="nonzero"/><path fill="#fcd873" d="M 223.515625 105.59375 C 223.515625 105.59375 227.242188 113.167969 230.003906 119.265625 C 232.765625 125.363281 230.574219 128.726562 231.996094 134.121094 C 233.417969 139.511719 235.484375 140.792969 235.484375 140.792969 C 235.484375 140.792969 227.15625 141.015625 225.511719 135.65625 C 223.875 130.300781 222.382812 128.289062 220.082031 130.144531 C 217.78125 132 213.476562 133.140625 213.476562 133.140625 L 210.625 129.65625 L 214.96875 103.808594 L 223.515625 105.59375 " fill-opacity="1" fill-rule="nonzero"/><path fill="#fcd873" d="M 188.859375 91.015625 C 188.859375 91.015625 186.445312 106.132812 192.511719 111.648438 C 198.574219 117.160156 207.566406 121.757812 210.703125 126.226562 C 213.839844 130.695312 213.472656 133.144531 213.472656 133.144531 C 213.472656 133.144531 210.757812 133.082031 208.75 138.609375 C 206.746094 144.132812 203.371094 148.097656 203.371094 148.097656 C 203.371094 148.097656 200.609375 139.027344 191.753906 134.628906 C 182.894531 130.234375 179.917969 124.292969 178.527344 120.617188 C 175.941406 113.785156 173.039062 103.597656 174.847656 100.285156 C 177.222656 95.9375 184.835938 88.554688 188.859375 91.015625 " fill-opacity="1" fill-rule="nonzero"/><path fill="#fabdbe" d="M 238.460938 49.953125 C 249.691406 65.597656 237.488281 112.320312 217.621094 112.628906 C 204.734375 112.824219 188.664062 99.078125 185.460938 76.167969 C 182.777344 56.972656 217.210938 20.339844 238.460938 49.953125 " fill-opacity="1" fill-rule="nonzero"/><path fill="#722621" d="M 155.238281 28.066406 C 157.949219 16.472656 170.605469 19.074219 170.605469 19.074219 C 170.605469 19.074219 165.175781 8.007812 172.75 4.253906 C 177.195312 2.054688 183.285156 5.78125 183.285156 5.78125 C 183.285156 5.78125 189.910156 0.00390625 195.574219 1.648438 C 201.242188 3.292969 203.394531 15.484375 203.394531 15.484375 C 203.394531 15.484375 209.695312 11.960938 217.289062 17.496094 C 224.878906 23.03125 222.328125 39.019531 222.328125 39.019531 C 222.328125 39.019531 183.4375 61.917969 182.789062 63.527344 C 182.144531 65.132812 169.457031 59.894531 166.605469 51.007812 C 161.476562 53.574219 163.339844 61.554688 163.339844 61.554688 C 163.339844 61.554688 158.3125 58.289062 157.253906 54.164062 C 156.195312 50.042969 161.253906 43.664062 161.253906 43.664062 C 161.253906 43.664062 152.894531 44.273438 150.191406 40.089844 C 153.832031 37.792969 153.460938 35.667969 155.238281 28.066406 " fill-opacity="1" fill-rule="nonzero"/><path fill="#621d1b" d="M 184.582031 43.984375 C 186.429688 35.527344 192.253906 34.667969 197.535156 35.425781 C 201.367188 29.492188 207.863281 30.617188 213.925781 31.308594 C 220.273438 32.027344 231.125 36.574219 238.535156 41.359375 C 248.679688 47.914062 242.890625 62.207031 242.890625 62.207031 C 242.890625 62.207031 224.398438 68.183594 205.082031 62.289062 C 201.851562 64.691406 200.394531 68.804688 198.183594 72.792969 C 188.382812 64.351562 185.460938 76.167969 190.574219 83.5625 C 191.871094 86.792969 188.859375 91.011719 188.859375 91.011719 C 188.859375 91.011719 173.882812 75.070312 179.335938 55.945312 C 179.644531 51.855469 180.40625 46.589844 184.582031 43.984375 " fill-opacity="1" fill-rule="nonzero"/><path fill="#fabdbe" d="M 118.269531 176.0625 C 122.664062 161.003906 149.671875 193.265625 149.671875 193.265625 L 143.445312 203.492188 C 143.445312 203.492188 195.039062 233.691406 205.046875 235.867188 C 215.054688 238.042969 226.417969 239.042969 232.832031 241.996094 C 239.257812 244.957031 240.070312 246.929688 236.945312 247.914062 C 233.824219 248.902344 228.882812 248.902344 226.417969 247.914062 C 223.945312 246.929688 221.476562 249.398438 225.425781 251.371094 C 229.378906 253.347656 238.097656 261.617188 243.046875 266.054688 C 247.992188 270.5 247.078125 278.636719 240.011719 278.636719 C 233.539062 278.636719 216.910156 275.0625 210.980469 265.6875 C 205.054688 256.308594 202.621094 252.851562 198.015625 250.878906 C 193.414062 248.902344 171.050781 245.554688 153.847656 239.664062 C 136.839844 233.835938 118.269531 222.789062 114.308594 217.636719 C 112.753906 215.617188 111.929688 211.015625 112.425781 205.332031 C 113.1875 196.5 114.230469 189.910156 118.269531 176.0625 " fill-opacity="1" fill-rule="nonzero"/><path fill="#fcd873" d="M 200.097656 153.519531 C 200.097656 153.519531 202.34375 168.046875 200.042969 177.863281 C 197.742188 187.679688 171.179688 195.65625 171.421875 179.445312 C 171.648438 164.015625 170.585938 157.441406 170.585938 157.441406 L 200.097656 153.519531 " fill-opacity="1" fill-rule="nonzero"/><path fill="#ffffff" d="M 196.988281 157.441406 L 196.808594 161.25 L 175.4375 164.140625 L 175.4375 160.40625 L 196.988281 157.441406 " fill-opacity="1" fill-rule="nonzero"/><path fill="#fbc15c" d="M 112.28125 177.863281 C 115.21875 164.144531 119.246094 152.171875 121.605469 142.746094 C 128.113281 116.78125 140.613281 110.050781 155.820312 111.035156 C 161.828125 116.28125 169.320312 127.75 166.0625 153.519531 C 165.285156 159.664062 159.582031 179.988281 151.96875 191.757812 C 144.773438 194.941406 120.800781 191.367188 112.28125 177.863281 " fill-opacity="1" fill-rule="nonzero"/><path fill="#907e62" d="M 124.804688 146.53125 C 123.484375 151.394531 127.960938 156.839844 134.800781 158.691406 C 141.644531 160.542969 148.257812 158.101562 149.574219 153.238281 C 150.894531 148.375 146.417969 142.929688 139.574219 141.078125 C 132.734375 139.222656 126.121094 141.664062 124.804688 146.53125 " fill-opacity="1" fill-rule="nonzero"/><path fill="#6e5e4d" d="M 140.773438 293.472656 C 140.773438 293.472656 155.667969 326.417969 157.269531 334.027344 C 158.871094 341.628906 147.324219 344.261719 137.191406 348.695312 C 127.054688 353.128906 118.898438 358.789062 111.265625 340.066406 C 103.628906 321.34375 106.320312 318.855469 105.53125 309.488281 C 104.71875 299.847656 140.773438 293.472656 140.773438 293.472656 " fill-opacity="1" fill-rule="nonzero"/><path fill="#5a493b" d="M 136.722656 303.078125 C 136.722656 303.078125 139.71875 309.042969 127.054688 314.457031 C 114.390625 319.871094 106.351562 322.265625 106.351562 322.265625 L 105.695312 314.457031 C 105.695312 314.457031 116.035156 311.398438 122.785156 309.488281 C 129.53125 307.574219 136.722656 303.078125 136.722656 303.078125 " fill-opacity="1" fill-rule="nonzero"/><path fill="#6e5e4d" d="M 176.566406 293.902344 C 177.800781 297.171875 194 363.664062 194 363.664062 L 204.855469 356.445312 L 182.648438 281.5625 L 175.453125 287.121094 L 176.566406 293.902344 " fill-opacity="1" fill-rule="nonzero"/><path fill="#f78f36" d="M 263.96875 236.84375 C 263.648438 239.933594 262.945312 252.71875 258.789062 268.628906 C 254.628906 284.539062 255.890625 295.089844 256.679688 301.402344 C 257.46875 307.714844 259.808594 320.117188 257.929688 323.375 C 245.792969 320.957031 242.972656 331.710938 249.75 338.457031 C 258.789062 347.441406 270.636719 345.148438 271.367188 339.761719 C 273.640625 322.988281 277.382812 305.347656 277.382812 305.347656 L 263.96875 236.84375 " fill-opacity="1" fill-rule="nonzero"/><path fill="#f9af35" d="M 246.832031 185.796875 C 246.832031 185.796875 252.757812 190.191406 269.257812 195.902344 C 285.757812 201.613281 287.898438 214.34375 285.222656 231.230469 C 282.550781 248.125 267.761719 251.042969 256.886719 251.515625 C 250.042969 251.808594 249.492188 251.613281 241.183594 244.925781 C 230.539062 236.367188 228.9375 223.851562 228.175781 220.710938 C 226.132812 212.253906 221.527344 202.921875 223.472656 197.300781 C 225.421875 191.683594 237.546875 180.855469 246.832031 185.796875 " fill-opacity="1" fill-rule="nonzero"/><path fill="#f9af35" d="M 279.675781 220.714844 L 285.980469 225.105469 C 285.980469 225.105469 282.710938 242.660156 294.324219 267.101562 C 298.316406 275.503906 324.480469 307.300781 332.394531 325.730469 C 340.3125 344.164062 343.179688 353.539062 326.71875 370.429688 C 324.433594 372.773438 304.085938 376.660156 302.015625 378.847656 C 289.167969 392.410156 289.566406 402.054688 282.976562 396.8125 C 264.964844 382.488281 266.121094 370.832031 264.601562 354.390625 C 264.207031 350.125 261.136719 336.632812 254.59375 326.664062 C 247.128906 315.28125 243.722656 313.078125 240.121094 294.851562 C 236.753906 277.8125 240.589844 252.683594 241.898438 237.640625 C 243.199219 222.597656 279.675781 220.714844 279.675781 220.714844 " fill-opacity="1" fill-rule="nonzero"/><path fill="#f9af35" d="M 332.394531 325.730469 C 344.464844 344.097656 338.066406 364.683594 348.714844 371.167969 C 359.363281 377.65625 354.109375 390.605469 350.828125 405.414062 C 347.550781 420.222656 343.996094 431.644531 335.480469 433.738281 C 326.96875 435.832031 308.449219 423.398438 316.644531 416.492188 C 324.835938 409.582031 329.804688 414.761719 329.804688 414.761719 C 329.804688 414.761719 339.027344 399.917969 335.480469 394.109375 C 331.933594 388.296875 313.417969 381.460938 316.644531 360.046875 C 319.867188 338.636719 332.394531 325.730469 332.394531 325.730469 " fill-opacity="1" fill-rule="nonzero"/><path fill="#f9af35" d="M 290.925781 352.8125 C 291.636719 354.941406 297.765625 378.851562 308.414062 385.339844 C 319.0625 391.828125 313.808594 404.777344 310.53125 419.585938 C 307.25 434.394531 303.695312 445.816406 295.179688 447.910156 C 286.664062 450.003906 268.148438 437.570312 276.34375 430.660156 C 284.535156 423.753906 289.503906 428.933594 289.503906 428.933594 C 289.503906 428.933594 298.726562 414.089844 295.179688 408.28125 C 291.636719 402.46875 273.117188 395.632812 276.34375 374.222656 C 279.570312 352.804688 290.925781 352.8125 290.925781 352.8125 " fill-opacity="1" fill-rule="nonzero"/><path fill="#f78f36" d="M 274.296875 205.09375 C 274.296875 205.09375 285.757812 190.410156 294.527344 200.960938 C 303.296875 211.507812 286.1875 220.820312 286.1875 220.820312 C 286.1875 220.820312 284.335938 206.480469 274.296875 205.09375 " fill-opacity="1" fill-rule="nonzero"/><path fill="#f78f36" d="M 257.871094 207.796875 C 257.871094 207.796875 243.972656 199.289062 236.671875 212.640625 C 229.859375 225.105469 242.253906 228.535156 242.253906 228.535156 C 242.253906 228.535156 247.929688 214.726562 257.871094 207.796875 " fill-opacity="1" fill-rule="nonzero"/><path fill="#fbc885" d="M 250.203125 187.832031 C 250.203125 187.832031 241.363281 185.84375 234.628906 190.402344 C 228.175781 194.761719 224.636719 208.984375 224.636719 208.984375 C 224.636719 208.984375 216.875 199.800781 226.988281 189.335938 C 234.929688 181.125 238.347656 183.96875 243.316406 183.90625 C 248.285156 183.839844 250.203125 187.832031 250.203125 187.832031 " fill-opacity="1" fill-rule="nonzero"/><path fill="#722621" d="M 243.316406 183.90625 C 240.121094 181.960938 233.910156 181.601562 229.828125 184.21875 C 226.488281 186.359375 226.988281 189.335938 226.988281 189.335938 C 226.988281 189.335938 236.21875 184.539062 243.316406 183.90625 " fill-opacity="1" fill-rule="nonzero"/><path fill="#f78f36" d="M 244.738281 196.230469 C 245.730469 195.699219 237.613281 194.667969 235.140625 200.960938 C 232.671875 207.25 234.628906 207.796875 234.628906 207.796875 C 234.628906 207.796875 240.121094 198.6875 244.738281 196.230469 " fill-opacity="1" fill-rule="nonzero"/><path fill="#f78f36" d="M 266.609375 194.964844 C 266.609375 194.964844 260.707031 189.335938 256.921875 192.992188 C 260.234375 193.824219 266.609375 194.964844 266.609375 194.964844 " fill-opacity="1" fill-rule="nonzero"/><path fill="#f9af35" d="M 241.183594 244.925781 C 240.859375 248.019531 240.15625 260.808594 236 276.714844 C 231.839844 292.625 233.101562 303.175781 233.890625 309.488281 C 234.679688 315.800781 237.019531 328.203125 235.140625 331.460938 C 223.003906 329.042969 220.183594 339.796875 226.960938 346.542969 C 236 355.53125 247.847656 353.234375 248.578125 347.847656 C 250.851562 331.074219 254.59375 313.433594 254.59375 313.433594 L 241.183594 244.925781 " fill-opacity="1" fill-rule="nonzero"/><path fill="#f9af35" d="M 321.648438 345.347656 C 326.847656 348.820312 326.882812 355.238281 332.765625 367.730469 C 336.78125 376.265625 351.613281 397.101562 369.644531 407.261719 C 387.675781 417.421875 405.152344 425.550781 400.238281 435.921875 C 395.320312 446.300781 375.519531 427.734375 362.203125 420.636719 C 348.886719 413.535156 319.929688 386.574219 311.015625 370.066406 C 305.117188 359.144531 311.9375 338.867188 321.648438 345.347656 " fill-opacity="1" fill-rule="nonzero"/><path fill="#fabdbe" d="M 284.492188 240.867188 C 280.941406 243.257812 277.03125 247.679688 275.828125 253.570312 C 274.363281 260.753906 276.71875 269.1875 285.980469 267.015625 C 302.84375 263.074219 299.835938 254.332031 296.632812 245.605469 C 293.425781 236.882812 285.628906 231.230469 285.628906 231.230469 C 285.628906 231.230469 282.976562 235.726562 284.492188 240.867188 " fill-opacity="1" fill-rule="nonzero"/></svg>