<svg xmlns="http://www.w3.org/2000/svg" xmlns:xlink="http://www.w3.org/1999/xlink" width="600" zoomAndPan="magnify" viewBox="0 0 450 449.999984" height="600" preserveAspectRatio="xMidYMid meet" version="1.0"><defs><clipPath id="8523bf1cb3"><path d="M 59.0625 271 L 90 271 L 90 330 L 59.0625 330 Z M 59.0625 271 " clip-rule="nonzero"/></clipPath></defs><path fill="#faeff5" d="M 159.585938 338.085938 C 162.644531 340.390625 166.191406 341.960938 169.378906 344.082031 C 172.566406 346.207031 174.832031 346.882812 176.589844 350.285156 C 179.710938 356.324219 175.488281 361.082031 171.792969 362.09375 C 170.574219 362.425781 169.285156 362.363281 168.03125 362.210938 C 164.671875 361.8125 161.402344 360.824219 158.300781 359.476562 C 156.167969 358.550781 154.089844 357.441406 152.34375 355.914062 C 151.035156 354.773438 149.9375 353.421875 148.746094 352.164062 C 145.417969 348.652344 141.339844 345.859375 136.859375 344.03125 C 134.785156 343.179688 132.460938 342.410156 131.25 340.523438 C 130.242188 338.953125 130.25 336.960938 130.289062 335.097656 C 130.359375 331.777344 130.433594 328.460938 130.503906 325.144531 C 130.519531 324.460938 130.558594 323.710938 131.011719 323.195312 C 131.601562 322.53125 132.625 322.539062 133.511719 322.597656 C 136.695312 322.808594 139.882812 323.019531 143.070312 323.230469 C 146.15625 323.433594 147.527344 323.03125 149.222656 325.671875 C 152.050781 330.082031 155.125 335.117188 159.585938 338.085938 " fill-opacity="1" fill-rule="nonzero"/><path fill="#6f181f" d="M 159.585938 334.582031 C 162.644531 336.878906 166.191406 338.453125 169.378906 340.578125 C 172.566406 342.699219 175.515625 345.589844 176.421875 349.304688 C 177.335938 353.019531 175.488281 357.574219 171.792969 358.585938 C 170.574219 358.921875 169.285156 358.851562 168.03125 358.703125 C 164.671875 358.304688 161.402344 357.316406 158.300781 355.96875 C 156.167969 355.046875 154.089844 353.9375 152.34375 352.40625 C 151.035156 351.265625 149.9375 349.914062 148.746094 348.65625 C 145.417969 345.144531 141.339844 342.351562 136.859375 340.519531 C 134.785156 339.671875 132.460938 338.90625 131.25 337.019531 C 130.242188 335.445312 130.25 333.457031 130.289062 331.589844 C 130.359375 328.273438 130.433594 324.953125 130.503906 321.640625 C 130.519531 320.949219 130.558594 320.203125 131.011719 319.6875 C 131.601562 319.027344 132.625 319.03125 133.511719 319.089844 C 136.695312 319.300781 139.882812 319.511719 143.070312 319.722656 C 146.15625 319.925781 147.527344 319.523438 149.222656 322.167969 C 152.050781 326.578125 155.125 331.609375 159.585938 334.582031 " fill-opacity="1" fill-rule="nonzero"/><path fill="#1d4967" d="M 212.871094 140.332031 L 222.433594 140.332031 L 227.40625 141.597656 C 227.40625 141.597656 230.039062 143.839844 229.355469 147.933594 C 228.675781 152.023438 227.113281 153.875 224.382812 154.652344 C 221.652344 155.433594 221.554688 155.921875 219.503906 154.753906 L 212.871094 140.332031 " fill-opacity="1" fill-rule="nonzero"/><path fill="#3b7599" d="M 144.179688 46.898438 C 149.257812 49.136719 154.515625 51.507812 158.136719 55.714844 C 163.734375 62.222656 164.183594 71.507812 166.3125 79.816406 C 167.773438 85.527344 172.453125 105.128906 175.003906 107.324219 C 176.527344 108.640625 178.371094 109.515625 180.113281 110.515625 C 182.878906 112.105469 185.445312 114.046875 187.722656 116.273438 C 190.023438 118.523438 196.472656 131.105469 203.480469 139.847656 C 201.335938 138.578125 199.035156 139.894531 197.335938 142.378906 C 195.632812 144.863281 193.949219 149.851562 195.128906 152.625 C 191.320312 150.121094 166.4375 129.128906 159.882812 121.570312 C 157.015625 118.261719 156.40625 111.085938 154.390625 107.199219 C 149.847656 98.429688 145.75 89.433594 142.113281 80.253906 C 140.738281 76.785156 139.417969 73.246094 138.964844 69.539062 C 138.070312 62.269531 140.699219 55.09375 143.351562 48.265625 L 144.179688 46.898438 " fill-opacity="1" fill-rule="nonzero"/><path fill="#f57d6f" d="M 215.195312 143.386719 C 215.269531 143.1875 215.925781 143.421875 216.09375 143.550781 C 220.566406 147.003906 223.273438 152.625 223.1875 158.269531 C 219.132812 155.589844 214.816406 153.652344 210.746094 151.003906 C 210.1875 152.921875 210.476562 154.285156 211.09375 156.1875 C 211.304688 156.835938 211.578125 157.550781 211.296875 158.175781 C 210.085938 160.894531 210.113281 164.136719 211.378906 166.835938 C 211.679688 167.480469 212.054688 168.246094 211.695312 168.867188 C 211.402344 169.363281 210.714844 169.523438 210.15625 169.359375 C 209.601562 169.195312 209.15625 168.789062 208.757812 168.367188 C 206.851562 166.328125 205.648438 163.640625 205.40625 160.863281 C 205.257812 159.222656 203.375 158.410156 202.367188 157.105469 C 200.976562 155.296875 201.144531 152.308594 199.136719 151.222656 C 196.714844 149.914062 195.363281 146.894531 196 144.21875 C 196.664062 141.546875 199.125 139.53125 201.878906 139.375 C 201.394531 139.613281 206.632812 140.917969 207.855469 141.269531 C 210.300781 141.972656 212.746094 142.679688 215.195312 143.386719 " fill-opacity="1" fill-rule="nonzero"/><path fill="#3b7599" d="M 161.410156 238.113281 C 158.871094 266.386719 151.800781 294.667969 155.363281 322.832031 C 155.503906 323.945312 155.660156 325.09375 155.351562 326.171875 C 155.054688 327.195312 154.363281 328.066406 153.582031 328.792969 C 148.820312 333.21875 140.972656 332.613281 135.429688 329.214844 C 132.617188 327.492188 130.0625 324.917969 129.519531 321.664062 C 129.25 320.039062 129.503906 318.378906 129.71875 316.742188 C 131.183594 305.472656 130.65625 293.945312 128.167969 282.855469 C 127.511719 279.941406 126.71875 277.027344 126.664062 274.042969 C 126.566406 268.5625 128.945312 263.390625 130.359375 258.097656 C 133.171875 247.570312 132.175781 236.367188 129.808594 225.730469 C 127.445312 215.09375 123.75 204.800781 121.132812 194.21875 C 118.402344 183.179688 116.957031 171.070312 121.824219 160.789062 C 122.667969 159.007812 123.742188 157.257812 125.371094 156.144531 C 127.183594 154.914062 129.453125 154.617188 131.628906 154.351562 C 135.484375 153.886719 139.339844 153.421875 143.195312 152.957031 C 145.914062 152.628906 150.257812 151.203125 152.921875 152.171875 C 157.613281 153.875 157.652344 163.785156 158.371094 167.832031 C 160.988281 182.578125 162.355469 197.542969 162.464844 212.519531 C 162.523438 221.0625 162.175781 229.605469 161.410156 238.113281 " fill-opacity="1" fill-rule="nonzero"/><g clip-path="url(#8523bf1cb3)"><path fill="#faeff5" d="M 61.183594 280.777344 C 59.144531 289.109375 59.386719 303.984375 62.460938 315.066406 C 62.914062 316.695312 63.453125 318.3125 64.203125 319.832031 C 65.921875 323.320312 68.808594 326.285156 72.40625 327.765625 C 76.003906 329.246094 85 330.082031 87.492188 327.097656 C 91.148438 322.714844 88.828125 321.765625 89.390625 320.375 C 89.890625 319.144531 87.152344 321.304688 87.132812 319.976562 C 87.074219 315.996094 87.003906 311.925781 85.65625 308.175781 C 84.507812 304.988281 82.484375 302.175781 81.292969 299.003906 C 80.15625 295.972656 79.808594 292.703125 79.679688 289.46875 C 79.597656 287.320312 79.601562 285.125 78.933594 283.078125 C 77.855469 279.746094 75.160156 277.226562 72.566406 274.867188 C 70.972656 273.414062 67.503906 270.261719 65.269531 272.148438 C 64.367188 272.910156 63.882812 274.675781 63.390625 275.695312 C 63.035156 276.4375 61.511719 279.433594 61.183594 280.777344 " fill-opacity="1" fill-rule="nonzero"/></g><path fill="#6f181f" d="M 63.347656 278.867188 C 63.222656 278.902344 63.289062 278.644531 63.40625 278.691406 C 63.523438 278.738281 63.535156 278.894531 63.523438 279.023438 C 62.640625 290.488281 61.726562 302.230469 64.800781 313.3125 C 65.253906 314.945312 65.792969 316.558594 66.542969 318.078125 C 68.261719 321.566406 71.148438 324.535156 74.746094 326.015625 C 78.34375 327.492188 82.644531 327.375 85.984375 325.382812 C 87.277344 324.617188 88.445312 323.539062 89.007812 322.148438 C 89.503906 320.917969 89.492188 319.550781 89.472656 318.222656 C 89.417969 314.238281 89.34375 310.171875 87.996094 306.421875 C 86.851562 303.234375 84.824219 300.421875 83.632812 297.246094 C 82.496094 294.21875 82.148438 290.949219 82.023438 287.71875 C 81.9375 285.566406 81.941406 283.375 81.277344 281.328125 C 80.195312 277.992188 77.5 275.472656 74.910156 273.113281 C 73.3125 271.660156 69.84375 268.511719 67.613281 270.394531 C 66.707031 271.15625 66.226562 272.921875 65.730469 273.945312 C 65.375 274.683594 64.039062 278.664062 63.347656 278.867188 " fill-opacity="1" fill-rule="nonzero"/><path fill="#41839e" d="M 137.472656 164.898438 C 138.4375 179.695312 134.183594 194.378906 128.414062 208.042969 C 126.742188 211.996094 124.941406 215.898438 123.433594 219.917969 C 119.726562 229.808594 117.835938 240.292969 116.738281 250.796875 C 116.378906 254.230469 116.09375 257.707031 115.003906 260.980469 C 113.914062 264.257812 111.90625 267.371094 108.875 269.03125 C 102.878906 272.316406 94.121094 269.46875 89.523438 274.527344 C 86.816406 277.503906 86.710938 282.246094 83.851562 285.082031 C 81.183594 287.726562 76.652344 287.847656 73.390625 285.976562 C 70.128906 284.105469 68.042969 280.628906 67.042969 277.007812 C 65.125 270.050781 66.78125 262.632812 68.976562 255.761719 C 70.066406 252.363281 71.382812 248.855469 74.046875 246.480469 C 76.710938 244.101562 81.113281 243.296875 83.816406 245.632812 C 82.496094 242.515625 82.632812 239.003906 82.796875 235.621094 C 83.636719 218.136719 84.476562 200.65625 85.316406 183.171875 C 85.527344 178.753906 85.742188 174.3125 86.667969 169.984375 C 87.835938 164.539062 90.105469 159.382812 92.761719 154.484375 C 93.011719 154.027344 93.292969 153.542969 93.761719 153.320312 C 94.300781 153.066406 94.9375 153.222656 95.507812 153.398438 C 101.816406 155.3125 107.582031 158.726562 113.878906 160.683594 C 121.0625 162.914062 128.6875 164.007812 136.210938 164.007812 L 137.472656 164.898438 " fill-opacity="1" fill-rule="nonzero"/><path fill="#4a99af" d="M 155.328125 53.5625 C 155.140625 53.910156 155.332031 54.332031 155.519531 54.679688 C 160.808594 64.53125 161.386719 76.132812 161.851562 87.300781 C 162.042969 91.917969 162.226562 96.613281 161.121094 101.101562 C 160.097656 105.25 158.003906 109.0625 156.714844 113.140625 C 154.125 121.324219 154.871094 130.183594 156.464844 138.617188 C 158.054688 147.050781 160.46875 155.355469 161.164062 163.910156 C 161.265625 165.164062 159.898438 166.570312 160.648438 167.578125 C 162.003906 169.414062 139.835938 182.371094 109.289062 173.941406 C 102.53125 172.082031 90.925781 163.796875 90.476562 162.921875 C 89.488281 160.988281 90.234375 158.667969 90.914062 156.605469 C 97.433594 136.847656 96.597656 115.316406 92.511719 94.921875 C 91.324219 88.996094 89.902344 82.667969 92.203125 77.082031 C 93.554688 73.789062 96.074219 71.132812 98.613281 68.636719 C 106.097656 61.285156 114.484375 54.503906 124.363281 50.960938 C 128.398438 49.515625 132.949219 48.652344 136.910156 50.292969 C 136.5 50.128906 136.082031 49.832031 135.941406 49.5625 C 142.433594 50.589844 148.890625 52.226562 155.328125 53.5625 " fill-opacity="1" fill-rule="nonzero"/><path fill="#52c0c3" d="M 123.527344 49.675781 C 123.953125 49.070312 126.992188 45.351562 117.464844 50.253906 C 113.167969 52.464844 110.535156 58.902344 110.535156 58.902344 C 110.535156 58.902344 111.839844 63.792969 115.179688 70.171875 C 118.519531 76.546875 121.761719 78.417969 121.761719 78.417969 L 125.128906 76.472656 L 123.96875 84.464844 C 123.96875 84.464844 137.765625 86.621094 139.589844 89.609375 C 141.414062 92.601562 134.867188 77.429688 130.875 74.351562 C 126.886719 71.269531 121.164062 65.410156 119.621094 62.074219 C 118.082031 58.738281 120.664062 53.75 123.527344 49.675781 " fill-opacity="1" fill-rule="nonzero"/><path fill="#52c0c3" d="M 133.050781 46.851562 L 130.628906 44.003906 L 130.191406 49.28125 C 130.191406 49.28125 135.472656 49.941406 137.464844 62.074219 C 138.171875 66.382812 139.59375 89.609375 139.59375 89.609375 L 146.53125 73.878906 L 141.195312 69.511719 L 146.53125 69.460938 C 146.53125 69.460938 145.378906 50.796875 133.050781 46.851562 " fill-opacity="1" fill-rule="nonzero"/><path fill="#eb6e6e" d="M 140.390625 66.929688 C 139.789062 67.824219 139.1875 68.75 138.898438 69.792969 C 138.59375 70.882812 138.648438 72.03125 138.703125 73.160156 C 138.945312 78.074219 139.1875 82.988281 139.425781 87.902344 C 136.546875 82.03125 133.703125 77.265625 128.722656 73.027344 C 127.171875 71.707031 125.289062 69.316406 123.769531 67.957031 C 122.210938 66.5625 120.871094 64.917969 119.820312 63.113281 C 118.433594 60.738281 117.539062 57.871094 118.324219 55.234375 C 119.488281 51.320312 123.855469 49.207031 125.660156 45.542969 C 125.785156 45.289062 125.910156 45.015625 126.148438 44.859375 C 126.601562 44.566406 127.195312 44.847656 127.65625 45.132812 C 132.800781 48.28125 137.949219 51.429688 143.09375 54.578125 C 143.871094 55.050781 146.414062 56.054688 146.800781 56.839844 C 147.335938 57.921875 146.191406 58.753906 145.398438 59.820312 C 143.667969 62.140625 142 64.515625 140.390625 66.929688 " fill-opacity="1" fill-rule="nonzero"/><path fill="#f03c49" d="M 157.773438 23.878906 C 157.535156 22.335938 156.972656 20.863281 156.339844 19.4375 C 153.941406 14.050781 150.039062 8.878906 144.421875 7.066406 C 142.398438 6.414062 140.253906 6.230469 138.128906 6.132812 C 135.824219 6.019531 133.492188 6 131.242188 6.519531 C 129.03125 7.03125 126.96875 8.054688 124.992188 9.171875 C 121.441406 11.183594 117.890625 13.804688 116.546875 17.652344 C 115.71875 20.023438 115.824219 22.601562 115.933594 25.105469 C 116.105469 28.839844 116.28125 32.621094 117.351562 36.203125 C 118.214844 39.082031 119.652344 41.832031 119.871094 44.828125 C 119.960938 43.9375 120.046875 43.042969 120.132812 42.152344 C 120.695312 44.160156 121.253906 46.164062 121.816406 48.167969 C 122.5625 46.835938 123.308594 45.507812 124.054688 44.171875 C 124.144531 44.011719 124.246094 43.84375 124.417969 43.777344 C 124.660156 43.679688 124.921875 43.839844 125.132812 43.988281 C 126.355469 44.84375 127.722656 45.746094 129.207031 45.589844 C 130.632812 45.433594 131.746094 44.351562 132.863281 43.453125 C 134.003906 42.539062 135.261719 41.773438 136.597656 41.175781 C 136.957031 41.015625 137.335938 40.867188 137.726562 40.875 C 138.425781 40.898438 139.011719 41.410156 139.695312 41.566406 C 141.367188 41.953125 142.664062 40.207031 144.101562 39.269531 C 146.003906 38.027344 148.503906 38.152344 150.535156 37.140625 C 152.257812 36.28125 153.480469 34.691406 154.636719 33.15625 C 155.21875 32.382812 155.753906 31.527344 156.402344 30.8125 C 157.046875 30.097656 157.351562 30.308594 157.621094 29.386719 C 158.105469 27.746094 158.035156 25.550781 157.773438 23.878906 " fill-opacity="1" fill-rule="nonzero"/><path fill="#f57d6f" d="M 160.652344 35.371094 C 160.851562 36.511719 161.019531 37.6875 160.765625 38.816406 C 160.609375 39.523438 160.289062 40.1875 160.105469 40.886719 C 159.449219 43.371094 160.503906 46.183594 159.359375 48.480469 C 158.871094 49.453125 158.042969 50.207031 157.417969 51.097656 C 155.007812 54.535156 156.015625 59.3125 154.527344 63.234375 C 154.230469 64.011719 153.800781 64.792969 153.082031 65.207031 C 152.3125 65.65625 151.359375 65.601562 150.476562 65.507812 C 147.378906 65.179688 144.316406 64.488281 141.378906 63.453125 C 139.542969 62.804688 137.746094 62.023438 136.132812 60.945312 C 131.582031 57.902344 128.867188 52.832031 126.578125 47.867188 C 125.300781 48.21875 124.054688 47.25 123.183594 46.253906 C 121.515625 44.351562 120.273438 42.085938 119.5625 39.660156 C 119.132812 38.175781 118.9375 36.445312 119.847656 35.199219 C 120 34.992188 120.195312 34.792969 120.445312 34.722656 C 120.6875 34.652344 120.945312 34.710938 121.1875 34.78125 C 122.890625 35.300781 124.324219 36.632812 124.960938 38.296875 C 125.515625 39.753906 125.683594 41.667969 127.128906 42.261719 C 127.976562 42.601562 128.980469 42.296875 129.679688 41.703125 C 130.375 41.109375 130.820312 40.285156 131.214844 39.457031 C 132.476562 36.792969 133.351562 33.945312 133.796875 31.035156 C 134.050781 29.410156 134.359375 27.480469 135.84375 26.769531 C 137.214844 26.109375 138.8125 26.886719 140.128906 27.648438 C 141.941406 28.691406 143.753906 29.738281 145.5625 30.785156 C 146.988281 31.605469 148.46875 32.445312 150.105469 32.578125 C 151.414062 32.683594 152.707031 32.332031 153.96875 31.976562 C 154.460938 31.839844 154.976562 31.691406 155.347656 31.332031 C 155.664062 31.023438 155.832031 30.601562 155.972656 30.179688 C 156.429688 28.847656 156.71875 27.460938 156.828125 26.054688 C 156.898438 25.214844 156.46875 23.289062 157.257812 22.773438 C 158.328125 24.433594 158.746094 27.039062 159.253906 28.953125 C 159.8125 31.070312 160.28125 33.214844 160.652344 35.371094 " fill-opacity="1" fill-rule="nonzero"/><path fill="#f03c49" d="M 129.773438 9.6875 C 131.601562 7.679688 133.429688 5.675781 135.257812 3.671875 C 136.632812 2.167969 138.097656 0.601562 140.042969 -0.0117188 C 139.910156 1.089844 139.78125 2.191406 139.648438 3.289062 C 145.09375 3.480469 150.738281 3.71875 155.597656 6.183594 C 154.449219 5.917969 153.238281 5.921875 152.09375 6.195312 C 160.324219 8.953125 166.636719 16.71875 167.65625 25.332031 C 166.761719 23.320312 165.488281 21.476562 163.929688 19.921875 C 164.96875 22.105469 165.191406 24.605469 164.929688 27.003906 C 164.667969 29.410156 163.941406 31.734375 163.144531 34.011719 C 163.117188 32.496094 162.796875 30.980469 162.210938 29.578125 C 162.027344 31.527344 160.90625 33.292969 159.476562 34.632812 C 158.046875 35.972656 156.320312 36.949219 154.613281 37.910156 C 155.839844 36.066406 156.570312 33.894531 156.71875 31.6875 C 155.925781 33.722656 153.714844 34.816406 151.605469 35.371094 C 149.492188 35.925781 147.238281 36.160156 145.375 37.292969 C 146.457031 35.101562 146.652344 32.484375 145.902344 30.160156 C 145.492188 31.578125 144.335938 32.6875 143.027344 33.367188 C 141.714844 34.050781 140.25 34.367188 138.808594 34.671875 C 139.78125 32.421875 139.683594 29.730469 138.546875 27.554688 C 138.808594 27.734375 139.070312 27.914062 139.332031 28.097656 L 129.773438 9.6875 " fill-opacity="1" fill-rule="nonzero"/><path fill="#52c0c3" d="M 105.484375 76.90625 C 121.828125 85.746094 114.613281 108.214844 113.503906 115.414062 C 111.761719 126.730469 110.019531 138.046875 107.804688 149.28125 C 117.746094 161.828125 123.414062 177.46875 134.210938 189.292969 C 134.757812 189.890625 135.355469 190.582031 135.289062 191.390625 C 135.21875 192.261719 134.421875 192.863281 133.734375 193.398438 C 130.121094 196.226562 127.75 200.585938 127.347656 205.15625 C 117.890625 194.222656 108.433594 183.296875 98.980469 172.371094 C 95.019531 167.792969 90.949219 163.019531 89.28125 157.203125 C 87.714844 151.753906 88.421875 145.945312 88.207031 140.277344 C 87.785156 128.90625 87.109375 118.539062 85.296875 107.304688 C 84.296875 101.097656 84.710938 76.320312 94.535156 74.539062 C 97.683594 73.964844 103.023438 75.574219 105.484375 76.90625 " fill-opacity="1" fill-rule="nonzero"/><path fill="#161716" d="M 324.785156 308.550781 L 317.726562 308.210938 L 319.746094 266.539062 L 326.804688 266.878906 L 324.785156 308.550781 " fill-opacity="1" fill-rule="nonzero"/><path fill="#3b7599" d="M 338.167969 320.535156 C 338.167969 320.535156 333.589844 337.007812 342.007812 350.171875 C 350.425781 363.335938 359.765625 367.175781 361.226562 364.25 C 362.691406 361.324219 351.894531 355.65625 349.511719 346.515625 C 347.132812 337.375 351.34375 328.234375 351.34375 328.234375 L 338.167969 320.535156 " fill-opacity="1" fill-rule="nonzero"/><path fill="#161716" d="M 358.574219 366.878906 L 363.613281 366.453125 C 364.761719 366.355469 366.25 367.929688 366.527344 369.578125 C 366.765625 370.953125 366.886719 372.316406 366.886719 373.636719 C 366.886719 374.960938 366.765625 376.179688 366.527344 377.285156 C 366.25 378.613281 364.761719 378.472656 363.613281 377.046875 L 358.574219 370.808594 C 357.253906 369.175781 357.253906 366.988281 358.574219 366.878906 Z M 353.269531 381.023438 L 353.269531 374.359375 C 353.269531 372.613281 354.917969 372.46875 356.238281 374.105469 L 361.265625 380.332031 C 362.414062 381.753906 362.617188 383.707031 361.632812 384.160156 C 359.976562 384.929688 358.003906 385.117188 355.832031 384.667969 C 354.5625 384.410156 353.269531 382.546875 353.269531 381.023438 Z M 355.832031 349.851562 C 358.003906 351.910156 359.976562 354.378906 361.632812 357.054688 C 362.617188 358.644531 362.414062 360.359375 361.265625 360.457031 L 356.238281 360.886719 C 354.917969 361 353.269531 358.957031 353.269531 357.210938 L 353.269531 350.542969 C 353.269531 349.019531 354.5625 348.652344 355.832031 349.851562 Z M 346.027344 379.019531 C 343.851562 376.957031 341.878906 374.492188 340.222656 371.8125 C 339.242188 370.226562 339.445312 368.507812 340.589844 368.410156 L 345.621094 367.980469 C 346.9375 367.867188 348.589844 369.910156 348.589844 371.660156 L 348.589844 378.324219 C 348.589844 379.847656 347.292969 380.21875 346.027344 379.019531 Z M 338.242188 362.417969 C 337.09375 362.515625 335.605469 360.941406 335.328125 359.292969 C 335.09375 357.914062 334.972656 356.554688 334.972656 355.230469 C 334.972656 353.910156 335.09375 352.6875 335.328125 351.582031 C 335.605469 350.257812 337.09375 350.398438 338.242188 351.820312 L 343.28125 358.058594 C 344.601562 359.695312 344.601562 361.878906 343.28125 361.988281 Z M 348.589844 347.847656 L 348.589844 354.511719 C 348.589844 356.257812 346.9375 356.398438 345.621094 354.761719 L 340.589844 348.535156 C 339.445312 347.113281 339.242188 345.160156 340.222656 344.707031 C 341.878906 343.941406 343.851562 343.75 346.027344 344.199219 C 347.292969 344.460938 348.589844 346.320312 348.589844 347.847656 Z M 352.8125 341.960938 C 339.957031 333.234375 329.226562 339.34375 330.375 354.742188 C 331.253906 366.542969 339.1875 380.21875 349.046875 386.90625 C 361.898438 395.636719 372.628906 389.527344 371.480469 374.128906 C 370.601562 362.324219 362.667969 348.652344 352.8125 341.960938 " fill-opacity="1" fill-rule="nonzero"/><path fill="#3a3236" d="M 355.914062 368.476562 L 360.953125 368.046875 C 362.101562 367.949219 363.59375 369.527344 363.871094 371.171875 C 364.105469 372.546875 364.226562 373.910156 364.226562 375.234375 C 364.226562 376.554688 364.105469 377.777344 363.871094 378.882812 C 363.59375 380.207031 362.101562 380.066406 360.953125 378.644531 L 355.914062 372.40625 C 354.59375 370.769531 354.59375 368.589844 355.914062 368.476562 Z M 350.609375 382.617188 L 350.609375 375.953125 C 350.609375 374.207031 352.257812 374.066406 353.582031 375.699219 L 358.605469 381.929688 C 359.753906 383.347656 359.957031 385.304688 358.972656 385.757812 C 357.320312 386.523438 355.347656 386.714844 353.167969 386.265625 C 351.902344 386.003906 350.609375 384.144531 350.609375 382.617188 Z M 353.167969 351.445312 C 355.347656 353.507812 357.320312 355.972656 358.972656 358.648438 C 359.957031 360.238281 359.753906 361.957031 358.605469 362.054688 L 353.582031 362.484375 C 352.257812 362.597656 350.609375 360.550781 350.609375 358.804688 L 350.609375 352.140625 C 350.609375 350.617188 351.902344 350.246094 353.167969 351.445312 Z M 343.371094 380.613281 C 341.191406 378.550781 339.21875 376.085938 337.5625 373.410156 C 336.582031 371.824219 336.785156 370.105469 337.929688 370.007812 L 342.960938 369.578125 C 344.277344 369.464844 345.929688 371.507812 345.929688 373.253906 L 345.929688 379.921875 C 345.929688 381.445312 344.632812 381.8125 343.371094 380.613281 Z M 335.585938 364.011719 C 334.433594 364.109375 332.945312 362.535156 332.667969 360.886719 C 332.433594 359.511719 332.3125 358.152344 332.3125 356.828125 C 332.3125 355.503906 332.433594 354.285156 332.667969 353.179688 C 332.945312 351.851562 334.433594 351.992188 335.585938 353.417969 L 340.621094 359.65625 C 341.941406 361.289062 341.941406 363.472656 340.621094 363.585938 Z M 345.929688 349.441406 L 345.929688 356.105469 C 345.929688 357.851562 344.277344 357.996094 342.960938 356.359375 L 337.929688 350.132812 C 336.785156 348.710938 336.582031 346.757812 337.5625 346.304688 C 339.21875 345.535156 341.191406 345.347656 343.371094 345.792969 C 344.632812 346.054688 345.929688 347.917969 345.929688 349.441406 Z M 350.152344 343.558594 C 337.296875 334.828125 326.570312 340.9375 327.714844 356.335938 C 328.59375 368.140625 336.527344 381.8125 346.386719 388.503906 C 359.242188 397.230469 369.96875 391.121094 368.824219 375.722656 C 367.941406 363.921875 360.007812 350.246094 350.152344 343.558594 " fill-opacity="1" fill-rule="nonzero"/><path fill="#41839e" d="M 329.382812 325.472656 C 329.382812 325.472656 324.796875 341.945312 333.21875 355.109375 C 341.640625 368.273438 350.976562 372.113281 352.4375 369.191406 C 353.90625 366.265625 343.105469 360.59375 340.726562 351.453125 C 338.347656 342.3125 342.554688 333.167969 342.554688 333.167969 L 329.382812 325.472656 " fill-opacity="1" fill-rule="nonzero"/><path fill="#52c0c3" d="M 342.855469 333.246094 L 329.378906 325.472656 L 338.046875 320.476562 L 351.519531 328.25 L 342.855469 333.246094 " fill-opacity="1" fill-rule="nonzero"/><path fill="#1d4967" d="M 334.105469 317.46875 C 333.625 317.179688 333.355469 316.621094 333.351562 315.828125 C 333.351562 314.210938 334.496094 312.242188 335.90625 311.429688 C 336.605469 311.027344 337.234375 310.980469 337.699219 311.234375 C 338.171875 311.503906 338.460938 312.070312 338.460938 312.882812 C 338.460938 314.5 337.316406 316.46875 335.90625 317.285156 C 335.203125 317.6875 334.566406 317.730469 334.105469 317.46875 " fill-opacity="1" fill-rule="nonzero"/><path fill="#52c0c3" d="M 334.074219 317.453125 L 320.351562 309.539062 C 319.886719 309.277344 319.597656 308.707031 319.597656 307.898438 C 319.597656 306.277344 320.742188 304.308594 322.152344 303.496094 C 322.855469 303.089844 323.492188 303.046875 323.949219 303.308594 L 337.699219 311.234375 C 337.238281 310.980469 336.605469 311.027344 335.910156 311.429688 C 334.496094 312.242188 333.351562 314.210938 333.351562 315.828125 C 333.351562 316.621094 333.628906 317.179688 334.074219 317.453125 " fill-opacity="1" fill-rule="nonzero"/><path fill="#1d4967" d="M 343.847656 301.53125 C 343.828125 302.371094 343.304688 303.144531 342.277344 303.742188 C 340.175781 304.949219 336.761719 304.945312 334.648438 303.726562 C 333.605469 303.121094 333.074219 302.339844 333.058594 301.550781 C 333.046875 300.734375 333.570312 299.933594 334.625 299.328125 C 336.722656 298.117188 340.140625 298.125 342.253906 299.34375 C 343.304688 299.949219 343.835938 300.742188 343.847656 301.53125 " fill-opacity="1" fill-rule="nonzero"/><path fill="#3c899d" d="M 343.847656 301.589844 L 343.847656 325.292969 C 343.851562 326.089844 343.332031 326.890625 342.28125 327.5 C 340.175781 328.710938 336.761719 328.703125 334.648438 327.484375 C 333.597656 326.878906 333.0625 326.085938 333.058594 325.292969 L 333.058594 301.550781 C 333.074219 302.335938 333.605469 303.121094 334.648438 303.726562 C 336.761719 304.945312 340.175781 304.949219 342.28125 303.738281 C 343.304688 303.144531 343.832031 302.371094 343.847656 301.589844 " fill-opacity="1" fill-rule="nonzero"/><path fill="#3a3236" d="M 301.636719 334.523438 L 295.945312 337.828125 C 285.308594 344.003906 270.582031 343.148438 254.359375 333.792969 C 222.121094 315.195312 195.976562 269.964844 196.078125 232.957031 C 196.132812 214.574219 202.652344 201.628906 213.15625 195.53125 L 218.847656 192.226562 C 208.347656 198.324219 201.824219 211.273438 201.773438 229.65625 C 201.667969 266.660156 227.8125 311.894531 260.050781 330.488281 C 276.277344 339.84375 290.996094 340.699219 301.636719 334.523438 " fill-opacity="1" fill-rule="nonzero"/><path fill="#3a3236" d="M 324.203125 300.261719 C 324.148438 319.871094 317.441406 334.464844 305.320312 341.363281 L 300.195312 344.339844 C 311.960938 337.3125 318.460938 322.867188 318.511719 303.566406 C 318.566406 283.957031 311.96875 261.683594 299.925781 240.851562 C 287.882812 220.015625 271.847656 203.121094 254.757812 193.265625 C 237.675781 183.414062 221.589844 181.785156 209.46875 188.6875 L 215.164062 185.382812 C 227.28125 178.480469 243.367188 180.113281 260.449219 189.960938 C 277.535156 199.8125 293.574219 216.714844 305.617188 237.546875 C 317.65625 258.378906 324.257812 280.652344 324.203125 300.261719 " fill-opacity="1" fill-rule="nonzero"/><path fill="#161716" d="M 257.058594 332.398438 L 255.378906 332.398438 L 255.378906 264.859375 L 257.058594 264.859375 L 257.058594 332.398438 " fill-opacity="1" fill-rule="nonzero"/><path fill="#161716" d="M 284.898438 340.648438 L 255.433594 265.164062 L 257.003906 264.554688 L 286.464844 340.035156 L 284.898438 340.648438 " fill-opacity="1" fill-rule="nonzero"/><path fill="#161716" d="M 306.597656 328.585938 L 255.566406 265.386719 L 256.875 264.332031 L 307.90625 327.53125 L 306.597656 328.585938 " fill-opacity="1" fill-rule="nonzero"/><path fill="#161716" d="M 314.722656 299.570312 L 255.800781 265.585938 L 256.640625 264.132812 L 315.5625 298.113281 L 314.722656 299.570312 " fill-opacity="1" fill-rule="nonzero"/><path fill="#161716" d="M 256.289062 265.695312 L 256.148438 264.023438 L 307.175781 259.683594 L 307.320312 261.355469 L 256.289062 265.695312 " fill-opacity="1" fill-rule="nonzero"/><path fill="#161716" d="M 256.90625 265.34375 L 255.53125 264.375 L 284.996094 222.875 L 286.367188 223.847656 L 256.90625 265.34375 " fill-opacity="1" fill-rule="nonzero"/><path fill="#161716" d="M 257.058594 264.859375 L 255.378906 264.859375 L 255.378906 197.320312 L 257.058594 197.320312 L 257.058594 264.859375 " fill-opacity="1" fill-rule="nonzero"/><path fill="#161716" d="M 255.433594 265.164062 L 225.972656 189.683594 L 227.542969 189.074219 L 257.003906 264.554688 L 255.433594 265.164062 " fill-opacity="1" fill-rule="nonzero"/><path fill="#161716" d="M 255.566406 265.386719 L 204.535156 202.1875 L 205.84375 201.132812 L 256.875 264.332031 L 255.566406 265.386719 " fill-opacity="1" fill-rule="nonzero"/><path fill="#161716" d="M 255.800781 265.585938 L 196.875 231.605469 L 197.714844 230.152344 L 256.640625 264.132812 L 255.800781 265.585938 " fill-opacity="1" fill-rule="nonzero"/><path fill="#161716" d="M 205.261719 270.039062 L 205.117188 268.363281 L 256.148438 264.023438 L 256.289062 265.695312 L 205.261719 270.039062 " fill-opacity="1" fill-rule="nonzero"/><path fill="#161716" d="M 227.445312 306.84375 L 226.070312 305.875 L 255.53125 264.375 L 256.90625 265.34375 L 227.445312 306.84375 " fill-opacity="1" fill-rule="nonzero"/><path fill="#161716" d="M 254.363281 333.789062 C 286.601562 352.382812 312.921875 337.402344 313.023438 300.398438 C 313.128906 263.390625 286.984375 218.15625 254.742188 199.5625 C 222.503906 180.972656 196.1875 195.953125 196.082031 232.960938 C 195.976562 269.964844 222.121094 315.195312 254.363281 333.789062 Z M 299.925781 240.851562 C 311.96875 261.679688 318.570312 283.957031 318.515625 303.5625 C 318.457031 323.175781 311.75 337.773438 299.632812 344.667969 C 287.511719 351.566406 271.429688 349.941406 254.34375 340.089844 C 237.257812 330.234375 221.21875 313.339844 209.175781 292.503906 C 197.136719 271.675781 190.535156 249.402344 190.589844 229.792969 C 190.648438 210.183594 197.355469 195.582031 209.472656 188.683594 C 221.59375 181.785156 237.675781 183.414062 254.761719 193.265625 C 271.847656 203.117188 287.882812 220.015625 299.925781 240.851562 " fill-opacity="1" fill-rule="nonzero"/><path fill="#161716" d="M 176.285156 301.066406 C 175.203125 301.066406 174.390625 301.554688 174.019531 301.832031 C 173.496094 302.214844 172.304688 303.324219 172.492188 305.261719 L 174.699219 328.335938 C 174.890625 330.34375 176.027344 332.03125 177.816406 332.96875 C 179.601562 333.910156 181.640625 333.882812 183.40625 332.898438 L 213.527344 316.097656 L 177.753906 301.367188 C 177.226562 301.152344 176.734375 301.066406 176.285156 301.066406 Z M 296.808594 417.121094 L 253.75 349.449219 L 253.609375 348.976562 C 250.398438 338.167969 242.128906 327.878906 233.949219 324.507812 L 221.867188 319.53125 L 186.851562 339.058594 C 183.019531 341.195312 178.417969 341.253906 174.53125 339.21875 C 170.648438 337.183594 168.082031 333.367188 167.664062 329.007812 L 165.457031 305.933594 C 165.089844 302.105469 166.71875 298.449219 169.816406 296.15625 C 172.910156 293.867188 176.886719 293.375 180.445312 294.84375 L 221.402344 311.707031 L 251.574219 294.878906 L 255.015625 301.042969 L 229.738281 315.140625 L 236.640625 317.980469 C 246.664062 322.109375 256.3125 333.785156 260.238281 346.488281 L 302.769531 413.335938 L 296.808594 417.121094 " fill-opacity="1" fill-rule="nonzero"/><path fill="#388198" d="M 165.542969 279.792969 L 170.058594 281.453125 L 160.707031 217.136719 L 155.054688 215.460938 L 165.542969 279.792969 " fill-opacity="1" fill-rule="nonzero"/><path fill="#161716" d="M 134.207031 216.417969 L 156.507812 224.207031 L 155.148438 215.574219 L 132.847656 207.785156 L 134.207031 216.417969 " fill-opacity="1" fill-rule="nonzero"/><path fill="#161716" d="M 358.832031 381.308594 L 342.425781 297.570312 C 339.183594 286.820312 330.953125 276.613281 322.8125 273.261719 L 255.328125 245.472656 L 258.023438 238.949219 L 325.503906 266.734375 C 335.65625 270.914062 345.421875 282.835938 349.246094 295.722656 L 349.324219 296.046875 L 365.765625 379.953125 L 358.832031 381.308594 " fill-opacity="1" fill-rule="nonzero"/><path fill="#388198" d="M 252.28125 323.832031 C 254.53125 324.734375 342.066406 272.421875 341.722656 269.644531 L 341.550781 268.273438 C 341.207031 265.496094 339.105469 262.507812 336.851562 261.601562 L 263.445312 232.125 C 261.191406 231.21875 171.722656 281.089844 172.066406 283.867188 L 215.460938 302.015625 C 215.808594 304.796875 252.28125 323.832031 252.28125 323.832031 " fill-opacity="1" fill-rule="nonzero"/><path fill="#41839e" d="M 213.191406 160.261719 L 235.898438 167.96875 L 244.015625 164.328125 L 221.714844 156.539062 L 213.191406 160.261719 " fill-opacity="1" fill-rule="nonzero"/><path fill="#3b7599" d="M 214.550781 168.976562 L 236.851562 176.765625 L 235.96875 168.023438 L 213.191406 160.261719 L 214.550781 168.976562 " fill-opacity="1" fill-rule="nonzero"/><path fill="#b9e8ec" d="M 132.78125 207.816406 L 155.488281 215.519531 L 163.605469 211.878906 L 141.304688 204.089844 L 132.78125 207.816406 " fill-opacity="1" fill-rule="nonzero"/><path fill="#8dd9db" d="M 134.140625 216.527344 L 156.441406 224.316406 L 155.5625 215.574219 L 132.78125 207.816406 L 134.140625 216.527344 " fill-opacity="1" fill-rule="nonzero"/><path fill="#52c0c3" d="M 160.707031 217.136719 C 160.707031 217.136719 179.128906 198.179688 204.867188 183.058594 C 230.601562 167.9375 249.257812 165.558594 249.257812 165.558594 L 244.015625 164.328125 C 244.015625 164.328125 219.5 167.429688 198.308594 181.042969 C 177.113281 194.652344 155.148438 215.574219 155.148438 215.574219 L 160.707031 217.136719 " fill-opacity="1" fill-rule="nonzero"/><path fill="#1d4967" d="M 170.296875 281.152344 C 170.296875 281.152344 188.71875 262.195312 214.453125 247.074219 C 240.191406 231.949219 259.160156 229.902344 259.160156 229.902344 L 249.324219 165.582031 C 249.324219 165.582031 224.8125 168.6875 203.617188 182.296875 C 182.421875 195.90625 160.460938 216.828125 160.460938 216.828125 L 170.296875 281.152344 " fill-opacity="1" fill-rule="nonzero"/><path fill="#388198" d="M 175.992188 294.808594 L 249.398438 324.285156 C 251.648438 325.191406 253.199219 323.671875 252.855469 320.890625 L 252.683594 319.523438 C 252.339844 316.746094 250.238281 313.757812 247.984375 312.851562 L 174.578125 283.375 C 172.328125 282.46875 170.777344 283.988281 171.121094 286.765625 L 171.292969 288.136719 C 171.632812 290.917969 173.738281 293.90625 175.992188 294.808594 " fill-opacity="1" fill-rule="nonzero"/><path fill="#3a3236" d="M 199.660156 393.332031 L 193.972656 396.636719 C 183.332031 402.8125 168.605469 401.957031 152.382812 392.597656 C 120.144531 374.007812 94 328.773438 94.101562 291.765625 C 94.15625 273.386719 100.675781 260.4375 111.179688 254.339844 L 116.871094 251.039062 C 106.371094 257.132812 99.851562 270.082031 99.796875 288.464844 C 99.691406 325.46875 125.835938 370.703125 158.074219 389.296875 C 174.300781 398.652344 189.023438 399.507812 199.660156 393.332031 " fill-opacity="1" fill-rule="nonzero"/><path fill="#3a3236" d="M 222.226562 359.070312 C 222.167969 378.679688 215.464844 393.277344 203.34375 400.175781 L 198.21875 403.152344 C 209.980469 396.121094 216.480469 381.679688 216.535156 362.375 C 216.59375 342.765625 209.988281 320.492188 197.949219 299.660156 C 185.90625 278.828125 169.867188 261.929688 152.78125 252.074219 C 135.699219 242.226562 119.617188 240.597656 107.492188 247.496094 L 113.1875 244.191406 C 125.304688 237.292969 141.390625 238.921875 158.472656 248.773438 C 175.558594 258.625 191.601562 275.519531 203.640625 296.359375 C 215.679688 317.191406 222.28125 339.464844 222.226562 359.070312 " fill-opacity="1" fill-rule="nonzero"/><path fill="#161716" d="M 155.085938 391.207031 L 153.402344 391.207031 L 153.402344 323.667969 L 155.085938 323.667969 L 155.085938 391.207031 " fill-opacity="1" fill-rule="nonzero"/><path fill="#161716" d="M 182.921875 399.457031 L 153.460938 323.976562 L 155.027344 323.367188 L 184.488281 398.84375 L 182.921875 399.457031 " fill-opacity="1" fill-rule="nonzero"/><path fill="#161716" d="M 204.617188 387.394531 L 153.589844 324.199219 L 154.898438 323.144531 L 205.929688 386.34375 L 204.617188 387.394531 " fill-opacity="1" fill-rule="nonzero"/><path fill="#161716" d="M 212.746094 358.378906 L 153.824219 324.398438 L 154.664062 322.945312 L 213.589844 356.925781 L 212.746094 358.378906 " fill-opacity="1" fill-rule="nonzero"/><path fill="#161716" d="M 154.316406 324.507812 L 154.171875 322.832031 L 205.203125 318.492188 L 205.347656 320.167969 L 154.316406 324.507812 " fill-opacity="1" fill-rule="nonzero"/><path fill="#161716" d="M 154.929688 324.15625 L 153.558594 323.183594 L 183.019531 281.683594 L 184.390625 282.65625 L 154.929688 324.15625 " fill-opacity="1" fill-rule="nonzero"/><path fill="#161716" d="M 155.085938 323.667969 L 153.402344 323.667969 L 153.402344 256.132812 L 155.085938 256.132812 L 155.085938 323.667969 " fill-opacity="1" fill-rule="nonzero"/><path fill="#161716" d="M 153.460938 323.976562 L 124 248.492188 L 125.566406 247.882812 L 155.027344 323.367188 L 153.460938 323.976562 " fill-opacity="1" fill-rule="nonzero"/><path fill="#161716" d="M 153.589844 324.199219 L 102.558594 261 L 103.867188 259.945312 L 154.898438 323.144531 L 153.589844 324.199219 " fill-opacity="1" fill-rule="nonzero"/><path fill="#161716" d="M 153.824219 324.398438 L 94.898438 290.417969 L 95.738281 288.960938 L 154.664062 322.945312 L 153.824219 324.398438 " fill-opacity="1" fill-rule="nonzero"/><path fill="#161716" d="M 103.285156 328.847656 L 103.144531 327.171875 L 154.171875 322.832031 L 154.316406 324.507812 L 103.285156 328.847656 " fill-opacity="1" fill-rule="nonzero"/><path fill="#161716" d="M 125.46875 365.65625 L 124.09375 364.683594 L 153.558594 323.183594 L 154.929688 324.15625 L 125.46875 365.65625 " fill-opacity="1" fill-rule="nonzero"/><path fill="#161716" d="M 152.382812 392.597656 C 184.625 411.191406 210.9375 396.214844 211.046875 359.207031 C 211.148438 322.203125 185.003906 276.96875 152.765625 258.375 C 120.523438 239.785156 94.210938 254.765625 94.105469 291.769531 C 94 328.777344 120.144531 374.007812 152.382812 392.597656 Z M 197.949219 299.660156 C 209.988281 320.492188 216.59375 342.765625 216.535156 362.375 C 216.480469 381.984375 209.773438 396.582031 197.65625 403.480469 C 185.53125 410.378906 169.453125 408.75 152.367188 398.898438 C 135.28125 389.046875 119.242188 372.148438 107.199219 351.3125 C 95.160156 330.484375 88.558594 308.210938 88.613281 288.601562 C 88.671875 268.996094 95.375 254.394531 107.496094 247.496094 C 119.613281 240.597656 135.699219 242.226562 152.78125 252.078125 C 169.867188 261.929688 185.90625 278.828125 197.949219 299.660156 " fill-opacity="1" fill-rule="nonzero"/><path fill="#388198" d="M 319.523438 431.695312 L 294.609375 417.003906 L 294.609375 412.980469 L 319.523438 427.671875 L 319.523438 431.695312 " fill-opacity="1" fill-rule="nonzero"/><path fill="#388198" d="M 351.613281 413.429688 L 319.507812 431.695312 L 319.507812 427.667969 L 351.613281 409.402344 L 351.613281 413.429688 " fill-opacity="1" fill-rule="nonzero"/><path fill="#388198" d="M 319.566406 427.636719 L 294.652344 412.945312 L 326.636719 394.746094 L 351.550781 409.4375 L 319.566406 427.636719 " fill-opacity="1" fill-rule="nonzero"/><path fill="#52c0c3" d="M 319.523438 431.695312 L 294.609375 417.003906 L 294.609375 412.980469 L 319.523438 427.671875 L 319.523438 431.695312 " fill-opacity="1" fill-rule="nonzero"/><path fill="#235275" d="M 351.613281 413.429688 L 319.507812 431.695312 L 319.507812 427.667969 L 351.613281 409.402344 L 351.613281 413.429688 " fill-opacity="1" fill-rule="nonzero"/><path fill="#388198" d="M 319.566406 427.636719 L 294.652344 412.945312 L 326.636719 394.746094 L 351.550781 409.4375 L 319.566406 427.636719 " fill-opacity="1" fill-rule="nonzero"/><path fill="#235275" d="M 389.71875 393.097656 L 357.617188 411.363281 L 357.617188 407.339844 L 389.71875 389.070312 L 389.71875 393.097656 " fill-opacity="1" fill-rule="nonzero"/><path fill="#388198" d="M 357.632812 411.363281 L 332.722656 396.671875 L 332.722656 392.648438 L 357.632812 407.339844 L 357.632812 411.363281 " fill-opacity="1" fill-rule="nonzero"/><path fill="#388198" d="M 357.671875 407.304688 L 332.757812 392.613281 L 364.742188 374.414062 L 389.65625 389.105469 L 357.671875 407.304688 " fill-opacity="1" fill-rule="nonzero"/><path fill="#52c0c3" d="M 357.632812 411.363281 L 332.722656 396.671875 L 332.722656 392.648438 L 357.632812 407.339844 L 357.632812 411.363281 " fill-opacity="1" fill-rule="nonzero"/><path fill="#388198" d="M 357.671875 407.304688 L 332.757812 392.613281 L 364.742188 374.414062 L 389.65625 389.105469 L 357.671875 407.304688 " fill-opacity="1" fill-rule="nonzero"/><path fill="#388198" d="M 232.265625 360.636719 L 225.207031 360.296875 L 227.226562 318.625 L 234.28125 318.964844 L 232.265625 360.636719 " fill-opacity="1" fill-rule="nonzero"/><path fill="#3b7599" d="M 244.253906 373.296875 C 244.253906 373.296875 239.675781 389.769531 248.09375 402.933594 C 256.515625 416.097656 265.851562 419.9375 267.3125 417.011719 C 268.78125 414.085938 257.976562 408.417969 255.601562 399.277344 C 253.21875 390.132812 257.429688 380.992188 257.429688 380.992188 L 244.253906 373.296875 " fill-opacity="1" fill-rule="nonzero"/><path fill="#161716" d="M 264.664062 419.640625 L 269.699219 419.210938 C 270.847656 419.113281 272.339844 420.691406 272.617188 422.335938 C 272.851562 423.714844 272.972656 425.078125 272.972656 426.398438 C 272.972656 427.71875 272.851562 428.9375 272.617188 430.050781 C 272.339844 431.375 270.847656 431.230469 269.699219 429.808594 L 264.664062 423.570312 C 263.34375 421.933594 263.34375 419.75 264.664062 419.640625 Z M 259.355469 433.785156 L 259.355469 427.117188 C 259.355469 425.371094 261.007812 425.234375 262.324219 426.867188 L 267.351562 433.09375 C 268.5 434.515625 268.703125 436.464844 267.71875 436.921875 C 266.066406 437.6875 264.09375 437.878906 261.914062 437.429688 C 260.648438 437.171875 259.355469 435.308594 259.355469 433.785156 Z M 261.914062 402.613281 C 264.09375 404.671875 266.066406 407.140625 267.71875 409.816406 C 268.703125 411.402344 268.5 413.121094 267.351562 413.21875 L 262.324219 413.648438 C 261.007812 413.761719 259.355469 411.71875 259.355469 409.96875 L 259.355469 403.308594 C 259.355469 401.78125 260.648438 401.414062 261.914062 402.613281 Z M 252.113281 431.777344 C 249.941406 429.71875 247.96875 427.25 246.3125 424.574219 C 245.328125 422.988281 245.53125 421.269531 246.679688 421.171875 L 251.707031 420.742188 C 253.023438 420.628906 254.675781 422.671875 254.675781 424.421875 L 254.675781 431.082031 C 254.675781 432.609375 253.382812 432.980469 252.113281 431.777344 Z M 244.328125 415.179688 C 243.183594 415.277344 241.691406 413.699219 241.414062 412.054688 C 241.179688 410.675781 241.058594 409.316406 241.058594 407.992188 C 241.058594 406.671875 241.179688 405.453125 241.414062 404.34375 C 241.691406 403.015625 243.183594 403.160156 244.328125 404.578125 L 249.371094 410.820312 C 250.6875 412.457031 250.6875 414.636719 249.371094 414.75 Z M 254.675781 400.605469 L 254.675781 407.269531 C 254.675781 409.015625 253.023438 409.15625 251.707031 407.523438 L 246.679688 401.296875 C 245.53125 399.875 245.328125 397.921875 246.3125 397.46875 C 247.96875 396.703125 249.941406 396.507812 252.113281 396.960938 C 253.382812 397.21875 254.675781 399.082031 254.675781 400.605469 Z M 258.898438 394.722656 C 246.042969 385.996094 235.3125 392.105469 236.460938 407.5 C 237.339844 419.304688 245.277344 432.976562 255.132812 439.667969 C 267.988281 448.394531 278.714844 442.285156 277.570312 426.890625 C 276.691406 415.085938 268.753906 401.414062 258.898438 394.722656 " fill-opacity="1" fill-rule="nonzero"/><path fill="#3a3236" d="M 262.003906 421.234375 L 267.042969 420.808594 C 268.191406 420.710938 269.679688 422.285156 269.960938 423.933594 C 270.191406 425.308594 270.316406 426.667969 270.316406 427.992188 C 270.316406 429.316406 270.191406 430.535156 269.960938 431.644531 C 269.679688 432.96875 268.191406 432.828125 267.042969 431.40625 L 262.003906 425.164062 C 260.683594 423.53125 260.683594 421.347656 262.003906 421.234375 Z M 256.699219 435.378906 L 256.699219 428.714844 C 256.699219 426.964844 258.347656 426.828125 259.667969 428.460938 L 264.695312 434.6875 C 265.839844 436.109375 266.042969 438.0625 265.0625 438.515625 C 263.40625 439.28125 261.433594 439.472656 259.257812 439.027344 C 257.992188 438.765625 256.699219 436.90625 256.699219 435.378906 Z M 259.257812 404.207031 C 261.433594 406.269531 263.40625 408.734375 265.0625 411.410156 C 266.042969 412.996094 265.839844 414.71875 264.695312 414.816406 L 259.667969 415.246094 C 258.347656 415.355469 256.699219 413.3125 256.699219 411.566406 L 256.699219 404.902344 C 256.699219 403.375 257.992188 403.007812 259.257812 404.207031 Z M 249.457031 433.375 C 247.28125 431.3125 245.308594 428.847656 243.652344 426.171875 C 242.671875 424.582031 242.875 422.863281 244.019531 422.765625 L 249.046875 422.335938 C 250.367188 422.222656 252.015625 424.269531 252.015625 426.015625 L 252.015625 432.679688 C 252.015625 434.203125 250.722656 434.574219 249.457031 433.375 Z M 241.671875 416.773438 C 240.523438 416.871094 239.035156 415.292969 238.757812 413.648438 C 238.523438 412.269531 238.398438 410.910156 238.398438 409.589844 C 238.398438 408.265625 238.523438 407.042969 238.757812 405.9375 C 239.035156 404.613281 240.523438 404.753906 241.671875 406.175781 L 246.710938 412.414062 C 248.03125 414.050781 248.03125 416.234375 246.710938 416.34375 Z M 252.015625 402.203125 L 252.015625 408.867188 C 252.015625 410.613281 250.367188 410.753906 249.046875 409.117188 L 244.019531 402.890625 C 242.875 401.472656 242.671875 399.519531 243.652344 399.0625 C 245.308594 398.296875 247.28125 398.105469 249.457031 398.554688 C 250.722656 398.816406 252.015625 400.675781 252.015625 402.203125 Z M 256.242188 396.316406 C 243.382812 387.589844 232.65625 393.699219 233.804688 409.097656 C 234.683594 420.898438 242.617188 434.570312 252.472656 441.261719 C 265.332031 449.992188 276.058594 443.882812 274.914062 428.484375 C 274.03125 416.679688 266.097656 403.011719 256.242188 396.316406 " fill-opacity="1" fill-rule="nonzero"/><path fill="#41839e" d="M 235.46875 378.234375 C 235.46875 378.234375 230.886719 394.707031 239.308594 407.871094 C 247.730469 421.035156 257.066406 424.875 258.527344 421.949219 C 259.992188 419.023438 249.191406 413.355469 246.8125 404.214844 C 244.433594 395.070312 248.644531 385.929688 248.644531 385.929688 L 235.46875 378.234375 " fill-opacity="1" fill-rule="nonzero"/><path fill="#52c0c3" d="M 248.945312 386.007812 L 235.46875 378.234375 L 244.132812 373.238281 L 257.609375 381.007812 L 248.945312 386.007812 " fill-opacity="1" fill-rule="nonzero"/><path fill="#1d4967" d="M 240.195312 370.230469 C 239.714844 369.941406 239.441406 369.382812 239.441406 368.585938 C 239.441406 366.972656 240.582031 365 241.992188 364.1875 C 242.691406 363.785156 243.324219 363.738281 243.785156 363.996094 C 244.261719 364.261719 244.550781 364.832031 244.550781 365.640625 C 244.550781 367.261719 243.40625 369.230469 241.992188 370.042969 C 241.292969 370.449219 240.65625 370.492188 240.195312 370.230469 " fill-opacity="1" fill-rule="nonzero"/><path fill="#52c0c3" d="M 240.160156 370.210938 L 226.441406 362.300781 C 225.972656 362.039062 225.6875 361.46875 225.6875 360.65625 C 225.6875 359.039062 226.832031 357.070312 228.242188 356.253906 C 228.945312 355.851562 229.578125 355.808594 230.039062 356.070312 L 243.785156 363.996094 C 243.324219 363.738281 242.691406 363.785156 241.992188 364.1875 C 240.582031 365 239.441406 366.972656 239.441406 368.585938 C 239.441406 369.382812 239.714844 369.941406 240.160156 370.210938 " fill-opacity="1" fill-rule="nonzero"/><path fill="#1d4967" d="M 249.929688 354.292969 C 249.914062 355.132812 249.390625 355.90625 248.363281 356.5 C 246.265625 357.710938 242.847656 357.707031 240.734375 356.488281 C 239.691406 355.886719 239.160156 355.097656 239.144531 354.3125 C 239.136719 353.496094 239.660156 352.695312 240.710938 352.089844 C 242.8125 350.875 246.226562 350.882812 248.339844 352.101562 C 249.390625 352.707031 249.925781 353.503906 249.929688 354.292969 " fill-opacity="1" fill-rule="nonzero"/><path fill="#3c899d" d="M 249.929688 354.351562 L 249.929688 378.054688 C 249.941406 378.851562 249.417969 379.652344 248.363281 380.257812 C 246.265625 381.472656 242.847656 381.464844 240.734375 380.246094 C 239.683594 379.640625 239.152344 378.84375 239.144531 378.054688 L 239.144531 354.3125 C 239.160156 355.097656 239.691406 355.886719 240.734375 356.488281 C 242.847656 357.707031 246.265625 357.710938 248.363281 356.5 C 249.390625 355.90625 249.914062 355.132812 249.929688 354.351562 " fill-opacity="1" fill-rule="nonzero"/><path fill="#fbf8d9" d="M 332.019531 428.6875 C 324.28125 428.6875 319.570312 423.648438 317.214844 419.617188 C 314.863281 415.582031 305.777344 415.246094 304.097656 411.214844 C 303.09375 408.816406 303.519531 406.070312 304.03125 404.230469 L 304.433594 404.15625 C 304.433594 404.15625 312.167969 415.917969 323.269531 417.9375 C 334.375 419.953125 335.382812 415.582031 334.039062 413.566406 C 333.488281 412.738281 332.589844 411.457031 331.730469 410.234375 C 336.101562 412.578125 342.792969 415.269531 345.476562 421.296875 C 348.167969 427.347656 339.753906 428.6875 332.019531 428.6875 " fill-opacity="1" fill-rule="nonzero"/><path fill="#fbf8d9" d="M 374.410156 405.164062 C 366.671875 405.164062 361.960938 400.125 359.605469 396.09375 C 357.25 392.058594 348.167969 391.722656 346.484375 387.691406 C 345.488281 385.292969 345.914062 382.546875 346.421875 380.707031 L 346.824219 380.632812 C 346.824219 380.632812 354.558594 392.394531 365.660156 394.414062 C 376.765625 396.429688 377.773438 392.058594 376.425781 390.042969 C 375.878906 389.214844 374.984375 387.933594 374.121094 386.710938 C 378.496094 389.054688 385.1875 391.742188 387.867188 397.769531 C 390.558594 403.824219 382.148438 405.164062 374.410156 405.164062 " fill-opacity="1" fill-rule="nonzero"/><path fill="#f57d6f" d="M 375.082031 403.148438 C 367.347656 403.148438 362.636719 398.105469 360.28125 394.074219 C 357.925781 390.042969 348.84375 389.703125 347.15625 385.671875 C 346.160156 383.277344 346.585938 380.527344 347.09375 378.691406 C 347.445312 377.429688 347.832031 376.597656 347.832031 376.597656 C 347.832031 376.597656 325.964844 344.339844 322.261719 333.246094 C 318.5625 322.160156 308.472656 312.75 308.472656 312.75 C 308.472656 312.75 241.519531 284.519531 238.15625 275.113281 C 234.789062 265.703125 246.566406 248.898438 264.398438 252.933594 C 282.226562 256.964844 319.199219 276.03125 327.609375 288.128906 C 336.023438 300.226562 338.726562 304.773438 339.738281 321.578125 C 340.90625 341.046875 359.605469 367.191406 359.945312 369.542969 C 360.28125 371.894531 370.371094 382.3125 374.746094 384.664062 C 379.167969 387.039062 385.859375 389.722656 388.539062 395.753906 C 391.230469 401.800781 382.820312 403.148438 375.082031 403.148438 " fill-opacity="1" fill-rule="nonzero"/><path fill="#41b29f" d="M 236.808594 255.28125 C 236.808594 255.28125 238.492188 269.398438 244.546875 278.472656 C 250.601562 287.542969 291.984375 311.066406 294.339844 311.066406 C 296.691406 311.066406 302.785156 307.738281 302.785156 307.738281 C 302.785156 307.738281 324.617188 349.378906 331.683594 354.421875 C 335.871094 357.40625 342.113281 376.265625 342.113281 376.265625 C 342.113281 376.265625 341.4375 377.605469 347.496094 377.269531 C 353.554688 376.933594 361.964844 370.882812 361.964844 370.882812 C 361.964844 370.882812 338.785156 318.15625 338.449219 312.105469 C 338.109375 306.054688 338.449219 298.328125 333.402344 286.230469 C 328.355469 274.132812 281.214844 257.175781 262.375 251.796875 C 243.53125 246.421875 236.808594 255.28125 236.808594 255.28125 " fill-opacity="1" fill-rule="nonzero"/><path fill="#f57d6f" d="M 332.691406 426.671875 C 324.957031 426.671875 320.242188 421.628906 317.886719 417.597656 C 315.535156 413.566406 306.449219 413.230469 304.769531 409.195312 C 303.769531 406.800781 304.191406 404.050781 304.703125 402.214844 C 305.054688 400.953125 305.441406 400.125 305.441406 400.125 C 305.441406 400.125 298.378906 371.222656 294.675781 360.132812 C 290.972656 349.042969 290.636719 333.246094 290.636719 333.246094 C 290.636719 333.246094 225.902344 289.464844 222.539062 280.058594 C 219.171875 270.648438 231.089844 259.988281 248.921875 264.019531 C 266.753906 268.054688 305.777344 299.308594 314.1875 311.402344 C 322.597656 323.503906 314.523438 326.191406 313.851562 345.683594 C 313.179688 365.171875 317.214844 390.714844 317.550781 393.066406 C 317.886719 395.417969 327.980469 405.835938 332.355469 408.1875 C 336.777344 410.558594 343.46875 413.25 346.148438 419.277344 C 348.84375 425.328125 340.429688 426.671875 332.691406 426.671875 " fill-opacity="1" fill-rule="nonzero"/><path fill="#46baac" d="M 208.886719 270.40625 C 208.886719 270.40625 212.742188 283.398438 216.625 293.59375 C 218.449219 298.378906 253.472656 302.03125 286.9375 335.9375 C 286.9375 335.9375 293.667969 370.546875 294.675781 375.589844 C 295.6875 380.632812 302.082031 397.433594 302.082031 397.433594 C 302.082031 397.433594 301.40625 398.777344 307.464844 398.441406 C 313.519531 398.105469 317.554688 393.0625 317.554688 393.0625 C 317.554688 393.0625 316.210938 347.359375 315.871094 341.3125 C 315.539062 335.265625 322.601562 326.527344 317.554688 314.425781 C 312.511719 302.332031 267.425781 267.042969 248.585938 261.667969 C 229.746094 256.292969 208.886719 270.40625 208.886719 270.40625 " fill-opacity="1" fill-rule="nonzero"/><path fill="#52c0c3" d="M 332.691406 426.671875 C 324.957031 426.671875 320.242188 421.628906 317.886719 417.597656 C 315.535156 413.566406 306.449219 413.230469 304.769531 409.195312 C 303.769531 406.800781 304.191406 404.050781 304.703125 402.214844 L 305.105469 402.136719 C 305.105469 402.136719 312.84375 413.902344 323.941406 415.917969 C 335.046875 417.933594 336.058594 413.566406 334.710938 411.546875 C 334.160156 410.722656 333.265625 409.4375 332.402344 408.214844 C 336.777344 410.558594 343.46875 413.25 346.148438 419.277344 C 348.84375 425.328125 340.429688 426.671875 332.691406 426.671875 " fill-opacity="1" fill-rule="nonzero"/><path fill="#52c0c3" d="M 375.082031 403.148438 C 367.347656 403.148438 362.636719 398.105469 360.28125 394.074219 C 357.925781 390.042969 348.84375 389.703125 347.15625 385.671875 C 346.160156 383.277344 346.585938 380.527344 347.09375 378.691406 L 347.496094 378.613281 C 347.496094 378.613281 355.234375 390.378906 366.335938 392.394531 C 377.4375 394.410156 378.449219 390.042969 377.101562 388.023438 C 376.550781 387.199219 375.65625 385.914062 374.792969 384.691406 C 379.167969 387.039062 385.859375 389.722656 388.539062 395.753906 C 391.230469 401.800781 382.820312 403.148438 375.082031 403.148438 " fill-opacity="1" fill-rule="nonzero"/><path fill="#f9b049" d="M 192.738281 179.671875 C 192.738281 179.671875 186.34375 180.679688 182.644531 193.785156 C 178.945312 206.890625 193.074219 260.660156 200.136719 275.445312 C 207.203125 290.234375 220.324219 295.609375 220.324219 295.609375 C 220.324219 295.609375 230.417969 273.765625 239.164062 267.71875 C 247.914062 261.667969 258.003906 253.265625 262.042969 253.265625 C 266.082031 253.265625 268.433594 253.9375 268.433594 253.9375 C 268.433594 253.9375 249.257812 236.464844 246.230469 226.71875 C 243.203125 216.972656 246.902344 215.628906 245.554688 209.578125 C 244.210938 203.53125 242.867188 201.851562 239.5 198.152344 C 236.136719 194.457031 229.074219 183.03125 229.746094 177.65625 C 230.417969 172.277344 233.109375 168.914062 226.378906 166.898438 C 219.652344 164.882812 199.464844 173.621094 192.738281 179.671875 " fill-opacity="1" fill-rule="nonzero"/><path fill="#e4dbd8" d="M 217.632812 129.429688 C 216.792969 129.414062 208.046875 126.910156 200.816406 133.96875 C 193.578125 141.023438 193.410156 152.28125 195.933594 157.488281 C 198.457031 162.699219 204.175781 169.753906 204.175781 172.273438 C 204.175781 174.796875 203.503906 175.804688 203.503906 175.804688 C 203.503906 175.804688 205.859375 174.292969 206.195312 173.28125 C 206.53125 172.273438 207.539062 170.429688 207.539062 170.429688 L 208.382812 174.125 C 208.382812 174.125 207.878906 174.628906 211.578125 167.738281 C 215.28125 160.851562 223.859375 146.902344 230.753906 146.570312 C 237.652344 146.230469 239.671875 142.367188 239.671875 142.367188 C 239.671875 142.367188 235.96875 129.765625 217.632812 129.429688 " fill-opacity="1" fill-rule="nonzero"/><path fill="#388198" d="M 227.089844 296.472656 L 174.511719 266.292969 L 174.511719 262.269531 L 227.089844 292.445312 L 227.089844 296.472656 " fill-opacity="1" fill-rule="nonzero"/><path fill="#388198" d="M 238.832031 288.804688 L 227.070312 296.472656 L 227.070312 292.445312 L 238.832031 284.78125 L 238.832031 288.804688 " fill-opacity="1" fill-rule="nonzero"/><path fill="#388198" d="M 227.128906 292.414062 L 174.550781 262.234375 L 186.195312 254.636719 L 238.773438 284.8125 L 227.128906 292.414062 " fill-opacity="1" fill-rule="nonzero"/><path fill="#52c0c3" d="M 227.089844 296.472656 L 174.511719 266.292969 L 174.511719 262.269531 L 227.089844 292.445312 L 227.089844 296.472656 " fill-opacity="1" fill-rule="nonzero"/><path fill="#3a3236" d="M 238.832031 288.804688 L 227.070312 296.472656 L 227.070312 292.445312 L 238.832031 284.78125 L 238.832031 288.804688 " fill-opacity="1" fill-rule="nonzero"/><path fill="#388198" d="M 227.128906 292.414062 L 174.550781 262.234375 L 186.195312 254.636719 L 238.773438 284.8125 L 227.128906 292.414062 " fill-opacity="1" fill-rule="nonzero"/><path fill="#388198" d="M 302.273438 253.113281 L 249.695312 222.933594 L 249.695312 218.910156 L 302.273438 249.089844 L 302.273438 253.113281 " fill-opacity="1" fill-rule="nonzero"/><path fill="#388198" d="M 314.015625 245.445312 L 302.253906 253.113281 L 302.253906 249.089844 L 314.015625 241.421875 L 314.015625 245.445312 " fill-opacity="1" fill-rule="nonzero"/><path fill="#388198" d="M 302.3125 249.054688 L 249.734375 218.875 L 261.378906 211.277344 L 313.957031 241.457031 L 302.3125 249.054688 " fill-opacity="1" fill-rule="nonzero"/><path fill="#52c0c3" d="M 302.273438 253.113281 L 249.695312 222.933594 L 249.695312 218.910156 L 302.273438 249.089844 L 302.273438 253.113281 " fill-opacity="1" fill-rule="nonzero"/><path fill="#3a3236" d="M 314.015625 245.445312 L 302.253906 253.113281 L 302.253906 249.089844 L 314.015625 241.421875 L 314.015625 245.445312 " fill-opacity="1" fill-rule="nonzero"/><path fill="#388198" d="M 302.3125 249.054688 L 249.734375 218.875 L 261.378906 211.277344 L 313.957031 241.457031 L 302.3125 249.054688 " fill-opacity="1" fill-rule="nonzero"/><path fill="#f7cc4e" d="M 220.324219 170.933594 C 220.324219 170.933594 224.363281 167.570312 230.753906 168.242188 C 237.144531 168.914062 251.511719 187.035156 254.757812 193.265625 C 258.003906 199.496094 259.351562 204.875 261.035156 205.882812 C 262.714844 206.890625 292.996094 223.019531 296.023438 224.03125 C 299.050781 225.039062 307.796875 233.441406 307.796875 233.441406 C 307.796875 233.441406 304.769531 233.101562 302.078125 235.457031 C 299.386719 237.804688 299.925781 240.851562 299.925781 240.851562 C 299.925781 240.851562 267.761719 232.429688 258.675781 225.375 C 249.59375 218.316406 237.480469 207.898438 232.097656 199.160156 C 226.714844 190.425781 220.324219 170.933594 220.324219 170.933594 " fill-opacity="1" fill-rule="nonzero"/><path fill="#eb6e6e" d="M 207.203125 166.398438 C 207.203125 166.398438 208.632812 173.789062 204.761719 176.5625 C 200.304688 179.753906 204.425781 183.621094 205.101562 184.542969 C 208.234375 188.847656 216.792969 190.929688 222.511719 189.753906 C 228.230469 188.578125 231.257812 179.503906 231.59375 175.636719 C 231.929688 171.773438 222.679688 165.050781 222.679688 165.050781 L 207.203125 166.398438 " fill-opacity="1" fill-rule="nonzero"/><path fill="#f57d6f" d="M 241.351562 144.550781 C 241.351562 144.550781 242.53125 148.753906 241.519531 150.9375 C 240.511719 153.121094 240.003906 153.457031 240.003906 154.800781 C 240.003906 156.148438 240.847656 158.332031 241.351562 160.515625 C 241.855469 162.699219 240.960938 165.726562 241.296875 168.242188 C 241.632812 170.765625 239.445312 173.003906 238.605469 174.851562 C 237.765625 176.703125 238.4375 176.8125 236.25 177.988281 C 234.0625 179.167969 229.132812 178.835938 228.398438 179 C 215.726562 181.800781 215.78125 176.140625 214.269531 173.957031 C 212.753906 171.773438 212.25 168.242188 212.25 168.242188 C 212.25 168.242188 206.363281 169.085938 205.183594 167.070312 C 204.007812 165.050781 199.632812 157.492188 202.832031 157.324219 C 206.027344 157.15625 210.0625 160.011719 210.0625 160.011719 C 210.0625 160.011719 209.054688 146.738281 214.941406 142.703125 C 220.828125 138.671875 238.660156 139.175781 241.351562 144.550781 " fill-opacity="1" fill-rule="nonzero"/><path fill="#f2f1ef" d="M 233.445312 134.136719 C 233.445312 134.136719 240.679688 138.839844 240.847656 141.867188 C 241.015625 144.886719 238.660156 150.769531 238.660156 150.769531 L 235.800781 144.050781 C 235.800781 144.050781 232.769531 152.953125 229.746094 156.484375 C 226.714844 160.011719 226.042969 160.179688 226.042969 160.179688 L 227.222656 152.617188 C 227.222656 152.617188 225.539062 159.675781 222.679688 163.203125 C 219.820312 166.734375 218.640625 168.914062 216.960938 171.4375 C 215.277344 173.957031 216.121094 177.820312 216.121094 177.820312 C 216.121094 177.820312 209.726562 167.40625 208.886719 162.699219 C 208.042969 157.996094 206.027344 155.8125 209.558594 146.570312 C 213.089844 137.328125 233.445312 134.136719 233.445312 134.136719 " fill-opacity="1" fill-rule="nonzero"/><path fill="#f7cc4e" d="M 194.585938 186.390625 C 193.644531 186.03125 182.140625 178.664062 174.738281 194.792969 C 167.335938 210.925781 164.578125 254.441406 167.671875 257.300781 C 185.503906 273.765625 213.761719 282.839844 213.761719 282.839844 C 213.761719 282.839844 212.753906 276.117188 218.136719 273.09375 C 223.519531 270.070312 223.015625 273.429688 223.015625 273.429688 C 223.015625 273.429688 205.691406 259.316406 200.304688 256.628906 C 194.921875 253.9375 194.035156 254.085938 192.570312 250.914062 C 185.820312 236.347656 201.652344 189.082031 194.585938 186.390625 " fill-opacity="1" fill-rule="nonzero"/><path fill="#f57d6f" d="M 216.960938 272.800781 C 218.417969 272.722656 225.914062 272.253906 225.914062 272.253906 C 225.914062 272.253906 231.515625 275.234375 232.734375 274.933594 C 233.953125 274.628906 235.292969 277.910156 236.207031 278.214844 C 237.121094 278.519531 237.671875 277.972656 237.304688 278.703125 C 236.9375 279.433594 236.511719 279.859375 235.234375 279.554688 C 233.953125 279.25 230.117188 277.546875 230.117188 277.546875 C 230.117188 277.546875 235.234375 280.710938 235.476562 280.832031 C 235.722656 280.953125 239.253906 284.789062 239.679688 285.761719 C 240.105469 286.734375 240.652344 288.617188 240.652344 288.617188 C 240.652344 288.617188 241.386719 289.347656 240.105469 289.289062 C 238.828125 289.230469 237.730469 287.890625 237.484375 287.464844 C 237.242188 287.039062 234.625 283.691406 234.625 283.691406 L 229.082031 281.746094 C 229.082031 281.746094 232.554688 285.152344 232.859375 285.152344 C 233.164062 285.152344 234.503906 287.097656 235.78125 288.257812 C 237.0625 289.410156 241.140625 292.089844 239.070312 292.394531 C 237 292.695312 236.023438 291.664062 235.113281 290.871094 C 234.199219 290.082031 231.515625 288.070312 231.273438 287.828125 C 231.03125 287.585938 227.679688 284.789062 227.679688 284.789062 C 227.679688 284.789062 229.386719 289.167969 231.03125 290.628906 C 232.671875 292.089844 235.246094 294.089844 236.148438 294.398438 C 237.730469 294.949219 236.757812 296.40625 236.085938 296.589844 C 235.417969 296.773438 230.847656 294.828125 229.753906 293.667969 C 228.65625 292.511719 224.207031 287.890625 224.207031 287.890625 C 224.207031 287.890625 227.679688 293 228.960938 294.15625 C 230.238281 295.3125 231.515625 296.222656 231.882812 296.40625 C 232.25 296.589844 233.773438 298.171875 231.882812 298.292969 C 229.996094 298.417969 225.792969 295.617188 224.332031 294.21875 C 222.867188 292.816406 220.859375 291.601562 217.445312 288.863281 C 214.035156 286.125 211.78125 283.023438 210.992188 281.015625 C 210.199219 279.007812 210.015625 273.164062 216.960938 272.800781 " fill-opacity="1" fill-rule="nonzero"/><path fill="#f57d6f" d="M 298.242188 233.429688 C 299.65625 231.324219 302.019531 230.046875 304.5625 230.039062 C 307.175781 230.027344 310.230469 230.054688 310.992188 230.246094 C 312.34375 230.582031 317.386719 234.363281 317.386719 234.363281 L 317.332031 236.152344 C 317.332031 236.152344 317.773438 237.109375 318.621094 237.976562 C 320.105469 239.488281 319.519531 242.203125 319.519531 242.203125 L 321.875 245.761719 C 321.875 245.761719 321.425781 246.714844 320.417969 246.207031 C 319.40625 245.703125 316.714844 241.839844 316.714844 241.839844 C 316.714844 241.839844 318.734375 246.878906 319.40625 247.554688 C 320.078125 248.222656 320.078125 249.230469 319.070312 249.402344 C 318.0625 249.566406 316.683594 247.160156 316.683594 247.160156 C 316.683594 247.160156 319.238281 250.914062 317.722656 251.25 C 316.210938 251.582031 315.988281 251.277344 314.445312 249.09375 C 313.246094 247.394531 311.5 245.367188 311.5 245.367188 L 302.417969 239.824219 C 302.417969 239.824219 301.546875 242.792969 301.546875 243.460938 C 301.546875 244.136719 303.058594 246.546875 303.90625 247.214844 C 304.742188 247.890625 308.023438 249.128906 308.640625 250.074219 C 309.59375 251.53125 308.792969 253.378906 307.996094 252.285156 C 307.238281 251.25 304.769531 250.746094 304.769531 250.746094 C 304.769531 250.746094 302.09375 250.742188 301.378906 250.183594 C 300.734375 249.679688 300.398438 248.058594 299.894531 247.722656 C 299.390625 247.386719 296.023438 245.199219 296.023438 243.519531 C 296.023438 241.839844 295.6875 239.488281 295.351562 238.648438 C 295.164062 238.183594 296.765625 235.628906 298.242188 233.429688 " fill-opacity="1" fill-rule="nonzero"/><path fill="#f57d6f" d="M 146.519531 195.222656 C 146.285156 195.175781 146.054688 195.128906 145.820312 195.082031 C 149.359375 197.914062 152.808594 200.859375 156.15625 203.914062 C 156.035156 204.621094 155.902344 205.355469 155.503906 205.953125 C 155.105469 206.554688 154.367188 206.992188 153.671875 206.8125 C 153.207031 206.691406 152.851562 206.335938 152.496094 206.015625 C 151.109375 204.773438 149.386719 203.902344 147.558594 203.523438 C 146.695312 206.21875 144.472656 208.511719 144.4375 211.339844 C 144.417969 212.960938 145.140625 214.492188 145.84375 215.957031 C 146.425781 217.164062 147.011719 218.371094 147.59375 219.582031 C 147.894531 220.210938 148.207031 220.902344 148.042969 221.578125 C 147.800781 222.59375 146.539062 223.089844 145.523438 222.851562 C 144.503906 222.609375 143.703125 221.84375 143 221.070312 C 142.269531 221.921875 140.90625 221.953125 139.90625 221.449219 C 138.902344 220.945312 138.183594 220.03125 137.496094 219.148438 C 135.882812 219.808594 133.828125 219.046875 133.035156 217.496094 C 131.984375 217.734375 131.277344 216.46875 130.953125 215.441406 C 129.914062 212.171875 128.875 208.90625 127.835938 205.632812 C 127.457031 204.441406 127.074219 203.234375 127.035156 201.988281 C 126.953125 199.660156 128.074219 197.421875 129.601562 195.660156 C 130.390625 194.757812 131.339844 193.917969 132.5 193.621094 C 133.664062 193.316406 141.378906 194.507812 146.519531 195.222656 " fill-opacity="1" fill-rule="nonzero"/></svg>