<svg xmlns="http://www.w3.org/2000/svg" xmlns:xlink="http://www.w3.org/1999/xlink" width="600" zoomAndPan="magnify" viewBox="0 0 450 449.999984" height="600" preserveAspectRatio="xMidYMid meet" version="1.0"><path fill="#b3a5a4" d="M 449.28125 223.78125 C 449.90625 347.695312 349.964844 448.65625 226.058594 449.28125 C 102.144531 449.90625 1.183594 349.964844 0.558594 226.058594 C -0.0625 102.144531 99.875 1.183594 223.78125 0.558594 C 347.695312 -0.0625 448.65625 99.875 449.28125 223.78125 " fill-opacity="1" fill-rule="nonzero"/><path fill="#dad4d4" d="M 223.21875 38.324219 C 342.308594 37.71875 440.199219 130.019531 448.191406 247.203125 C 448.949219 239.507812 449.320312 231.691406 449.28125 223.78125 C 448.65625 99.875 347.695312 -0.0625 223.78125 0.558594 C 99.875 1.183594 -0.0625 102.144531 0.558594 226.058594 C 0.585938 230.875 0.757812 235.65625 1.085938 240.402344 C 12.222656 127.433594 107.214844 38.914062 223.21875 38.324219 " fill-opacity="1" fill-rule="nonzero"/><path fill="#958786" d="M 438.585938 223.839844 C 439.183594 341.847656 344.003906 437.992188 226.003906 438.585938 C 107.996094 439.183594 11.851562 344.003906 11.257812 226.003906 C 10.65625 107.996094 105.835938 11.851562 223.839844 11.257812 C 341.847656 10.65625 437.992188 105.835938 438.585938 223.839844 " fill-opacity="1" fill-rule="nonzero"/><path fill="#827675" d="M 14.675781 263.199219 C 32.644531 163.90625 119.285156 88.363281 223.839844 87.832031 C 329.148438 87.300781 417.050781 163.042969 435.164062 263.21875 C 437.476562 250.449219 438.652344 237.285156 438.585938 223.839844 C 437.992188 105.835938 341.839844 10.65625 223.839844 11.257812 C 105.835938 11.851562 10.65625 107.996094 11.257812 226.003906 C 11.320312 238.695312 12.488281 251.125 14.675781 263.199219 " fill-opacity="1" fill-rule="nonzero"/><path fill="#6e6463" d="M 269.945312 75.867188 C 269.945312 75.640625 269.953125 75.40625 269.953125 75.175781 C 269.953125 75.101562 269.953125 75.019531 269.945312 74.941406 C 269.945312 74.644531 269.945312 74.339844 269.9375 74.042969 C 269.933594 73.996094 269.933594 73.945312 269.933594 73.894531 C 269.925781 73.648438 269.921875 73.402344 269.914062 73.152344 C 269.90625 73.0625 269.90625 72.96875 269.902344 72.875 C 269.890625 72.640625 269.882812 72.414062 269.871094 72.183594 C 269.863281 72.121094 269.863281 72.054688 269.859375 71.984375 C 269.847656 71.703125 269.828125 71.410156 269.804688 71.125 C 269.804688 71.050781 269.796875 70.984375 269.789062 70.910156 C 269.773438 70.6875 269.753906 70.464844 269.734375 70.242188 C 269.730469 70.160156 269.722656 70.074219 269.714844 69.988281 C 269.691406 69.730469 269.667969 69.464844 269.636719 69.203125 C 269.636719 69.183594 269.636719 69.167969 269.628906 69.148438 C 269.597656 68.851562 269.566406 68.566406 269.53125 68.277344 C 269.523438 68.214844 269.519531 68.160156 269.511719 68.097656 C 269.480469 67.867188 269.449219 67.644531 269.417969 67.421875 C 269.40625 67.347656 269.402344 67.273438 269.386719 67.199219 C 269.308594 66.636719 269.222656 66.085938 269.121094 65.535156 C 269.109375 65.476562 269.097656 65.417969 269.09375 65.359375 C 269.046875 65.128906 269.003906 64.90625 268.960938 64.675781 C 268.949219 64.621094 268.9375 64.566406 268.929688 64.511719 C 268.875 64.238281 268.820312 63.964844 268.757812 63.699219 C 268.75 63.675781 268.746094 63.652344 268.746094 63.632812 C 268.691406 63.378906 268.632812 63.132812 268.574219 62.882812 C 268.558594 62.828125 268.546875 62.777344 268.535156 62.722656 C 268.480469 62.476562 268.417969 62.234375 268.355469 61.992188 C 268.351562 61.96875 268.34375 61.949219 268.335938 61.933594 C 268.269531 61.660156 268.195312 61.386719 268.121094 61.121094 C 268.109375 61.085938 268.101562 61.054688 268.089844 61.023438 C 268.027344 60.789062 267.960938 60.558594 267.890625 60.324219 C 267.878906 60.28125 267.867188 60.238281 267.847656 60.1875 C 267.695312 59.664062 267.519531 59.144531 267.347656 58.628906 C 267.335938 58.605469 267.328125 58.574219 267.316406 58.542969 C 267.238281 58.308594 267.15625 58.074219 267.070312 57.84375 C 267.058594 57.8125 267.046875 57.785156 267.039062 57.757812 C 266.847656 57.238281 266.648438 56.730469 266.445312 56.230469 C 266.433594 56.207031 266.425781 56.1875 266.421875 56.167969 C 266.316406 55.929688 266.214844 55.6875 266.113281 55.445312 C 266.105469 55.441406 266.105469 55.425781 266.097656 55.421875 C 265.882812 54.921875 265.652344 54.433594 265.417969 53.945312 C 265.40625 53.917969 265.394531 53.886719 265.382812 53.863281 C 265.03125 53.140625 264.652344 52.429688 264.261719 51.738281 C 264.25 51.71875 264.246094 51.699219 264.230469 51.679688 C 263.964844 51.210938 263.695312 50.753906 263.410156 50.300781 C 263.402344 50.296875 263.402344 50.285156 263.398438 50.277344 C 263.261719 50.054688 263.117188 49.839844 262.976562 49.617188 C 262.96875 49.609375 262.96875 49.601562 262.96875 49.601562 L 262.964844 49.601562 C 253.777344 35.476562 236.15625 28.203125 214 27.609375 C 180.378906 26.695312 138.453125 51.199219 137.808594 74.984375 C 137.597656 82.789062 141.820312 90.910156 148.777344 98.335938 C 149.4375 99.042969 150.125 99.742188 150.835938 100.441406 C 151.015625 100.613281 151.195312 100.78125 151.375 100.953125 C 151.738281 101.300781 152.105469 101.644531 152.476562 101.984375 C 153.039062 102.492188 153.605469 103.003906 154.1875 103.507812 C 154.578125 103.839844 154.972656 104.175781 155.375 104.5 C 155.574219 104.667969 155.769531 104.835938 155.976562 104.996094 C 156.375 105.324219 156.785156 105.652344 157.207031 105.972656 C 157.410156 106.132812 157.621094 106.300781 157.824219 106.457031 C 158.257812 106.785156 158.683594 107.109375 159.121094 107.433594 C 141.6875 105.855469 125.871094 109.199219 118.152344 118.605469 C 117.070312 119.929688 116.136719 121.382812 115.339844 122.957031 C 115.316406 123.011719 115.285156 123.070312 115.261719 123.125 C 115.203125 123.230469 115.15625 123.328125 115.105469 123.433594 C 115.070312 123.515625 115.03125 123.589844 114.996094 123.664062 C 114.949219 123.761719 114.90625 123.859375 114.863281 123.960938 C 114.820312 124.046875 114.785156 124.125 114.746094 124.214844 C 114.703125 124.3125 114.667969 124.40625 114.625 124.503906 C 114.585938 124.589844 114.542969 124.683594 114.503906 124.777344 C 114.46875 124.867188 114.425781 124.96875 114.386719 125.066406 C 114.351562 125.152344 114.3125 125.246094 114.28125 125.332031 C 114.238281 125.4375 114.203125 125.542969 114.164062 125.648438 C 114.128906 125.726562 114.097656 125.8125 114.066406 125.902344 C 114.03125 126.007812 113.988281 126.109375 113.949219 126.222656 C 113.917969 126.308594 113.894531 126.394531 113.863281 126.480469 C 113.824219 126.59375 113.789062 126.699219 113.75 126.808594 C 113.71875 126.890625 113.695312 126.976562 113.664062 127.0625 C 113.632812 127.175781 113.597656 127.28125 113.566406 127.390625 C 113.535156 127.484375 113.503906 127.582031 113.480469 127.679688 C 113.441406 127.78125 113.417969 127.886719 113.386719 127.984375 C 113.355469 128.082031 113.332031 128.183594 113.300781 128.28125 C 113.273438 128.386719 113.246094 128.492188 113.214844 128.597656 C 113.1875 128.695312 113.164062 128.792969 113.140625 128.898438 C 113.109375 129 113.082031 129.105469 113.058594 129.207031 C 113.035156 129.308594 113.007812 129.40625 112.984375 129.503906 C 112.960938 129.617188 112.929688 129.726562 112.90625 129.84375 C 112.886719 129.933594 112.867188 130.011719 112.847656 130.097656 C 112.816406 130.230469 112.792969 130.351562 112.769531 130.476562 C 112.75 130.5625 112.730469 130.648438 112.710938 130.734375 C 112.6875 130.859375 112.664062 130.984375 112.636719 131.105469 C 112.621094 131.199219 112.601562 131.296875 112.582031 131.390625 C 112.5625 131.507812 112.539062 131.625 112.519531 131.742188 C 112.503906 131.835938 112.488281 131.921875 112.476562 132.015625 C 112.398438 132.472656 112.328125 132.929688 112.265625 133.394531 C 112.253906 133.492188 112.238281 133.597656 112.222656 133.699219 C 112.210938 133.820312 112.191406 133.945312 112.179688 134.0625 C 112.167969 134.160156 112.15625 134.265625 112.148438 134.367188 C 112.132812 134.484375 112.117188 134.605469 112.105469 134.730469 C 112.101562 134.835938 112.089844 134.941406 112.074219 135.046875 C 112.0625 135.167969 112.050781 135.300781 112.046875 135.421875 C 112.03125 135.523438 112.027344 135.613281 112.019531 135.714844 C 112.007812 135.847656 111.996094 135.992188 111.988281 136.128906 C 111.984375 136.21875 111.976562 136.308594 111.964844 136.398438 C 111.957031 136.53125 111.953125 136.664062 111.941406 136.796875 C 111.933594 136.898438 111.933594 137 111.925781 137.105469 C 111.921875 137.226562 111.914062 137.351562 111.910156 137.480469 C 111.902344 137.585938 111.898438 137.699219 111.898438 137.808594 C 111.890625 137.925781 111.882812 138.042969 111.882812 138.167969 C 111.878906 138.285156 111.878906 138.402344 111.871094 138.519531 C 111.871094 138.644531 111.867188 138.769531 111.867188 138.890625 C 111.867188 138.996094 111.859375 139.09375 111.859375 139.199219 C 111.859375 139.335938 111.859375 139.472656 111.859375 139.609375 C 111.859375 139.707031 111.859375 139.8125 111.859375 139.917969 C 111.859375 140.054688 111.859375 140.191406 111.859375 140.324219 C 111.859375 140.429688 111.859375 140.535156 111.867188 140.640625 C 111.867188 140.769531 111.867188 140.90625 111.871094 141.042969 C 111.871094 141.148438 111.878906 141.257812 111.878906 141.363281 C 111.882812 141.5 111.890625 141.628906 111.890625 141.765625 C 111.898438 141.871094 111.902344 141.976562 111.902344 142.074219 C 111.910156 142.222656 111.914062 142.367188 111.921875 142.507812 C 111.925781 142.59375 111.925781 142.6875 111.933594 142.78125 C 111.941406 142.933594 111.953125 143.089844 111.957031 143.242188 C 111.964844 143.324219 111.972656 143.40625 111.976562 143.484375 C 111.984375 143.652344 111.996094 143.8125 112.007812 143.980469 C 112.015625 144.046875 112.019531 144.121094 112.027344 144.195312 C 112.070312 144.796875 112.117188 145.394531 112.179688 146 C 112.1875 146.0625 112.191406 146.117188 112.199219 146.179688 C 112.21875 146.328125 112.230469 146.472656 112.25 146.613281 C 112.261719 146.726562 112.273438 146.835938 112.285156 146.949219 C 112.304688 147.097656 112.316406 147.238281 112.335938 147.386719 C 112.355469 147.484375 112.359375 147.589844 112.371094 147.691406 C 112.390625 147.84375 112.414062 147.992188 112.433594 148.148438 C 112.445312 148.253906 112.460938 148.355469 112.476562 148.460938 C 112.496094 148.605469 112.515625 148.746094 112.539062 148.890625 C 112.550781 149 112.570312 149.113281 112.582031 149.230469 C 112.609375 149.363281 112.625 149.507812 112.652344 149.648438 C 112.667969 149.765625 112.6875 149.878906 112.707031 149.996094 C 112.726562 150.144531 112.75 150.285156 112.773438 150.433594 C 112.792969 150.546875 112.8125 150.652344 112.832031 150.761719 C 112.855469 150.90625 112.878906 151.058594 112.90625 151.207031 C 112.921875 151.3125 112.941406 151.417969 112.960938 151.523438 C 112.992188 151.675781 113.015625 151.824219 113.046875 151.980469 C 113.066406 152.09375 113.082031 152.210938 113.109375 152.320312 C 113.132812 152.457031 113.164062 152.597656 113.1875 152.734375 C 113.214844 152.859375 113.230469 152.976562 113.257812 153.101562 C 113.289062 153.242188 113.320312 153.382812 113.347656 153.527344 C 113.367188 153.644531 113.394531 153.753906 113.417969 153.871094 C 113.449219 154.019531 113.480469 154.167969 113.511719 154.316406 C 113.535156 154.421875 113.554688 154.523438 113.578125 154.625 C 113.617188 154.789062 113.644531 154.953125 113.691406 155.117188 C 113.707031 155.214844 113.734375 155.308594 113.75 155.398438 C 113.789062 155.558594 113.824219 155.722656 113.863281 155.882812 C 113.894531 156.003906 113.917969 156.128906 113.949219 156.246094 C 113.980469 156.390625 114.015625 156.523438 114.046875 156.660156 C 114.085938 156.804688 114.117188 156.9375 114.152344 157.074219 C 114.183594 157.199219 114.214844 157.324219 114.246094 157.445312 C 114.277344 157.570312 114.308594 157.695312 114.339844 157.816406 C 114.554688 158.652344 114.785156 159.492188 115.023438 160.332031 C 115.050781 160.425781 115.082031 160.511719 115.105469 160.605469 C 115.15625 160.773438 115.203125 160.941406 115.253906 161.113281 C 115.277344 161.207031 115.308594 161.296875 115.335938 161.398438 C 115.390625 161.5625 115.4375 161.738281 115.496094 161.910156 C 115.519531 162.003906 115.550781 162.097656 115.582031 162.1875 C 115.625 162.347656 115.675781 162.503906 115.730469 162.660156 C 115.761719 162.777344 115.796875 162.894531 115.835938 163.003906 C 115.878906 163.148438 115.929688 163.28125 115.972656 163.417969 C 116.015625 163.554688 116.058594 163.683594 116.101562 163.820312 C 116.144531 163.957031 116.1875 164.085938 116.238281 164.222656 C 116.273438 164.351562 116.316406 164.476562 116.359375 164.605469 C 116.410156 164.75 116.460938 164.898438 116.507812 165.039062 C 116.550781 165.164062 116.59375 165.285156 116.632812 165.402344 C 116.683594 165.546875 116.730469 165.6875 116.78125 165.832031 C 116.832031 165.953125 116.875 166.078125 116.917969 166.203125 C 116.964844 166.355469 117.023438 166.503906 117.078125 166.652344 C 117.113281 166.769531 117.160156 166.875 117.195312 166.992188 C 117.25 167.140625 117.304688 167.289062 117.363281 167.4375 C 117.40625 167.5625 117.453125 167.691406 117.503906 167.816406 C 117.554688 167.957031 117.609375 168.097656 117.664062 168.234375 C 117.707031 168.359375 117.75 168.476562 117.800781 168.59375 C 117.855469 168.742188 117.914062 168.898438 117.972656 169.046875 C 118.019531 169.15625 118.0625 169.273438 118.105469 169.386719 C 118.167969 169.535156 118.222656 169.6875 118.285156 169.835938 C 118.328125 169.953125 118.375 170.070312 118.425781 170.1875 C 118.488281 170.335938 118.542969 170.492188 118.605469 170.640625 C 118.648438 170.753906 118.699219 170.863281 118.742188 170.96875 C 118.808594 171.128906 118.871094 171.285156 118.933594 171.4375 C 118.980469 171.554688 119.03125 171.667969 119.082031 171.785156 C 119.144531 171.933594 119.203125 172.074219 119.265625 172.222656 C 119.347656 172.410156 119.425781 172.59375 119.507812 172.785156 C 119.539062 172.859375 119.570312 172.933594 119.605469 173.015625 C 119.710938 173.261719 119.816406 173.503906 119.929688 173.75 C 120.003906 173.910156 120.070312 174.070312 120.144531 174.234375 C 120.199219 174.351562 120.25 174.472656 120.304688 174.589844 C 120.359375 174.722656 120.421875 174.851562 120.484375 174.980469 C 120.546875 175.117188 120.609375 175.246094 120.671875 175.382812 C 120.738281 175.539062 120.8125 175.699219 120.886719 175.851562 C 120.9375 175.953125 120.980469 176.050781 121.027344 176.148438 C 121.097656 176.296875 121.164062 176.441406 121.234375 176.589844 C 121.292969 176.71875 121.355469 176.847656 121.417969 176.976562 C 121.472656 177.089844 121.53125 177.207031 121.589844 177.324219 C 121.660156 177.464844 121.734375 177.613281 121.800781 177.761719 C 121.863281 177.894531 121.929688 178.023438 121.992188 178.148438 C 122.054688 178.277344 122.117188 178.398438 122.183594 178.53125 C 122.246094 178.660156 122.316406 178.789062 122.382812 178.917969 C 122.449219 179.054688 122.519531 179.199219 122.59375 179.332031 C 122.65625 179.457031 122.714844 179.585938 122.785156 179.710938 C 122.847656 179.835938 122.914062 179.964844 122.984375 180.089844 C 123.050781 180.222656 123.125 180.367188 123.199219 180.503906 C 123.261719 180.621094 123.324219 180.738281 123.382812 180.855469 C 123.457031 180.996094 123.53125 181.140625 123.605469 181.28125 C 123.675781 181.398438 123.738281 181.515625 123.796875 181.632812 C 123.871094 181.769531 123.945312 181.90625 124.019531 182.042969 C 124.089844 182.171875 124.164062 182.300781 124.230469 182.429688 C 124.304688 182.554688 124.375 182.683594 124.441406 182.808594 C 124.515625 182.9375 124.589844 183.070312 124.664062 183.199219 C 124.730469 183.320312 124.800781 183.453125 124.875 183.574219 C 124.949219 183.707031 125.023438 183.835938 125.097656 183.972656 C 125.171875 184.09375 125.238281 184.21875 125.3125 184.34375 C 125.386719 184.472656 125.460938 184.601562 125.535156 184.730469 C 125.609375 184.855469 125.679688 184.980469 125.753906 185.101562 C 125.828125 185.234375 125.90625 185.363281 125.980469 185.492188 C 126.054688 185.617188 126.128906 185.738281 126.203125 185.863281 C 126.277344 185.980469 126.351562 186.105469 126.425781 186.226562 C 126.5 186.359375 126.582031 186.488281 126.660156 186.617188 C 126.808594 186.863281 126.964844 187.113281 127.117188 187.359375 C 127.1875 187.46875 127.253906 187.574219 127.324219 187.6875 C 127.402344 187.816406 127.484375 187.945312 127.5625 188.078125 C 127.65625 188.226562 127.753906 188.375 127.847656 188.527344 C 127.917969 188.625 127.976562 188.726562 128.046875 188.824219 C 128.125 188.953125 128.207031 189.085938 128.292969 189.214844 C 128.367188 189.332031 128.449219 189.449219 128.523438 189.566406 C 128.601562 189.683594 128.675781 189.800781 128.757812 189.925781 C 128.84375 190.050781 128.925781 190.179688 129.011719 190.308594 C 129.097656 190.433594 129.179688 190.554688 129.257812 190.671875 C 129.332031 190.789062 129.414062 190.902344 129.488281 191.011719 C 129.574219 191.144531 129.660156 191.273438 129.746094 191.398438 C 129.832031 191.519531 129.914062 191.644531 130 191.769531 C 130.074219 191.871094 130.140625 191.976562 130.214844 192.082031 C 130.316406 192.226562 130.414062 192.363281 130.511719 192.503906 C 130.582031 192.601562 130.65625 192.703125 130.722656 192.800781 C 130.816406 192.9375 130.910156 193.066406 131.007812 193.195312 C 131.089844 193.308594 131.167969 193.425781 131.25 193.535156 C 131.335938 193.660156 131.429688 193.785156 131.515625 193.90625 C 131.601562 194.019531 131.683594 194.136719 131.769531 194.246094 C 131.847656 194.363281 131.933594 194.476562 132.023438 194.59375 C 132.109375 194.710938 132.195312 194.828125 132.28125 194.945312 C 132.375 195.070312 132.472656 195.191406 132.566406 195.316406 C 132.648438 195.421875 132.726562 195.535156 132.808594 195.636719 C 132.898438 195.761719 132.992188 195.878906 133.085938 196.003906 C 133.164062 196.109375 133.253906 196.21875 133.332031 196.324219 C 133.433594 196.453125 133.535156 196.585938 133.636719 196.714844 C 133.714844 196.8125 133.789062 196.910156 133.863281 197.003906 C 133.96875 197.140625 134.074219 197.269531 134.1875 197.40625 C 134.261719 197.5 134.335938 197.59375 134.410156 197.683594 C 134.496094 197.796875 134.589844 197.90625 134.675781 198.019531 C 134.773438 198.140625 134.871094 198.261719 134.972656 198.378906 C 135.039062 198.46875 135.113281 198.558594 135.1875 198.644531 C 135.292969 198.773438 135.398438 198.902344 135.503906 199.027344 C 135.6875 199.25 135.867188 199.464844 136.054688 199.683594 C 136.097656 199.730469 136.140625 199.78125 136.183594 199.835938 C 136.324219 200.003906 136.46875 200.171875 136.617188 200.332031 C 136.691406 200.417969 136.765625 200.503906 136.839844 200.589844 C 136.949219 200.722656 137.0625 200.851562 137.179688 200.980469 C 137.265625 201.078125 137.351562 201.171875 137.4375 201.269531 C 137.539062 201.382812 137.640625 201.5 137.742188 201.609375 C 137.835938 201.714844 137.925781 201.820312 138.019531 201.921875 C 138.117188 202.023438 138.21875 202.136719 138.316406 202.246094 C 138.410156 202.347656 138.507812 202.457031 138.605469 202.558594 C 138.699219 202.664062 138.796875 202.765625 138.890625 202.871094 C 138.988281 202.972656 139.082031 203.070312 139.175781 203.175781 C 139.273438 203.28125 139.375 203.386719 139.480469 203.492188 C 139.570312 203.589844 139.664062 203.6875 139.757812 203.78125 C 139.867188 203.894531 139.972656 204.003906 140.078125 204.113281 C 140.160156 204.203125 140.246094 204.28125 140.324219 204.367188 C 140.441406 204.484375 140.554688 204.605469 140.671875 204.722656 C 140.757812 204.808594 140.851562 204.902344 140.945312 204.988281 C 141.042969 205.09375 141.148438 205.195312 141.253906 205.296875 C 141.351562 205.394531 141.449219 205.488281 141.542969 205.585938 C 141.648438 205.691406 141.761719 205.789062 141.859375 205.894531 C 141.957031 205.984375 142.050781 206.074219 142.144531 206.160156 C 142.25 206.265625 142.359375 206.371094 142.464844 206.476562 C 142.5625 206.5625 142.65625 206.648438 142.75 206.742188 C 142.855469 206.84375 142.964844 206.941406 143.070312 207.039062 C 143.167969 207.132812 143.269531 207.226562 143.367188 207.316406 C 143.480469 207.410156 143.585938 207.507812 143.695312 207.609375 C 143.789062 207.695312 143.882812 207.78125 143.972656 207.863281 C 144.085938 207.96875 144.203125 208.066406 144.3125 208.164062 C 144.40625 208.25 144.503906 208.339844 144.605469 208.425781 C 144.714844 208.523438 144.828125 208.617188 144.9375 208.714844 C 145.03125 208.796875 145.125 208.875 145.222656 208.957031 C 145.359375 209.074219 145.496094 209.191406 145.628906 209.308594 C 145.699219 209.371094 145.773438 209.433594 145.839844 209.488281 C 146.058594 209.667969 146.265625 209.839844 146.476562 210.015625 C 174.214844 232.765625 206.515625 233.089844 228.125 206.742188 C 228.332031 206.488281 228.539062 206.234375 228.734375 205.984375 C 228.796875 205.910156 228.851562 205.839844 228.910156 205.765625 C 229.058594 205.582031 229.207031 205.390625 229.355469 205.203125 C 229.410156 205.128906 229.464844 205.054688 229.519531 204.980469 C 229.71875 204.726562 229.910156 204.480469 230.097656 204.226562 C 230.109375 204.203125 230.121094 204.183594 230.140625 204.171875 C 230.3125 203.929688 230.484375 203.699219 230.652344 203.460938 C 230.707031 203.390625 230.757812 203.316406 230.8125 203.242188 C 230.957031 203.046875 231.097656 202.839844 231.234375 202.644531 C 231.277344 202.582031 231.320312 202.519531 231.355469 202.464844 C 231.535156 202.203125 231.710938 201.949219 231.882812 201.699219 C 231.90625 201.65625 231.9375 201.617188 231.964844 201.574219 C 232.105469 201.359375 232.246094 201.140625 232.390625 200.929688 C 232.4375 200.851562 232.488281 200.769531 232.539062 200.695312 C 232.660156 200.503906 232.785156 200.3125 232.910156 200.113281 C 232.945312 200.046875 232.988281 199.980469 233.03125 199.910156 C 233.195312 199.65625 233.347656 199.402344 233.496094 199.148438 C 233.527344 199.105469 233.550781 199.0625 233.578125 199.015625 C 233.707031 198.804688 233.832031 198.585938 233.953125 198.371094 C 233.996094 198.304688 234.039062 198.230469 234.078125 198.15625 C 234.195312 197.949219 234.3125 197.742188 234.429688 197.53125 C 234.460938 197.480469 234.492188 197.429688 234.515625 197.375 C 234.660156 197.117188 234.800781 196.855469 234.9375 196.597656 C 234.960938 196.546875 234.988281 196.503906 235.003906 196.460938 C 235.117188 196.25 235.226562 196.035156 235.339844 195.816406 C 235.375 195.75 235.414062 195.675781 235.449219 195.601562 C 235.554688 195.386719 235.660156 195.167969 235.765625 194.957031 C 235.789062 194.910156 235.808594 194.867188 235.832031 194.816406 C 235.957031 194.5625 236.082031 194.304688 236.191406 194.042969 C 236.222656 193.988281 236.246094 193.925781 236.277344 193.863281 C 236.371094 193.667969 236.457031 193.457031 236.550781 193.25 C 236.582031 193.183594 236.613281 193.109375 236.644531 193.035156 C 236.742188 192.8125 236.839844 192.578125 236.941406 192.347656 C 236.945312 192.316406 236.960938 192.292969 236.972656 192.261719 C 237.082031 191.996094 237.1875 191.738281 237.292969 191.472656 C 237.3125 191.421875 237.335938 191.367188 237.355469 191.308594 C 237.433594 191.105469 237.515625 190.894531 237.589844 190.6875 C 237.621094 190.613281 237.644531 190.542969 237.671875 190.46875 C 237.863281 189.949219 238.042969 189.425781 238.214844 188.90625 C 238.234375 188.847656 238.25 188.792969 238.269531 188.738281 C 238.335938 188.515625 238.40625 188.292969 238.472656 188.078125 C 238.484375 188.027344 238.503906 187.976562 238.515625 187.929688 C 238.679688 187.398438 238.828125 186.863281 238.96875 186.332031 C 238.980469 186.277344 239 186.214844 239.011719 186.160156 C 239.066406 185.9375 239.125 185.722656 239.179688 185.5 C 239.191406 185.449219 239.195312 185.398438 239.210938 185.355469 C 239.339844 184.816406 239.457031 184.28125 239.5625 183.75 C 239.566406 183.691406 239.582031 183.648438 239.585938 183.59375 C 239.636719 183.371094 239.671875 183.144531 239.714844 182.914062 C 239.722656 182.871094 239.730469 182.828125 239.742188 182.785156 C 239.785156 182.511719 239.835938 182.238281 239.871094 181.96875 L 239.878906 181.941406 C 239.914062 181.691406 239.953125 181.4375 239.984375 181.183594 C 239.996094 181.128906 240 181.070312 240.007812 181.007812 C 240.039062 180.78125 240.070312 180.550781 240.09375 180.324219 C 240.101562 180.285156 240.101562 180.25 240.105469 180.21875 C 240.136719 179.941406 240.160156 179.667969 240.1875 179.394531 C 240.1875 179.382812 240.1875 179.378906 240.1875 179.378906 C 240.210938 179.113281 240.234375 178.859375 240.253906 178.605469 C 240.253906 178.546875 240.261719 178.5 240.261719 178.449219 C 240.277344 178.203125 240.296875 177.960938 240.308594 177.71875 C 240.308594 177.695312 240.308594 177.675781 240.308594 177.652344 C 240.324219 177.378906 240.335938 177.101562 240.339844 176.824219 C 240.339844 176.8125 240.339844 176.792969 240.347656 176.773438 C 240.351562 176.527344 240.359375 176.28125 240.359375 176.03125 C 240.359375 175.984375 240.359375 175.933594 240.359375 175.890625 C 240.367188 175.628906 240.367188 175.371094 240.359375 175.109375 L 240.359375 175.097656 C 240.359375 174.820312 240.347656 174.542969 240.339844 174.265625 C 240.339844 174.238281 240.339844 174.21875 240.339844 174.203125 C 240.328125 173.949219 240.324219 173.695312 240.308594 173.441406 C 240.304688 173.410156 240.304688 173.375 240.304688 173.34375 C 240.273438 172.796875 240.234375 172.25 240.1875 171.703125 C 240.1875 171.679688 240.179688 171.660156 240.179688 171.636719 C 240.15625 171.382812 240.132812 171.136719 240.101562 170.882812 C 240.101562 170.851562 240.09375 170.820312 240.09375 170.789062 C 240.03125 170.238281 239.957031 169.695312 239.878906 169.152344 C 239.871094 169.125 239.871094 169.105469 239.863281 169.082031 C 239.828125 168.828125 239.785156 168.574219 239.742188 168.320312 C 239.734375 168.296875 239.734375 168.273438 239.730469 168.246094 C 239.636719 167.699219 239.53125 167.152344 239.414062 166.601562 C 239.40625 166.585938 239.40625 166.566406 239.402344 166.542969 C 239.34375 166.28125 239.289062 166.015625 239.226562 165.757812 C 239.222656 165.742188 239.222656 165.730469 239.222656 165.726562 C 239.09375 165.175781 238.957031 164.625 238.808594 164.074219 C 238.800781 164.054688 238.796875 164.03125 238.789062 164.011719 C 238.714844 163.742188 238.640625 163.476562 238.566406 163.207031 L 238.558594 163.203125 C 238.398438 162.652344 238.234375 162.101562 238.054688 161.558594 C 238.042969 161.535156 238.035156 161.515625 238.027344 161.488281 C 237.941406 161.222656 237.847656 160.964844 237.757812 160.699219 L 237.757812 160.6875 C 237.566406 160.140625 237.359375 159.597656 237.152344 159.054688 C 237.144531 159.027344 237.136719 159.011719 237.125 158.984375 C 236.8125 158.167969 236.46875 157.359375 236.105469 156.550781 C 236.097656 156.539062 236.09375 156.523438 236.085938 156.511719 C 235.722656 155.695312 235.332031 154.894531 234.925781 154.089844 C 234.917969 154.070312 234.90625 154.050781 234.898438 154.035156 C 234.628906 153.496094 234.34375 152.957031 234.046875 152.425781 L 234.046875 152.417969 C 229.421875 143.992188 222.378906 135.917969 213.339844 128.503906 C 212.460938 127.78125 211.558594 127.074219 210.636719 126.390625 C 210.867188 126.402344 211.097656 126.40625 211.324219 126.414062 C 219.46875 126.636719 227.054688 125.726562 233.886719 123.769531 C 234.332031 123.644531 234.765625 123.515625 235.203125 123.378906 C 236.070312 123.105469 236.929688 122.820312 237.769531 122.519531 C 238.1875 122.363281 238.609375 122.210938 239.023438 122.050781 C 239.851562 121.726562 240.667969 121.386719 241.472656 121.027344 C 241.875 120.855469 242.269531 120.671875 242.664062 120.484375 C 243.457031 120.113281 244.230469 119.722656 244.992188 119.316406 C 245.367188 119.113281 245.746094 118.90625 246.121094 118.699219 C 246.308594 118.59375 246.492188 118.488281 246.671875 118.375 C 247.601562 117.839844 248.496094 117.277344 249.375 116.683594 C 250.597656 115.859375 251.78125 114.980469 252.910156 114.054688 C 254.691406 112.601562 256.34375 111.023438 257.871094 109.332031 C 258.011719 109.183594 258.148438 109.019531 258.285156 108.867188 C 258.96875 108.085938 259.625 107.285156 260.25 106.457031 C 260.503906 106.128906 260.75 105.792969 260.992188 105.453125 C 261.234375 105.113281 261.472656 104.773438 261.703125 104.425781 C 262.054688 103.90625 262.394531 103.382812 262.722656 102.84375 C 263.386719 101.769531 263.996094 100.660156 264.570312 99.523438 C 264.671875 99.332031 264.765625 99.140625 264.855469 98.949219 C 265.417969 97.800781 265.933594 96.617188 266.410156 95.402344 C 266.484375 95.203125 266.5625 94.992188 266.636719 94.789062 C 266.792969 94.378906 266.941406 93.972656 267.074219 93.550781 C 267.359375 92.722656 267.625 91.875 267.875 91.011719 C 267.992188 90.582031 268.109375 90.152344 268.21875 89.710938 C 268.332031 89.273438 268.4375 88.835938 268.542969 88.390625 C 268.640625 87.945312 268.734375 87.5 268.824219 87.046875 C 269.140625 85.464844 269.394531 83.84375 269.582031 82.175781 C 269.628906 81.707031 269.679688 81.222656 269.714844 80.742188 C 269.820312 79.535156 269.890625 78.3125 269.925781 77.0625 C 269.933594 76.757812 269.9375 76.449219 269.945312 76.152344 C 269.945312 76.054688 269.945312 75.960938 269.945312 75.867188 " fill-opacity="1" fill-rule="nonzero"/><path fill="#fbeed8" d="M 269.925781 68.609375 C 269.0625 100.542969 244.953125 118.871094 211.324219 117.960938 C 177.703125 117.054688 137.167969 90.316406 137.808594 66.53125 C 138.453125 42.746094 180.378906 18.242188 214 19.160156 C 247.625 20.0625 270.796875 36.339844 269.925781 68.609375 " fill-opacity="1" fill-rule="nonzero"/><path fill="#ffc800" d="M 243.894531 65.871094 C 243.457031 82.15625 229.898438 95.003906 213.613281 94.566406 C 197.320312 94.121094 184.476562 80.5625 184.917969 64.277344 C 185.355469 47.988281 198.914062 35.140625 215.207031 35.582031 C 231.492188 36.027344 244.335938 49.585938 243.894531 65.871094 " fill-opacity="1" fill-rule="nonzero"/><path fill="#ff9a00" d="M 237.726562 72.695312 C 237.429688 83.617188 228.339844 92.230469 217.421875 91.933594 C 206.5 91.636719 197.894531 82.546875 198.1875 71.628906 C 198.484375 60.714844 207.570312 52.101562 218.492188 52.398438 C 229.410156 52.695312 238.023438 61.785156 237.726562 72.695312 " fill-opacity="1" fill-rule="nonzero"/><path fill="#fa7500" d="M 228.882812 76.269531 C 228.734375 81.660156 224.246094 85.914062 218.855469 85.765625 C 213.464844 85.617188 209.210938 81.128906 209.351562 75.738281 C 209.5 70.347656 213.988281 66.09375 219.382812 66.242188 C 224.773438 66.390625 229.027344 70.878906 228.882812 76.269531 " fill-opacity="1" fill-rule="nonzero"/><path fill="#edd6af" d="M 211.324219 117.960938 C 244.953125 118.871094 269.0625 100.542969 269.925781 68.609375 C 270.222656 57.605469 267.726562 48.460938 262.964844 41.152344 L 262.96875 41.167969 C 270.261719 60.972656 254.871094 97.75 227.277344 102.652344 C 199.6875 107.554688 143.949219 91.191406 137.808594 66.53125 C 137.167969 90.316406 177.703125 117.054688 211.324219 117.960938 " fill-opacity="1" fill-rule="nonzero"/><path fill="#fbeed8" d="M 228.125 198.289062 C 206.515625 224.636719 174.214844 224.316406 146.476562 201.5625 C 118.734375 178.808594 102.058594 129.777344 118.152344 110.152344 C 134.253906 90.527344 185.597656 97.296875 213.339844 120.046875 C 241.078125 142.800781 249.960938 171.667969 228.125 198.289062 " fill-opacity="1" fill-rule="nonzero"/><path fill="#ffc800" d="M 208.871094 178.617188 C 197.851562 192.050781 178.023438 194.011719 164.585938 182.996094 C 151.152344 171.96875 149.191406 152.140625 160.214844 138.707031 C 171.234375 125.269531 191.0625 123.308594 204.5 134.335938 C 217.933594 145.351562 219.894531 165.179688 208.871094 178.617188 " fill-opacity="1" fill-rule="nonzero"/><path fill="#ff9a00" d="M 199.613281 179.328125 C 192.226562 188.335938 178.9375 189.648438 169.929688 182.257812 C 160.921875 174.875 159.609375 161.582031 167 152.574219 C 174.386719 143.570312 187.675781 142.253906 196.683594 149.644531 C 205.691406 157.03125 207.003906 170.324219 199.613281 179.328125 " fill-opacity="1" fill-rule="nonzero"/><path fill="#fa7500" d="M 190.421875 178.109375 C 186.773438 182.554688 180.207031 183.203125 175.761719 179.554688 C 171.316406 175.910156 170.664062 169.347656 174.3125 164.898438 C 177.960938 160.453125 184.519531 159.800781 188.972656 163.449219 C 193.417969 167.097656 194.066406 173.664062 190.421875 178.109375 " fill-opacity="1" fill-rule="nonzero"/><path fill="#edd6af" d="M 234.046875 143.96875 C 234.046875 143.96875 234.054688 143.984375 234.054688 144 C 242.289062 171.777344 209.273438 213.539062 169.699219 200.714844 C 130.128906 187.890625 107.214844 136.113281 115.816406 113.640625 C 115.816406 113.640625 115.808594 113.640625 115.796875 113.632812 C 103.921875 135.070312 120.257812 180.058594 146.476562 201.5625 C 174.214844 224.316406 206.515625 224.636719 228.125 198.289062 C 242.839844 180.355469 243.605469 161.390625 234.046875 143.96875 " fill-opacity="1" fill-rule="nonzero"/><path fill="#6e6463" d="M 148.402344 323.632812 C 146.601562 302.84375 131.476562 286.402344 112.167969 282 C 130.703125 268.152344 138.84375 243.316406 130.539062 220.445312 C 120.386719 192.460938 89.464844 178.011719 61.488281 188.167969 C 33.503906 198.320312 19.054688 229.242188 29.210938 257.21875 C 36.125 276.269531 52.65625 289.042969 71.335938 292.0625 C 60.257812 301.546875 53.753906 316.050781 55.101562 331.695312 C 57.324219 357.457031 80.015625 376.539062 105.78125 374.3125 C 131.546875 372.085938 150.625 349.394531 148.402344 323.632812 " fill-opacity="1" fill-rule="nonzero"/><path fill="#85992e" d="M 130.539062 211.992188 C 140.695312 239.96875 126.246094 270.886719 98.261719 281.042969 C 70.285156 291.203125 39.363281 276.753906 29.210938 248.769531 C 19.054688 220.789062 33.503906 189.871094 61.488281 179.71875 C 89.464844 169.558594 120.386719 184.007812 130.539062 211.992188 " fill-opacity="1" fill-rule="nonzero"/><path fill="#c9e05c" d="M 122.859375 214.78125 C 131.476562 238.515625 119.21875 264.746094 95.480469 273.363281 C 71.738281 281.984375 45.511719 269.722656 36.890625 245.984375 C 28.273438 222.242188 40.53125 196.015625 64.277344 187.398438 C 88.011719 178.777344 114.238281 191.039062 122.859375 214.78125 " fill-opacity="1" fill-rule="nonzero"/><path fill="#b8d141" d="M 109.417969 195.464844 C 109.421875 195.472656 109.421875 195.484375 109.429688 195.488281 C 115.585938 209.160156 100.53125 237.441406 84.730469 243.742188 C 68.917969 250.042969 36.890625 245.984375 34.4375 225.253906 C 34.4375 225.253906 34.429688 225.261719 34.425781 225.265625 C 33.652344 232.054688 34.398438 239.125 36.890625 245.984375 C 45.511719 269.722656 71.738281 281.984375 95.480469 273.363281 C 119.21875 264.746094 131.476562 238.515625 122.859375 214.78125 C 120.035156 206.996094 115.320312 200.449219 109.417969 195.464844 " fill-opacity="1" fill-rule="nonzero"/><path fill="#a6bf34" d="M 101.15625 221.582031 C 106.34375 232.730469 101.136719 246.140625 89.527344 251.539062 C 77.921875 256.9375 64.3125 252.269531 59.132812 241.121094 C 53.945312 229.972656 59.148438 216.5625 70.753906 211.164062 C 82.359375 205.765625 95.976562 210.429688 101.15625 221.582031 " fill-opacity="1" fill-rule="nonzero"/><path fill="#e1f779" d="M 79.164062 234.132812 C 80.023438 235.914062 79.28125 238.058594 77.5 238.917969 C 75.71875 239.777344 73.582031 239.035156 72.714844 237.253906 C 71.855469 235.476562 71.738281 230.183594 72.988281 229.582031 C 74.324219 228.933594 78.304688 232.351562 79.164062 234.132812 " fill-opacity="1" fill-rule="nonzero"/><path fill="#e1f779" d="M 66.519531 245.84375 C 64.851562 244.78125 64.363281 242.566406 65.425781 240.902344 C 66.488281 239.234375 68.703125 238.746094 70.371094 239.808594 C 72.035156 240.871094 74.917969 245.3125 74.175781 246.480469 C 73.371094 247.730469 68.1875 246.90625 66.519531 245.84375 " fill-opacity="1" fill-rule="nonzero"/><path fill="#e1f779" d="M 70.019531 220.832031 C 68.777344 219.292969 69.019531 217.042969 70.558594 215.800781 C 72.097656 214.558594 74.347656 214.800781 75.589844 216.339844 C 76.832031 217.878906 78.148438 222.996094 77.066406 223.871094 C 75.910156 224.804688 71.261719 222.375 70.019531 220.832031 " fill-opacity="1" fill-rule="nonzero"/><path fill="#e1f779" d="M 83.378906 222.652344 C 84.820312 221.304688 87.089844 221.371094 88.445312 222.8125 C 89.796875 224.253906 89.722656 226.523438 88.285156 227.875 C 86.84375 229.230469 81.828125 230.925781 80.882812 229.910156 C 79.863281 228.828125 81.941406 224.003906 83.378906 222.652344 " fill-opacity="1" fill-rule="nonzero"/><path fill="#e1f779" d="M 93.769531 235.640625 C 95.734375 235.871094 97.144531 237.644531 96.921875 239.613281 C 96.691406 241.578125 94.917969 242.988281 92.953125 242.757812 C 90.984375 242.535156 86.453125 239.804688 86.613281 238.425781 C 86.78125 236.953125 91.800781 235.417969 93.769531 235.640625 " fill-opacity="1" fill-rule="nonzero"/><path fill="#e1f779" d="M 84.746094 242.925781 C 86.714844 243.148438 88.125 244.921875 87.902344 246.890625 C 87.671875 248.855469 85.898438 250.265625 83.929688 250.035156 C 81.964844 249.8125 77.433594 247.085938 77.59375 245.707031 C 77.761719 244.230469 82.78125 242.695312 84.746094 242.925781 " fill-opacity="1" fill-rule="nonzero"/><path fill="#e1f779" d="M 60.777344 229.578125 C 60.925781 227.605469 62.636719 226.121094 64.609375 226.269531 C 66.585938 226.410156 68.066406 228.128906 67.917969 230.101562 C 67.773438 232.074219 65.226562 236.710938 63.847656 236.613281 C 62.363281 236.5 60.628906 231.550781 60.777344 229.578125 " fill-opacity="1" fill-rule="nonzero"/><path fill="#e1f779" d="M 92.679688 225.136719 C 92.828125 223.164062 94.539062 221.679688 96.511719 221.828125 C 98.484375 221.972656 99.96875 223.691406 99.820312 225.664062 C 99.671875 227.636719 97.132812 232.273438 95.753906 232.171875 C 94.269531 232.0625 92.53125 227.109375 92.679688 225.136719 " fill-opacity="1" fill-rule="nonzero"/><path fill="#e1f779" d="M 84.511719 212.074219 C 86.421875 211.570312 88.382812 212.710938 88.882812 214.625 C 89.390625 216.535156 88.246094 218.496094 86.335938 219.003906 C 84.425781 219.503906 79.207031 218.609375 78.855469 217.265625 C 78.476562 215.832031 82.59375 212.578125 84.511719 212.074219 " fill-opacity="1" fill-rule="nonzero"/><path fill="#85992e" d="M 148.402344 315.179688 C 150.625 340.945312 131.546875 363.636719 105.78125 365.859375 C 80.015625 368.085938 57.324219 349.007812 55.101562 323.242188 C 52.875 297.476562 71.953125 274.785156 97.71875 272.558594 C 123.484375 270.335938 146.175781 289.414062 148.402344 315.179688 " fill-opacity="1" fill-rule="nonzero"/><path fill="#c9e05c" d="M 141.328125 315.792969 C 143.214844 337.648438 127.027344 356.902344 105.167969 358.789062 C 83.3125 360.679688 64.058594 344.488281 62.171875 322.628906 C 60.28125 300.773438 76.472656 281.527344 98.332031 279.632812 C 120.1875 277.746094 139.441406 293.933594 141.328125 315.792969 " fill-opacity="1" fill-rule="nonzero"/><path fill="#b8d141" d="M 134.394531 296.5625 C 134.394531 296.574219 134.394531 296.582031 134.394531 296.585938 C 136.492188 309.441406 117.492188 329.789062 102.8125 331.515625 C 88.136719 333.246094 62.171875 322.628906 64.777344 304.6875 C 64.777344 304.6875 64.769531 304.6875 64.765625 304.691406 C 62.59375 310.214844 61.628906 316.3125 62.171875 322.628906 C 64.058594 344.488281 83.3125 360.679688 105.167969 358.789062 C 127.027344 356.902344 143.214844 337.648438 141.328125 315.792969 C 140.710938 308.632812 138.222656 302.070312 134.394531 296.5625 " fill-opacity="1" fill-rule="nonzero"/><path fill="#a6bf34" d="M 121.585938 316.621094 C 123.425781 327.136719 116.039062 337.222656 105.089844 339.136719 C 94.132812 341.054688 83.765625 334.074219 81.921875 323.558594 C 80.085938 313.035156 87.46875 302.949219 98.425781 301.03125 C 109.375 299.121094 119.75 306.097656 121.585938 316.621094 " fill-opacity="1" fill-rule="nonzero"/><path fill="#e1f779" d="M 100.308594 322.203125 C 100.632812 323.890625 99.523438 325.515625 97.835938 325.84375 C 96.148438 326.167969 94.515625 325.054688 94.195312 323.367188 C 93.875 321.683594 94.96875 317.214844 96.148438 316.992188 C 97.417969 316.75 99.988281 320.515625 100.308594 322.203125 " fill-opacity="1" fill-rule="nonzero"/><path fill="#e1f779" d="M 87.066406 329.183594 C 85.902344 327.917969 85.988281 325.945312 87.257812 324.789062 C 88.523438 323.625 90.492188 323.710938 91.652344 324.984375 C 92.816406 326.253906 94.230469 330.625 93.339844 331.433594 C 92.390625 332.304688 88.222656 330.453125 87.066406 329.183594 " fill-opacity="1" fill-rule="nonzero"/><path fill="#e1f779" d="M 95.628906 308.984375 C 94.929688 307.414062 95.640625 305.578125 97.210938 304.878906 C 98.78125 304.1875 100.617188 304.890625 101.316406 306.460938 C 102.011719 308.039062 101.960938 312.632812 100.859375 313.121094 C 99.679688 313.640625 96.320312 310.554688 95.628906 308.984375 " fill-opacity="1" fill-rule="nonzero"/><path fill="#e1f779" d="M 106.429688 313.515625 C 107.945312 312.707031 109.832031 313.273438 110.640625 314.789062 C 111.453125 316.304688 110.882812 318.191406 109.367188 319 C 107.851562 319.808594 103.265625 320.105469 102.695312 319.042969 C 102.089844 317.90625 104.914062 314.328125 106.429688 313.515625 " fill-opacity="1" fill-rule="nonzero"/><path fill="#e1f779" d="M 112.222656 326.753906 C 113.820312 327.382812 114.605469 329.195312 113.972656 330.792969 C 113.34375 332.386719 111.53125 333.171875 109.9375 332.542969 C 108.339844 331.910156 105.152344 328.601562 105.597656 327.476562 C 106.066406 326.277344 110.621094 326.125 112.222656 326.753906 " fill-opacity="1" fill-rule="nonzero"/><path fill="#e1f779" d="M 103.019531 330.835938 C 104.613281 331.464844 105.398438 333.269531 104.769531 334.871094 C 104.136719 336.46875 102.332031 337.253906 100.730469 336.617188 C 99.136719 335.984375 95.945312 332.675781 96.390625 331.558594 C 96.859375 330.359375 101.417969 330.203125 103.019531 330.835938 " fill-opacity="1" fill-rule="nonzero"/><path fill="#e1f779" d="M 85.910156 314.238281 C 86.472656 312.613281 88.246094 311.761719 89.867188 312.328125 C 91.492188 312.890625 92.347656 314.667969 91.785156 316.285156 C 91.214844 317.914062 88.035156 321.234375 86.898438 320.835938 C 85.679688 320.410156 85.339844 315.859375 85.910156 314.238281 " fill-opacity="1" fill-rule="nonzero"/><path fill="#e1f779" d="M 113.671875 317.691406 C 114.238281 316.070312 116.015625 315.214844 117.632812 315.777344 C 119.253906 316.347656 120.113281 318.121094 119.550781 319.742188 C 118.980469 321.363281 115.804688 324.683594 114.667969 324.285156 C 113.449219 323.859375 113.109375 319.316406 113.671875 317.691406 " fill-opacity="1" fill-rule="nonzero"/><path fill="#e1f779" d="M 109.757812 304.898438 C 111.476562 304.902344 112.859375 306.300781 112.855469 308.019531 C 112.847656 309.738281 111.453125 311.125 109.734375 311.117188 C 108.011719 311.109375 103.839844 309.183594 103.847656 307.984375 C 103.851562 306.691406 108.039062 304.886719 109.757812 304.898438 " fill-opacity="1" fill-rule="nonzero"/><path fill="#6e6463" d="M 376.070312 103.320312 C 373.664062 75.460938 349.128906 54.828125 321.277344 57.234375 C 293.421875 59.636719 272.789062 84.171875 275.195312 112.03125 C 277.597656 139.886719 302.132812 160.519531 329.988281 158.113281 C 357.847656 155.707031 378.480469 131.175781 376.070312 103.320312 " fill-opacity="1" fill-rule="nonzero"/><path fill="#85992e" d="M 376.070312 98.023438 C 378.480469 125.882812 357.847656 150.417969 329.988281 152.820312 C 302.132812 155.226562 277.597656 134.59375 275.195312 106.738281 C 272.789062 78.878906 293.421875 54.351562 321.277344 51.941406 C 349.128906 49.535156 373.664062 70.167969 376.070312 98.023438 " fill-opacity="1" fill-rule="nonzero"/><path fill="#c9e05c" d="M 368.425781 98.683594 C 370.46875 122.320312 352.964844 143.132812 329.332031 145.171875 C 305.695312 147.214844 284.882812 129.710938 282.84375 106.078125 C 280.796875 82.441406 298.300781 61.628906 321.9375 59.589844 C 345.570312 57.546875 366.386719 75.050781 368.425781 98.683594 " fill-opacity="1" fill-rule="nonzero"/><path fill="#b8d141" d="M 360.925781 77.898438 C 360.933594 77.902344 360.933594 77.910156 360.933594 77.921875 C 363.195312 91.820312 342.65625 113.820312 326.785156 115.6875 C 310.90625 117.554688 282.84375 106.078125 285.65625 86.675781 C 285.65625 86.675781 285.648438 86.675781 285.644531 86.683594 C 283.292969 92.65625 282.25 99.246094 282.84375 106.078125 C 284.882812 129.710938 305.695312 147.214844 329.332031 145.171875 C 352.964844 143.132812 370.46875 122.320312 368.425781 98.683594 C 367.753906 90.9375 365.070312 83.851562 360.925781 77.898438 " fill-opacity="1" fill-rule="nonzero"/><path fill="#a6bf34" d="M 347.082031 99.574219 C 349.074219 110.949219 341.085938 121.855469 329.238281 123.929688 C 317.398438 126 306.191406 118.457031 304.199219 107.078125 C 302.207031 95.703125 310.195312 84.796875 322.035156 82.726562 C 333.875 80.652344 345.09375 88.199219 347.082031 99.574219 " fill-opacity="1" fill-rule="nonzero"/><path fill="#e1f779" d="M 324.078125 105.613281 C 324.421875 107.4375 323.222656 109.199219 321.398438 109.554688 C 319.574219 109.898438 317.8125 108.699219 317.46875 106.875 C 317.113281 105.050781 318.296875 100.222656 319.574219 99.980469 C 320.949219 99.714844 323.722656 103.789062 324.078125 105.613281 " fill-opacity="1" fill-rule="nonzero"/><path fill="#e1f779" d="M 309.75 113.164062 C 308.5 111.792969 308.59375 109.664062 309.96875 108.410156 C 311.332031 107.152344 313.460938 107.253906 314.714844 108.621094 C 315.972656 109.992188 317.5 114.722656 316.539062 115.601562 C 315.511719 116.539062 311.007812 114.535156 309.75 113.164062 " fill-opacity="1" fill-rule="nonzero"/><path fill="#e1f779" d="M 319.011719 91.324219 C 318.257812 89.625 319.023438 87.640625 320.726562 86.886719 C 322.425781 86.132812 324.410156 86.898438 325.164062 88.597656 C 325.914062 90.300781 325.863281 95.265625 324.671875 95.796875 C 323.398438 96.359375 319.765625 93.019531 319.011719 91.324219 " fill-opacity="1" fill-rule="nonzero"/><path fill="#e1f779" d="M 330.691406 96.222656 C 332.332031 95.34375 334.363281 95.964844 335.242188 97.601562 C 336.121094 99.238281 335.507812 101.28125 333.871094 102.152344 C 332.230469 103.03125 327.273438 103.351562 326.660156 102.203125 C 326 100.972656 329.054688 97.101562 330.691406 96.222656 " fill-opacity="1" fill-rule="nonzero"/><path fill="#e1f779" d="M 336.957031 110.535156 C 338.6875 111.222656 339.535156 113.175781 338.847656 114.902344 C 338.167969 116.632812 336.214844 117.472656 334.484375 116.792969 C 332.757812 116.113281 329.308594 112.535156 329.789062 111.320312 C 330.304688 110.023438 335.230469 109.855469 336.957031 110.535156 " fill-opacity="1" fill-rule="nonzero"/><path fill="#e1f779" d="M 327 114.945312 C 328.734375 115.632812 329.578125 117.585938 328.894531 119.308594 C 328.214844 121.042969 326.257812 121.886719 324.527344 121.203125 C 322.804688 120.523438 319.351562 116.941406 319.835938 115.730469 C 320.347656 114.429688 325.277344 114.265625 327 114.945312 " fill-opacity="1" fill-rule="nonzero"/><path fill="#e1f779" d="M 308.5 97.007812 C 309.113281 95.253906 311.03125 94.324219 312.785156 94.9375 C 314.542969 95.546875 315.464844 97.464844 314.851562 99.222656 C 314.238281 100.976562 310.808594 104.5625 309.578125 104.136719 C 308.261719 103.671875 307.890625 98.757812 308.5 97.007812 " fill-opacity="1" fill-rule="nonzero"/><path fill="#e1f779" d="M 338.527344 100.734375 C 339.136719 98.988281 341.054688 98.058594 342.8125 98.671875 C 344.5625 99.285156 345.488281 101.199219 344.875 102.957031 C 344.265625 104.707031 340.828125 108.296875 339.597656 107.871094 C 338.277344 107.40625 337.914062 102.492188 338.527344 100.734375 " fill-opacity="1" fill-rule="nonzero"/><path fill="#e1f779" d="M 334.292969 86.90625 C 336.152344 86.910156 337.648438 88.417969 337.640625 90.28125 C 337.636719 92.136719 336.121094 93.636719 334.261719 93.632812 C 332.40625 93.621094 327.890625 91.542969 327.898438 90.238281 C 327.902344 88.839844 332.4375 86.894531 334.292969 86.90625 " fill-opacity="1" fill-rule="nonzero"/><path fill="#6e6463" d="M 415.46875 289.144531 C 420.648438 281.105469 424.445312 273.183594 426.324219 267.484375 C 427.460938 264.695312 428.277344 262.230469 428.730469 260.238281 L 408.34375 255.5 L 400.863281 253.765625 L 389.3125 251.085938 C 383.824219 243.894531 378.28125 236.59375 373.398438 229.507812 C 373.429688 229.453125 373.453125 229.398438 373.484375 229.339844 C 373.589844 229.136719 373.6875 228.933594 373.792969 228.730469 C 373.894531 228.527344 373.992188 228.320312 374.085938 228.117188 C 374.320312 227.605469 374.535156 227.089844 374.734375 226.578125 C 374.851562 226.269531 374.96875 225.960938 375.074219 225.652344 C 375.246094 225.136719 375.40625 224.617188 375.542969 224.105469 C 375.847656 222.96875 376.058594 221.816406 376.167969 220.667969 C 376.210938 220.253906 376.234375 219.832031 376.253906 219.410156 C 376.316406 217.519531 376.105469 215.617188 375.59375 213.691406 C 375.570312 213.585938 375.539062 213.476562 375.507812 213.371094 C 375.265625 212.519531 374.960938 211.660156 374.605469 210.792969 C 374.554688 210.6875 374.511719 210.578125 374.460938 210.472656 C 373.65625 208.640625 372.574219 206.792969 371.191406 204.925781 C 364.257812 195.59375 358.8125 189.144531 348.640625 186.550781 C 338.261719 173.3125 326.585938 169.078125 315.363281 173.367188 C 304.867188 177.378906 291.292969 187.871094 275.65625 199.304688 C 269.265625 201.828125 263.058594 204.640625 257.324219 207.683594 L 257.324219 207.6875 C 256.210938 208.277344 255.125 208.875 254.054688 209.480469 C 254.054688 209.480469 254.03125 209.496094 254.023438 209.5 C 250.382812 211.566406 246.96875 213.722656 243.878906 215.96875 C 240.011719 218.761719 236.191406 222.039062 232.605469 225.65625 C 208.023438 235.894531 177.289062 242.980469 165.464844 254.914062 C 161.546875 257.414062 158.453125 260.109375 156.519531 263.105469 C 144.152344 282.253906 155.683594 326.542969 175.773438 360.53125 C 175.785156 360.550781 175.796875 360.570312 175.808594 360.585938 C 176.074219 361.042969 176.347656 361.496094 176.621094 361.953125 C 176.636719 361.976562 176.652344 362.003906 176.667969 362.027344 C 177.199219 362.910156 177.738281 363.785156 178.28125 364.648438 C 178.324219 364.71875 178.371094 364.785156 178.414062 364.851562 C 178.667969 365.253906 178.917969 365.65625 179.179688 366.058594 C 179.222656 366.132812 179.265625 366.203125 179.308594 366.269531 C 179.574219 366.683594 179.847656 367.097656 180.113281 367.503906 C 180.3125 367.808594 180.515625 368.113281 180.710938 368.414062 C 180.761719 368.488281 180.8125 368.570312 180.859375 368.644531 C 181.007812 368.867188 181.15625 369.089844 181.304688 369.3125 C 181.375 369.417969 181.441406 369.515625 181.511719 369.621094 C 181.640625 369.8125 181.769531 370.011719 181.898438 370.203125 C 181.988281 370.335938 182.078125 370.46875 182.164062 370.601562 C 182.277344 370.765625 182.382812 370.925781 182.492188 371.09375 C 182.585938 371.226562 182.679688 371.363281 182.773438 371.5 C 182.875 371.660156 182.980469 371.816406 183.09375 371.976562 C 183.1875 372.113281 183.285156 372.261719 183.378906 372.398438 C 183.488281 372.5625 183.605469 372.730469 183.71875 372.898438 C 183.804688 373.019531 183.890625 373.152344 183.976562 373.273438 C 184.089844 373.433594 184.195312 373.597656 184.304688 373.757812 C 184.410156 373.90625 184.507812 374.054688 184.609375 374.195312 C 184.726562 374.363281 184.84375 374.53125 184.953125 374.695312 C 185.035156 374.808594 185.113281 374.925781 185.1875 375.035156 C 185.324219 375.226562 185.453125 375.414062 185.585938 375.605469 C 185.664062 375.722656 185.75 375.839844 185.832031 375.957031 C 185.925781 376.085938 186.019531 376.222656 186.109375 376.355469 C 186.246094 376.550781 186.390625 376.753906 186.53125 376.953125 C 186.710938 377.207031 186.890625 377.460938 187.070312 377.707031 C 187.082031 377.726562 187.09375 377.75 187.105469 377.769531 C 187.304688 378.046875 187.5 378.324219 187.699219 378.605469 C 187.75 378.667969 187.796875 378.734375 187.847656 378.800781 C 188.003906 379.019531 188.152344 379.234375 188.304688 379.445312 C 188.386719 379.550781 188.460938 379.660156 188.539062 379.765625 C 188.675781 379.957031 188.820312 380.148438 188.953125 380.339844 C 189.027344 380.445312 189.097656 380.539062 189.171875 380.636719 C 189.3125 380.835938 189.457031 381.027344 189.589844 381.21875 C 189.664062 381.320312 189.738281 381.417969 189.8125 381.523438 C 189.9375 381.695312 190.066406 381.867188 190.199219 382.042969 C 190.296875 382.179688 190.394531 382.3125 190.5 382.449219 C 190.613281 382.609375 190.730469 382.765625 190.847656 382.917969 C 190.933594 383.039062 191.019531 383.15625 191.105469 383.273438 C 191.222656 383.433594 191.339844 383.585938 191.464844 383.75 C 191.570312 383.898438 191.679688 384.046875 191.792969 384.1875 C 191.871094 384.292969 191.953125 384.398438 192.027344 384.503906 C 192.164062 384.683594 192.292969 384.855469 192.421875 385.027344 C 192.535156 385.175781 192.644531 385.324219 192.757812 385.46875 C 192.851562 385.597656 192.949219 385.722656 193.042969 385.84375 C 193.203125 386.046875 193.355469 386.253906 193.511719 386.457031 C 193.605469 386.574219 193.695312 386.691406 193.785156 386.816406 C 193.960938 387.042969 194.148438 387.277344 194.328125 387.515625 C 194.414062 387.632812 194.507812 387.75 194.601562 387.867188 C 194.722656 388.019531 194.847656 388.179688 194.96875 388.34375 C 195.0625 388.464844 195.164062 388.589844 195.261719 388.714844 C 195.386719 388.867188 195.507812 389.027344 195.632812 389.183594 C 195.726562 389.300781 195.816406 389.417969 195.910156 389.535156 C 196.039062 389.695312 196.164062 389.855469 196.292969 390.019531 C 196.378906 390.121094 196.460938 390.234375 196.546875 390.339844 C 196.675781 390.507812 196.808594 390.667969 196.9375 390.828125 C 197.046875 390.964844 197.160156 391.101562 197.265625 391.234375 C 197.363281 391.351562 197.460938 391.476562 197.5625 391.601562 C 197.679688 391.742188 197.796875 391.890625 197.914062 392.039062 C 198.03125 392.183594 198.148438 392.324219 198.261719 392.464844 C 198.359375 392.582031 198.453125 392.703125 198.550781 392.820312 C 198.679688 392.972656 198.804688 393.128906 198.933594 393.289062 C 199.027344 393.398438 199.121094 393.511719 199.210938 393.621094 C 199.34375 393.777344 199.472656 393.9375 199.601562 394.09375 C 199.695312 394.210938 199.792969 394.320312 199.886719 394.4375 C 200.039062 394.625 200.203125 394.808594 200.355469 394.996094 C 200.417969 395.070312 200.472656 395.136719 200.535156 395.210938 C 200.757812 395.476562 200.980469 395.738281 201.203125 396.003906 C 201.285156 396.097656 201.359375 396.183594 201.4375 396.273438 C 201.574219 396.4375 201.714844 396.601562 201.851562 396.761719 C 201.976562 396.90625 202.097656 397.046875 202.21875 397.191406 C 202.320312 397.308594 202.421875 397.425781 202.527344 397.542969 C 202.632812 397.667969 202.742188 397.789062 202.847656 397.914062 C 202.964844 398.050781 203.089844 398.191406 203.207031 398.328125 C 203.3125 398.445312 203.417969 398.5625 203.523438 398.6875 C 203.640625 398.816406 203.757812 398.953125 203.875 399.082031 C 203.984375 399.207031 204.097656 399.328125 204.203125 399.453125 C 204.320312 399.582031 204.429688 399.710938 204.542969 399.835938 C 204.660156 399.964844 204.777344 400.097656 204.886719 400.226562 C 205 400.34375 205.105469 400.46875 205.214844 400.585938 C 205.328125 400.707031 205.4375 400.832031 205.550781 400.957031 C 205.667969 401.085938 205.789062 401.222656 205.910156 401.351562 C 206.019531 401.46875 206.125 401.59375 206.234375 401.710938 C 206.351562 401.839844 206.472656 401.96875 206.59375 402.097656 C 206.695312 402.210938 206.796875 402.320312 206.902344 402.433594 C 207.035156 402.574219 207.167969 402.71875 207.300781 402.859375 C 207.390625 402.964844 207.492188 403.0625 207.582031 403.164062 C 207.78125 403.375 207.980469 403.589844 208.175781 403.792969 C 208.203125 403.824219 208.226562 403.847656 208.257812 403.878906 C 208.480469 404.121094 208.710938 404.355469 208.933594 404.589844 C 209.011719 404.675781 209.09375 404.757812 209.171875 404.84375 C 209.328125 405 209.476562 405.152344 209.628906 405.316406 C 209.71875 405.40625 209.804688 405.5 209.894531 405.585938 C 210.03125 405.730469 210.164062 405.863281 210.296875 406 C 210.398438 406.105469 210.503906 406.210938 210.605469 406.316406 C 210.738281 406.445312 210.867188 406.582031 210.996094 406.710938 C 211.101562 406.816406 211.207031 406.921875 211.304688 407.027344 C 211.429688 407.144531 211.546875 407.261719 211.664062 407.378906 C 211.777344 407.492188 211.886719 407.601562 212 407.714844 C 212.117188 407.832031 212.234375 407.949219 212.351562 408.058594 C 212.472656 408.175781 212.59375 408.300781 212.714844 408.417969 C 212.816406 408.511719 212.914062 408.609375 213.019531 408.707031 C 213.140625 408.832031 213.265625 408.957031 213.394531 409.074219 C 213.5 409.179688 213.605469 409.285156 213.71875 409.382812 C 213.839844 409.5 213.964844 409.625 214.089844 409.742188 C 214.1875 409.839844 214.292969 409.933594 214.390625 410.03125 C 214.519531 410.148438 214.644531 410.273438 214.769531 410.390625 C 214.875 410.484375 214.980469 410.582031 215.078125 410.675781 C 215.207031 410.796875 215.335938 410.917969 215.46875 411.039062 C 215.523438 411.089844 215.578125 411.144531 215.640625 411.195312 C 215.914062 411.449219 216.183594 411.703125 216.457031 411.949219 C 216.578125 412.058594 216.699219 412.171875 216.820312 412.277344 C 216.914062 412.363281 217.011719 412.449219 217.113281 412.535156 C 217.246094 412.660156 217.382812 412.785156 217.519531 412.902344 C 217.617188 412.992188 217.722656 413.082031 217.824219 413.171875 C 217.957031 413.289062 218.089844 413.40625 218.21875 413.519531 C 218.316406 413.605469 218.417969 413.691406 218.507812 413.773438 C 218.644531 413.890625 218.78125 414.007812 218.917969 414.125 C 219.015625 414.21875 219.121094 414.304688 219.21875 414.390625 C 219.351562 414.503906 219.480469 414.613281 219.609375 414.71875 C 219.714844 414.8125 219.824219 414.902344 219.929688 414.992188 C 219.992188 415.039062 220.046875 415.089844 220.105469 415.140625 C 236.945312 429.285156 254.257812 435.617188 269.53125 426.316406 C 273.167969 424.109375 276.820312 421.378906 280.503906 418.273438 C 283.480469 416.132812 286.472656 413.6875 289.484375 411.015625 C 303.433594 408.320312 315.824219 402.082031 324.628906 394.914062 C 334.410156 386.957031 342.6875 375.351562 348.171875 365.222656 C 354.476562 362.292969 360.09375 358.757812 364.75 354.972656 C 370.367188 350.398438 375.519531 344.660156 379.957031 338.664062 C 390.160156 334.007812 398.46875 329.480469 404.140625 324.167969 C 413.691406 317.746094 419.140625 310.480469 418.792969 300.304688 C 418.6875 297.09375 417.476562 293.328125 415.46875 289.144531 " fill-opacity="1" fill-rule="nonzero"/><path fill="#b76b20" d="M 180.113281 359.054688 C 206.382812 399.144531 241.417969 434.980469 269.53125 417.871094 C 297.644531 400.757812 327.230469 352.625 359.121094 339.183594 C 391.019531 325.734375 413.203125 317.003906 412.523438 296.773438 C 411.84375 276.542969 367.445312 234.28125 354.671875 204.574219 C 341.894531 174.863281 325.042969 163.734375 309.089844 169.832031 C 293.136719 175.933594 270.082031 197 243.46875 213.574219 C 216.851562 230.15625 167.65625 237.410156 156.519531 254.65625 C 143.289062 275.144531 157.414062 324.417969 180.113281 359.054688 " fill-opacity="1" fill-rule="nonzero"/><path fill="#d18233" d="M 180.113281 359.054688 C 192.113281 377.367188 205.945312 394.792969 220.105469 406.6875 L 221.042969 376.355469 L 180.238281 304.964844 L 173.316406 347.800781 C 175.476562 351.675781 177.75 355.449219 180.113281 359.054688 " fill-opacity="1" fill-rule="nonzero"/><path fill="#e0a946" d="M 186.390625 354.136719 C 212.660156 394.222656 247.691406 430.066406 275.804688 412.949219 C 303.914062 395.84375 333.5 347.707031 365.398438 334.261719 C 397.296875 320.820312 419.480469 312.082031 418.792969 291.851562 C 418.113281 271.625 373.71875 229.359375 360.945312 199.652344 C 348.171875 169.941406 331.316406 158.820312 315.363281 164.914062 C 299.40625 171.011719 276.355469 192.082031 249.738281 208.660156 C 223.128906 225.234375 173.925781 232.488281 162.792969 249.734375 C 149.5625 270.230469 163.691406 319.5 186.390625 354.136719 " fill-opacity="1" fill-rule="nonzero"/><path fill="#ffd488" d="M 191.179688 350.859375 C 216.164062 388.984375 249.484375 423.070312 276.214844 406.796875 C 302.957031 390.523438 331.089844 344.746094 361.421875 331.960938 C 391.761719 319.171875 412.859375 310.863281 412.207031 291.628906 C 411.558594 272.386719 369.335938 232.199219 357.1875 203.941406 C 345.042969 175.6875 329.011719 165.105469 313.835938 170.902344 C 298.664062 176.699219 276.738281 196.738281 251.425781 212.503906 C 226.121094 228.273438 179.328125 235.171875 168.738281 251.570312 C 156.152344 271.058594 169.589844 317.917969 191.179688 350.859375 " fill-opacity="1" fill-rule="nonzero"/><path fill="#f9c764" d="M 168.738281 251.570312 C 163.382812 259.867188 162.738281 273.128906 165.441406 288.160156 C 231.976562 236.007812 342.371094 246.5 403.789062 271.78125 C 403.789062 271.78125 403.789062 271.78125 403.792969 271.78125 C 390.6875 251.265625 366.007812 224.457031 357.1875 203.941406 C 345.042969 175.6875 329.011719 165.105469 313.835938 170.902344 C 298.664062 176.699219 276.738281 196.738281 251.425781 212.503906 C 226.121094 228.273438 179.328125 235.171875 168.738281 251.570312 " fill-opacity="1" fill-rule="nonzero"/><path fill="#e0a946" d="M 271.347656 303.394531 C 268.226562 304.261719 266.105469 306.46875 266.601562 308.324219 C 267.09375 310.175781 270.019531 310.976562 273.140625 310.109375 C 276.257812 309.238281 278.386719 307.03125 277.890625 305.175781 C 277.390625 303.320312 274.464844 302.523438 271.347656 303.394531 " fill-opacity="1" fill-rule="nonzero"/><path fill="#e0a946" d="M 289.976562 362.390625 C 288.285156 362.863281 287.121094 364.066406 287.394531 365.074219 C 287.664062 366.089844 289.261719 366.523438 290.953125 366.046875 C 292.65625 365.578125 293.8125 364.371094 293.546875 363.363281 C 293.273438 362.347656 291.679688 361.917969 289.976562 362.390625 " fill-opacity="1" fill-rule="nonzero"/><path fill="#e0a946" d="M 261.753906 393.058594 C 259.429688 393.710938 257.84375 395.355469 258.214844 396.734375 C 258.585938 398.117188 260.761719 398.710938 263.089844 398.0625 C 265.414062 397.414062 266.996094 395.769531 266.632812 394.390625 C 266.261719 393.003906 264.078125 392.410156 261.753906 393.058594 " fill-opacity="1" fill-rule="nonzero"/><path fill="#e0a946" d="M 254.507812 370.617188 C 251.371094 371.492188 249.226562 373.714844 249.726562 375.582031 C 250.226562 377.449219 253.175781 378.25 256.3125 377.375 C 259.453125 376.503906 261.59375 374.277344 261.089844 372.410156 C 260.589844 370.546875 257.648438 369.738281 254.507812 370.617188 " fill-opacity="1" fill-rule="nonzero"/><path fill="#e0a946" d="M 332.070312 315.203125 C 328.824219 316.105469 326.613281 318.40625 327.125 320.335938 C 327.644531 322.265625 330.691406 323.09375 333.9375 322.191406 C 337.183594 321.289062 339.390625 318.988281 338.878906 317.058594 C 338.367188 315.128906 335.3125 314.296875 332.070312 315.203125 " fill-opacity="1" fill-rule="nonzero"/><path fill="#e0a946" d="M 210.613281 297.371094 C 207.28125 298.300781 205.011719 300.65625 205.542969 302.632812 C 206.070312 304.617188 209.199219 305.472656 212.53125 304.539062 C 215.855469 303.609375 218.132812 301.253906 217.601562 299.277344 C 217.070312 297.292969 213.945312 296.4375 210.613281 297.371094 " fill-opacity="1" fill-rule="nonzero"/><path fill="#e0a946" d="M 285.667969 219.746094 C 282.773438 220.554688 280.800781 222.601562 281.261719 224.320312 C 281.722656 226.039062 284.4375 226.78125 287.332031 225.976562 C 290.226562 225.167969 292.199219 223.121094 291.734375 221.402344 C 291.277344 219.683594 288.554688 218.941406 285.667969 219.746094 " fill-opacity="1" fill-rule="nonzero"/><path fill="#e0a946" d="M 334.316406 189.605469 C 331.28125 190.449219 329.214844 192.601562 329.695312 194.40625 C 330.179688 196.214844 333.03125 196.992188 336.066406 196.144531 C 339.101562 195.296875 341.171875 193.148438 340.691406 191.339844 C 340.207031 189.535156 337.351562 188.757812 334.316406 189.605469 " fill-opacity="1" fill-rule="nonzero"/><path fill="#e0a946" d="M 260.613281 213.03125 C 258.316406 213.667969 256.75 215.292969 257.117188 216.660156 C 257.480469 218.027344 259.636719 218.613281 261.9375 217.972656 C 264.230469 217.335938 265.796875 215.707031 265.429688 214.34375 C 265.066406 212.976562 262.910156 212.386719 260.613281 213.03125 " fill-opacity="1" fill-rule="nonzero"/><path fill="#e0a946" d="M 304.945312 264.050781 C 301.535156 265.003906 299.207031 267.421875 299.746094 269.449219 C 300.289062 271.476562 303.5 272.355469 306.914062 271.402344 C 310.324219 270.453125 312.652344 268.035156 312.113281 266 C 311.570312 263.972656 308.359375 263.101562 304.945312 264.050781 " fill-opacity="1" fill-rule="nonzero"/><path fill="#e0a946" d="M 256.640625 265.847656 C 254.257812 266.507812 252.640625 268.195312 253.015625 269.605469 C 253.394531 271.019531 255.632812 271.632812 258.003906 270.964844 C 260.386719 270.304688 262.007812 268.621094 261.628906 267.207031 C 261.25 265.789062 259.019531 265.183594 256.640625 265.847656 " fill-opacity="1" fill-rule="nonzero"/><path fill="#e0a946" d="M 177.558594 261.4375 C 175.253906 262.082031 173.683594 263.710938 174.054688 265.078125 C 174.417969 266.453125 176.582031 267.039062 178.882812 266.394531 C 181.183594 265.757812 182.753906 264.125 182.386719 262.753906 C 182.023438 261.386719 179.859375 260.792969 177.558594 261.4375 " fill-opacity="1" fill-rule="nonzero"/><path fill="#e0a946" d="M 364.320312 277.246094 C 361.28125 278.101562 359.207031 280.253906 359.691406 282.0625 C 360.171875 283.867188 363.035156 284.648438 366.078125 283.800781 C 369.121094 282.953125 371.191406 280.796875 370.707031 278.992188 C 370.226562 277.179688 367.363281 276.398438 364.320312 277.246094 " fill-opacity="1" fill-rule="nonzero"/><path fill="#e0a946" d="M 214.921875 245.214844 C 211.335938 246.207031 208.894531 248.75 209.464844 250.882812 C 210.03125 253.015625 213.402344 253.9375 216.988281 252.9375 C 220.574219 251.933594 223.023438 249.398438 222.449219 247.261719 C 221.878906 245.132812 218.507812 244.210938 214.921875 245.214844 " fill-opacity="1" fill-rule="nonzero"/><path fill="#e0a946" d="M 190.773438 299.757812 C 189.171875 300.203125 188.082031 301.335938 188.335938 302.289062 C 188.589844 303.242188 190.09375 303.648438 191.695312 303.203125 C 193.296875 302.757812 194.390625 301.625 194.136719 300.675781 C 193.882812 299.722656 192.375 299.308594 190.773438 299.757812 " fill-opacity="1" fill-rule="nonzero"/><path fill="#e0a946" d="M 216.257812 351.898438 C 213.085938 352.785156 210.929688 355.035156 211.429688 356.921875 C 211.9375 358.804688 214.910156 359.617188 218.082031 358.730469 C 221.253906 357.847656 223.417969 355.605469 222.910156 353.71875 C 222.410156 351.832031 219.429688 351.015625 216.257812 351.898438 " fill-opacity="1" fill-rule="nonzero"/><path fill="#e0a946" d="M 297.84375 348.152344 C 294.761719 349.011719 292.660156 351.1875 293.148438 353.019531 C 293.636719 354.855469 296.53125 355.640625 299.609375 354.78125 C 302.691406 353.921875 304.785156 351.746094 304.296875 349.914062 C 303.808594 348.085938 300.921875 347.292969 297.84375 348.152344 " fill-opacity="1" fill-rule="nonzero"/><path fill="#e0a946" d="M 391.722656 294.628906 C 389.734375 295.183594 388.375 296.59375 388.6875 297.773438 C 389.003906 298.960938 390.878906 299.46875 392.867188 298.914062 C 394.859375 298.363281 396.21875 296.953125 395.902344 295.765625 C 395.589844 294.578125 393.714844 294.070312 391.722656 294.628906 " fill-opacity="1" fill-rule="nonzero"/><path fill="#e0a946" d="M 319.433594 271.238281 C 317.898438 271.664062 316.847656 272.753906 317.097656 273.667969 C 317.335938 274.574219 318.785156 274.972656 320.316406 274.546875 C 321.851562 274.113281 322.894531 273.03125 322.65625 272.117188 C 322.40625 271.199219 320.964844 270.8125 319.433594 271.238281 " fill-opacity="1" fill-rule="nonzero"/><path fill="#e0a946" d="M 321.695312 219.652344 C 319.933594 220.140625 318.734375 221.390625 319.011719 222.441406 C 319.292969 223.492188 320.949219 223.945312 322.710938 223.449219 C 324.480469 222.960938 325.679688 221.710938 325.398438 220.660156 C 325.121094 219.609375 323.464844 219.160156 321.695312 219.652344 " fill-opacity="1" fill-rule="nonzero"/><path fill="#f75a36" d="M 371.191406 196.472656 C 360.957031 182.710938 353.976562 175.214844 330.253906 177.089844 C 306.53125 178.964844 266.632812 191.019531 243.878906 207.515625 C 221.117188 224.011719 199.933594 256.984375 217.761719 278.855469 C 235.582031 300.730469 264.082031 293.8125 304.242188 271.476562 C 344.394531 249.144531 392.046875 224.539062 371.191406 196.472656 " fill-opacity="1" fill-rule="nonzero"/><path fill="#f2370c" d="M 211.207031 257.554688 C 211.207031 257.554688 211.195312 257.546875 211.195312 257.546875 C 210.679688 265.140625 212.554688 272.472656 217.761719 278.855469 C 235.582031 300.730469 264.082031 293.8125 304.242188 271.476562 C 344.394531 249.144531 392.046875 224.539062 371.191406 196.472656 C 367.976562 218.984375 254.277344 290.761719 211.207031 257.554688 " fill-opacity="1" fill-rule="nonzero"/><path fill="#ff7a5c" d="M 337.253906 176.8125 C 335.089844 176.800781 332.765625 176.890625 330.253906 177.089844 C 329.800781 177.125 329.34375 177.164062 328.882812 177.207031 C 346.59375 195.800781 357.761719 217.082031 364.285156 232.722656 C 366.894531 230.175781 369.152344 227.597656 370.988281 224.984375 C 359.871094 201.832031 347.332031 186.511719 337.253906 176.8125 " fill-opacity="1" fill-rule="nonzero"/><path fill="#ff7a5c" d="M 294.578125 184.324219 C 292.585938 184.917969 290.589844 185.535156 288.59375 186.191406 C 314.917969 206.160156 330.824219 233.324219 339.207031 251.445312 C 342.027344 249.691406 344.757812 247.921875 347.386719 246.140625 C 327.285156 206.992188 304.117188 190.03125 294.578125 184.324219 " fill-opacity="1" fill-rule="nonzero"/><path fill="#ff7a5c" d="M 312.558594 266.859375 C 315.421875 265.277344 318.289062 263.675781 321.152344 262.066406 C 292.785156 213.496094 262.097656 201.679688 262.097656 201.679688 C 262.097656 201.679688 260.164062 200.671875 257.324219 199.230469 C 255.839844 200.023438 254.382812 200.832031 252.964844 201.65625 C 253.628906 202.070312 254.308594 202.488281 255.019531 202.933594 C 284.308594 221.144531 302.707031 248.453125 312.558594 266.859375 " fill-opacity="1" fill-rule="nonzero"/><path fill="#ff7a5c" d="M 234.183594 221.324219 C 234.183594 221.324219 232.648438 220.636719 230.292969 219.609375 C 229.179688 220.816406 228.09375 222.050781 227.042969 223.3125 C 255.476562 239.34375 274.476562 263.804688 285.304688 281.214844 C 288.203125 279.867188 291.175781 278.410156 294.226562 276.84375 C 263.875 231.355469 234.183594 221.324219 234.183594 221.324219 " fill-opacity="1" fill-rule="nonzero"/><path fill="#ff7a5c" d="M 215.367188 241.695312 C 214.429688 243.808594 213.628906 245.941406 212.980469 248.074219 C 233.0625 260.878906 247.988281 277.378906 257.976562 290.855469 C 261.222656 290.183594 264.597656 289.265625 268.101562 288.121094 C 245.984375 259.371094 225.644531 246.714844 215.367188 241.695312 " fill-opacity="1" fill-rule="nonzero"/><path fill="#f75a36" d="M 364.710938 232.308594 C 364.742188 232.277344 364.777344 232.242188 364.808594 232.210938 C 364.941406 232.082031 365.0625 231.949219 365.195312 231.828125 C 365.238281 231.777344 365.285156 231.726562 365.335938 231.679688 C 365.460938 231.554688 365.582031 231.425781 365.707031 231.296875 C 365.726562 231.28125 365.738281 231.265625 365.757812 231.246094 C 366.1875 230.792969 366.617188 230.34375 367.03125 229.890625 C 367.046875 229.867188 367.066406 229.847656 367.085938 229.824219 C 367.210938 229.6875 367.332031 229.550781 367.457031 229.414062 C 367.488281 229.378906 367.523438 229.335938 367.5625 229.296875 C 367.679688 229.164062 367.796875 229.027344 367.921875 228.890625 C 367.933594 228.871094 367.945312 228.851562 367.964844 228.839844 C 368.351562 228.382812 368.734375 227.925781 369.105469 227.46875 C 369.125 227.449219 369.136719 227.429688 369.15625 227.40625 C 369.269531 227.269531 369.378906 227.132812 369.492188 226.992188 C 369.515625 226.953125 369.539062 226.925781 369.570312 226.886719 C 369.675781 226.75 369.789062 226.613281 369.890625 226.480469 C 369.910156 226.449219 369.9375 226.417969 369.953125 226.390625 C 370.3125 225.929688 370.652344 225.457031 370.980469 224.996094 L 370.988281 224.984375 C 368.304688 219.398438 365.539062 214.273438 362.746094 209.570312 C 360.851562 211.539062 358.675781 213.601562 356.257812 215.71875 C 359.480469 221.796875 362.140625 227.574219 364.285156 232.722656 C 364.425781 232.585938 364.570312 232.453125 364.710938 232.308594 " fill-opacity="1" fill-rule="nonzero"/><path fill="#f75a36" d="M 340.191406 250.832031 C 340.25 250.789062 340.320312 250.746094 340.386719 250.703125 C 340.671875 250.53125 340.945312 250.359375 341.222656 250.183594 C 341.277344 250.140625 341.339844 250.105469 341.394531 250.066406 C 341.679688 249.886719 341.964844 249.707031 342.242188 249.527344 C 342.292969 249.496094 342.339844 249.46875 342.390625 249.429688 C 343.75 248.5625 345.085938 247.6875 346.390625 246.808594 C 346.398438 246.808594 346.398438 246.800781 346.398438 246.800781 C 346.730469 246.578125 347.058594 246.363281 347.386719 246.140625 C 344.300781 240.125 341.136719 234.628906 337.964844 229.621094 C 335.519531 231.265625 332.988281 232.910156 330.378906 234.535156 C 333.945312 240.636719 336.871094 246.394531 339.207031 251.445312 C 339.535156 251.242188 339.863281 251.039062 340.191406 250.832031 " fill-opacity="1" fill-rule="nonzero"/><path fill="#f75a36" d="M 321.109375 262.085938 C 321.121094 262.082031 321.132812 262.074219 321.152344 262.066406 C 317.648438 256.0625 314.105469 250.625 310.589844 245.695312 C 307.847656 247.09375 305.0625 248.445312 302.257812 249.757812 C 306.394531 255.890625 309.804688 261.722656 312.558594 266.859375 C 313.269531 266.46875 313.984375 266.074219 314.695312 265.679688 C 314.695312 265.679688 314.710938 265.671875 314.710938 265.667969 C 316.84375 264.480469 318.980469 263.285156 321.109375 262.085938 " fill-opacity="1" fill-rule="nonzero"/><path fill="#f75a36" d="M 271.238281 261.445312 C 276.917969 268.449219 281.59375 275.25 285.304688 281.214844 C 285.996094 280.894531 286.695312 280.566406 287.398438 280.226562 C 287.46875 280.195312 287.535156 280.164062 287.605469 280.132812 C 287.914062 279.984375 288.214844 279.835938 288.519531 279.6875 C 288.554688 279.671875 288.597656 279.652344 288.636719 279.632812 C 289.339844 279.292969 290.050781 278.949219 290.761719 278.589844 C 290.835938 278.558594 290.910156 278.519531 290.984375 278.484375 C 291.25 278.355469 291.515625 278.21875 291.785156 278.082031 C 291.894531 278.027344 292.003906 277.96875 292.117188 277.914062 C 292.40625 277.765625 292.699219 277.625 292.988281 277.476562 C 293.03125 277.449219 293.074219 277.433594 293.117188 277.40625 C 293.484375 277.222656 293.855469 277.035156 294.21875 276.84375 C 294.21875 276.84375 294.226562 276.84375 294.226562 276.84375 C 289.632812 269.953125 285.050781 263.878906 280.578125 258.523438 C 277.457031 259.59375 274.335938 260.570312 271.238281 261.445312 " fill-opacity="1" fill-rule="nonzero"/><path fill="#f75a36" d="M 248.359375 265.839844 C 244.082031 266.214844 239.925781 266.296875 235.957031 266.023438 C 244.933594 274.453125 252.261719 283.144531 257.976562 290.855469 L 257.980469 290.847656 C 258.160156 290.8125 258.347656 290.777344 258.53125 290.730469 C 258.5625 290.730469 258.585938 290.726562 258.613281 290.71875 C 258.796875 290.675781 258.984375 290.640625 259.160156 290.597656 C 259.1875 290.589844 259.210938 290.589844 259.234375 290.582031 C 260.652344 290.261719 262.097656 289.902344 263.5625 289.496094 C 263.570312 289.496094 263.578125 289.488281 263.582031 289.488281 C 265.066406 289.074219 266.574219 288.625 268.101562 288.121094 C 261.269531 279.238281 254.613281 271.898438 248.359375 265.839844 " fill-opacity="1" fill-rule="nonzero"/><path fill="#f75a36" d="M 326.867188 268.304688 C 324.777344 249.832031 322.449219 239.257812 301.8125 232.550781 C 281.171875 225.847656 242.308594 224.09375 215.640625 233.378906 C 188.972656 242.664062 155.925781 270.160156 160.554688 300.085938 C 165.179688 330.019531 192.164062 333.078125 236.050781 323.941406 C 279.9375 314.796875 331.132812 305.96875 326.867188 268.304688 " fill-opacity="1" fill-rule="nonzero"/><path fill="#f2370c" d="M 165.050781 274.902344 L 165.039062 274.886719 C 161.0625 282.816406 159.203125 291.351562 160.554688 300.085938 C 165.179688 330.019531 192.164062 333.078125 236.050781 323.941406 C 279.9375 314.796875 331.132812 305.96875 326.867188 268.304688 C 313.671875 291.195312 185.410156 326.222656 165.050781 274.902344 " fill-opacity="1" fill-rule="nonzero"/><path fill="#ff7a5c" d="M 307.777344 234.820312 C 305.980469 234.015625 304 233.261719 301.8125 232.550781 C 301.421875 232.425781 301.019531 232.296875 300.613281 232.171875 C 306.691406 258.550781 306.054688 285.410156 304.179688 304.539062 C 307.542969 302.769531 310.628906 300.839844 313.375 298.71875 C 314.925781 269.882812 311.644531 248.890625 307.777344 234.820312 " fill-opacity="1" fill-rule="nonzero"/><path fill="#ff7a5c" d="M 268.714844 227.191406 C 266.78125 227.089844 264.824219 227.027344 262.851562 226.992188 C 275.460938 258.011719 276.015625 292.890625 274.539062 315.351562 C 277.703125 314.511719 280.816406 313.621094 283.832031 312.675781 C 285.378906 263.441406 274 236.796875 268.714844 227.191406 " fill-opacity="1" fill-rule="nonzero"/><path fill="#ff7a5c" d="M 245.140625 322.054688 C 248.261719 321.410156 251.402344 320.757812 254.539062 320.078125 C 253.589844 257.734375 233.550781 233.832031 233.550781 233.832031 C 233.550781 233.832031 232.410156 232.039062 230.714844 229.464844 C 229.105469 229.761719 227.519531 230.089844 225.953125 230.449219 C 226.3125 231.132812 226.683594 231.839844 227.066406 232.570312 C 242.957031 262.796875 245.527344 298.757812 245.140625 322.054688 " fill-opacity="1" fill-rule="nonzero"/><path fill="#ff7a5c" d="M 201.117188 244.589844 C 201.117188 244.589844 200.15625 243.296875 198.679688 241.335938 C 197.183594 242.214844 195.699219 243.136719 194.234375 244.101562 C 210.433594 271.675781 214.84375 304.804688 215.71875 327.402344 C 218.769531 327.027344 221.929688 326.554688 225.207031 326 C 221.160156 266.214844 201.117188 244.589844 201.117188 244.589844 " fill-opacity="1" fill-rule="nonzero"/><path fill="#ff7a5c" d="M 175.921875 259.464844 C 174.152344 261.386719 172.488281 263.371094 170.957031 265.417969 C 181.703125 286.476562 186.433594 309.601562 188.453125 327.675781 C 191.472656 328.152344 194.710938 328.410156 198.167969 328.472656 C 193.175781 289.605469 182.140625 268.609375 175.921875 259.464844 " fill-opacity="1" fill-rule="nonzero"/><path fill="#f75a36" d="M 304.722656 304.25 C 304.765625 304.222656 304.8125 304.199219 304.859375 304.175781 C 305.019531 304.085938 305.1875 304 305.355469 303.90625 C 305.417969 303.871094 305.476562 303.839844 305.539062 303.804688 C 305.699219 303.714844 305.867188 303.625 306.027344 303.53125 C 306.054688 303.519531 306.070312 303.507812 306.089844 303.492188 C 306.664062 303.171875 307.234375 302.84375 307.785156 302.511719 C 307.816406 302.5 307.839844 302.480469 307.863281 302.460938 C 308.03125 302.363281 308.199219 302.261719 308.367188 302.164062 C 308.410156 302.132812 308.457031 302.101562 308.507812 302.070312 C 308.667969 301.972656 308.835938 301.867188 308.996094 301.769531 C 309.015625 301.757812 309.035156 301.742188 309.058594 301.730469 C 309.597656 301.386719 310.128906 301.039062 310.648438 300.6875 C 310.671875 300.675781 310.695312 300.65625 310.722656 300.636719 C 310.875 300.53125 311.035156 300.425781 311.191406 300.316406 C 311.230469 300.289062 311.273438 300.261719 311.308594 300.234375 C 311.464844 300.128906 311.613281 300.019531 311.765625 299.914062 C 311.796875 299.890625 311.828125 299.863281 311.859375 299.847656 C 312.371094 299.476562 312.878906 299.105469 313.367188 298.726562 L 313.375 298.71875 C 313.75 291.765625 313.84375 285.265625 313.714844 279.207031 C 311.214844 280.621094 308.441406 282.027344 305.433594 283.40625 C 305.28125 291.089844 304.796875 298.230469 304.179688 304.539062 C 304.359375 304.441406 304.542969 304.347656 304.722656 304.25 " fill-opacity="1" fill-rule="nonzero"/><path fill="#f75a36" d="M 275.640625 315.054688 C 275.71875 315.039062 275.792969 315.011719 275.867188 314.992188 C 276.183594 314.90625 276.5 314.828125 276.808594 314.734375 C 276.875 314.722656 276.9375 314.703125 277.007812 314.683594 C 277.328125 314.59375 277.648438 314.503906 277.964844 314.414062 C 278.019531 314.402344 278.074219 314.382812 278.132812 314.371094 C 279.671875 313.9375 281.191406 313.484375 282.695312 313.027344 C 282.695312 313.027344 282.699219 313.027344 282.699219 313.027344 C 283.078125 312.910156 283.453125 312.792969 283.832031 312.675781 C 284.074219 305.109375 284 298.078125 283.695312 291.554688 C 280.894531 292.421875 278.019531 293.242188 275.082031 294.019531 C 275.207031 301.863281 274.953125 309.089844 274.539062 315.351562 C 274.910156 315.253906 275.273438 315.15625 275.640625 315.054688 " fill-opacity="1" fill-rule="nonzero"/><path fill="#f75a36" d="M 254.492188 320.089844 C 254.507812 320.082031 254.519531 320.082031 254.539062 320.078125 C 254.417969 312.378906 254.011719 305.257812 253.386719 298.703125 C 250.449219 299.191406 247.496094 299.617188 244.546875 299.980469 C 245.125 308.058594 245.246094 315.550781 245.140625 322.054688 C 245.910156 321.894531 246.691406 321.734375 247.46875 321.574219 C 247.46875 321.574219 247.480469 321.574219 247.488281 321.566406 C 249.820312 321.085938 252.15625 320.589844 254.492188 320.089844 " fill-opacity="1" fill-rule="nonzero"/><path fill="#f75a36" d="M 213.242188 301.09375 C 214.707031 310.671875 215.417969 319.65625 215.71875 327.402344 C 216.449219 327.308594 217.1875 327.21875 217.933594 327.113281 C 218.003906 327.105469 218.078125 327.09375 218.152344 327.085938 C 218.472656 327.042969 218.792969 326.996094 219.113281 326.953125 C 219.160156 326.945312 219.203125 326.941406 219.238281 326.933594 C 219.988281 326.828125 220.742188 326.71875 221.5 326.597656 C 221.574219 326.585938 221.65625 326.574219 221.730469 326.5625 C 222.015625 326.519531 222.300781 326.476562 222.589844 326.433594 C 222.707031 326.40625 222.824219 326.390625 222.949219 326.371094 C 223.25 326.320312 223.566406 326.273438 223.875 326.222656 C 223.917969 326.214844 223.960938 326.203125 224.011719 326.199219 C 224.402344 326.136719 224.796875 326.066406 225.191406 326 L 225.207031 326 C 224.59375 316.949219 223.609375 308.769531 222.390625 301.402344 C 219.289062 301.402344 216.234375 301.304688 213.242188 301.09375 " fill-opacity="1" fill-rule="nonzero"/><path fill="#f75a36" d="M 192.132812 297.398438 C 188.386719 296.230469 184.890625 294.789062 181.707031 293.042969 C 185.257812 305.355469 187.296875 317.34375 188.453125 327.675781 L 188.460938 327.675781 C 188.625 327.707031 188.800781 327.730469 188.972656 327.753906 C 188.996094 327.761719 189.023438 327.761719 189.054688 327.769531 C 189.21875 327.792969 189.394531 327.816406 189.5625 327.84375 C 189.585938 327.84375 189.609375 327.847656 189.628906 327.847656 C 190.964844 328.027344 192.332031 328.167969 193.746094 328.273438 C 193.746094 328.273438 193.757812 328.273438 193.765625 328.273438 C 195.191406 328.378906 196.660156 328.441406 198.167969 328.472656 C 196.628906 316.464844 194.507812 306.171875 192.132812 297.398438 " fill-opacity="1" fill-rule="nonzero"/><path fill="#598f1f" d="M 316.65625 250.085938 C 326.628906 244.296875 324.558594 218.503906 331.785156 224.109375 C 339.007812 229.726562 327.019531 241.015625 331.144531 243.511719 C 335.175781 245.949219 342.5625 241.273438 344.121094 231.902344 C 345.09375 226.09375 344.875 216.789062 347.347656 212.121094 C 348.863281 209.257812 352.777344 203.910156 356.417969 208.121094 C 359.511719 211.695312 354.769531 216.691406 355.261719 218.59375 C 355.925781 221.15625 357.867188 219.386719 359.195312 222.835938 C 361.09375 227.777344 341.734375 243.277344 353.191406 238.546875 C 358.089844 236.53125 361.03125 229.644531 365.519531 223.300781 C 368.867188 218.570312 375.625 208.320312 379.59375 212.246094 C 382.363281 214.984375 375.871094 227.109375 379.5625 227.382812 C 382.011719 227.566406 391.5 211.4375 396.164062 212.277344 C 415.609375 215.789062 425.058594 228.316406 425.546875 238.929688 C 426.089844 250.753906 407.316406 261.710938 396.480469 251.277344 C 389.367188 244.429688 380.953125 238.28125 379.171875 242.078125 C 376.8125 247.113281 390.296875 252.101562 388.242188 257.207031 C 386.625 261.234375 376.8125 258.914062 372.496094 256.292969 C 367.40625 253.203125 364.785156 249.566406 358.15625 246.976562 C 352.417969 244.730469 343.714844 246.640625 344.519531 249.765625 C 345.402344 253.238281 352.625 248.378906 353.773438 254.246094 C 354.347656 257.132812 352.882812 258.839844 354.070312 260.546875 C 357.285156 265.152344 354.550781 267.472656 347.90625 264.472656 C 339.21875 260.554688 340.160156 251.230469 332.738281 251.773438 C 325.324219 252.324219 318.300781 254.019531 314.59375 254.042969 C 310.886719 254.066406 313.175781 252.105469 316.65625 250.085938 " fill-opacity="1" fill-rule="nonzero"/><path fill="#356207" d="M 421.796875 238.023438 C 421.796875 238.023438 391.871094 227.765625 373.1875 234.269531 C 356.804688 239.96875 344.976562 242.886719 338.972656 244.875 C 332.972656 246.863281 317.015625 249.660156 313.015625 252.730469 C 312.367188 253.523438 312.664062 254.054688 314.59375 254.042969 C 315.214844 254.035156 315.925781 253.988281 316.71875 253.898438 C 322.574219 252.078125 336.375 247.792969 345.847656 244.929688 C 358.15625 241.207031 375.289062 234.585938 379.582031 234.035156 C 398.125 231.660156 421.796875 238.023438 421.796875 238.023438 " fill-opacity="1" fill-rule="nonzero"/><path fill="#73b330" d="M 421.1875 231.914062 C 421.316406 230.183594 416.105469 223.949219 411.917969 221.125 C 405.285156 216.652344 398.519531 213.699219 395.605469 218.566406 C 392.386719 223.957031 397.4375 225.707031 403.566406 226.683594 C 406.261719 227.109375 410.578125 227.988281 413.019531 228.761719 C 419.039062 230.664062 421.105469 232.984375 421.1875 231.914062 " fill-opacity="1" fill-rule="nonzero"/><path fill="#73b330" d="M 376.347656 222.671875 C 378.417969 217.964844 376.472656 212.914062 373.207031 219.4375 C 369.941406 225.953125 374.164062 227.621094 376.347656 222.671875 " fill-opacity="1" fill-rule="nonzero"/><path fill="#73b330" d="M 381.449219 251.007812 C 375.054688 243.4375 370.21875 243.0625 371.921875 247.128906 C 373.613281 251.203125 387.839844 258.582031 381.449219 251.007812 " fill-opacity="1" fill-rule="nonzero"/><path fill="#73b330" d="M 354.746094 209.617188 C 353.679688 209.296875 351.257812 212.765625 353.011719 215.511719 C 354.773438 218.25 357.15625 210.355469 354.746094 209.617188 " fill-opacity="1" fill-rule="nonzero"/><path fill="#73b330" d="M 351.078125 257.257812 C 350.402344 257.375 349.71875 256.558594 349.542969 255.441406 C 349.378906 254.320312 349.785156 253.320312 350.460938 253.203125 C 351.132812 253.085938 351.820312 253.898438 351.992188 255.019531 C 352.164062 256.136719 351.75 257.144531 351.078125 257.257812 " fill-opacity="1" fill-rule="nonzero"/><path fill="#85992e" d="M 369.695312 242.417969 C 369.695312 242.417969 355.84375 257.679688 338.570312 255.859375 C 321.292969 254.035156 311.730469 227.640625 311.730469 227.640625 L 258.449219 215.925781 C 258.449219 215.925781 254.554688 264.355469 290.980469 299.445312 C 327.402344 334.527344 373.0625 321.957031 395.78125 303.480469 C 412.417969 289.945312 424.878906 266.242188 427.238281 255.78125 L 369.695312 242.417969 " fill-opacity="1" fill-rule="nonzero"/><path fill="#a6bf34" d="M 371.179688 238.425781 C 371.179688 238.425781 357.328125 253.683594 340.054688 251.859375 C 322.785156 250.035156 313.109375 227.925781 313.109375 227.925781 L 262.847656 216.871094 C 262.847656 216.871094 258.679688 260.8125 295.101562 295.902344 C 331.527344 330.988281 374.554688 317.960938 397.265625 299.488281 C 413.902344 285.953125 426.359375 262.246094 428.730469 251.785156 L 371.179688 238.425781 " fill-opacity="1" fill-rule="nonzero"/><path fill="#b8d141" d="M 323.148438 288.042969 C 356.140625 302.726562 396.125 274.390625 408.34375 247.050781 L 371.179688 238.425781 C 371.179688 238.425781 357.328125 253.683594 340.054688 251.859375 C 322.785156 250.035156 313.109375 227.925781 313.109375 227.925781 L 278.464844 220.308594 C 281.488281 241.496094 296.554688 276.207031 323.148438 288.042969 " fill-opacity="1" fill-rule="nonzero"/><path fill="#c9e05c" d="M 400.863281 245.320312 L 371.179688 238.425781 C 371.179688 238.425781 357.328125 253.683594 340.054688 251.859375 C 322.785156 250.035156 313.109375 227.925781 313.109375 227.925781 L 293.679688 223.652344 C 300.660156 240.929688 313.035156 259.148438 330.644531 266.988281 C 355.144531 277.894531 383.644531 264.21875 400.863281 245.320312 " fill-opacity="1" fill-rule="nonzero"/><path fill="#a3bd2d" d="M 340.054688 251.859375 C 322.785156 250.035156 313.109375 227.925781 313.109375 227.925781 C 316.089844 239.988281 327.503906 258.851562 343.792969 259.308594 C 358.804688 259.726562 374.589844 244.953125 379.691406 240.398438 L 371.179688 238.425781 C 371.179688 238.425781 357.328125 253.683594 340.054688 251.859375 " fill-opacity="1" fill-rule="nonzero"/><path fill="#85992e" d="M 338.664062 285.457031 C 338.664062 285.457031 324.8125 300.71875 307.539062 298.894531 C 290.261719 297.074219 280.695312 270.679688 280.695312 270.679688 L 227.417969 258.964844 C 227.417969 258.964844 223.523438 307.394531 259.945312 342.484375 C 296.371094 377.566406 342.03125 364.996094 364.75 346.519531 C 381.386719 332.988281 393.84375 309.28125 396.207031 298.820312 L 338.664062 285.457031 " fill-opacity="1" fill-rule="nonzero"/><path fill="#a6bf34" d="M 340.144531 281.464844 C 340.144531 281.464844 326.296875 296.722656 309.019531 294.898438 C 291.746094 293.074219 282.070312 270.960938 282.070312 270.960938 L 231.816406 259.910156 C 231.816406 259.910156 227.648438 303.851562 264.070312 338.941406 C 300.488281 374.023438 343.515625 361 366.230469 342.527344 C 382.871094 328.992188 395.328125 305.285156 397.691406 294.824219 L 340.144531 281.464844 " fill-opacity="1" fill-rule="nonzero"/><path fill="#b8d141" d="M 292.117188 331.082031 C 325.109375 345.765625 365.09375 317.429688 377.3125 290.089844 L 340.144531 281.464844 C 340.144531 281.464844 326.296875 296.722656 309.019531 294.898438 C 291.746094 293.074219 282.070312 270.960938 282.070312 270.960938 L 247.433594 263.347656 C 250.457031 284.535156 265.523438 319.242188 292.117188 331.082031 " fill-opacity="1" fill-rule="nonzero"/><path fill="#c9e05c" d="M 369.832031 288.351562 L 340.144531 281.464844 C 340.144531 281.464844 326.296875 296.722656 309.019531 294.898438 C 291.746094 293.074219 282.070312 270.960938 282.070312 270.960938 L 262.648438 266.691406 C 269.625 283.96875 282 302.1875 299.609375 310.027344 C 324.109375 320.929688 352.609375 307.257812 369.832031 288.351562 " fill-opacity="1" fill-rule="nonzero"/><path fill="#a3bd2d" d="M 309.019531 294.898438 C 291.746094 293.074219 282.070312 270.960938 282.070312 270.960938 C 285.054688 283.027344 296.46875 301.890625 312.753906 302.34375 C 327.773438 302.765625 343.558594 287.988281 348.660156 283.4375 L 340.144531 281.464844 C 340.144531 281.464844 326.296875 296.722656 309.019531 294.898438 " fill-opacity="1" fill-rule="nonzero"/><path fill="#85992e" d="M 299.503906 327.667969 C 299.503906 327.667969 286.175781 342.367188 269.542969 340.609375 C 252.910156 338.855469 243.699219 313.441406 243.699219 313.441406 L 192.398438 302.164062 C 192.398438 302.164062 188.652344 348.796875 223.714844 382.574219 C 258.785156 416.355469 302.757812 404.25 324.628906 386.460938 C 340.648438 373.433594 352.640625 350.609375 354.917969 340.535156 L 299.503906 327.667969 " fill-opacity="1" fill-rule="nonzero"/><path fill="#a6bf34" d="M 300.941406 323.824219 C 300.941406 323.824219 287.605469 338.515625 270.972656 336.757812 C 254.339844 335.007812 245.023438 313.714844 245.023438 313.714844 L 196.632812 303.074219 C 196.632812 303.074219 192.621094 345.382812 227.691406 379.167969 C 262.761719 412.945312 304.1875 400.40625 326.054688 382.617188 C 342.074219 369.582031 354.070312 346.761719 356.34375 336.691406 L 300.941406 323.824219 " fill-opacity="1" fill-rule="nonzero"/><path fill="#b8d141" d="M 254.691406 371.597656 C 286.460938 385.738281 324.960938 358.453125 336.722656 332.132812 L 300.941406 323.824219 C 300.941406 323.824219 287.605469 338.515625 270.972656 336.757812 C 254.339844 335.007812 245.023438 313.714844 245.023438 313.714844 L 211.671875 306.382812 C 214.582031 326.785156 229.089844 360.203125 254.691406 371.597656 " fill-opacity="1" fill-rule="nonzero"/><path fill="#c9e05c" d="M 329.519531 330.457031 L 300.941406 323.824219 C 300.941406 323.824219 287.605469 338.515625 270.972656 336.757812 C 254.339844 335.007812 245.023438 313.714844 245.023438 313.714844 L 226.316406 309.597656 C 233.039062 326.234375 244.953125 343.78125 261.90625 351.324219 C 285.5 361.824219 312.941406 348.660156 329.519531 330.457031 " fill-opacity="1" fill-rule="nonzero"/><path fill="#a3bd2d" d="M 270.972656 336.757812 C 254.339844 335.007812 245.023438 313.714844 245.023438 313.714844 C 247.898438 325.332031 258.882812 343.496094 274.570312 343.929688 C 289.027344 344.332031 304.222656 330.105469 309.140625 325.726562 L 300.941406 323.824219 C 300.941406 323.824219 287.605469 338.515625 270.972656 336.757812 " fill-opacity="1" fill-rule="nonzero"/></svg>